# meshkit verification model 'calib_card'
mtllib calib_card.mtl
o plate
v -2.000000 0.000000 -2.000000
v 2.000000 0.000000 -2.000000
v 2.000000 0.200000 -2.000000
v -2.000000 0.200000 -2.000000
v -2.000000 0.000000 2.000000
v 2.000000 0.000000 2.000000
v 2.000000 0.200000 2.000000
v -2.000000 0.200000 2.000000
vn 0.0000 -1.0000 0.0000
vn 1.0000 0.0000 0.0000
vn 0.0000 1.0000 0.0000
vn -1.0000 0.0000 0.0000
vn 0.0000 0.0000 -1.0000
vn 0.0000 0.0000 1.0000
vt 0.018659 0.518659
vt 0.481341 0.518659
vt 0.481341 0.981341
vt 0.018659 0.981341
vt 0.491315 0.459717
vt 0.491315 0.481689
vt 0.953997 0.481689
vt 0.953997 0.459717
vt 0.518659 0.518659
vt 0.981341 0.518659
vt 0.981341 0.981341
vt 0.518659 0.981341
vt 0.018659 0.341064
vt 0.481341 0.341064
vt 0.481341 0.319092
vt 0.018659 0.319092
usemtl material
s 0
f 1/1/1 2/2/1 6/3/1 5/4/1
f 2/5/2 3/6/2 7/7/2 6/8/2
f 3/9/3 4/10/3 8/11/3 7/12/3
f 4/6/4 1/5/4 5/8/4 8/7/4
f 4/13/5 3/14/5 2/15/5 1/16/5
f 5/16/6 6/15/6 7/14/6 8/13/6
o axis_x
v 0.000000 0.369134 -0.046194
v 0.000000 0.396194 -0.019134
v 0.000000 0.396194 0.019134
v 0.000000 0.369134 0.046194
v 0.000000 0.330866 0.046194
v 0.000000 0.303806 0.019134
v 0.000000 0.303806 -0.019134
v 0.000000 0.330866 -0.046194
v 2.050000 0.369134 -0.046194
v 2.050000 0.396194 -0.019134
v 2.050000 0.396194 0.019134
v 2.050000 0.369134 0.046194
v 2.050000 0.330866 0.046194
v 2.050000 0.303806 0.019134
v 2.050000 0.303806 -0.019134
v 2.050000 0.330866 -0.046194
v 2.050000 0.395922 -0.110866
v 2.050000 0.460866 -0.045922
v 2.050000 0.460866 0.045922
v 2.050000 0.395922 0.110866
v 2.050000 0.304078 0.110866
v 2.050000 0.239134 0.045922
v 2.050000 0.239134 -0.045922
v 2.050000 0.304078 -0.110866
v 2.300000 0.350000 0.000000
vn 0.0000 0.7071 -0.7071
vn 0.0000 1.0000 0.0000
vn 0.0000 0.7071 0.7071
vn 0.0000 0.0000 1.0000
vn 0.0000 -0.7071 0.7071
vn 0.0000 -1.0000 0.0000
vn 0.0000 -0.7071 -0.7071
vn 0.0000 -0.0000 -1.0000
vn -1.0000 0.0000 0.0000
vn 1.0000 0.0000 0.0000
vn 0.4054 0.6464 -0.6464
vn 0.4054 0.9141 0.0000
vn 0.4054 0.6464 0.6464
vn 0.4054 0.0000 0.9141
vn 0.4054 -0.6464 0.6464
vn 0.4054 -0.9141 0.0000
vn 0.4054 -0.6464 -0.6464
vn 0.4054 0.0000 -0.9141
vt 0.527344 0.332031
usemtl material
s 0
f 9/17/7 10/17/7 18/17/7 17/17/7
f 10/17/8 11/17/8 19/17/8 18/17/8
f 11/17/9 12/17/9 20/17/9 19/17/9
f 12/17/10 13/17/10 21/17/10 20/17/10
f 13/17/11 14/17/11 22/17/11 21/17/11
f 14/17/12 15/17/12 23/17/12 22/17/12
f 15/17/13 16/17/13 24/17/13 23/17/13
f 16/17/14 9/17/14 17/17/14 24/17/14
f 16/17/15 15/17/15 14/17/15 13/17/15 12/17/15 11/17/15 10/17/15 9/17/15
f 17/17/16 18/17/16 19/17/16 20/17/16 21/17/16 22/17/16 23/17/16 24/17/16
f 25/17/17 26/17/17 33/17/17
f 26/17/18 27/17/18 33/17/18
f 27/17/19 28/17/19 33/17/19
f 28/17/20 29/17/20 33/17/20
f 29/17/21 30/17/21 33/17/21
f 30/17/22 31/17/22 33/17/22
f 31/17/23 32/17/23 33/17/23
f 32/17/24 25/17/24 33/17/24
f 32/17/15 31/17/15 30/17/15 29/17/15 28/17/15 27/17/15 26/17/15 25/17/15
o axis_y
v 0.019134 0.200000 0.046194
v 0.046194 0.200000 0.019134
v 0.046194 0.200000 -0.019134
v 0.019134 0.200000 -0.046194
v -0.019134 0.200000 -0.046194
v -0.046194 0.200000 -0.019134
v -0.046194 0.200000 0.019134
v -0.019134 0.200000 0.046194
v 0.019134 2.250000 0.046194
v 0.046194 2.250000 0.019134
v 0.046194 2.250000 -0.019134
v 0.019134 2.250000 -0.046194
v -0.019134 2.250000 -0.046194
v -0.046194 2.250000 -0.019134
v -0.046194 2.250000 0.019134
v -0.019134 2.250000 0.046194
v 0.045922 2.250000 0.110866
v 0.110866 2.250000 0.045922
v 0.110866 2.250000 -0.045922
v 0.045922 2.250000 -0.110866
v -0.045922 2.250000 -0.110866
v -0.110866 2.250000 -0.045922
v -0.110866 2.250000 0.045922
v -0.045922 2.250000 0.110866
v 0.000000 2.500000 0.000000
v -0.090000 0.200000 -0.090000
v 0.090000 0.200000 -0.090000
v 0.090000 0.500000 -0.090000
v -0.090000 0.500000 -0.090000
v -0.090000 0.200000 0.090000
v 0.090000 0.200000 0.090000
v 0.090000 0.500000 0.090000
v -0.090000 0.500000 0.090000
vn 0.7071 0.0000 0.7071
vn 1.0000 0.0000 0.0000
vn 0.7071 0.0000 -0.7071
vn 0.0000 0.0000 -1.0000
vn -0.7071 0.0000 -0.7071
vn -1.0000 0.0000 -0.0000
vn -0.7071 0.0000 0.7071
vn -0.0000 0.0000 1.0000
vn 0.0000 -1.0000 0.0000
vn 0.0000 1.0000 0.0000
vn 0.6464 0.4054 0.6464
vn 0.9141 0.4054 0.0000
vn 0.6464 0.4054 -0.6464
vn 0.0000 0.4054 -0.9141
vn -0.6464 0.4054 -0.6464
vn -0.9141 0.4054 0.0000
vn -0.6464 0.4054 0.6464
vn -0.0000 0.4054 0.9141
vt 0.558594 0.332031
usemtl material
s 0
f 34/18/25 35/18/25 43/18/25 42/18/25
f 35/18/26 36/18/26 44/18/26 43/18/26
f 36/18/27 37/18/27 45/18/27 44/18/27
f 37/18/28 38/18/28 46/18/28 45/18/28
f 38/18/29 39/18/29 47/18/29 46/18/29
f 39/18/30 40/18/30 48/18/30 47/18/30
f 40/18/31 41/18/31 49/18/31 48/18/31
f 41/18/32 34/18/32 42/18/32 49/18/32
f 41/18/33 40/18/33 39/18/33 38/18/33 37/18/33 36/18/33 35/18/33 34/18/33
f 42/18/34 43/18/34 44/18/34 45/18/34 46/18/34 47/18/34 48/18/34 49/18/34
f 50/18/35 51/18/35 58/18/35
f 51/18/36 52/18/36 58/18/36
f 52/18/37 53/18/37 58/18/37
f 53/18/38 54/18/38 58/18/38
f 54/18/39 55/18/39 58/18/39
f 55/18/40 56/18/40 58/18/40
f 56/18/41 57/18/41 58/18/41
f 57/18/42 50/18/42 58/18/42
f 57/18/33 56/18/33 55/18/33 54/18/33 53/18/33 52/18/33 51/18/33 50/18/33
f 59/18/33 60/18/33 64/18/33 63/18/33
f 60/18/26 61/18/26 65/18/26 64/18/26
f 61/18/34 62/18/34 66/18/34 65/18/34
f 62/18/30 59/18/30 63/18/30 66/18/30
f 62/18/28 61/18/28 60/18/28 59/18/28
f 63/18/32 64/18/32 65/18/32 66/18/32
o axis_z
v 0.046194 0.369134 0.000000
v 0.019134 0.396194 0.000000
v -0.019134 0.396194 0.000000
v -0.046194 0.369134 0.000000
v -0.046194 0.330866 0.000000
v -0.019134 0.303806 0.000000
v 0.019134 0.303806 0.000000
v 0.046194 0.330866 0.000000
v 0.046194 0.369134 2.050000
v 0.019134 0.396194 2.050000
v -0.019134 0.396194 2.050000
v -0.046194 0.369134 2.050000
v -0.046194 0.330866 2.050000
v -0.019134 0.303806 2.050000
v 0.019134 0.303806 2.050000
v 0.046194 0.330866 2.050000
v 0.110866 0.395922 2.050000
v 0.045922 0.460866 2.050000
v -0.045922 0.460866 2.050000
v -0.110866 0.395922 2.050000
v -0.110866 0.304078 2.050000
v -0.045922 0.239134 2.050000
v 0.045922 0.239134 2.050000
v 0.110866 0.304078 2.050000
v 0.000000 0.350000 2.300000
vn 0.7071 0.7071 0.0000
vn 0.0000 1.0000 0.0000
vn -0.7071 0.7071 0.0000
vn -1.0000 0.0000 0.0000
vn -0.7071 -0.7071 0.0000
vn 0.0000 -1.0000 0.0000
vn 0.7071 -0.7071 0.0000
vn 1.0000 -0.0000 0.0000
vn 0.0000 0.0000 -1.0000
vn 0.0000 0.0000 1.0000
vn 0.6464 0.6464 0.4054
vn 0.0000 0.9141 0.4054
vn -0.6464 0.6464 0.4054
vn -0.9141 0.0000 0.4054
vn -0.6464 -0.6464 0.4054
vn 0.0000 -0.9141 0.4054
vn 0.6464 -0.6464 0.4054
vn 0.9141 -0.0000 0.4054
vt 0.589844 0.332031
usemtl material
s 0
f 67/19/43 68/19/43 76/19/43 75/19/43
f 68/19/44 69/19/44 77/19/44 76/19/44
f 69/19/45 70/19/45 78/19/45 77/19/45
f 70/19/46 71/19/46 79/19/46 78/19/46
f 71/19/47 72/19/47 80/19/47 79/19/47
f 72/19/48 73/19/48 81/19/48 80/19/48
f 73/19/49 74/19/49 82/19/49 81/19/49
f 74/19/50 67/19/50 75/19/50 82/19/50
f 74/19/51 73/19/51 72/19/51 71/19/51 70/19/51 69/19/51 68/19/51 67/19/51
f 75/19/52 76/19/52 77/19/52 78/19/52 79/19/52 80/19/52 81/19/52 82/19/52
f 83/19/53 84/19/53 91/19/53
f 84/19/54 85/19/54 91/19/54
f 85/19/55 86/19/55 91/19/55
f 86/19/56 87/19/56 91/19/56
f 87/19/57 88/19/57 91/19/57
f 88/19/58 89/19/58 91/19/58
f 89/19/59 90/19/59 91/19/59
f 90/19/60 83/19/60 91/19/60
f 90/19/51 89/19/51 88/19/51 87/19/51 86/19/51 85/19/51 84/19/51 83/19/51
o p_box
v 1.050000 0.200000 -1.650000
v 1.650000 0.200000 -1.650000
v 1.650000 0.800000 -1.650000
v 1.050000 0.800000 -1.650000
v 1.050000 0.200000 -1.050000
v 1.650000 0.200000 -1.050000
v 1.650000 0.800000 -1.050000
v 1.050000 0.800000 -1.050000
vn 0.0000 -1.0000 0.0000
vn 1.0000 0.0000 0.0000
vn 0.0000 1.0000 0.0000
vn -1.0000 0.0000 0.0000
vn 0.0000 0.0000 -1.0000
vn 0.0000 0.0000 1.0000
vt 0.621094 0.332031
usemtl material
s 0
f 92/20/61 93/20/61 97/20/61 96/20/61
f 93/20/62 94/20/62 98/20/62 97/20/62
f 94/20/63 95/20/63 99/20/63 98/20/63
f 95/20/64 92/20/64 96/20/64 99/20/64
f 95/20/65 94/20/65 93/20/65 92/20/65
f 96/20/66 97/20/66 98/20/66 99/20/66
o p_cylinder
v 0.527646 0.200000 -1.060222
v 0.662132 0.200000 -1.137868
v 0.739778 0.200000 -1.272354
v 0.739778 0.200000 -1.427646
v 0.662132 0.200000 -1.562132
v 0.527646 0.200000 -1.639778
v 0.372354 0.200000 -1.639778
v 0.237868 0.200000 -1.562132
v 0.160222 0.200000 -1.427646
v 0.160222 0.200000 -1.272354
v 0.237868 0.200000 -1.137868
v 0.372354 0.200000 -1.060222
v 0.527646 1.000000 -1.060222
v 0.662132 1.000000 -1.137868
v 0.739778 1.000000 -1.272354
v 0.739778 1.000000 -1.427646
v 0.662132 1.000000 -1.562132
v 0.527646 1.000000 -1.639778
v 0.372354 1.000000 -1.639778
v 0.237868 1.000000 -1.562132
v 0.160222 1.000000 -1.427646
v 0.160222 1.000000 -1.272354
v 0.237868 1.000000 -1.137868
v 0.372354 1.000000 -1.060222
vn 0.5000 0.0000 0.8660
vn 0.8660 0.0000 0.5000
vn 1.0000 0.0000 0.0000
vn 0.8660 0.0000 -0.5000
vn 0.5000 0.0000 -0.8660
vn 0.0000 0.0000 -1.0000
vn -0.5000 0.0000 -0.8660
vn -0.8660 0.0000 -0.5000
vn -1.0000 0.0000 -0.0000
vn -0.8660 0.0000 0.5000
vn -0.5000 0.0000 0.8660
vn 0.0000 0.0000 1.0000
vn 0.0000 -1.0000 0.0000
vn 0.0000 1.0000 0.0000
vt 0.652344 0.332031
usemtl material
s 0
f 100/21/67 101/21/67 113/21/67 112/21/67
f 101/21/68 102/21/68 114/21/68 113/21/68
f 102/21/69 103/21/69 115/21/69 114/21/69
f 103/21/70 104/21/70 116/21/70 115/21/70
f 104/21/71 105/21/71 117/21/71 116/21/71
f 105/21/72 106/21/72 118/21/72 117/21/72
f 106/21/73 107/21/73 119/21/73 118/21/73
f 107/21/74 108/21/74 120/21/74 119/21/74
f 108/21/75 109/21/75 121/21/75 120/21/75
f 109/21/76 110/21/76 122/21/76 121/21/76
f 110/21/77 111/21/77 123/21/77 122/21/77
f 111/21/78 100/21/78 112/21/78 123/21/78
f 111/21/79 110/21/79 109/21/79 108/21/79 107/21/79 106/21/79 105/21/79 104/21/79 103/21/79 102/21/79 101/21/79 100/21/79
f 112/21/80 113/21/80 114/21/80 115/21/80 116/21/80 117/21/80 118/21/80 119/21/80 120/21/80 121/21/80 122/21/80 123/21/80
o p_cone
v -0.351115 0.200000 -1.045662
v -0.191115 0.200000 -1.161909
v -0.130000 0.200000 -1.350000
v -0.191115 0.200000 -1.538091
v -0.351115 0.200000 -1.654338
v -0.548885 0.200000 -1.654338
v -0.708885 0.200000 -1.538091
v -0.770000 0.200000 -1.350000
v -0.708885 0.200000 -1.161909
v -0.548885 0.200000 -1.045662
v -0.388197 0.700000 -1.159789
v -0.288197 0.700000 -1.232443
v -0.250000 0.700000 -1.350000
v -0.288197 0.700000 -1.467557
v -0.388197 0.700000 -1.540211
v -0.511803 0.700000 -1.540211
v -0.611803 0.700000 -1.467557
v -0.650000 0.700000 -1.350000
v -0.611803 0.700000 -1.232443
v -0.511803 0.700000 -1.159789
v -0.450000 1.100000 -1.350000
vn 0.5730 0.2225 0.7887
vn 0.9272 0.2225 0.3013
vn 0.9272 0.2225 -0.3013
vn 0.5730 0.2225 -0.7887
vn 0.0000 0.2225 -0.9749
vn -0.5730 0.2225 -0.7887
vn -0.9272 0.2225 -0.3013
vn -0.9272 0.2225 0.3013
vn -0.5730 0.2225 0.7887
vn 0.0000 0.2225 0.9749
vn 0.5308 0.4294 0.7306
vn 0.8589 0.4294 0.2791
vn 0.8589 0.4294 -0.2791
vn 0.5308 0.4294 -0.7306
vn 0.0000 0.4294 -0.9031
vn -0.5308 0.4294 -0.7306
vn -0.8589 0.4294 -0.2791
vn -0.8589 0.4294 0.2791
vn -0.5308 0.4294 0.7306
vn 0.0000 0.4294 0.9031
vn 0.0000 -1.0000 0.0000
vt 0.621094 0.332031
usemtl material
s 0
f 124/22/81 125/22/81 135/22/81 134/22/81
f 125/22/82 126/22/82 136/22/82 135/22/82
f 126/22/83 127/22/83 137/22/83 136/22/83
f 127/22/84 128/22/84 138/22/84 137/22/84
f 128/22/85 129/22/85 139/22/85 138/22/85
f 129/22/86 130/22/86 140/22/86 139/22/86
f 130/22/87 131/22/87 141/22/87 140/22/87
f 131/22/88 132/22/88 142/22/88 141/22/88
f 132/22/89 133/22/89 143/22/89 142/22/89
f 133/22/90 124/22/90 134/22/90 143/22/90
f 134/22/91 135/22/91 144/22/91
f 135/22/92 136/22/92 144/22/92
f 136/22/93 137/22/93 144/22/93
f 137/22/94 138/22/94 144/22/94
f 138/22/95 139/22/95 144/22/95
f 139/22/96 140/22/96 144/22/96
f 140/22/97 141/22/97 144/22/97
f 141/22/98 142/22/98 144/22/98
f 142/22/99 143/22/99 144/22/99
f 143/22/100 134/22/100 144/22/100
f 133/22/101 132/22/101 131/22/101 130/22/101 129/22/101 128/22/101 127/22/101 126/22/101 125/22/101 124/22/101
o p_ellipsoid
v -1.350000 0.500000 -1.600000
v -1.211157 0.500000 -1.575242
v -1.237674 0.589261 -1.575242
v -1.307095 0.644427 -1.575242
v -1.392905 0.644427 -1.575242
v -1.462326 0.589261 -1.575242
v -1.488843 0.500000 -1.575242
v -1.462326 0.410739 -1.575242
v -1.392905 0.355573 -1.575242
v -1.307095 0.355573 -1.575242
v -1.237674 0.410739 -1.575242
v -1.099814 0.500000 -1.505872
v -1.147595 0.660842 -1.505872
v -1.272688 0.760248 -1.505872
v -1.427312 0.760248 -1.505872
v -1.552405 0.660842 -1.505872
v -1.600186 0.500000 -1.505872
v -1.552405 0.339158 -1.505872
v -1.427312 0.239752 -1.505872
v -1.272688 0.239752 -1.505872
v -1.147595 0.339158 -1.505872
v -1.038023 0.500000 -1.405630
v -1.097605 0.700567 -1.405630
v -1.253594 0.824524 -1.405630
v -1.446406 0.824524 -1.405630
v -1.602395 0.700567 -1.405630
v -1.661977 0.500000 -1.405630
v -1.602395 0.299433 -1.405630
v -1.446406 0.175476 -1.405630
v -1.253594 0.175476 -1.405630
v -1.097605 0.299433 -1.405630
v -1.038023 0.500000 -1.294370
v -1.097605 0.700567 -1.294370
v -1.253594 0.824524 -1.294370
v -1.446406 0.824524 -1.294370
v -1.602395 0.700567 -1.294370
v -1.661977 0.500000 -1.294370
v -1.602395 0.299433 -1.294370
v -1.446406 0.175476 -1.294370
v -1.253594 0.175476 -1.294370
v -1.097605 0.299433 -1.294370
v -1.099814 0.500000 -1.194128
v -1.147595 0.660842 -1.194128
v -1.272688 0.760248 -1.194128
v -1.427312 0.760248 -1.194128
v -1.552405 0.660842 -1.194128
v -1.600186 0.500000 -1.194128
v -1.552405 0.339158 -1.194128
v -1.427312 0.239752 -1.194128
v -1.272688 0.239752 -1.194128
v -1.147595 0.339158 -1.194128
v -1.211157 0.500000 -1.124758
v -1.237674 0.589261 -1.124758
v -1.307095 0.644427 -1.124758
v -1.392905 0.644427 -1.124758
v -1.462326 0.589261 -1.124758
v -1.488843 0.500000 -1.124758
v -1.462326 0.410739 -1.124758
v -1.392905 0.355573 -1.124758
v -1.307095 0.355573 -1.124758
v -1.237674 0.410739 -1.124758
v -1.350000 0.500000 -1.100000
vn 0.1753 0.0521 -0.9831
vn 0.1085 0.1366 -0.9847
vn 0.0000 0.1690 -0.9856
vn -0.1085 0.1366 -0.9847
vn -0.1753 0.0521 -0.9831
vn -0.1753 -0.0521 -0.9831
vn -0.1085 -0.1366 -0.9847
vn 0.0000 -0.1690 -0.9856
vn 0.1085 -0.1366 -0.9847
vn 0.1753 -0.0521 -0.9831
vn 0.5224 0.1552 -0.8385
vn 0.3274 0.4120 -0.8503
vn 0.0000 0.5138 -0.8579
vn -0.3274 0.4120 -0.8503
vn -0.5224 0.1552 -0.8385
vn -0.5224 -0.1552 -0.8385
vn -0.3274 -0.4120 -0.8503
vn 0.0000 -0.5138 -0.8579
vn 0.3274 -0.4120 -0.8503
vn 0.5224 -0.1552 -0.8385
vn 0.8253 0.2452 -0.5087
vn 0.5286 0.6652 -0.5273
vn 0.0000 0.8418 -0.5398
vn -0.5286 0.6652 -0.5273
vn -0.8253 0.2452 -0.5087
vn -0.8253 -0.2452 -0.5087
vn -0.5286 -0.6652 -0.5273
vn 0.0000 -0.8418 -0.5398
vn 0.5286 -0.6652 -0.5273
vn 0.8253 -0.2452 -0.5087
vn 0.9586 0.2848 0.0000
vn 0.6221 0.7829 0.0000
vn 0.0000 1.0000 0.0000
vn -0.6221 0.7829 0.0000
vn -0.9586 0.2848 0.0000
vn -0.9586 -0.2848 0.0000
vn -0.6221 -0.7829 0.0000
vn -0.0000 -1.0000 0.0000
vn 0.6221 -0.7829 0.0000
vn 0.9586 -0.2848 0.0000
vn 0.8253 0.2452 0.5087
vn 0.5286 0.6652 0.5273
vn 0.0000 0.8418 0.5398
vn -0.5286 0.6652 0.5273
vn -0.8253 0.2452 0.5087
vn -0.8253 -0.2452 0.5087
vn -0.5286 -0.6652 0.5273
vn 0.0000 -0.8418 0.5398
vn 0.5286 -0.6652 0.5273
vn 0.8253 -0.2452 0.5087
vn 0.5224 0.1552 0.8385
vn 0.3274 0.4120 0.8503
vn 0.0000 0.5138 0.8579
vn -0.3274 0.4120 0.8503
vn -0.5224 0.1552 0.8385
vn -0.5224 -0.1552 0.8385
vn -0.3274 -0.4120 0.8503
vn 0.0000 -0.5138 0.8579
vn 0.3274 -0.4120 0.8503
vn 0.5224 -0.1552 0.8385
vn 0.1753 0.0521 0.9831
vn 0.1085 0.1366 0.9847
vn 0.0000 0.1690 0.9856
vn -0.1085 0.1366 0.9847
vn -0.1753 0.0521 0.9831
vn -0.1753 -0.0521 0.9831
vn -0.1085 -0.1366 0.9847
vn 0.0000 -0.1690 0.9856
vn 0.1085 -0.1366 0.9847
vn 0.1753 -0.0521 0.9831
vt 0.652344 0.332031
usemtl material
s 0
f 145/23/102 147/23/102 146/23/102
f 145/23/103 148/23/103 147/23/103
f 145/23/104 149/23/104 148/23/104
f 145/23/105 150/23/105 149/23/105
f 145/23/106 151/23/106 150/23/106
f 145/23/107 152/23/107 151/23/107
f 145/23/108 153/23/108 152/23/108
f 145/23/109 154/23/109 153/23/109
f 145/23/110 155/23/110 154/23/110
f 145/23/111 146/23/111 155/23/111
f 146/23/112 147/23/112 157/23/112 156/23/112
f 147/23/113 148/23/113 158/23/113 157/23/113
f 148/23/114 149/23/114 159/23/114 158/23/114
f 149/23/115 150/23/115 160/23/115 159/23/115
f 150/23/116 151/23/116 161/23/116 160/23/116
f 151/23/117 152/23/117 162/23/117 161/23/117
f 152/23/118 153/23/118 163/23/118 162/23/118
f 153/23/119 154/23/119 164/23/119 163/23/119
f 154/23/120 155/23/120 165/23/120 164/23/120
f 155/23/121 146/23/121 156/23/121 165/23/121
f 156/23/122 157/23/122 167/23/122 166/23/122
f 157/23/123 158/23/123 168/23/123 167/23/123
f 158/23/124 159/23/124 169/23/124 168/23/124
f 159/23/125 160/23/125 170/23/125 169/23/125
f 160/23/126 161/23/126 171/23/126 170/23/126
f 161/23/127 162/23/127 172/23/127 171/23/127
f 162/23/128 163/23/128 173/23/128 172/23/128
f 163/23/129 164/23/129 174/23/129 173/23/129
f 164/23/130 165/23/130 175/23/130 174/23/130
f 165/23/131 156/23/131 166/23/131 175/23/131
f 166/23/132 167/23/132 177/23/132 176/23/132
f 167/23/133 168/23/133 178/23/133 177/23/133
f 168/23/134 169/23/134 179/23/134 178/23/134
f 169/23/135 170/23/135 180/23/135 179/23/135
f 170/23/136 171/23/136 181/23/136 180/23/136
f 171/23/137 172/23/137 182/23/137 181/23/137
f 172/23/138 173/23/138 183/23/138 182/23/138
f 173/23/139 174/23/139 184/23/139 183/23/139
f 174/23/140 175/23/140 185/23/140 184/23/140
f 175/23/141 166/23/141 176/23/141 185/23/141
f 176/23/142 177/23/142 187/23/142 186/23/142
f 177/23/143 178/23/143 188/23/143 187/23/143
f 178/23/144 179/23/144 189/23/144 188/23/144
f 179/23/145 180/23/145 190/23/145 189/23/145
f 180/23/146 181/23/146 191/23/146 190/23/146
f 181/23/147 182/23/147 192/23/147 191/23/147
f 182/23/148 183/23/148 193/23/148 192/23/148
f 183/23/149 184/23/149 194/23/149 193/23/149
f 184/23/150 185/23/150 195/23/150 194/23/150
f 185/23/151 176/23/151 186/23/151 195/23/151
f 186/23/152 187/23/152 197/23/152 196/23/152
f 187/23/153 188/23/153 198/23/153 197/23/153
f 188/23/154 189/23/154 199/23/154 198/23/154
f 189/23/155 190/23/155 200/23/155 199/23/155
f 190/23/156 191/23/156 201/23/156 200/23/156
f 191/23/157 192/23/157 202/23/157 201/23/157
f 192/23/158 193/23/158 203/23/158 202/23/158
f 193/23/159 194/23/159 204/23/159 203/23/159
f 194/23/160 195/23/160 205/23/160 204/23/160
f 195/23/161 186/23/161 196/23/161 205/23/161
f 196/23/162 197/23/162 206/23/162
f 197/23/163 198/23/163 206/23/163
f 198/23/164 199/23/164 206/23/164
f 199/23/165 200/23/165 206/23/165
f 200/23/166 201/23/166 206/23/166
f 201/23/167 202/23/167 206/23/167
f 202/23/168 203/23/168 206/23/168
f 203/23/169 204/23/169 206/23/169
f 204/23/170 205/23/170 206/23/170
f 205/23/171 196/23/171 206/23/171
o p_loft
v 1.650000 0.200000 -0.450000
v 1.622568 0.200000 -0.588591
v 1.538988 0.200000 -0.649883
v 1.350000 0.200000 -0.670000
v 1.161012 0.200000 -0.649883
v 1.077432 0.200000 -0.588591
v 1.050000 0.200000 -0.450000
v 1.077432 0.200000 -0.311409
v 1.161012 0.200000 -0.250117
v 1.350000 0.200000 -0.230000
v 1.538988 0.200000 -0.250117
v 1.622568 0.200000 -0.311409
v 1.590000 0.480000 -0.450000
v 1.568054 0.480000 -0.563393
v 1.501191 0.480000 -0.613541
v 1.350000 0.480000 -0.630000
v 1.198809 0.480000 -0.613541
v 1.131946 0.480000 -0.563393
v 1.110000 0.480000 -0.450000
v 1.131946 0.480000 -0.336607
v 1.198809 0.480000 -0.286459
v 1.350000 0.480000 -0.270000
v 1.501191 0.480000 -0.286459
v 1.568054 0.480000 -0.336607
v 1.530000 0.760000 -0.450000
v 1.513541 0.760000 -0.538194
v 1.463393 0.760000 -0.577198
v 1.350000 0.760000 -0.590000
v 1.236607 0.760000 -0.577198
v 1.186459 0.760000 -0.538194
v 1.170000 0.760000 -0.450000
v 1.186459 0.760000 -0.361806
v 1.236607 0.760000 -0.322802
v 1.350000 0.760000 -0.310000
v 1.463393 0.760000 -0.322802
v 1.513541 0.760000 -0.361806
v 1.470000 1.040000 -0.450000
v 1.459027 1.040000 -0.512996
v 1.425595 1.040000 -0.540856
v 1.350000 1.040000 -0.550000
v 1.274405 1.040000 -0.540856
v 1.240973 1.040000 -0.512996
v 1.230000 1.040000 -0.450000
v 1.240973 1.040000 -0.387004
v 1.274405 1.040000 -0.359144
v 1.350000 1.040000 -0.350000
v 1.425595 1.040000 -0.359144
v 1.459027 1.040000 -0.387004
vn 0.9605 0.2049 -0.1882
vn 0.5851 0.1833 -0.7899
vn 0.1058 0.1413 -0.9843
vn -0.1058 0.1413 -0.9843
vn -0.5851 0.1833 -0.7899
vn -0.9605 0.2049 -0.1882
vn -0.9605 0.2049 0.1882
vn -0.5851 0.1833 0.7899
vn -0.1058 0.1413 0.9843
vn 0.1058 0.1413 0.9843
vn 0.5851 0.1833 0.7899
vn 0.9605 0.2049 0.1882
vn 0.9615 0.2049 -0.1832
vn 0.5957 0.1841 -0.7818
vn 0.1088 0.1415 -0.9839
vn -0.1088 0.1415 -0.9839
vn -0.5957 0.1841 -0.7818
vn -0.9615 0.2049 -0.1832
vn -0.9615 0.2049 0.1832
vn -0.5957 0.1841 0.7818
vn -0.1088 0.1415 0.9839
vn 0.1088 0.1415 0.9839
vn 0.5957 0.1841 0.7818
vn 0.9615 0.2049 0.1832
vn 0.9631 0.2048 -0.1747
vn 0.6139 0.1855 -0.7673
vn 0.1142 0.1418 -0.9833
vn -0.1142 0.1418 -0.9833
vn -0.6139 0.1855 -0.7673
vn -0.9631 0.2048 -0.1747
vn -0.9631 0.2048 0.1747
vn -0.6139 0.1855 0.7673
vn -0.1142 0.1418 0.9833
vn 0.1142 0.1418 0.9833
vn 0.6139 0.1855 0.7673
vn 0.9631 0.2048 0.1747
vn 0.0000 -1.0000 0.0000
vn 0.0000 1.0000 -0.0000
vt 0.621094 0.332031
usemtl material
s 0
f 207/24/172 208/24/172 220/24/172 219/24/172
f 208/24/173 209/24/173 221/24/173 220/24/173
f 209/24/174 210/24/174 222/24/174 221/24/174
f 210/24/175 211/24/175 223/24/175 222/24/175
f 211/24/176 212/24/176 224/24/176 223/24/176
f 212/24/177 213/24/177 225/24/177 224/24/177
f 213/24/178 214/24/178 226/24/178 225/24/178
f 214/24/179 215/24/179 227/24/179 226/24/179
f 215/24/180 216/24/180 228/24/180 227/24/180
f 216/24/181 217/24/181 229/24/181 228/24/181
f 217/24/182 218/24/182 230/24/182 229/24/182
f 218/24/183 207/24/183 219/24/183 230/24/183
f 219/24/184 220/24/184 232/24/184 231/24/184
f 220/24/185 221/24/185 233/24/185 232/24/185
f 221/24/186 222/24/186 234/24/186 233/24/186
f 222/24/187 223/24/187 235/24/187 234/24/187
f 223/24/188 224/24/188 236/24/188 235/24/188
f 224/24/189 225/24/189 237/24/189 236/24/189
f 225/24/190 226/24/190 238/24/190 237/24/190
f 226/24/191 227/24/191 239/24/191 238/24/191
f 227/24/192 228/24/192 240/24/192 239/24/192
f 228/24/193 229/24/193 241/24/193 240/24/193
f 229/24/194 230/24/194 242/24/194 241/24/194
f 230/24/195 219/24/195 231/24/195 242/24/195
f 231/24/196 232/24/196 244/24/196 243/24/196
f 232/24/197 233/24/197 245/24/197 244/24/197
f 233/24/198 234/24/198 246/24/198 245/24/198
f 234/24/199 235/24/199 247/24/199 246/24/199
f 235/24/200 236/24/200 248/24/200 247/24/200
f 236/24/201 237/24/201 249/24/201 248/24/201
f 237/24/202 238/24/202 250/24/202 249/24/202
f 238/24/203 239/24/203 251/24/203 250/24/203
f 239/24/204 240/24/204 252/24/204 251/24/204
f 240/24/205 241/24/205 253/24/205 252/24/205
f 241/24/206 242/24/206 254/24/206 253/24/206
f 242/24/207 231/24/207 243/24/207 254/24/207
f 218/24/208 217/24/208 216/24/208 215/24/208 214/24/208 213/24/208 212/24/208 211/24/208 210/24/208 209/24/208 208/24/208 207/24/208
f 243/24/209 244/24/209 245/24/209 246/24/209 247/24/209 248/24/209 249/24/209 250/24/209 251/24/209 252/24/209 253/24/209 254/24/209
o p_wing
v -0.900000 0.750000 -0.200000
v -0.900000 0.780701 -0.248000
v -0.900000 0.797526 -0.400000
v -0.900000 0.789527 -0.640000
v -0.900000 0.753200 -1.000000
v -0.900000 0.746800 -1.000000
v -0.900000 0.710473 -0.640000
v -0.900000 0.702474 -0.400000
v -0.900000 0.719299 -0.248000
v -1.850000 0.850000 -0.350000
v -1.850000 0.864391 -0.377000
v -1.850000 0.872278 -0.462500
v -1.850000 0.868528 -0.597500
v -1.850000 0.851800 -0.800000
v -1.850000 0.848200 -0.800000
v -1.850000 0.831472 -0.597500
v -1.850000 0.827722 -0.462500
v -1.850000 0.835609 -0.377000
v -1.962500 0.850000 -0.395000
v -1.962500 0.856044 -0.413900
v -1.962500 0.859357 -0.473750
v -1.962500 0.857782 -0.568250
v -1.962500 0.851260 -0.710000
v -1.962500 0.848740 -0.710000
v -1.962500 0.842218 -0.568250
v -1.962500 0.840643 -0.473750
v -1.962500 0.843956 -0.413900
v -0.925000 0.200000 -0.556699
v -0.900000 0.200000 -0.600000
v -0.925000 0.200000 -0.643301
v -0.975000 0.200000 -0.643301
v -1.000000 0.200000 -0.600000
v -0.975000 0.200000 -0.556699
v -0.925000 0.800000 -0.556699
v -0.900000 0.800000 -0.600000
v -0.925000 0.800000 -0.643301
v -0.975000 0.800000 -0.643301
v -1.000000 0.800000 -0.600000
v -0.975000 0.800000 -0.556699
vn 0.0072 0.8570 0.5153
vn 0.0723 0.9920 0.1032
vn 0.0809 0.9962 -0.0312
vn 0.0808 0.9923 -0.0936
vn -0.2060 0.0000 -0.9785
vn -0.1275 -0.9875 -0.0931
vn -0.1281 -0.9913 -0.0311
vn -0.1356 -0.9854 0.1025
vn -0.1707 -0.8445 0.5077
vn -0.1790 0.8988 0.4002
vn -0.1100 0.9910 0.0764
vn -0.1064 0.9941 -0.0231
vn -0.0854 0.9941 -0.0671
vn -0.6247 0.0000 -0.7809
vn -0.0854 -0.9941 -0.0671
vn -0.1064 -0.9941 -0.0231
vn -0.1100 -0.9910 0.0764
vn -0.1790 -0.8988 0.4002
vn 1.0000 -0.0000 0.0000
vn -1.0000 -0.0000 0.0000
vn 0.8660 0.0000 0.5000
vn 0.8660 0.0000 -0.5000
vn 0.0000 0.0000 -1.0000
vn -0.8660 0.0000 -0.5000
vn -0.8660 0.0000 0.5000
vn 0.0000 0.0000 1.0000
vn 0.0000 -1.0000 0.0000
vn 0.0000 1.0000 0.0000
vt 0.652344 0.332031
usemtl material
s 0
f 255/25/210 256/25/210 265/25/210 264/25/210
f 256/25/211 257/25/211 266/25/211 265/25/211
f 257/25/212 258/25/212 267/25/212 266/25/212
f 258/25/213 259/25/213 268/25/213 267/25/213
f 259/25/214 260/25/214 269/25/214 268/25/214
f 260/25/215 261/25/215 270/25/215 269/25/215
f 261/25/216 262/25/216 271/25/216 270/25/216
f 262/25/217 263/25/217 272/25/217 271/25/217
f 263/25/218 255/25/218 264/25/218 272/25/218
f 264/25/219 265/25/219 274/25/219 273/25/219
f 265/25/220 266/25/220 275/25/220 274/25/220
f 266/25/221 267/25/221 276/25/221 275/25/221
f 267/25/222 268/25/222 277/25/222 276/25/222
f 268/25/223 269/25/223 278/25/223 277/25/223
f 269/25/224 270/25/224 279/25/224 278/25/224
f 270/25/225 271/25/225 280/25/225 279/25/225
f 271/25/226 272/25/226 281/25/226 280/25/226
f 272/25/227 264/25/227 273/25/227 281/25/227
f 263/25/228 262/25/228 261/25/228 260/25/228 259/25/228 258/25/228 257/25/228 256/25/228 255/25/228
f 273/25/229 274/25/229 275/25/229 276/25/229 277/25/229 278/25/229 279/25/229 280/25/229 281/25/229
f 282/25/230 283/25/230 289/25/230 288/25/230
f 283/25/231 284/25/231 290/25/231 289/25/231
f 284/25/232 285/25/232 291/25/232 290/25/232
f 285/25/233 286/25/233 292/25/233 291/25/233
f 286/25/234 287/25/234 293/25/234 292/25/234
f 287/25/235 282/25/235 288/25/235 293/25/235
f 287/25/236 286/25/236 285/25/236 284/25/236 283/25/236 282/25/236
f 288/25/237 289/25/237 290/25/237 291/25/237 292/25/237 293/25/237
o p_blade
v -1.495263 0.950000 0.955000
v -1.390000 0.950000 0.917321
v -1.304737 0.950000 0.845000
v -1.410000 0.950000 0.882679
v -1.479874 1.350000 0.929072
v -1.394870 1.350000 0.914095
v -1.320126 1.350000 0.870928
v -1.405130 1.350000 0.885905
v -1.438408 1.750000 0.906772
v -1.398264 1.750000 0.909848
v -1.361592 1.750000 0.893228
v -1.401736 1.750000 0.890152
v -1.370000 0.200000 0.951962
v -1.340000 0.200000 0.900000
v -1.370000 0.200000 0.848038
v -1.430000 0.200000 0.848038
v -1.460000 0.200000 0.900000
v -1.430000 0.200000 0.951962
v -1.370000 1.000000 0.951962
v -1.340000 1.000000 0.900000
v -1.370000 1.000000 0.848038
v -1.430000 1.000000 0.848038
v -1.460000 1.000000 0.900000
v -1.430000 1.000000 0.951962
vn 0.2666 0.0316 0.9633
vn 0.5852 -0.0082 0.8108
vn -0.2666 0.0316 -0.9633
vn -0.5852 -0.0082 -0.8108
vn 0.0946 0.0285 0.9951
vn 0.4728 0.0066 0.8811
vn -0.0946 0.0285 -0.9951
vn -0.4728 0.0066 -0.8811
vn 0.0000 -1.0000 0.0000
vn 0.0000 1.0000 0.0000
vn 0.8660 0.0000 0.5000
vn 0.8660 0.0000 -0.5000
vn 0.0000 0.0000 -1.0000
vn -0.8660 0.0000 -0.5000
vn -0.8660 0.0000 0.5000
vn 0.0000 0.0000 1.0000
vt 0.621094 0.332031
usemtl material
s 0
f 294/26/238 295/26/238 299/26/238 298/26/238
f 295/26/239 296/26/239 300/26/239 299/26/239
f 296/26/240 297/26/240 301/26/240 300/26/240
f 297/26/241 294/26/241 298/26/241 301/26/241
f 298/26/242 299/26/242 303/26/242 302/26/242
f 299/26/243 300/26/243 304/26/243 303/26/243
f 300/26/244 301/26/244 305/26/244 304/26/244
f 301/26/245 298/26/245 302/26/245 305/26/245
f 297/26/246 296/26/246 295/26/246 294/26/246
f 302/26/247 303/26/247 304/26/247 305/26/247
f 306/26/248 307/26/248 313/26/248 312/26/248
f 307/26/249 308/26/249 314/26/249 313/26/249
f 308/26/250 309/26/250 315/26/250 314/26/250
f 309/26/251 310/26/251 316/26/251 315/26/251
f 310/26/252 311/26/252 317/26/252 316/26/252
f 311/26/253 306/26/253 312/26/253 317/26/253
f 311/26/246 310/26/246 309/26/246 308/26/246 307/26/246 306/26/246
f 312/26/247 313/26/247 314/26/247 315/26/247 316/26/247 317/26/247
o glass
v -0.888740 0.150000 1.787464
v -0.688255 0.150000 1.690916
v -0.549516 0.150000 1.516942
v -0.500000 0.150000 1.300000
v -0.549516 0.150000 1.083058
v -0.688255 0.150000 0.909084
v -0.888740 0.150000 0.812536
v -1.111260 0.150000 0.812536
v -1.311745 0.150000 0.909084
v -1.450484 0.150000 1.083058
v -1.500000 0.150000 1.300000
v -1.450484 0.150000 1.516942
v -1.311745 0.150000 1.690916
v -1.111260 0.150000 1.787464
v -0.893190 0.330000 1.767965
v -0.700725 0.330000 1.675279
v -0.567535 0.330000 1.508264
v -0.520000 0.330000 1.300000
v -0.567535 0.330000 1.091736
v -0.700725 0.330000 0.924721
v -0.893190 0.330000 0.832035
v -1.106810 0.330000 0.832035
v -1.299275 0.330000 0.924721
v -1.432465 0.330000 1.091736
v -1.480000 0.330000 1.300000
v -1.432465 0.330000 1.508264
v -1.299275 0.330000 1.675279
v -1.106810 0.330000 1.767965
v -0.915442 0.530000 1.670473
v -0.763074 0.530000 1.597096
v -0.657632 0.530000 1.464876
v -0.620000 0.530000 1.300000
v -0.657632 0.530000 1.135124
v -0.763074 0.530000 1.002904
v -0.915442 0.530000 0.929527
v -1.084558 0.530000 0.929527
v -1.236926 0.530000 1.002904
v -1.342368 0.530000 1.135124
v -1.380000 0.530000 1.300000
v -1.342368 0.530000 1.464876
v -1.236926 0.530000 1.597096
v -1.084558 0.530000 1.670473
v -0.955496 0.670000 1.494986
v -0.875302 0.670000 1.456366
v -0.819806 0.670000 1.386777
v -0.800000 0.670000 1.300000
v -0.819806 0.670000 1.213223
v -0.875302 0.670000 1.143634
v -0.955496 0.670000 1.105014
v -1.044504 0.670000 1.105014
v -1.124698 0.670000 1.143634
v -1.180194 0.670000 1.213223
v -1.200000 0.670000 1.300000
v -1.180194 0.670000 1.386777
v -1.124698 0.670000 1.456366
v -1.044504 0.670000 1.494986
v -1.000000 0.730000 1.300000
vn 0.4314 0.1077 0.8957
vn 0.7773 0.1077 0.6199
vn 0.9693 0.1077 0.2212
vn 0.9693 0.1077 -0.2212
vn 0.7773 0.1077 -0.6199
vn 0.4314 0.1077 -0.8957
vn 0.0000 0.1077 -0.9942
vn -0.4314 0.1077 -0.8957
vn -0.7773 0.1077 -0.6199
vn -0.9693 0.1077 -0.2212
vn -0.9693 0.1077 0.2212
vn -0.7773 0.1077 0.6199
vn -0.4314 0.1077 0.8957
vn 0.0000 0.1077 0.9942
vn 0.3900 0.4382 0.8099
vn 0.7028 0.4382 0.5604
vn 0.8764 0.4382 0.2000
vn 0.8764 0.4382 -0.2000
vn 0.7028 0.4382 -0.5604
vn 0.3900 0.4382 -0.8099
vn 0.0000 0.4382 -0.8989
vn -0.3900 0.4382 -0.8099
vn -0.7028 0.4382 -0.5604
vn -0.8764 0.4382 -0.2000
vn -0.8764 0.4382 0.2000
vn -0.7028 0.4382 0.5604
vn -0.3900 0.4382 0.8099
vn 0.0000 0.4382 0.8989
vn 0.2706 0.7817 0.5619
vn 0.4876 0.7817 0.3888
vn 0.6080 0.7817 0.1388
vn 0.6080 0.7817 -0.1388
vn 0.4876 0.7817 -0.3888
vn 0.2706 0.7817 -0.5619
vn 0.0000 0.7817 -0.6236
vn -0.2706 0.7817 -0.5619
vn -0.4876 0.7817 -0.3888
vn -0.6080 0.7817 -0.1388
vn -0.6080 0.7817 0.1388
vn -0.4876 0.7817 0.3888
vn -0.2706 0.7817 0.5619
vn 0.0000 0.7817 0.6236
vn 0.1276 0.9558 0.2650
vn 0.2299 0.9558 0.1834
vn 0.2867 0.9558 0.0654
vn 0.2867 0.9558 -0.0654
vn 0.2299 0.9558 -0.1834
vn 0.1276 0.9558 -0.2650
vn 0.0000 0.9558 -0.2941
vn -0.1276 0.9558 -0.2650
vn -0.2299 0.9558 -0.1834
vn -0.2867 0.9558 -0.0654
vn -0.2867 0.9558 0.0654
vn -0.2299 0.9558 0.1834
vn -0.1276 0.9558 0.2650
vn 0.0000 0.9558 0.2941
vn 0.0000 -1.0000 0.0000
vt 0.319086 0.443638
vt 0.341513 0.443638
vt 0.340118 0.463728
vt 0.318589 0.463728
vt 0.458656 0.443638
vt 0.438810 0.443638
vt 0.437820 0.463728
vt 0.456872 0.463728
vt 0.414062 0.443638
vt 0.414062 0.463728
vt 0.389315 0.443638
vt 0.390305 0.463728
vt 0.369469 0.443638
vt 0.371253 0.463728
vt 0.294195 0.443638
vt 0.294693 0.463728
vt 0.271768 0.443638
vt 0.273163 0.463728
vt 0.333143 0.486049
vt 0.316099 0.486049
vt 0.432871 0.486049
vt 0.447954 0.486049
vt 0.414062 0.486049
vt 0.395254 0.486049
vt 0.380171 0.486049
vt 0.297182 0.486049
vt 0.280138 0.486049
vt 0.191676 0.485980
vt 0.174564 0.477539
vt 0.187168 0.461349
vt 0.196174 0.465791
vt 0.162722 0.462327
vt 0.180935 0.453343
vt 0.158496 0.443359
vt 0.178711 0.443359
vt 0.162722 0.424391
vt 0.180935 0.433376
vt 0.174564 0.409180
vt 0.187168 0.425370
vt 0.191676 0.400738
vt 0.196174 0.420927
vt 0.210668 0.400738
vt 0.206170 0.420927
vt 0.227780 0.409180
vt 0.215176 0.425370
vt 0.239621 0.424391
vt 0.221408 0.433376
vt 0.243848 0.443359
vt 0.223633 0.443359
vt 0.239621 0.462327
vt 0.221408 0.453343
vt 0.227780 0.477539
vt 0.215176 0.461349
vt 0.210668 0.485980
vt 0.206170 0.465791
vt 0.201172 0.443359
vt 0.059311 0.485972
vt 0.035967 0.474824
vt 0.019813 0.454736
vt 0.014047 0.429688
vt 0.019813 0.404639
vt 0.035967 0.384551
vt 0.059311 0.373403
vt 0.085220 0.373403
vt 0.108564 0.384551
vt 0.124718 0.404639
vt 0.130484 0.429688
vt 0.124718 0.454736
vt 0.108564 0.474824
vt 0.085220 0.485972
usemtl material
s 0
f 318/27/254 319/28/254 333/29/254 332/30/254
f 319/31/255 320/32/255 334/33/255 333/34/255
f 320/32/256 321/35/256 335/36/256 334/33/256
f 321/35/257 322/37/257 336/38/257 335/36/257
f 322/37/258 323/39/258 337/40/258 336/38/258
f 323/28/259 324/27/259 338/30/259 337/29/259
f 324/27/260 325/41/260 339/42/260 338/30/260
f 325/41/261 326/43/261 340/44/261 339/42/261
f 326/39/262 327/37/262 341/38/262 340/40/262
f 327/37/263 328/35/263 342/36/263 341/38/263
f 328/35/264 329/32/264 343/33/264 342/36/264
f 329/32/265 330/31/265 344/34/265 343/33/265
f 330/43/266 331/41/266 345/42/266 344/44/266
f 331/41/267 318/27/267 332/30/267 345/42/267
f 332/30/268 333/29/268 347/45/268 346/46/268
f 333/34/269 334/33/269 348/47/269 347/48/269
f 334/33/270 335/36/270 349/49/270 348/47/270
f 335/36/271 336/38/271 350/50/271 349/49/271
f 336/38/272 337/40/272 351/51/272 350/50/272
f 337/29/273 338/30/273 352/46/273 351/45/273
f 338/30/274 339/42/274 353/52/274 352/46/274
f 339/42/275 340/44/275 354/53/275 353/52/275
f 340/40/276 341/38/276 355/50/276 354/51/276
f 341/38/277 342/36/277 356/49/277 355/50/277
f 342/36/278 343/33/278 357/47/278 356/49/278
f 343/33/279 344/34/279 358/48/279 357/47/279
f 344/44/280 345/42/280 359/52/280 358/53/280
f 345/42/281 332/30/281 346/46/281 359/52/281
f 346/54/282 347/55/282 361/56/282 360/57/282
f 347/55/283 348/58/283 362/59/283 361/56/283
f 348/58/284 349/60/284 363/61/284 362/59/284
f 349/60/285 350/62/285 364/63/285 363/61/285
f 350/62/286 351/64/286 365/65/286 364/63/286
f 351/64/287 352/66/287 366/67/287 365/65/287
f 352/66/288 353/68/288 367/69/288 366/67/288
f 353/68/289 354/70/289 368/71/289 367/69/289
f 354/70/290 355/72/290 369/73/290 368/71/290
f 355/72/291 356/74/291 370/75/291 369/73/291
f 356/74/292 357/76/292 371/77/292 370/75/292
f 357/76/293 358/78/293 372/79/293 371/77/293
f 358/78/294 359/80/294 373/81/294 372/79/294
f 359/80/295 346/54/295 360/57/295 373/81/295
f 360/57/296 361/56/296 374/82/296
f 361/56/297 362/59/297 374/82/297
f 362/59/298 363/61/298 374/82/298
f 363/61/299 364/63/299 374/82/299
f 364/63/300 365/65/300 374/82/300
f 365/65/301 366/67/301 374/82/301
f 366/67/302 367/69/302 374/82/302
f 367/69/303 368/71/303 374/82/303
f 368/71/304 369/73/304 374/82/304
f 369/73/305 370/75/305 374/82/305
f 370/75/306 371/77/306 374/82/306
f 371/77/307 372/79/307 374/82/307
f 372/79/308 373/81/308 374/82/308
f 373/81/309 360/57/309 374/82/309
f 331/83/310 330/84/310 329/85/310 328/86/310 327/87/310 326/88/310 325/89/310 324/90/310 323/91/310 322/92/310 321/93/310 320/94/310 319/95/310 318/96/310
o $lid
v 0.750000 0.200000 1.000000
v 1.650000 0.200000 1.000000
v 1.650000 0.857785 0.760586
v 0.750000 0.857785 0.760586
v 0.750000 0.227362 1.075175
v 1.650000 0.227362 1.075175
v 1.650000 0.885146 0.835761
v 0.750000 0.885146 0.835761
vn 0.0000 -0.9397 0.3420
vn 1.0000 -0.0000 0.0000
vn 0.0000 0.9397 -0.3420
vn -1.0000 0.0000 0.0000
vn 0.0000 -0.3420 -0.9397
vn 0.0000 0.3420 0.9397
vt 0.683594 0.332031
usemtl material
s 0
f 375/97/311 376/97/311 380/97/311 379/97/311
f 376/97/312 377/97/312 381/97/312 380/97/312
f 377/97/313 378/97/313 382/97/313 381/97/313
f 378/97/314 375/97/314 379/97/314 382/97/314
f 378/97/315 377/97/315 376/97/315 375/97/315
f 379/97/316 380/97/316 381/97/316 382/97/316
