# meshkit verification model 'j7w1'
mtllib j7w1.mtl
o fuselage
v 0.300000 2.100000 -1.750000
v 0.259808 2.250000 -1.750000
v 0.150000 2.359808 -1.750000
v 0.000000 2.400000 -1.750000
v -0.150000 2.359808 -1.750000
v -0.259808 2.250000 -1.750000
v -0.300000 2.100000 -1.750000
v -0.259808 1.950000 -1.750000
v -0.150000 1.840192 -1.750000
v -0.000000 1.800000 -1.750000
v 0.150000 1.840192 -1.750000
v 0.259808 1.950000 -1.750000
v 0.440000 2.100000 -1.100000
v 0.386067 2.344959 -1.100000
v 0.234309 2.503615 -1.100000
v 0.000000 2.560000 -1.100000
v -0.234309 2.503615 -1.100000
v -0.386067 2.344959 -1.100000
v -0.440000 2.100000 -1.100000
v -0.386067 1.865691 -1.100000
v -0.234309 1.713933 -1.100000
v -0.000000 1.660000 -1.100000
v 0.234309 1.713933 -1.100000
v 0.386067 1.865691 -1.100000
v 0.550000 2.100000 -0.100000
v 0.485335 2.439333 -0.100000
v 0.301021 2.647105 -0.100000
v 0.000000 2.720000 -0.100000
v -0.301021 2.647105 -0.100000
v -0.485335 2.439333 -0.100000
v -0.550000 2.100000 -0.100000
v -0.485335 1.782559 -0.100000
v -0.301021 1.588192 -0.100000
v -0.000000 1.520000 -0.100000
v 0.301021 1.588192 -0.100000
v 0.485335 1.782559 -0.100000
v 0.580000 2.100000 1.100000
v 0.511808 2.461226 1.100000
v 0.317441 2.682402 1.100000
v 0.000000 2.760000 1.100000
v -0.317441 2.682402 1.100000
v -0.511808 2.461226 1.100000
v -0.580000 2.100000 1.100000
v -0.511808 1.771613 1.100000
v -0.317441 1.570544 1.100000
v -0.000000 1.500000 1.100000
v 0.317441 1.570544 1.100000
v 0.511808 1.771613 1.100000
v 0.550000 2.100000 2.100000
v 0.485335 2.472172 2.100000
v 0.301021 2.700050 2.100000
v 0.000000 2.780000 2.100000
v -0.301021 2.700050 2.100000
v -0.485335 2.472172 2.100000
v -0.550000 2.100000 2.100000
v -0.485335 1.782559 2.100000
v -0.301021 1.588192 2.100000
v -0.000000 1.520000 2.100000
v 0.301021 1.588192 2.100000
v 0.485335 1.782559 2.100000
v 0.500000 2.080000 3.300000
v 0.438712 2.372886 3.300000
v 0.266260 2.562583 3.300000
v 0.000000 2.630000 3.300000
v -0.266260 2.562583 3.300000
v -0.438712 2.372886 3.300000
v -0.500000 2.080000 3.300000
v -0.438712 1.803089 3.300000
v -0.266260 1.623739 3.300000
v -0.000000 1.560000 3.300000
v 0.266260 1.623739 3.300000
v 0.438712 1.803089 3.300000
v 0.420000 2.060000 4.700000
v 0.366231 2.287383 4.700000
v 0.217047 2.443670 4.700000
v 0.000000 2.500000 4.700000
v -0.217047 2.443670 4.700000
v -0.366231 2.287383 4.700000
v -0.420000 2.060000 4.700000
v -0.366231 1.832617 4.700000
v -0.217047 1.676330 4.700000
v -0.000000 1.620000 4.700000
v 0.217047 1.676330 4.700000
v 0.366231 1.832617 4.700000
v 0.300000 2.040000 6.100000
v 0.259808 2.195000 6.100000
v 0.150000 2.308468 6.100000
v 0.000000 2.350000 6.100000
v -0.150000 2.308468 6.100000
v -0.259808 2.195000 6.100000
v -0.300000 2.040000 6.100000
v -0.259808 1.885000 6.100000
v -0.150000 1.771532 6.100000
v -0.000000 1.730000 6.100000
v 0.150000 1.771532 6.100000
v 0.259808 1.885000 6.100000
v 0.150000 2.030000 7.000000
v 0.129904 2.105000 7.000000
v 0.075000 2.159904 7.000000
v 0.000000 2.180000 7.000000
v -0.075000 2.159904 7.000000
v -0.129904 2.105000 7.000000
v -0.150000 2.030000 7.000000
v -0.129904 1.955000 7.000000
v -0.075000 1.900096 7.000000
v -0.000000 1.880000 7.000000
v 0.075000 1.900096 7.000000
v 0.129904 1.955000 7.000000
v 0.000000 2.020000 7.360000
v 0.464768 1.658943 1.215017
v 0.554549 1.657424 1.208925
v 0.554549 1.987325 1.126672
v 0.464768 1.988843 1.132763
v 0.555451 1.972675 2.473328
v 0.645232 1.971157 2.467237
v 0.645232 2.301057 2.384983
v 0.555451 2.302576 2.391075
v -0.554549 1.657424 1.208925
v -0.464768 1.658943 1.215017
v -0.464768 1.988843 1.132763
v -0.554549 1.987325 1.126672
v -0.645232 1.971157 2.467237
v -0.555451 1.972675 2.473328
v -0.555451 2.302576 2.391075
v -0.645232 2.301057 2.384983
v 0.140311 2.107476 6.599085
v 0.110000 2.124952 6.598171
v 0.079689 2.107476 6.599085
v 0.079689 2.072524 6.600915
v 0.110000 2.055048 6.601829
v 0.140311 2.072524 6.600915
v 0.140311 2.151438 7.439085
v 0.110000 2.168914 7.438171
v 0.079689 2.151438 7.439085
v 0.079689 2.116486 7.440915
v 0.110000 2.099010 7.441829
v 0.140311 2.116486 7.440915
v 0.140311 1.967476 6.599085
v 0.110000 1.984952 6.598171
v 0.079689 1.967476 6.599085
v 0.079689 1.932524 6.600915
v 0.110000 1.915048 6.601829
v 0.140311 1.932524 6.600915
v 0.140311 2.011438 7.439085
v 0.110000 2.028914 7.438171
v 0.079689 2.011438 7.439085
v 0.079689 1.976486 7.440915
v 0.110000 1.959010 7.441829
v 0.140311 1.976486 7.440915
v -0.079689 2.107476 6.599085
v -0.110000 2.124952 6.598171
v -0.140311 2.107476 6.599085
v -0.140311 2.072524 6.600915
v -0.110000 2.055048 6.601829
v -0.079689 2.072524 6.600915
v -0.079689 2.151438 7.439085
v -0.110000 2.168914 7.438171
v -0.140311 2.151438 7.439085
v -0.140311 2.116486 7.440915
v -0.110000 2.099010 7.441829
v -0.079689 2.116486 7.440915
v -0.079689 1.967476 6.599085
v -0.110000 1.984952 6.598171
v -0.140311 1.967476 6.599085
v -0.140311 1.932524 6.600915
v -0.110000 1.915048 6.601829
v -0.079689 1.932524 6.600915
v -0.079689 2.011438 7.439085
v -0.110000 2.028914 7.438171
v -0.140311 2.011438 7.439085
v -0.140311 1.976486 7.440915
v -0.110000 1.959010 7.441829
v -0.079689 1.976486 7.440915
v -0.210000 2.710000 1.990000
v 0.210000 2.710000 1.990000
v 0.210000 3.050000 1.990000
v -0.210000 3.050000 1.990000
v -0.210000 2.710000 2.110000
v 0.210000 2.710000 2.110000
v 0.210000 3.050000 2.110000
v -0.210000 3.050000 2.110000
v -0.250000 2.750000 2.890000
v 0.250000 2.750000 2.890000
v 0.250000 2.890000 2.890000
v -0.250000 2.890000 2.890000
v -0.250000 2.750000 3.010000
v 0.250000 2.750000 3.010000
v 0.250000 2.890000 3.010000
v -0.250000 2.890000 3.010000
vn 0.9508 0.2266 -0.2113
vn 0.6958 0.6779 -0.2372
vn 0.2369 0.9425 -0.2356
vn -0.2369 0.9425 -0.2356
vn -0.6958 0.6779 -0.2372
vn -0.9508 0.2266 -0.2113
vn -0.9497 -0.2326 -0.2096
vn -0.6893 -0.6893 -0.2233
vn -0.2326 -0.9497 -0.2096
vn 0.2326 -0.9497 -0.2096
vn 0.6893 -0.6893 -0.2233
vn 0.9497 -0.2326 -0.2096
vn 0.9739 0.1977 -0.1112
vn 0.7297 0.6692 -0.1402
vn 0.2320 0.9605 -0.1535
vn -0.2320 0.9605 -0.1535
vn -0.7297 0.6692 -0.1402
vn -0.9739 0.1977 -0.1112
vn -0.9717 -0.2089 -0.1104
vn -0.7113 -0.6906 -0.1312
vn -0.2204 -0.9659 -0.1357
vn 0.2204 -0.9659 -0.1357
vn 0.7113 -0.6906 -0.1312
vn 0.9717 -0.2089 -0.1104
vn 0.9822 0.1863 -0.0248
vn 0.7493 0.6615 -0.0292
vn 0.2363 0.9711 -0.0321
vn -0.2363 0.9711 -0.0321
vn -0.7493 0.6615 -0.0292
vn -0.9822 0.1863 -0.0248
vn -0.9792 -0.2014 -0.0240
vn -0.7221 -0.6915 -0.0211
vn -0.2189 -0.9756 -0.0168
vn 0.2189 -0.9756 -0.0168
vn 0.7221 -0.6915 -0.0211
vn 0.9792 -0.2014 -0.0240
vn 0.9836 0.1782 0.0268
vn 0.7644 0.6446 0.0072
vn 0.2468 0.9689 -0.0162
vn -0.2468 0.9689 -0.0162
vn -0.7644 0.6446 0.0072
vn -0.9836 0.1782 0.0268
vn -0.9791 -0.2014 0.0287
vn -0.7220 -0.6914 0.0254
vn -0.2188 -0.9756 0.0202
vn 0.2188 -0.9756 0.0202
vn 0.7220 -0.6914 0.0254
vn 0.9791 -0.2014 0.0287
vn 0.9814 0.1859 0.0487
vn 0.7572 0.6470 0.0895
vn 0.2497 0.9610 0.1187
vn -0.2497 0.9610 0.1187
vn -0.7572 0.6470 0.0895
vn -0.9814 0.1859 0.0487
vn -0.9775 -0.2072 0.0394
vn -0.7227 -0.6899 0.0406
vn -0.2264 -0.9734 0.0339
vn 0.2264 -0.9734 0.0339
vn 0.7227 -0.6899 0.0406
vn 0.9775 -0.2072 0.0394
vn 0.9746 0.2155 0.0612
vn 0.7300 0.6786 0.0813
vn 0.2470 0.9648 0.0901
vn -0.2470 0.9648 0.0901
vn -0.7300 0.6786 0.0813
vn -0.9746 0.2155 0.0612
vn -0.9735 -0.2221 0.0538
vn -0.7210 -0.6910 0.0516
vn -0.2409 -0.9696 0.0432
vn 0.2409 -0.9696 0.0432
vn 0.7210 -0.6910 0.0516
vn 0.9735 -0.2221 0.0538
vn 0.9674 0.2377 0.0878
vn 0.7177 0.6891 0.1005
vn 0.2562 0.9610 0.1040
vn -0.2562 0.9610 0.1040
vn -0.7177 0.6891 0.1005
vn -0.9674 0.2377 0.0878
vn -0.9679 -0.2378 0.0810
vn -0.7190 -0.6903 0.0809
vn -0.2569 -0.9634 0.0768
vn 0.2569 -0.9634 0.0768
vn 0.7190 -0.6903 0.0809
vn 0.9679 -0.2378 0.0810
vn 0.9545 0.2502 0.1623
vn 0.7042 0.6889 0.1715
vn 0.2599 0.9489 0.1788
vn -0.2599 0.9489 0.1788
vn -0.7042 0.6889 0.1715
vn -0.9545 0.2502 0.1623
vn -0.9553 -0.2504 0.1569
vn -0.7060 -0.6907 0.1566
vn -0.2608 -0.9523 0.1582
vn 0.2608 -0.9523 0.1582
vn 0.7060 -0.6907 0.1566
vn 0.9553 -0.2504 0.1569
vn 0.8938 0.2395 0.3791
vn 0.6514 0.6514 0.3889
vn 0.2378 0.8876 0.3945
vn -0.2378 0.8876 0.3945
vn -0.6514 0.6514 0.3889
vn -0.8938 0.2395 0.3791
vn -0.8983 -0.2407 0.3676
vn -0.6604 -0.6604 0.3575
vn -0.2423 -0.9042 0.3516
vn 0.2423 -0.9042 0.3516
vn 0.6604 -0.6604 0.3575
vn 0.8983 -0.2407 0.3676
vn -0.0000 0.0000 -1.0000
vn -0.0000 -0.9703 0.2419
vn 0.9976 -0.0169 -0.0677
vn -0.0000 0.9703 -0.2419
vn -0.9976 0.0169 0.0677
vn -0.0698 -0.2413 -0.9679
vn 0.0698 0.2413 0.9679
vn 0.9976 0.0169 0.0677
vn -0.9976 -0.0169 -0.0677
vn 0.0698 -0.2413 -0.9679
vn -0.0698 0.2413 0.9679
vn 0.5000 0.8648 -0.0453
vn -0.5000 0.8648 -0.0453
vn -1.0000 0.0000 -0.0000
vn -0.5000 -0.8648 0.0453
vn 0.5000 -0.8648 0.0453
vn 1.0000 0.0000 -0.0000
vn 0.0000 -0.0523 -0.9986
vn 0.0000 0.0523 0.9986
vn 0.0000 -1.0000 0.0000
vn 0.0000 1.0000 0.0000
vn 0.0000 0.0000 1.0000
vt 0.760644 0.118088
vt 0.760644 0.124566
vt 0.789190 0.128666
vt 0.789190 0.118088
vt 0.243365 0.588162
vt 0.248233 0.588162
vt 0.244495 0.616939
vt 0.237767 0.616939
vt 0.254883 0.588162
vt 0.254883 0.616939
vt 0.261533 0.588162
vt 0.265271 0.616939
vt 0.266401 0.588162
vt 0.271999 0.616939
vt 0.760644 0.111610
vt 0.789190 0.107969
vt 0.243365 0.162380
vt 0.248233 0.162380
vt 0.244495 0.191157
vt 0.237767 0.191157
vt 0.254883 0.162380
vt 0.254883 0.191157
vt 0.261533 0.162380
vt 0.265271 0.191157
vt 0.266401 0.162380
vt 0.271999 0.191157
vt 0.833106 0.132742
vt 0.833106 0.118088
vt 0.789190 0.135518
vt 0.833106 0.141714
vt 0.254883 0.661211
vt 0.241537 0.661211
vt 0.268228 0.661211
vt 0.833106 0.104379
vt 0.241537 0.235430
vt 0.233366 0.235430
vt 0.254883 0.235430
vt 0.268228 0.235430
vt 0.276400 0.235430
vt 0.586649 0.494019
vt 0.586649 0.509034
vt 0.639831 0.510003
vt 0.639831 0.494019
vt 0.586649 0.518228
vt 0.639831 0.519790
vt 0.254883 0.714338
vt 0.240809 0.714338
vt 0.268956 0.714338
vt 0.586649 0.479972
vt 0.639831 0.479487
vt 0.586649 0.471371
vt 0.639831 0.470590
vt 0.254883 0.288557
vt 0.240809 0.288557
vt 0.268956 0.288557
vt 0.684149 0.510487
vt 0.684149 0.494019
vt 0.684149 0.520571
vt 0.254883 0.758611
vt 0.241537 0.758611
vt 0.268228 0.758611
vt 0.684149 0.479972
vt 0.684149 0.471371
vt 0.254883 0.332830
vt 0.241537 0.332830
vt 0.268228 0.332830
vt 0.737331 0.506094
vt 0.737331 0.493134
vt 0.737331 0.514488
vt 0.254883 0.811738
vt 0.243078 0.811738
vt 0.266687 0.811738
vt 0.737331 0.480880
vt 0.737331 0.472944
vt 0.254883 0.385957
vt 0.243078 0.385957
vt 0.266687 0.385957
vt 0.799376 0.502310
vt 0.799376 0.492249
vt 0.799376 0.509226
vt 0.254883 0.873719
vt 0.245260 0.873719
vt 0.264505 0.873719
vt 0.799376 0.482187
vt 0.799376 0.475271
vt 0.254883 0.447938
vt 0.245260 0.447938
vt 0.264505 0.447938
vt 0.861422 0.498222
vt 0.861422 0.491364
vt 0.861422 0.503243
vt 0.254883 0.935701
vt 0.248233 0.935701
vt 0.261533 0.935701
vt 0.861422 0.484505
vt 0.861422 0.479484
vt 0.254883 0.509920
vt 0.248233 0.509920
vt 0.261533 0.509920
vt 0.901308 0.494240
vt 0.901308 0.490921
vt 0.243365 0.935701
vt 0.251558 0.975546
vt 0.249124 0.975546
vt 0.254883 0.975546
vt 0.258208 0.975546
vt 0.266401 0.935701
vt 0.260642 0.975546
vt 0.901308 0.487602
vt 0.243365 0.509920
vt 0.251558 0.549765
vt 0.249124 0.549765
vt 0.254883 0.549765
vt 0.258208 0.549765
vt 0.266401 0.509920
vt 0.260642 0.549765
vt 0.917263 0.490479
vt 0.254883 0.991484
vt 0.254883 0.565703
vt 0.436323 0.067295
vt 0.431455 0.062460
vt 0.424805 0.060691
vt 0.418155 0.062460
vt 0.413286 0.067295
vt 0.411505 0.073899
vt 0.413286 0.080502
vt 0.418155 0.085337
vt 0.424805 0.087106
vt 0.431455 0.085337
vt 0.436323 0.080502
vt 0.438105 0.073899
vt 0.107422 0.013672
vt 0.091797 0.013672
vt 0.123047 0.013672
usemtl material
s 0
f 1/1/1 2/2/1 14/3/1 13/4/1
f 2/5/2 3/6/2 15/7/2 14/8/2
f 3/6/3 4/9/3 16/10/3 15/7/3
f 4/9/4 5/11/4 17/12/4 16/10/4
f 5/11/5 6/13/5 18/14/5 17/12/5
f 6/2/6 7/1/6 19/4/6 18/3/6
f 7/1/7 8/15/7 20/16/7 19/4/7
f 8/17/8 9/18/8 21/19/8 20/20/8
f 9/18/9 10/21/9 22/22/9 21/19/9
f 10/21/10 11/23/10 23/24/10 22/22/10
f 11/23/11 12/25/11 24/26/11 23/24/11
f 12/15/12 1/1/12 13/4/12 24/16/12
f 13/4/13 14/3/13 26/27/13 25/28/13
f 14/3/14 15/29/14 27/30/14 26/27/14
f 15/7/15 16/10/15 28/31/15 27/32/15
f 16/10/16 17/12/16 29/33/16 28/31/16
f 17/29/17 18/3/17 30/27/17 29/30/17
f 18/3/18 19/4/18 31/28/18 30/27/18
f 19/4/19 20/16/19 32/34/19 31/28/19
f 20/20/20 21/19/20 33/35/20 32/36/20
f 21/19/21 22/22/21 34/37/21 33/35/21
f 22/22/22 23/24/22 35/38/22 34/37/22
f 23/24/23 24/26/23 36/39/23 35/38/23
f 24/16/24 13/4/24 25/28/24 36/34/24
f 25/40/25 26/41/25 38/42/25 37/43/25
f 26/41/26 27/44/26 39/45/26 38/42/26
f 27/32/27 28/31/27 40/46/27 39/47/27
f 28/31/28 29/33/28 41/48/28 40/46/28
f 29/44/29 30/41/29 42/42/29 41/45/29
f 30/41/30 31/40/30 43/43/30 42/42/30
f 31/40/31 32/49/31 44/50/31 43/43/31
f 32/49/32 33/51/32 45/52/32 44/50/32
f 33/35/33 34/37/33 46/53/33 45/54/33
f 34/37/34 35/38/34 47/55/34 46/53/34
f 35/51/35 36/49/35 48/50/35 47/52/35
f 36/49/36 25/40/36 37/43/36 48/50/36
f 37/43/37 38/42/37 50/56/37 49/57/37
f 38/42/38 39/45/38 51/58/38 50/56/38
f 39/47/39 40/46/39 52/59/39 51/60/39
f 40/46/40 41/48/40 53/61/40 52/59/40
f 41/45/41 42/42/41 54/56/41 53/58/41
f 42/42/42 43/43/42 55/57/42 54/56/42
f 43/43/43 44/50/43 56/62/43 55/57/43
f 44/50/44 45/52/44 57/63/44 56/62/44
f 45/54/45 46/53/45 58/64/45 57/65/45
f 46/53/46 47/55/46 59/66/46 58/64/46
f 47/52/47 48/50/47 60/62/47 59/63/47
f 48/50/48 37/43/48 49/57/48 60/62/48
f 49/57/49 50/56/49 62/67/49 61/68/49
f 50/56/50 51/58/50 63/69/50 62/67/50
f 51/60/51 52/59/51 64/70/51 63/71/51
f 52/59/52 53/61/52 65/72/52 64/70/52
f 53/58/53 54/56/53 66/67/53 65/69/53
f 54/56/54 55/57/54 67/68/54 66/67/54
f 55/57/55 56/62/55 68/73/55 67/68/55
f 56/62/56 57/63/56 69/74/56 68/73/56
f 57/65/57 58/64/57 70/75/57 69/76/57
f 58/64/58 59/66/58 71/77/58 70/75/58
f 59/63/59 60/62/59 72/73/59 71/74/59
f 60/62/60 49/57/60 61/68/60 72/73/60
f 61/68/61 62/67/61 74/78/61 73/79/61
f 62/67/62 63/69/62 75/80/62 74/78/62
f 63/71/63 64/70/63 76/81/63 75/82/63
f 64/70/64 65/72/64 77/83/64 76/81/64
f 65/69/65 66/67/65 78/78/65 77/80/65
f 66/67/66 67/68/66 79/79/66 78/78/66
f 67/68/67 68/73/67 80/84/67 79/79/67
f 68/73/68 69/74/68 81/85/68 80/84/68
f 69/76/69 70/75/69 82/86/69 81/87/69
f 70/75/70 71/77/70 83/88/70 82/86/70
f 71/74/71 72/73/71 84/84/71 83/85/71
f 72/73/72 61/68/72 73/79/72 84/84/72
f 73/79/73 74/78/73 86/89/73 85/90/73
f 74/78/74 75/80/74 87/91/74 86/89/74
f 75/82/75 76/81/75 88/92/75 87/93/75
f 76/81/76 77/83/76 89/94/76 88/92/76
f 77/80/77 78/78/77 90/89/77 89/91/77
f 78/78/78 79/79/78 91/90/78 90/89/78
f 79/79/79 80/84/79 92/95/79 91/90/79
f 80/84/80 81/85/80 93/96/80 92/95/80
f 81/87/81 82/86/81 94/97/81 93/98/81
f 82/86/82 83/88/82 95/99/82 94/97/82
f 83/85/83 84/84/83 96/95/83 95/96/83
f 84/84/84 73/79/84 85/90/84 96/95/84
f 85/90/85 86/89/85 98/100/85 97/101/85
f 86/102/86 87/93/86 99/103/86 98/104/86
f 87/93/87 88/92/87 100/105/87 99/103/87
f 88/92/88 89/94/88 101/106/88 100/105/88
f 89/94/89 90/107/89 102/108/89 101/106/89
f 90/89/90 91/90/90 103/101/90 102/100/90
f 91/90/91 92/95/91 104/109/91 103/101/91
f 92/110/92 93/98/92 105/111/92 104/112/92
f 93/98/93 94/97/93 106/113/93 105/111/93
f 94/97/94 95/99/94 107/114/94 106/113/94
f 95/99/95 96/115/95 108/116/95 107/114/95
f 96/95/96 85/90/96 97/101/96 108/109/96
f 97/101/97 98/100/97 109/117/97
f 98/104/98 99/103/98 109/118/98
f 99/103/99 100/105/99 109/118/99
f 100/105/100 101/106/100 109/118/100
f 101/106/101 102/108/101 109/118/101
f 102/100/102 103/101/102 109/117/102
f 103/101/103 104/109/103 109/117/103
f 104/112/104 105/111/104 109/119/104
f 105/111/105 106/113/105 109/119/105
f 106/113/106 107/114/106 109/119/106
f 107/114/107 108/116/107 109/119/107
f 108/109/108 97/101/108 109/117/108
f 12/120/109 11/121/109 10/122/109 9/123/109 8/124/109 7/125/109 6/126/109 5/127/109 4/128/109 3/129/109 2/130/109 1/131/109
f 110/132/110 111/132/110 115/132/110 114/132/110
f 111/132/111 112/132/111 116/132/111 115/132/111
f 112/132/112 113/132/112 117/132/112 116/132/112
f 113/132/113 110/132/113 114/132/113 117/132/113
f 113/132/114 112/132/114 111/132/114 110/132/114
f 114/132/115 115/132/115 116/132/115 117/132/115
f 118/132/110 119/132/110 123/132/110 122/132/110
f 119/132/116 120/132/116 124/132/116 123/132/116
f 120/132/112 121/132/112 125/132/112 124/132/112
f 121/132/117 118/132/117 122/132/117 125/132/117
f 121/132/118 120/132/118 119/132/118 118/132/118
f 122/132/119 123/132/119 124/132/119 125/132/119
f 126/133/120 127/133/120 133/133/120 132/133/120
f 127/133/121 128/133/121 134/133/121 133/133/121
f 128/133/122 129/133/122 135/133/122 134/133/122
f 129/133/123 130/133/123 136/133/123 135/133/123
f 130/133/124 131/133/124 137/133/124 136/133/124
f 131/133/125 126/133/125 132/133/125 137/133/125
f 131/133/126 130/133/126 129/133/126 128/133/126 127/133/126 126/133/126
f 132/133/127 133/133/127 134/133/127 135/133/127 136/133/127 137/133/127
f 138/133/120 139/133/120 145/133/120 144/133/120
f 139/133/121 140/133/121 146/133/121 145/133/121
f 140/133/122 141/133/122 147/133/122 146/133/122
f 141/133/123 142/133/123 148/133/123 147/133/123
f 142/133/124 143/133/124 149/133/124 148/133/124
f 143/133/125 138/133/125 144/133/125 149/133/125
f 143/133/126 142/133/126 141/133/126 140/133/126 139/133/126 138/133/126
f 144/133/127 145/133/127 146/133/127 147/133/127 148/133/127 149/133/127
f 150/133/120 151/133/120 157/133/120 156/133/120
f 151/133/121 152/133/121 158/133/121 157/133/121
f 152/133/122 153/133/122 159/133/122 158/133/122
f 153/133/123 154/133/123 160/133/123 159/133/123
f 154/133/124 155/133/124 161/133/124 160/133/124
f 155/133/125 150/133/125 156/133/125 161/133/125
f 155/133/126 154/133/126 153/133/126 152/133/126 151/133/126 150/133/126
f 156/133/127 157/133/127 158/133/127 159/133/127 160/133/127 161/133/127
f 162/133/120 163/133/120 169/133/120 168/133/120
f 163/133/121 164/133/121 170/133/121 169/133/121
f 164/133/122 165/133/122 171/133/122 170/133/122
f 165/133/123 166/133/123 172/133/123 171/133/123
f 166/133/124 167/133/124 173/133/124 172/133/124
f 167/133/125 162/133/125 168/133/125 173/133/125
f 167/133/126 166/133/126 165/133/126 164/133/126 163/133/126 162/133/126
f 168/133/127 169/133/127 170/133/127 171/133/127 172/133/127 173/133/127
f 174/134/128 175/134/128 179/134/128 178/134/128
f 175/134/125 176/134/125 180/134/125 179/134/125
f 176/134/129 177/134/129 181/134/129 180/134/129
f 177/134/122 174/134/122 178/134/122 181/134/122
f 177/134/109 176/134/109 175/134/109 174/134/109
f 178/134/130 179/134/130 180/134/130 181/134/130
f 182/134/128 183/134/128 187/134/128 186/134/128
f 183/134/125 184/134/125 188/134/125 187/134/125
f 184/134/129 185/134/129 189/134/129 188/134/129
f 185/134/122 182/134/122 186/134/122 189/134/122
f 185/134/109 184/134/109 183/134/109 182/134/109
f 186/134/130 187/134/130 188/134/130 189/134/130
o wing
v -5.557000 2.122624 -0.814583
v -5.557000 2.135731 -0.864263
v -5.557000 2.142914 -1.021583
v -5.557000 2.139499 -1.269983
v -5.557000 2.125936 -1.642583
v -5.557000 2.119312 -1.642583
v -5.557000 2.105748 -1.269983
v -5.557000 2.102333 -1.021583
v -5.557000 2.109517 -0.864263
v -5.269500 2.122624 -0.722583
v -5.269500 2.155723 -0.791583
v -5.269500 2.173863 -1.010083
v -5.269500 2.165239 -1.355083
v -5.269500 2.127224 -1.872583
v -5.269500 2.118024 -1.872583
v -5.269500 2.080009 -1.355083
v -5.269500 2.071385 -1.010083
v -5.269500 2.089525 -0.791583
v -2.778500 2.001312 0.288709
v -2.778500 2.070268 0.176209
v -2.778500 2.108060 -0.180041
v -2.778500 2.090094 -0.742541
v -2.778500 2.008812 -1.586291
v -2.778500 1.993812 -1.586291
v -2.778500 1.912530 -0.742541
v -2.778500 1.894564 -0.180041
v -2.778500 1.932355 0.176209
v -1.000260 1.923672 0.935935
v -1.000260 2.021661 0.795595
v -1.000260 2.075364 0.351185
v -1.000260 2.049834 -0.350515
v -1.000260 1.933028 -1.403065
v -1.000260 1.914316 -1.403065
v -1.000260 1.797511 -0.350515
v -1.000260 1.771981 0.351185
v -1.000260 1.825683 0.795595
v 0.000000 1.880000 1.300000
v 0.000000 1.996407 1.144000
v 0.000000 2.060203 0.650000
v 0.000000 2.029874 -0.130000
v 0.000000 1.890400 -1.300000
v 0.000000 1.869600 -1.300000
v 0.000000 1.730126 -0.130000
v 0.000000 1.699797 0.650000
v 0.000000 1.763593 1.144000
v 1.000260 1.923672 0.935935
v 1.000260 2.021661 0.795595
v 1.000260 2.075364 0.351185
v 1.000260 2.049834 -0.350515
v 1.000260 1.933028 -1.403065
v 1.000260 1.914316 -1.403065
v 1.000260 1.797511 -0.350515
v 1.000260 1.771981 0.351185
v 1.000260 1.825683 0.795595
v 2.778500 2.001312 0.288709
v 2.778500 2.070268 0.176209
v 2.778500 2.108060 -0.180041
v 2.778500 2.090094 -0.742541
v 2.778500 2.008812 -1.586291
v 2.778500 1.993812 -1.586291
v 2.778500 1.912530 -0.742541
v 2.778500 1.894564 -0.180041
v 2.778500 1.932355 0.176209
v 5.269500 2.122624 -0.722583
v 5.269500 2.155723 -0.791583
v 5.269500 2.173863 -1.010083
v 5.269500 2.165239 -1.355083
v 5.269500 2.127224 -1.872583
v 5.269500 2.118024 -1.872583
v 5.269500 2.080009 -1.355083
v 5.269500 2.071385 -1.010083
v 5.269500 2.089525 -0.791583
v 5.557000 2.122624 -0.814583
v 5.557000 2.135731 -0.864263
v 5.557000 2.142914 -1.021583
v 5.557000 2.139499 -1.269983
v 5.557000 2.125936 -1.642583
v 5.557000 2.119312 -1.642583
v 5.557000 2.105748 -1.269983
v 5.557000 2.102333 -1.021583
v 5.557000 2.109517 -0.864263
v 2.222800 1.280000 -0.259033
v 2.241029 1.280000 -0.316033
v 2.251019 1.280000 -0.496533
v 2.246269 1.280000 -0.781533
v 2.226600 1.280000 -1.209033
v 2.219000 1.280000 -1.209033
v 2.199331 1.280000 -0.781533
v 2.194581 1.280000 -0.496533
v 2.204571 1.280000 -0.316033
v 2.222800 1.400000 -0.059033
v 2.258777 1.400000 -0.134033
v 2.278495 1.400000 -0.371533
v 2.269121 1.400000 -0.746533
v 2.227800 1.400000 -1.309033
v 2.217800 1.400000 -1.309033
v 2.176479 1.400000 -0.746533
v 2.167105 1.400000 -0.371533
v 2.186823 1.400000 -0.134033
v 2.222800 2.000000 0.070967
v 2.272369 2.000000 -0.022033
v 2.299535 2.000000 -0.316533
v 2.286620 2.000000 -0.781533
v 2.229000 2.000000 -1.479033
v 2.216600 2.000000 -1.479033
v 2.158980 2.000000 -0.781533
v 2.146065 2.000000 -0.316533
v 2.173231 2.000000 -0.022033
v 2.222800 3.100000 -0.559033
v 2.251582 3.100000 -0.619033
v 2.267356 3.100000 -0.809033
v 2.259857 3.100000 -1.109033
v 2.226800 3.100000 -1.559033
v 2.218800 3.100000 -1.559033
v 2.185743 3.100000 -1.109033
v 2.178244 3.100000 -0.809033
v 2.194018 3.100000 -0.619033
v 2.222800 3.600000 -0.909033
v 2.238470 3.600000 -0.951033
v 2.247058 3.600000 -1.084033
v 2.242975 3.600000 -1.294033
v 2.225600 3.600000 -1.609033
v 2.220000 3.600000 -1.609033
v 2.202625 3.600000 -1.294033
v 2.198542 3.600000 -1.084033
v 2.207130 3.600000 -0.951033
v 2.222800 3.720000 -1.009033
v 2.229995 3.720000 -1.036033
v 2.233939 3.720000 -1.121533
v 2.232064 3.720000 -1.256533
v 2.224600 3.720000 -1.459033
v 2.221000 3.720000 -1.459033
v 2.213536 3.720000 -1.256533
v 2.211661 3.720000 -1.121533
v 2.215605 3.720000 -1.036033
v 2.182800 1.233576 -0.788376
v 2.182800 1.309343 -0.712609
v 2.182800 1.309343 -0.605457
v 2.182800 1.233576 -0.529690
v 2.182800 1.126424 -0.529690
v 2.182800 1.050657 -0.605457
v 2.182800 1.050657 -0.712609
v 2.182800 1.126424 -0.788376
v 2.262800 1.233576 -0.788376
v 2.262800 1.309343 -0.712609
v 2.262800 1.309343 -0.605457
v 2.262800 1.233576 -0.529690
v 2.262800 1.126424 -0.529690
v 2.262800 1.050657 -0.605457
v 2.262800 1.050657 -0.712609
v 2.262800 1.126424 -0.788376
v 2.172800 1.197500 -0.689344
v 2.172800 1.215000 -0.659033
v 2.172800 1.197500 -0.628722
v 2.172800 1.162500 -0.628722
v 2.172800 1.145000 -0.659033
v 2.172800 1.162500 -0.689344
v 2.272800 1.197500 -0.689344
v 2.272800 1.215000 -0.659033
v 2.272800 1.197500 -0.628722
v 2.272800 1.162500 -0.628722
v 2.272800 1.145000 -0.659033
v 2.272800 1.162500 -0.689344
v -2.222800 1.280000 -0.259033
v -2.204571 1.280000 -0.316033
v -2.194581 1.280000 -0.496533
v -2.199331 1.280000 -0.781533
v -2.219000 1.280000 -1.209033
v -2.226600 1.280000 -1.209033
v -2.246269 1.280000 -0.781533
v -2.251019 1.280000 -0.496533
v -2.241029 1.280000 -0.316033
v -2.222800 1.400000 -0.059033
v -2.186823 1.400000 -0.134033
v -2.167105 1.400000 -0.371533
v -2.176479 1.400000 -0.746533
v -2.217800 1.400000 -1.309033
v -2.227800 1.400000 -1.309033
v -2.269121 1.400000 -0.746533
v -2.278495 1.400000 -0.371533
v -2.258777 1.400000 -0.134033
v -2.222800 2.000000 0.070967
v -2.173231 2.000000 -0.022033
v -2.146065 2.000000 -0.316533
v -2.158980 2.000000 -0.781533
v -2.216600 2.000000 -1.479033
v -2.229000 2.000000 -1.479033
v -2.286620 2.000000 -0.781533
v -2.299535 2.000000 -0.316533
v -2.272369 2.000000 -0.022033
v -2.222800 3.100000 -0.559033
v -2.194018 3.100000 -0.619033
v -2.178244 3.100000 -0.809033
v -2.185743 3.100000 -1.109033
v -2.218800 3.100000 -1.559033
v -2.226800 3.100000 -1.559033
v -2.259857 3.100000 -1.109033
v -2.267356 3.100000 -0.809033
v -2.251582 3.100000 -0.619033
v -2.222800 3.600000 -0.909033
v -2.207130 3.600000 -0.951033
v -2.198542 3.600000 -1.084033
v -2.202625 3.600000 -1.294033
v -2.220000 3.600000 -1.609033
v -2.225600 3.600000 -1.609033
v -2.242975 3.600000 -1.294033
v -2.247058 3.600000 -1.084033
v -2.238470 3.600000 -0.951033
v -2.222800 3.720000 -1.009033
v -2.215605 3.720000 -1.036033
v -2.211661 3.720000 -1.121533
v -2.213536 3.720000 -1.256533
v -2.221000 3.720000 -1.459033
v -2.224600 3.720000 -1.459033
v -2.232064 3.720000 -1.256533
v -2.233939 3.720000 -1.121533
v -2.229995 3.720000 -1.036033
v -2.262800 1.233576 -0.788376
v -2.262800 1.309343 -0.712609
v -2.262800 1.309343 -0.605457
v -2.262800 1.233576 -0.529690
v -2.262800 1.126424 -0.529690
v -2.262800 1.050657 -0.605457
v -2.262800 1.050657 -0.712609
v -2.262800 1.126424 -0.788376
v -2.182800 1.233576 -0.788376
v -2.182800 1.309343 -0.712609
v -2.182800 1.309343 -0.605457
v -2.182800 1.233576 -0.529690
v -2.182800 1.126424 -0.529690
v -2.182800 1.050657 -0.605457
v -2.182800 1.050657 -0.712609
v -2.182800 1.126424 -0.788376
v -2.272800 1.197500 -0.689344
v -2.272800 1.215000 -0.659033
v -2.272800 1.197500 -0.628722
v -2.272800 1.162500 -0.628722
v -2.272800 1.145000 -0.659033
v -2.272800 1.162500 -0.689344
v -2.172800 1.197500 -0.689344
v -2.172800 1.215000 -0.659033
v -2.172800 1.197500 -0.628722
v -2.172800 1.162500 -0.628722
v -2.172800 1.145000 -0.659033
v -2.172800 1.162500 -0.689344
vn -0.1351 0.9233 0.3595
vn -0.0978 0.9930 0.0669
vn -0.1007 0.9947 -0.0202
vn -0.0784 0.9953 -0.0577
vn -0.6247 0.0000 -0.7809
vn -0.0784 -0.9953 -0.0577
vn -0.1007 -0.9947 -0.0202
vn -0.0978 -0.9930 0.0669
vn -0.1351 -0.9233 0.3595
vn -0.1566 0.8609 0.4841
vn -0.0047 0.9953 0.0969
vn 0.0367 0.9989 -0.0293
vn 0.0544 0.9947 -0.0872
vn 0.1142 0.0000 -0.9935
vn -0.0425 -0.9953 -0.0872
vn -0.0605 -0.9977 -0.0292
vn -0.1012 -0.9902 0.0964
vn -0.2365 -0.8469 0.4762
vn -0.1643 0.8232 0.5435
vn -0.0140 0.9934 0.1135
vn 0.0294 0.9990 -0.0344
vn 0.0492 0.9934 -0.1038
vn 0.1025 0.0000 -0.9947
vn -0.0376 -0.9939 -0.1038
vn -0.0577 -0.9977 -0.0343
vn -0.1003 -0.9885 0.1130
vn -0.2329 -0.8116 0.5359
vn -0.1780 0.7973 0.5768
vn -0.0201 0.9921 0.1242
vn 0.0273 0.9989 -0.0377
vn 0.0495 0.9922 -0.1144
vn -0.0371 -0.9927 -0.1145
vn -0.0598 -0.9975 -0.0376
vn -0.1062 -0.9866 0.1235
vn -0.2440 -0.7857 0.5684
vn 0.1780 0.7973 0.5768
vn 0.0201 0.9921 0.1242
vn -0.0273 0.9989 -0.0377
vn -0.0495 0.9922 -0.1144
vn -0.1025 0.0000 -0.9947
vn 0.0371 -0.9927 -0.1145
vn 0.0598 -0.9975 -0.0376
vn 0.1062 -0.9866 0.1235
vn 0.2440 -0.7857 0.5684
vn 0.1643 0.8232 0.5435
vn 0.0140 0.9934 0.1135
vn -0.0294 0.9990 -0.0344
vn -0.0492 0.9934 -0.1038
vn 0.0376 -0.9939 -0.1038
vn 0.0577 -0.9977 -0.0343
vn 0.1003 -0.9885 0.1130
vn 0.2329 -0.8116 0.5359
vn 0.1566 0.8609 0.4841
vn 0.0047 0.9953 0.0969
vn -0.0367 0.9989 -0.0293
vn -0.0544 0.9947 -0.0872
vn -0.1142 0.0000 -0.9935
vn 0.0425 -0.9953 -0.0872
vn 0.0605 -0.9977 -0.0292
vn 0.1012 -0.9902 0.0964
vn 0.2365 -0.8469 0.4762
vn 0.1351 0.9233 0.3595
vn 0.0978 0.9930 0.0669
vn 0.1007 0.9947 -0.0202
vn 0.0784 0.9953 -0.0577
vn 0.6247 0.0000 -0.7809
vn 0.0784 -0.9953 -0.0577
vn 0.1007 -0.9947 -0.0202
vn 0.0978 -0.9930 0.0669
vn 0.1351 -0.9233 0.3595
vn -1.0000 -0.0000 0.0000
vn 1.0000 -0.0000 0.0000
vn 0.7674 -0.5584 0.3151
vn 0.9609 -0.2684 0.0683
vn 0.9812 -0.1918 -0.0210
vn 0.9914 -0.1159 -0.0611
vn 0.0000 -0.6402 -0.7682
vn -0.9914 -0.1159 -0.0611
vn -0.9812 -0.1918 -0.0210
vn -0.9609 -0.2684 0.0683
vn -0.7674 -0.5584 0.3151
vn 0.8866 -0.1011 0.4514
vn 0.9953 -0.0409 0.0877
vn 0.9991 -0.0316 -0.0265
vn 0.9965 -0.0289 -0.0783
vn 0.0000 -0.2726 -0.9621
vn -0.9965 -0.0289 -0.0783
vn -0.9991 -0.0316 -0.0265
vn -0.9953 -0.0409 0.0877
vn -0.8866 -0.1011 0.4514
vn 0.8609 0.2540 0.4409
vn 0.9938 0.0675 0.0881
vn 0.9995 0.0168 -0.0267
vn 0.9969 -0.0015 -0.0788
vn 0.0000 -0.0725 -0.9974
vn -0.9969 -0.0015 -0.0788
vn -0.9995 0.0168 -0.0267
vn -0.9938 0.0675 0.0881
vn -0.8609 0.2540 0.4409
vn 0.8817 0.2736 0.3843
vn 0.9941 0.0787 0.0750
vn 0.9994 0.0267 -0.0227
vn 0.9978 0.0026 -0.0658
vn 0.0000 -0.0995 -0.9950
vn -0.9978 0.0026 -0.0658
vn -0.9994 0.0267 -0.0227
vn -0.9941 0.0787 0.0750
vn -0.8817 0.2736 0.3843
vn 0.9150 0.2660 0.3032
vn 0.9914 0.1182 0.0569
vn 0.9949 0.0996 -0.0172
vn 0.9951 0.0867 -0.0478
vn 0.0000 0.7809 -0.6247
vn -0.9951 0.0867 -0.0478
vn -0.9949 0.0996 -0.0172
vn -0.9914 0.1182 0.0569
vn -0.9150 0.2660 0.3032
vn 0.0000 -1.0000 -0.0000
vn 0.0000 1.0000 -0.0000
vn 0.0000 0.7071 -0.7071
vn 0.0000 0.7071 0.7071
vn 0.0000 0.0000 1.0000
vn 0.0000 -0.7071 0.7071
vn 0.0000 -0.7071 -0.7071
vn 0.0000 0.0000 -1.0000
vn 0.0000 0.8660 -0.5000
vn 0.0000 0.8660 0.5000
vn 0.0000 -0.8660 0.5000
vn 0.0000 -0.8660 -0.5000
vt 0.488500 0.633648
vt 0.488500 0.630593
vt 0.501246 0.627375
vt 0.501246 0.629575
vt 0.488500 0.620920
vt 0.501246 0.620410
vt 0.488500 0.605646
vt 0.501246 0.609413
vt 0.488500 0.582734
vt 0.501246 0.592917
vt 0.191187 0.075097
vt 0.191187 0.074692
vt 0.178441 0.074749
vt 0.178441 0.075040
vt 0.021265 0.156953
vt 0.021265 0.179864
vt 0.008519 0.183632
vt 0.008519 0.167136
vt 0.021265 0.195138
vt 0.008519 0.194629
vt 0.021265 0.204812
vt 0.008519 0.201594
vt 0.021265 0.207867
vt 0.008519 0.203794
vt 0.378065 0.678420
vt 0.378065 0.673440
vt 0.378065 0.657668
vt 0.378065 0.632764
vt 0.378065 0.595409
vt 0.301623 0.069884
vt 0.301623 0.069224
vt 0.131701 0.169628
vt 0.131701 0.206983
vt 0.131701 0.231886
vt 0.131701 0.247658
vt 0.131701 0.252639
vt 0.299228 0.707075
vt 0.299228 0.700861
vt 0.299228 0.681186
vt 0.299228 0.650120
vt 0.299228 0.603521
vt 0.380459 0.066548
vt 0.380459 0.065724
vt 0.210537 0.177740
vt 0.210537 0.224339
vt 0.210537 0.255405
vt 0.210537 0.275080
vt 0.210537 0.281293
vt 0.254883 0.723193
vt 0.254883 0.716286
vt 0.254883 0.694416
vt 0.254883 0.659883
vt 0.254883 0.608084
vt 0.424805 0.064671
vt 0.424805 0.063755
vt 0.254883 0.182303
vt 0.254883 0.234102
vt 0.254883 0.268634
vt 0.254883 0.290505
vt 0.254883 0.297411
vt 0.210537 0.707075
vt 0.210537 0.700861
vt 0.210537 0.681186
vt 0.210537 0.650120
vt 0.210537 0.603521
vt 0.469150 0.066548
vt 0.469150 0.065724
vt 0.299228 0.177740
vt 0.299228 0.224339
vt 0.299228 0.255405
vt 0.299228 0.275080
vt 0.299228 0.281293
vt 0.131701 0.678420
vt 0.131701 0.673440
vt 0.131701 0.657668
vt 0.131701 0.632764
vt 0.131701 0.595409
vt 0.547986 0.069884
vt 0.547986 0.069224
vt 0.378065 0.169628
vt 0.378065 0.206983
vt 0.378065 0.231886
vt 0.378065 0.247658
vt 0.378065 0.252639
vt 0.021265 0.633648
vt 0.021265 0.630593
vt 0.021265 0.620920
vt 0.021265 0.605646
vt 0.021265 0.582734
vt 0.658422 0.075097
vt 0.658422 0.074692
vt 0.488500 0.156953
vt 0.488500 0.179864
vt 0.488500 0.195138
vt 0.488500 0.204812
vt 0.488500 0.207867
vt 0.008519 0.629575
vt 0.008519 0.627375
vt 0.008519 0.620410
vt 0.008519 0.609413
vt 0.008519 0.592917
vt 0.671168 0.075040
vt 0.671168 0.074749
vt 0.501246 0.167136
vt 0.501246 0.183632
vt 0.501246 0.194629
vt 0.501246 0.201594
vt 0.501246 0.203794
vt 0.554980 0.495020
vt 0.552778 0.495600
vt 0.545806 0.495918
vt 0.534797 0.495766
vt 0.518284 0.495166
vt 0.518284 0.494873
vt 0.534797 0.494273
vt 0.545806 0.494122
vt 0.552778 0.494440
vt 0.579601 0.457733
vt 0.577074 0.457733
vt 0.585140 0.463043
vt 0.588464 0.463043
vt 0.569075 0.457733
vt 0.574615 0.463043
vt 0.556444 0.457733
vt 0.557995 0.463043
vt 0.537498 0.457733
vt 0.533066 0.463043
vt 0.523519 0.037798
vt 0.523182 0.037798
vt 0.523128 0.043081
vt 0.523572 0.043081
vt 0.018684 0.034085
vt 0.037588 0.034085
vt 0.039136 0.039378
vt 0.014261 0.039378
vt 0.050192 0.034085
vt 0.055719 0.039378
vt 0.590104 0.489594
vt 0.594226 0.489594
vt 0.577052 0.489594
vt 0.556444 0.489594
vt 0.525532 0.489594
vt 0.523075 0.069496
vt 0.523625 0.069496
vt 0.037588 0.065839
vt 0.006744 0.065839
vt 0.058152 0.065839
vt 0.563646 0.538269
vt 0.566305 0.538269
vt 0.555226 0.538269
vt 0.541930 0.538269
vt 0.521987 0.538269
vt 0.523173 0.117924
vt 0.523527 0.117924
vt 0.071175 0.065839
vt 0.044774 0.114352
vt 0.036372 0.114352
vt 0.075287 0.065839
vt 0.047428 0.114352
vt 0.548932 0.560394
vt 0.550794 0.560394
vt 0.543038 0.560394
vt 0.533731 0.560394
vt 0.519771 0.560394
vt 0.523226 0.139937
vt 0.523474 0.139937
vt 0.030093 0.136404
vt 0.024211 0.136404
vt 0.031950 0.136404
vt 0.545165 0.565704
vt 0.546362 0.565704
vt 0.541376 0.565704
vt 0.535393 0.565704
vt 0.526419 0.565704
vt 0.156213 0.594402
vt 0.156462 0.594402
vt 0.156417 0.601043
vt 0.156258 0.601043
vt 0.026334 0.141696
vt 0.022553 0.141696
vt 0.027528 0.141696
vt 0.352620 0.225866
vt 0.352177 0.217874
vt 0.352388 0.205257
vt 0.353260 0.186330
vt 0.353597 0.186330
vt 0.354469 0.205257
vt 0.354679 0.217874
vt 0.354236 0.225866
vt 0.353428 0.228389
vt 0.156337 0.620966
vt 0.156018 0.619771
vt 0.155844 0.615985
vt 0.155927 0.610009
vt 0.156748 0.610009
vt 0.156831 0.615985
vt 0.156656 0.619771
vt 0.060547 0.013672
vt 0.076172 0.013672
vt 0.148562 0.034085
vt 0.146038 0.034085
vt 0.154098 0.039378
vt 0.157420 0.039378
vt 0.138044 0.034085
vt 0.143580 0.039378
vt 0.326428 0.037798
vt 0.326091 0.037798
vt 0.326038 0.043081
vt 0.326481 0.043081
vt 0.159058 0.065839
vt 0.163177 0.065839
vt 0.146016 0.065839
vt 0.325984 0.069496
vt 0.326534 0.069496
vt 0.125423 0.065839
vt 0.110919 0.114352
vt 0.124205 0.114352
vt 0.094534 0.065839
vt 0.090991 0.114352
vt 0.326082 0.117924
vt 0.326437 0.117924
vt 0.102726 0.136404
vt 0.112026 0.136404
vt 0.088776 0.136404
vt 0.326135 0.139937
vt 0.326383 0.139937
vt 0.104387 0.141696
vt 0.110366 0.141696
vt 0.095419 0.141696
vt 0.353304 0.594402
vt 0.353552 0.594402
vt 0.353508 0.601043
vt 0.353348 0.601043
vt 0.155529 0.225866
vt 0.155086 0.217874
vt 0.155297 0.205257
vt 0.156169 0.186330
vt 0.156506 0.186330
vt 0.157378 0.205257
vt 0.157588 0.217874
vt 0.157146 0.225866
vt 0.156337 0.228389
vt 0.353428 0.620966
vt 0.353109 0.619771
vt 0.352934 0.615985
vt 0.353017 0.610009
vt 0.353839 0.610009
vt 0.353922 0.615985
vt 0.353747 0.619771
usemtl material
s 0
f 199/135/131 200/136/131 191/137/131 190/138/131
f 200/136/132 201/139/132 192/140/132 191/137/132
f 201/139/133 202/141/133 193/142/133 192/140/133
f 202/141/134 203/143/134 194/144/134 193/142/134
f 203/145/135 204/146/135 195/147/135 194/148/135
f 204/149/136 205/150/136 196/151/136 195/152/136
f 205/150/137 206/153/137 197/154/137 196/151/137
f 206/153/138 207/155/138 198/156/138 197/154/138
f 207/155/139 199/157/139 190/158/139 198/156/139
f 208/159/140 209/160/140 200/136/140 199/135/140
f 209/160/141 210/161/141 201/139/141 200/136/141
f 210/161/142 211/162/142 202/141/142 201/139/142
f 211/162/143 212/163/143 203/143/143 202/141/143
f 212/164/144 213/165/144 204/146/144 203/145/144
f 213/166/145 214/167/145 205/150/145 204/149/145
f 214/167/146 215/168/146 206/153/146 205/150/146
f 215/168/147 216/169/147 207/155/147 206/153/147
f 216/169/148 208/170/148 199/157/148 207/155/148
f 217/171/149 218/172/149 209/160/149 208/159/149
f 218/172/150 219/173/150 210/161/150 209/160/150
f 219/173/151 220/174/151 211/162/151 210/161/151
f 220/174/152 221/175/152 212/163/152 211/162/152
f 221/176/153 222/177/153 213/165/153 212/164/153
f 222/178/154 223/179/154 214/167/154 213/166/154
f 223/179/155 224/180/155 215/168/155 214/167/155
f 224/180/156 225/181/156 216/169/156 215/168/156
f 225/181/157 217/182/157 208/170/157 216/169/157
f 226/183/158 227/184/158 218/172/158 217/171/158
f 227/184/159 228/185/159 219/173/159 218/172/159
f 228/185/160 229/186/160 220/174/160 219/173/160
f 229/186/161 230/187/161 221/175/161 220/174/161
f 230/188/153 231/189/153 222/177/153 221/176/153
f 231/190/162 232/191/162 223/179/162 222/178/162
f 232/191/163 233/192/163 224/180/163 223/179/163
f 233/192/164 234/193/164 225/181/164 224/180/164
f 234/193/165 226/194/165 217/182/165 225/181/165
f 235/195/166 236/196/166 227/184/166 226/183/166
f 236/196/167 237/197/167 228/185/167 227/184/167
f 237/197/168 238/198/168 229/186/168 228/185/168
f 238/198/169 239/199/169 230/187/169 229/186/169
f 239/200/170 240/201/170 231/189/170 230/188/170
f 240/202/171 241/203/171 232/191/171 231/190/171
f 241/203/172 242/204/172 233/192/172 232/191/172
f 242/204/173 243/205/173 234/193/173 233/192/173
f 243/205/174 235/206/174 226/194/174 234/193/174
f 244/207/175 245/208/175 236/196/175 235/195/175
f 245/208/176 246/209/176 237/197/176 236/196/176
f 246/209/177 247/210/177 238/198/177 237/197/177
f 247/210/178 248/211/178 239/199/178 238/198/178
f 248/212/170 249/213/170 240/201/170 239/200/170
f 249/214/179 250/215/179 241/203/179 240/202/179
f 250/215/180 251/216/180 242/204/180 241/203/180
f 251/216/181 252/217/181 243/205/181 242/204/181
f 252/217/182 244/218/182 235/206/182 243/205/182
f 253/219/183 254/220/183 245/208/183 244/207/183
f 254/220/184 255/221/184 246/209/184 245/208/184
f 255/221/185 256/222/185 247/210/185 246/209/185
f 256/222/186 257/223/186 248/211/186 247/210/186
f 257/224/187 258/225/187 249/213/187 248/212/187
f 258/226/188 259/227/188 250/215/188 249/214/188
f 259/227/189 260/228/189 251/216/189 250/215/189
f 260/228/190 261/229/190 252/217/190 251/216/190
f 261/229/191 253/230/191 244/218/191 252/217/191
f 262/231/192 263/232/192 254/220/192 253/219/192
f 263/232/193 264/233/193 255/221/193 254/220/193
f 264/233/194 265/234/194 256/222/194 255/221/194
f 265/234/195 266/235/195 257/223/195 256/222/195
f 266/236/196 267/237/196 258/225/196 257/224/196
f 267/238/197 268/239/197 259/227/197 258/226/197
f 268/239/198 269/240/198 260/228/198 259/227/198
f 269/240/199 270/241/199 261/229/199 260/228/199
f 270/241/200 262/242/200 253/230/200 261/229/200
f 190/243/201 191/244/201 192/245/201 193/246/201 194/247/201 195/248/201 196/249/201 197/250/201 198/251/201
f 270/251/202 269/250/202 268/249/202 267/248/202 266/247/202 265/246/202 264/245/202 263/244/202 262/243/202
f 271/252/203 272/253/203 281/254/203 280/255/203
f 272/253/204 273/256/204 282/257/204 281/254/204
f 273/256/205 274/258/205 283/259/205 282/257/205
f 274/258/206 275/260/206 284/261/206 283/259/206
f 275/262/207 276/263/207 285/264/207 284/265/207
f 276/266/208 277/267/208 286/268/208 285/269/208
f 277/267/209 278/270/209 287/271/209 286/268/209
f 278/256/210 279/253/210 288/254/210 287/257/210
f 279/253/211 271/252/211 280/255/211 288/254/211
f 280/255/212 281/254/212 290/272/212 289/273/212
f 281/254/213 282/257/213 291/274/213 290/272/213
f 282/257/214 283/259/214 292/275/214 291/274/214
f 283/259/215 284/261/215 293/276/215 292/275/215
f 284/265/216 285/264/216 294/277/216 293/278/216
f 285/269/217 286/268/217 295/279/217 294/280/217
f 286/268/218 287/271/218 296/281/218 295/279/218
f 287/257/219 288/254/219 297/272/219 296/274/219
f 288/254/220 280/255/220 289/273/220 297/272/220
f 289/273/221 290/272/221 299/282/221 298/283/221
f 290/272/222 291/274/222 300/284/222 299/282/222
f 291/274/223 292/275/223 301/285/223 300/284/223
f 292/275/224 293/276/224 302/286/224 301/285/224
f 293/278/225 294/277/225 303/287/225 302/288/225
f 294/276/226 295/275/226 304/285/226 303/286/226
f 295/275/227 296/274/227 305/284/227 304/285/227
f 296/281/228 297/289/228 306/290/228 305/291/228
f 297/289/229 289/292/229 298/293/229 306/290/229
f 298/283/230 299/282/230 308/294/230 307/295/230
f 299/282/231 300/284/231 309/296/231 308/294/231
f 300/284/232 301/285/232 310/297/232 309/296/232
f 301/285/233 302/286/233 311/298/233 310/297/233
f 302/288/234 303/287/234 312/299/234 311/300/234
f 303/286/235 304/285/235 313/297/235 312/298/235
f 304/285/236 305/284/236 314/296/236 313/297/236
f 305/291/237 306/290/237 315/301/237 314/302/237
f 306/290/238 298/293/238 307/303/238 315/301/238
f 307/295/239 308/294/239 317/304/239 316/305/239
f 308/294/240 309/296/240 318/306/240 317/304/240
f 309/296/241 310/297/241 319/307/241 318/306/241
f 310/297/242 311/298/242 320/308/242 319/307/242
f 311/309/243 312/310/243 321/311/243 320/312/243
f 312/298/244 313/297/244 322/307/244 321/308/244
f 313/297/245 314/296/245 323/306/245 322/307/245
f 314/302/246 315/301/246 324/313/246 323/314/246
f 315/301/247 307/303/247 316/315/247 324/313/247
f 279/316/248 278/317/248 277/318/248 276/319/248 275/320/248 274/321/248 273/322/248 272/323/248 271/324/248
f 316/325/249 317/326/249 318/327/249 319/328/249 320/312/249 321/311/249 322/329/249 323/330/249 324/331/249
f 325/332/250 326/332/250 334/332/250 333/332/250
f 326/332/249 327/332/249 335/332/249 334/332/249
f 327/332/251 328/332/251 336/332/251 335/332/251
f 328/332/252 329/332/252 337/332/252 336/332/252
f 329/332/253 330/332/253 338/332/253 337/332/253
f 330/332/248 331/332/248 339/332/248 338/332/248
f 331/332/254 332/332/254 340/332/254 339/332/254
f 332/332/255 325/332/255 333/332/255 340/332/255
f 332/332/201 331/332/201 330/332/201 329/332/201 328/332/201 327/332/201 326/332/201 325/332/201
f 333/332/202 334/332/202 335/332/202 336/332/202 337/332/202 338/332/202 339/332/202 340/332/202
f 341/333/256 342/333/256 348/333/256 347/333/256
f 342/333/257 343/333/257 349/333/257 348/333/257
f 343/333/252 344/333/252 350/333/252 349/333/252
f 344/333/258 345/333/258 351/333/258 350/333/258
f 345/333/259 346/333/259 352/333/259 351/333/259
f 346/333/255 341/333/255 347/333/255 352/333/255
f 346/333/201 345/333/201 344/333/201 343/333/201 342/333/201 341/333/201
f 347/333/202 348/333/202 349/333/202 350/333/202 351/333/202 352/333/202
f 353/334/203 354/335/203 363/336/203 362/337/203
f 354/335/204 355/338/204 364/339/204 363/336/204
f 355/256/205 356/258/205 365/259/205 364/257/205
f 356/258/206 357/260/206 366/261/206 365/259/206
f 357/340/207 358/341/207 367/342/207 366/343/207
f 358/260/208 359/258/208 368/259/208 367/261/208
f 359/258/209 360/256/209 369/257/209 368/259/209
f 360/256/210 361/253/210 370/254/210 369/257/210
f 361/253/211 353/252/211 362/255/211 370/254/211
f 362/337/212 363/336/212 372/344/212 371/345/212
f 363/336/213 364/339/213 373/346/213 372/344/213
f 364/257/214 365/259/214 374/275/214 373/274/214
f 365/259/215 366/261/215 375/276/215 374/275/215
f 366/343/216 367/342/216 376/347/216 375/348/216
f 367/261/217 368/259/217 377/275/217 376/276/217
f 368/259/218 369/257/218 378/274/218 377/275/218
f 369/257/219 370/254/219 379/272/219 378/274/219
f 370/254/220 362/255/220 371/273/220 379/272/220
f 371/273/221 372/272/221 381/282/221 380/283/221
f 372/272/222 373/274/222 382/284/222 381/282/222
f 373/346/223 374/349/223 383/350/223 382/351/223
f 374/349/224 375/352/224 384/353/224 383/350/224
f 375/348/225 376/347/225 385/354/225 384/355/225
f 376/276/226 377/275/226 386/285/226 385/286/226
f 377/275/227 378/274/227 387/284/227 386/285/227
f 378/274/228 379/272/228 388/282/228 387/284/228
f 379/272/229 371/273/229 380/283/229 388/282/229
f 380/283/230 381/282/230 390/294/230 389/295/230
f 381/282/231 382/284/231 391/296/231 390/294/231
f 382/351/232 383/350/232 392/356/232 391/357/232
f 383/350/233 384/353/233 393/358/233 392/356/233
f 384/355/234 385/354/234 394/359/234 393/360/234
f 385/286/235 386/285/235 395/297/235 394/298/235
f 386/285/236 387/284/236 396/296/236 395/297/236
f 387/284/237 388/282/237 397/294/237 396/296/237
f 388/282/238 380/283/238 389/295/238 397/294/238
f 389/295/239 390/294/239 399/304/239 398/305/239
f 390/294/240 391/296/240 400/306/240 399/304/240
f 391/357/241 392/356/241 401/361/241 400/362/241
f 392/356/242 393/358/242 402/363/242 401/361/242
f 393/364/243 394/365/243 403/366/243 402/367/243
f 394/298/244 395/297/244 404/307/244 403/308/244
f 395/297/245 396/296/245 405/306/245 404/307/245
f 396/296/246 397/294/246 406/304/246 405/306/246
f 397/294/247 389/295/247 398/305/247 406/304/247
f 361/368/248 360/369/248 359/370/248 358/371/248 357/372/248 356/373/248 355/374/248 354/375/248 353/376/248
f 398/377/249 399/378/249 400/379/249 401/380/249 402/367/249 403/366/249 404/381/249 405/382/249 406/383/249
f 407/332/250 408/332/250 416/332/250 415/332/250
f 408/332/249 409/332/249 417/332/249 416/332/249
f 409/332/251 410/332/251 418/332/251 417/332/251
f 410/332/252 411/332/252 419/332/252 418/332/252
f 411/332/253 412/332/253 420/332/253 419/332/253
f 412/332/248 413/332/248 421/332/248 420/332/248
f 413/332/254 414/332/254 422/332/254 421/332/254
f 414/332/255 407/332/255 415/332/255 422/332/255
f 414/332/201 413/332/201 412/332/201 411/332/201 410/332/201 409/332/201 408/332/201 407/332/201
f 415/332/202 416/332/202 417/332/202 418/332/202 419/332/202 420/332/202 421/332/202 422/332/202
f 423/333/256 424/333/256 430/333/256 429/333/256
f 424/333/257 425/333/257 431/333/257 430/333/257
f 425/333/252 426/333/252 432/333/252 431/333/252
f 426/333/258 427/333/258 433/333/258 432/333/258
f 427/333/259 428/333/259 434/333/259 433/333/259
f 428/333/255 423/333/255 429/333/255 434/333/255
f 428/333/201 427/333/201 426/333/201 425/333/201 424/333/201 423/333/201
f 429/333/202 430/333/202 431/333/202 432/333/202 433/333/202 434/333/202
o canard
v -1.500000 2.040000 6.111600
v -1.500000 2.045471 6.090864
v -1.500000 2.048469 6.025200
v -1.500000 2.047044 5.921520
v -1.500000 2.041382 5.766000
v -1.500000 2.038618 5.766000
v -1.500000 2.032956 5.921520
v -1.500000 2.031531 6.025200
v -1.500000 2.034529 6.090864
v -1.380000 2.040000 6.150000
v -1.380000 2.053815 6.121200
v -1.380000 2.061387 6.030000
v -1.380000 2.057787 5.886000
v -1.380000 2.041920 5.670000
v -1.380000 2.038080 5.670000
v -1.380000 2.022213 5.886000
v -1.380000 2.018613 6.030000
v -1.380000 2.026185 6.121200
v 0.000000 2.020000 6.350000
v 0.000000 2.047439 6.303200
v 0.000000 2.062476 6.155000
v 0.000000 2.055327 5.921000
v 0.000000 2.023120 5.570000
v 0.000000 2.016880 5.570000
v 0.000000 1.984673 5.921000
v 0.000000 1.977524 6.155000
v 0.000000 1.992561 6.303200
v 1.380000 2.040000 6.150000
v 1.380000 2.053815 6.121200
v 1.380000 2.061387 6.030000
v 1.380000 2.057787 5.886000
v 1.380000 2.041920 5.670000
v 1.380000 2.038080 5.670000
v 1.380000 2.022213 5.886000
v 1.380000 2.018613 6.030000
v 1.380000 2.026185 6.121200
v 1.500000 2.040000 6.111600
v 1.500000 2.045471 6.090864
v 1.500000 2.048469 6.025200
v 1.500000 2.047044 5.921520
v 1.500000 2.041382 5.766000
v 1.500000 2.038618 5.766000
v 1.500000 2.032956 5.921520
v 1.500000 2.031531 6.025200
v 1.500000 2.034529 6.090864
vn -0.1351 0.9233 0.3595
vn -0.0978 0.9930 0.0669
vn -0.1007 0.9947 -0.0202
vn -0.0784 0.9953 -0.0577
vn -0.6247 0.0000 -0.7809
vn -0.0784 -0.9953 -0.0577
vn -0.1007 -0.9947 -0.0202
vn -0.0978 -0.9930 0.0669
vn -0.1351 -0.9233 0.3595
vn -0.0578 0.8763 0.4782
vn -0.0086 0.9955 0.0940
vn 0.0021 0.9996 -0.0284
vn 0.0057 0.9964 -0.0845
vn -0.0723 0.0000 -0.9974
vn -0.0232 -0.9962 -0.0845
vn -0.0268 -0.9992 -0.0284
vn -0.0374 -0.9949 0.0940
vn -0.0831 -0.8748 0.4774
vn 0.0578 0.8763 0.4782
vn 0.0086 0.9955 0.0940
vn -0.0021 0.9996 -0.0284
vn -0.0057 0.9964 -0.0845
vn 0.0723 0.0000 -0.9974
vn 0.0232 -0.9962 -0.0845
vn 0.0268 -0.9992 -0.0284
vn 0.0374 -0.9949 0.0940
vn 0.0831 -0.8748 0.4774
vn 0.1351 0.9233 0.3595
vn 0.0978 0.9930 0.0669
vn 0.1007 0.9947 -0.0202
vn 0.0784 0.9953 -0.0577
vn 0.6247 0.0000 -0.7809
vn 0.0784 -0.9953 -0.0577
vn 0.1007 -0.9947 -0.0202
vn 0.0978 -0.9930 0.0669
vn 0.1351 -0.9233 0.3595
vn -1.0000 0.0000 0.0000
vn 1.0000 0.0000 0.0000
vt 0.316064 0.937915
vt 0.316064 0.936639
vt 0.321384 0.935296
vt 0.321384 0.936214
vt 0.316064 0.932602
vt 0.321384 0.932389
vt 0.316064 0.926227
vt 0.321384 0.927799
vt 0.316064 0.916664
vt 0.321384 0.920914
vt 0.363624 0.071342
vt 0.363624 0.071173
vt 0.358304 0.071196
vt 0.358304 0.071318
vt 0.193702 0.490882
vt 0.193702 0.500445
vt 0.188382 0.502018
vt 0.188382 0.495133
vt 0.193702 0.506821
vt 0.188382 0.506608
vt 0.193702 0.510858
vt 0.188382 0.509515
vt 0.193702 0.512133
vt 0.188382 0.510433
vt 0.254883 0.946769
vt 0.254883 0.944697
vt 0.254883 0.938136
vt 0.254883 0.927776
vt 0.254883 0.912236
vt 0.424805 0.070514
vt 0.424805 0.070239
vt 0.254883 0.486455
vt 0.254883 0.501995
vt 0.254883 0.512355
vt 0.254883 0.518916
vt 0.254883 0.520988
vt 0.193702 0.937915
vt 0.193702 0.936639
vt 0.193702 0.932602
vt 0.193702 0.926227
vt 0.193702 0.916664
vt 0.485985 0.071342
vt 0.485985 0.071173
vt 0.316064 0.490882
vt 0.316064 0.500445
vt 0.316064 0.506821
vt 0.316064 0.510858
vt 0.316064 0.512133
vt 0.188382 0.936214
vt 0.188382 0.935296
vt 0.188382 0.932389
vt 0.188382 0.927799
vt 0.188382 0.920914
vt 0.491306 0.071318
vt 0.491306 0.071196
vt 0.321384 0.495133
vt 0.321384 0.502018
vt 0.321384 0.506608
vt 0.321384 0.509515
vt 0.321384 0.510433
vt 0.861936 0.491364
vt 0.861017 0.491606
vt 0.858107 0.491738
vt 0.853512 0.491675
vt 0.846619 0.491425
vt 0.846619 0.491302
vt 0.853512 0.491052
vt 0.858107 0.490989
vt 0.861017 0.491121
usemtl material
s 0
f 444/384/260 445/385/260 436/386/260 435/387/260
f 445/385/261 446/388/261 437/389/261 436/386/261
f 446/388/262 447/390/262 438/391/262 437/389/262
f 447/390/263 448/392/263 439/393/263 438/391/263
f 448/394/264 449/395/264 440/396/264 439/397/264
f 449/398/265 450/399/265 441/400/265 440/401/265
f 450/399/266 451/402/266 442/403/266 441/400/266
f 451/402/267 452/404/267 443/405/267 442/403/267
f 452/404/268 444/406/268 435/407/268 443/405/268
f 453/408/269 454/409/269 445/385/269 444/384/269
f 454/409/270 455/410/270 446/388/270 445/385/270
f 455/410/271 456/411/271 447/390/271 446/388/271
f 456/411/272 457/412/272 448/392/272 447/390/272
f 457/413/273 458/414/273 449/395/273 448/394/273
f 458/415/274 459/416/274 450/399/274 449/398/274
f 459/416/275 460/417/275 451/402/275 450/399/275
f 460/417/276 461/418/276 452/404/276 451/402/276
f 461/418/277 453/419/277 444/406/277 452/404/277
f 462/420/278 463/421/278 454/409/278 453/408/278
f 463/421/279 464/422/279 455/410/279 454/409/279
f 464/422/280 465/423/280 456/411/280 455/410/280
f 465/423/281 466/424/281 457/412/281 456/411/281
f 466/425/282 467/426/282 458/414/282 457/413/282
f 467/427/283 468/428/283 459/416/283 458/415/283
f 468/428/284 469/429/284 460/417/284 459/416/284
f 469/429/285 470/430/285 461/418/285 460/417/285
f 470/430/286 462/431/286 453/419/286 461/418/286
f 471/432/287 472/433/287 463/421/287 462/420/287
f 472/433/288 473/434/288 464/422/288 463/421/288
f 473/434/289 474/435/289 465/423/289 464/422/289
f 474/435/290 475/436/290 466/424/290 465/423/290
f 475/437/291 476/438/291 467/426/291 466/425/291
f 476/439/292 477/440/292 468/428/292 467/427/292
f 477/440/293 478/441/293 469/429/293 468/428/293
f 478/441/294 479/442/294 470/430/294 469/429/294
f 479/442/295 471/443/295 462/431/295 470/430/295
f 435/444/296 436/445/296 437/446/296 438/447/296 439/448/296 440/449/296 441/450/296 442/451/296 443/452/296
f 479/452/297 478/451/297 477/450/297 476/449/297 475/448/297 474/447/297 473/446/297 472/445/297 471/444/297
o canopy
v 0.126000 2.580000 1.550000
v 0.110555 2.821125 1.550000
v 0.067098 2.977298 1.550000
v 0.000000 3.032800 1.550000
v -0.067098 2.977298 1.550000
v -0.110555 2.821125 1.550000
v -0.126000 2.580000 1.550000
v -0.110555 2.565622 1.550000
v -0.067098 2.556310 1.550000
v -0.000000 2.553000 1.550000
v 0.067098 2.556310 1.550000
v 0.110555 2.565622 1.550000
v 0.306000 2.580000 1.904375
v 0.268492 2.897808 1.904375
v 0.162951 3.103647 1.904375
v 0.000000 3.176800 1.904375
v -0.162951 3.103647 1.904375
v -0.268492 2.897808 1.904375
v -0.306000 2.580000 1.904375
v -0.268492 2.560297 1.904375
v -0.162951 2.547535 1.904375
v -0.000000 2.543000 1.904375
v 0.162951 2.547535 1.904375
v 0.268492 2.560297 1.904375
v 0.360000 2.580000 2.337500
v 0.315873 2.920813 2.337500
v 0.191707 3.141552 2.337500
v 0.000000 3.220000 2.337500
v -0.191707 3.141552 2.337500
v -0.315873 2.920813 2.337500
v -0.360000 2.580000 2.337500
v -0.315873 2.558699 2.337500
v -0.191707 2.544903 2.337500
v -0.000000 2.540000 2.337500
v 0.191707 2.544903 2.337500
v 0.315873 2.558699 2.337500
v 0.360000 2.580000 2.600000
v 0.315873 2.920813 2.600000
v 0.191707 3.141552 2.600000
v 0.000000 3.220000 2.600000
v -0.191707 3.141552 2.600000
v -0.315873 2.920813 2.600000
v -0.360000 2.580000 2.600000
v -0.315873 2.558699 2.600000
v -0.191707 2.544903 2.600000
v -0.000000 2.540000 2.600000
v 0.191707 2.544903 2.600000
v 0.315873 2.558699 2.600000
v 0.288000 2.580000 2.985000
v 0.252698 2.890140 2.985000
v 0.153366 3.091012 2.985000
v 0.000000 3.162400 2.985000
v -0.153366 3.091012 2.985000
v -0.252698 2.890140 2.985000
v -0.288000 2.580000 2.985000
v -0.252698 2.560829 2.985000
v -0.153366 2.548413 2.985000
v -0.000000 2.544000 2.985000
v 0.153366 2.548413 2.985000
v 0.252698 2.560829 2.985000
v 0.108000 2.580000 3.300000
v 0.094762 2.813457 3.300000
v 0.057512 2.964663 3.300000
v 0.000000 3.018400 3.300000
v -0.057512 2.964663 3.300000
v -0.094762 2.813457 3.300000
v -0.108000 2.580000 3.300000
v -0.094762 2.566154 3.300000
v -0.057512 2.557187 3.300000
v -0.000000 2.554000 3.300000
v 0.057512 2.557187 3.300000
v 0.094762 2.566154 3.300000
vn 0.8958 0.0849 -0.4363
vn 0.8464 0.3484 -0.4029
vn 0.4534 0.8107 -0.3705
vn -0.4534 0.8107 -0.3705
vn -0.8464 0.3484 -0.4029
vn -0.8958 0.0849 -0.4363
vn -0.5232 -0.8130 -0.2556
vn -0.1462 -0.9866 -0.0720
vn -0.0341 -0.9989 -0.0311
vn 0.0341 -0.9989 -0.0311
vn 0.1462 -0.9866 -0.0720
vn 0.5232 -0.8130 -0.2556
vn 0.9854 0.1221 -0.1186
vn 0.8751 0.4712 -0.1101
vn 0.3911 0.9150 -0.0987
vn -0.3911 0.9150 -0.0987
vn -0.8751 0.4712 -0.1101
vn -0.9854 0.1221 -0.1186
vn -0.4482 -0.8923 -0.0541
vn -0.1148 -0.9933 -0.0149
vn -0.0266 -0.9996 -0.0074
vn 0.0266 -0.9996 -0.0074
vn 0.1148 -0.9933 -0.0149
vn 0.4482 -0.8923 -0.0541
vn 0.9917 0.1284 0.0000
vn 0.8716 0.4903 0.0000
vn 0.3787 0.9255 0.0000
vn -0.3787 0.9255 0.0000
vn -0.8716 0.4903 0.0000
vn -0.9917 0.1284 0.0000
vn -0.4347 -0.9006 0.0000
vn -0.1104 -0.9939 0.0000
vn -0.0256 -0.9997 0.0000
vn 0.0256 -0.9997 0.0000
vn 0.1104 -0.9939 0.0000
vn 0.4347 -0.9006 0.0000
vn 0.9771 0.1192 0.1763
vn 0.8716 0.4621 0.1636
vn 0.3940 0.9073 0.1470
vn -0.3940 0.9073 0.1470
vn -0.8716 0.4621 0.1636
vn -0.9771 0.1192 0.1763
vn -0.4525 -0.8880 0.0819
vn -0.1165 -0.9929 0.0226
vn -0.0270 -0.9996 0.0111
vn 0.0270 -0.9996 0.0111
vn 0.1165 -0.9929 0.0226
vn 0.4525 -0.8880 0.0819
vn 0.8745 0.0781 0.4786
vn 0.8365 0.3245 0.4416
vn 0.4659 0.7852 0.4078
vn -0.4659 0.7852 0.4078
vn -0.8365 0.3245 0.4416
vn -0.8745 0.0781 0.4786
vn -0.5374 -0.7901 0.2949
vn -0.1541 -0.9845 0.0841
vn -0.0360 -0.9987 0.0352
vn 0.0360 -0.9987 0.0352
vn 0.1541 -0.9845 0.0841
vn 0.5374 -0.7901 0.2949
vn -0.0000 0.0000 -1.0000
vn -0.0000 0.0000 1.0000
vt 0.846576 0.118032
vt 0.846576 0.128209
vt 0.862043 0.131446
vt 0.862043 0.118032
vt 0.846576 0.134801
vt 0.862043 0.140134
vt 0.691550 0.065326
vt 0.694336 0.065326
vt 0.694336 0.080793
vt 0.687571 0.080793
vt 0.697122 0.065326
vt 0.701101 0.080793
vt 0.725941 0.065326
vt 0.726615 0.065326
vt 0.719715 0.080793
vt 0.718077 0.080793
vt 0.728514 0.065326
vt 0.724326 0.080793
vt 0.731445 0.065326
vt 0.731445 0.080793
vt 0.734377 0.065326
vt 0.738564 0.080793
vt 0.736275 0.065326
vt 0.743175 0.080793
vt 0.736950 0.065326
vt 0.744814 0.080793
vt 0.880947 0.132417
vt 0.880947 0.118032
vt 0.880947 0.141734
vt 0.694336 0.099697
vt 0.686377 0.099697
vt 0.702295 0.099697
vt 0.717645 0.099697
vt 0.715718 0.099697
vt 0.723070 0.099697
vt 0.731445 0.099697
vt 0.739821 0.099697
vt 0.745245 0.099697
vt 0.747173 0.099697
vt 0.892404 0.132417
vt 0.892404 0.118032
vt 0.892404 0.141734
vt 0.694336 0.111154
vt 0.686377 0.111154
vt 0.702295 0.111154
vt 0.717645 0.111154
vt 0.715718 0.111154
vt 0.723070 0.111154
vt 0.731445 0.111154
vt 0.739821 0.111154
vt 0.745245 0.111154
vt 0.747173 0.111154
vt 0.909207 0.131122
vt 0.909207 0.118032
vt 0.909207 0.139601
vt 0.694336 0.127957
vt 0.687969 0.127957
vt 0.700703 0.127957
vt 0.720405 0.127957
vt 0.718863 0.127957
vt 0.724745 0.127957
vt 0.731445 0.127957
vt 0.738146 0.127957
vt 0.742485 0.127957
vt 0.744028 0.127957
vt 0.922955 0.127886
vt 0.922955 0.118032
vt 0.922955 0.134268
vt 0.694336 0.141705
vt 0.691948 0.141705
vt 0.696724 0.141705
vt 0.727305 0.141705
vt 0.726727 0.141705
vt 0.728933 0.141705
vt 0.731445 0.141705
vt 0.733958 0.141705
vt 0.735585 0.141705
vt 0.736164 0.141705
vt 0.945843 0.122442
vt 0.944099 0.122057
vt 0.941406 0.121920
vt 0.938713 0.122057
vt 0.936969 0.122442
vt 0.936350 0.123036
vt 0.936969 0.133003
vt 0.938713 0.139457
vt 0.941406 0.141751
vt 0.944099 0.139457
vt 0.945843 0.133003
vt 0.946463 0.123036
vt 0.945741 0.123036
vt 0.945209 0.132686
vt 0.943714 0.138935
vt 0.941406 0.141156
vt 0.939098 0.138935
vt 0.937603 0.132686
vt 0.937072 0.123036
vt 0.937603 0.122464
vt 0.939098 0.122093
vt 0.941406 0.121962
vt 0.943714 0.122093
vt 0.945209 0.122464
usemtl material
s 0
f 480/453/298 481/454/298 493/455/298 492/456/298
f 481/454/299 482/457/299 494/458/299 493/455/299
f 482/459/300 483/460/300 495/461/300 494/462/300
f 483/460/301 484/463/301 496/464/301 495/461/301
f 484/457/302 485/454/302 497/455/302 496/458/302
f 485/454/303 486/453/303 498/456/303 497/455/303
f 486/465/304 487/466/304 499/467/304 498/468/304
f 487/466/305 488/469/305 500/470/305 499/467/305
f 488/469/306 489/471/306 501/472/306 500/470/306
f 489/471/307 490/473/307 502/474/307 501/472/307
f 490/473/308 491/475/308 503/476/308 502/474/308
f 491/475/309 480/477/309 492/478/309 503/476/309
f 492/456/310 493/455/310 505/479/310 504/480/310
f 493/455/311 494/458/311 506/481/311 505/479/311
f 494/462/312 495/461/312 507/482/312 506/483/312
f 495/461/313 496/464/313 508/484/313 507/482/313
f 496/458/314 497/455/314 509/479/314 508/481/314
f 497/455/315 498/456/315 510/480/315 509/479/315
f 498/468/316 499/467/316 511/485/316 510/486/316
f 499/467/317 500/470/317 512/487/317 511/485/317
f 500/470/318 501/472/318 513/488/318 512/487/318
f 501/472/319 502/474/319 514/489/319 513/488/319
f 502/474/320 503/476/320 515/490/320 514/489/320
f 503/476/321 492/478/321 504/491/321 515/490/321
f 504/480/322 505/479/322 517/492/322 516/493/322
f 505/479/323 506/481/323 518/494/323 517/492/323
f 506/483/324 507/482/324 519/495/324 518/496/324
f 507/482/325 508/484/325 520/497/325 519/495/325
f 508/481/326 509/479/326 521/492/326 520/494/326
f 509/479/327 510/480/327 522/493/327 521/492/327
f 510/486/328 511/485/328 523/498/328 522/499/328
f 511/485/329 512/487/329 524/500/329 523/498/329
f 512/487/330 513/488/330 525/501/330 524/500/330
f 513/488/331 514/489/331 526/502/331 525/501/331
f 514/489/332 515/490/332 527/503/332 526/502/332
f 515/490/333 504/491/333 516/504/333 527/503/333
f 516/493/334 517/492/334 529/505/334 528/506/334
f 517/492/335 518/494/335 530/507/335 529/505/335
f 518/496/336 519/495/336 531/508/336 530/509/336
f 519/495/337 520/497/337 532/510/337 531/508/337
f 520/494/338 521/492/338 533/505/338 532/507/338
f 521/492/339 522/493/339 534/506/339 533/505/339
f 522/499/340 523/498/340 535/511/340 534/512/340
f 523/498/341 524/500/341 536/513/341 535/511/341
f 524/500/342 525/501/342 537/514/342 536/513/342
f 525/501/343 526/502/343 538/515/343 537/514/343
f 526/502/344 527/503/344 539/516/344 538/515/344
f 527/503/345 516/504/345 528/517/345 539/516/345
f 528/506/346 529/505/346 541/518/346 540/519/346
f 529/505/347 530/507/347 542/520/347 541/518/347
f 530/509/348 531/508/348 543/521/348 542/522/348
f 531/508/349 532/510/349 544/523/349 543/521/349
f 532/507/350 533/505/350 545/518/350 544/520/350
f 533/505/351 534/506/351 546/519/351 545/518/351
f 534/512/352 535/511/352 547/524/352 546/525/352
f 535/511/353 536/513/353 548/526/353 547/524/353
f 536/513/354 537/514/354 549/527/354 548/526/354
f 537/514/355 538/515/355 550/528/355 549/527/355
f 538/515/356 539/516/356 551/529/356 550/528/356
f 539/516/357 528/517/357 540/530/357 551/529/357
f 491/531/358 490/532/358 489/533/358 488/534/358 487/535/358 486/536/358 485/537/358 484/538/358 483/539/358 482/540/358 481/541/358 480/542/358
f 540/543/359 541/544/359 542/545/359 543/546/359 544/547/359 545/548/359 546/549/359 547/550/359 548/551/359 549/552/359 550/553/359 551/554/359
o $propeller
v 0.256785 2.183435 -2.255000
v 0.158702 2.318435 -2.255000
v 0.000000 2.370000 -2.255000
v -0.158702 2.318435 -2.255000
v -0.256785 2.183435 -2.255000
v -0.256785 2.016565 -2.255000
v -0.158702 1.881565 -2.255000
v -0.000000 1.830000 -2.255000
v 0.158702 1.881565 -2.255000
v 0.256785 2.016565 -2.255000
v 0.285317 2.192705 -1.880000
v 0.176336 2.342705 -1.880000
v 0.000000 2.400000 -1.880000
v -0.176336 2.342705 -1.880000
v -0.285317 2.192705 -1.880000
v -0.285317 2.007295 -1.880000
v -0.176336 1.857295 -1.880000
v -0.000000 1.800000 -1.880000
v 0.176336 1.857295 -1.880000
v 0.285317 2.007295 -1.880000
v 0.213988 2.169529 -1.617500
v 0.132252 2.282029 -1.617500
v 0.000000 2.325000 -1.617500
v -0.132252 2.282029 -1.617500
v -0.213988 2.169529 -1.617500
v -0.213988 2.030471 -1.617500
v -0.132252 1.917971 -1.617500
v -0.000000 1.875000 -1.617500
v 0.132252 1.917971 -1.617500
v 0.213988 2.030471 -1.617500
v 0.000000 2.100000 -1.505000
v 0.132480 2.243087 -1.820000
v 0.162173 2.132273 -1.861294
v 0.186275 2.042323 -1.940000
v 0.156583 2.153137 -1.898706
v 0.877378 2.428485 -1.847166
v 0.902160 2.335997 -1.864777
v 0.924074 2.254212 -1.912834
v 0.899292 2.346701 -1.895223
v 1.630145 2.584511 -1.871873
v 1.642559 2.538181 -1.869364
v 1.654003 2.495474 -1.888127
v 1.641589 2.541804 -1.890636
v -0.057677 2.286275 -1.820000
v 0.053137 2.256583 -1.861294
v 0.143087 2.232480 -1.940000
v 0.032273 2.262173 -1.898706
v 0.154212 3.024074 -1.847166
v 0.246701 2.999292 -1.864777
v 0.328485 2.977378 -1.912834
v 0.235997 3.002160 -1.895223
v 0.395474 3.754003 -1.871873
v 0.441804 3.741589 -1.869364
v 0.484511 3.730145 -1.888127
v 0.438181 3.742559 -1.890636
v -0.190157 2.143188 -1.820000
v -0.109036 2.224309 -1.861294
v -0.043188 2.290157 -1.940000
v -0.124309 2.209036 -1.898706
v -0.723166 2.695589 -1.847166
v -0.655459 2.763295 -1.864777
v -0.595589 2.823166 -1.912834
v -0.663295 2.755459 -1.895223
v -1.234671 3.269492 -1.871873
v -1.200755 3.303408 -1.869364
v -1.169492 3.334671 -1.888127
v -1.203408 3.300755 -1.890636
v -0.132480 1.956913 -1.820000
v -0.162173 2.067727 -1.861294
v -0.186275 2.157677 -1.940000
v -0.156583 2.046863 -1.898706
v -0.877378 1.771515 -1.847166
v -0.902160 1.864003 -1.864777
v -0.924074 1.945788 -1.912834
v -0.899292 1.853299 -1.895223
v -1.630145 1.615489 -1.871873
v -1.642559 1.661819 -1.869364
v -1.654003 1.704526 -1.888127
v -1.641589 1.658196 -1.890636
v 0.057677 1.913725 -1.820000
v -0.053137 1.943417 -1.861294
v -0.143087 1.967520 -1.940000
v -0.032273 1.937827 -1.898706
v -0.154212 1.175926 -1.847166
v -0.246701 1.200708 -1.864777
v -0.328485 1.222622 -1.912834
v -0.235997 1.197840 -1.895223
v -0.395474 0.445997 -1.871873
v -0.441804 0.458411 -1.869364
v -0.484511 0.469855 -1.888127
v -0.438181 0.457441 -1.890636
v 0.190157 2.056812 -1.820000
v 0.109036 1.975691 -1.861294
v 0.043188 1.909843 -1.940000
v 0.124309 1.990964 -1.898706
v 0.723166 1.504411 -1.847166
v 0.655459 1.436705 -1.864777
v 0.595589 1.376834 -1.912834
v 0.663295 1.444541 -1.895223
v 1.234671 0.930508 -1.871873
v 1.200755 0.896592 -1.869364
v 1.169492 0.865329 -1.888127
v 1.203408 0.899245 -1.890636
vn 0.8067 0.5861 -0.0759
vn 0.3081 0.9483 -0.0759
vn -0.3081 0.9483 -0.0759
vn -0.8067 0.5861 -0.0759
vn -0.9971 0.0000 -0.0759
vn -0.8067 -0.5861 -0.0759
vn -0.3081 -0.9483 -0.0759
vn 0.3081 -0.9483 -0.0759
vn 0.8067 -0.5861 -0.0759
vn 0.9971 0.0000 -0.0759
vn 0.7807 0.5672 0.2622
vn 0.2982 0.9178 0.2622
vn -0.2982 0.9178 0.2622
vn -0.7807 0.5672 0.2622
vn -0.9650 0.0000 0.2622
vn -0.7807 -0.5672 0.2622
vn -0.2982 -0.9178 0.2622
vn 0.2982 -0.9178 0.2622
vn 0.7807 -0.5672 0.2622
vn 0.9650 0.0000 0.2622
vn 0.3765 0.2735 0.8851
vn 0.1438 0.4426 0.8851
vn -0.1438 0.4426 0.8851
vn -0.3765 0.2735 0.8851
vn -0.4653 0.0000 0.8851
vn -0.3765 -0.2735 0.8851
vn -0.1438 -0.4426 0.8851
vn 0.1438 -0.4426 0.8851
vn 0.3765 -0.2735 0.8851
vn 0.4653 0.0000 0.8851
vn 0.0000 0.0000 -1.0000
vn 0.0869 -0.2557 0.9628
vn 0.1450 -0.5621 0.8142
vn -0.0526 0.2649 -0.9628
vn -0.1555 0.5594 -0.8142
vn 0.0427 -0.0967 0.9944
vn 0.1217 -0.4439 0.8878
vn -0.0114 0.1051 -0.9944
vn -0.1165 0.4453 -0.8878
vn -0.9659 -0.2588 0.0000
vn 0.9659 0.2588 -0.0000
vn 0.2649 -0.0526 0.9628
vn 0.5594 -0.1555 0.8142
vn -0.2557 0.0869 -0.9628
vn -0.5621 0.1450 -0.8142
vn 0.1051 -0.0114 0.9944
vn 0.4453 -0.1165 0.8878
vn -0.0967 0.0427 -0.9944
vn -0.4439 0.1217 -0.8878
vn -0.2588 -0.9659 -0.0000
vn 0.2588 0.9659 0.0000
vn 0.1780 0.2031 0.9628
vn 0.4143 0.4067 0.8142
vn -0.2031 -0.1780 -0.9628
vn -0.4067 -0.4143 -0.8142
vn 0.0624 0.0854 0.9944
vn 0.3236 0.3274 0.8878
vn -0.0854 -0.0624 -0.9944
vn -0.3274 -0.3236 -0.8878
vn 0.7071 -0.7071 0.0000
vn -0.7071 0.7071 0.0000
vn -0.0869 0.2557 0.9628
vn -0.1450 0.5621 0.8142
vn 0.0526 -0.2649 -0.9628
vn 0.1555 -0.5594 -0.8142
vn -0.0427 0.0967 0.9944
vn -0.1217 0.4439 0.8878
vn 0.0114 -0.1051 -0.9944
vn 0.1165 -0.4453 -0.8878
vn -0.2649 0.0526 0.9628
vn -0.5594 0.1555 0.8142
vn 0.2557 -0.0869 -0.9628
vn 0.5621 -0.1450 -0.8142
vn -0.1051 0.0114 0.9944
vn -0.4453 0.1165 0.8878
vn 0.0967 -0.0427 -0.9944
vn 0.4439 -0.1217 -0.8878
vn -0.1780 -0.2031 0.9628
vn -0.4143 -0.4067 0.8142
vn 0.2031 0.1780 -0.9628
vn 0.4067 0.4143 -0.8142
vn -0.0624 -0.0854 0.9944
vn -0.3236 -0.3274 0.8878
vn 0.0854 0.0624 -0.9944
vn 0.3274 0.3236 -0.8878
vt 0.044922 0.013672
vt 0.013672 0.013672
vt 0.029297 0.013672
usemtl material
s 0
f 552/555/360 553/555/360 563/555/360 562/555/360
f 553/555/361 554/555/361 564/555/361 563/555/361
f 554/555/362 555/555/362 565/555/362 564/555/362
f 555/555/363 556/555/363 566/555/363 565/555/363
f 556/555/364 557/555/364 567/555/364 566/555/364
f 557/555/365 558/555/365 568/555/365 567/555/365
f 558/555/366 559/555/366 569/555/366 568/555/366
f 559/555/367 560/555/367 570/555/367 569/555/367
f 560/555/368 561/555/368 571/555/368 570/555/368
f 561/555/369 552/555/369 562/555/369 571/555/369
f 562/555/370 563/555/370 573/555/370 572/555/370
f 563/555/371 564/555/371 574/555/371 573/555/371
f 564/555/372 565/555/372 575/555/372 574/555/372
f 565/555/373 566/555/373 576/555/373 575/555/373
f 566/555/374 567/555/374 577/555/374 576/555/374
f 567/555/375 568/555/375 578/555/375 577/555/375
f 568/555/376 569/555/376 579/555/376 578/555/376
f 569/555/377 570/555/377 580/555/377 579/555/377
f 570/555/378 571/555/378 581/555/378 580/555/378
f 571/555/379 562/555/379 572/555/379 581/555/379
f 572/555/380 573/555/380 582/555/380
f 573/555/381 574/555/381 582/555/381
f 574/555/382 575/555/382 582/555/382
f 575/555/383 576/555/383 582/555/383
f 576/555/384 577/555/384 582/555/384
f 577/555/385 578/555/385 582/555/385
f 578/555/386 579/555/386 582/555/386
f 579/555/387 580/555/387 582/555/387
f 580/555/388 581/555/388 582/555/388
f 581/555/389 572/555/389 582/555/389
f 561/555/390 560/555/390 559/555/390 558/555/390 557/555/390 556/555/390 555/555/390 554/555/390 553/555/390 552/555/390
f 583/556/391 584/556/391 588/556/391 587/556/391
f 584/556/392 585/556/392 589/556/392 588/556/392
f 585/556/393 586/556/393 590/556/393 589/556/393
f 586/556/394 583/556/394 587/556/394 590/556/394
f 587/557/395 588/557/395 592/557/395 591/557/395
f 588/557/396 589/557/396 593/557/396 592/557/396
f 589/557/397 590/557/397 594/557/397 593/557/397
f 590/557/398 587/557/398 591/557/398 594/557/398
f 586/556/399 585/556/399 584/556/399 583/556/399
f 591/557/400 592/557/400 593/557/400 594/557/400
f 595/556/401 596/556/401 600/556/401 599/556/401
f 596/556/402 597/556/402 601/556/402 600/556/402
f 597/556/403 598/556/403 602/556/403 601/556/403
f 598/556/404 595/556/404 599/556/404 602/556/404
f 599/557/405 600/557/405 604/557/405 603/557/405
f 600/557/406 601/557/406 605/557/406 604/557/406
f 601/557/407 602/557/407 606/557/407 605/557/407
f 602/557/408 599/557/408 603/557/408 606/557/408
f 598/556/409 597/556/409 596/556/409 595/556/409
f 603/557/410 604/557/410 605/557/410 606/557/410
f 607/556/411 608/556/411 612/556/411 611/556/411
f 608/556/412 609/556/412 613/556/412 612/556/412
f 609/556/413 610/556/413 614/556/413 613/556/413
f 610/556/414 607/556/414 611/556/414 614/556/414
f 611/557/415 612/557/415 616/557/415 615/557/415
f 612/557/416 613/557/416 617/557/416 616/557/416
f 613/557/417 614/557/417 618/557/417 617/557/417
f 614/557/418 611/557/418 615/557/418 618/557/418
f 610/556/419 609/556/419 608/556/419 607/556/419
f 615/557/420 616/557/420 617/557/420 618/557/420
f 619/556/421 620/556/421 624/556/421 623/556/421
f 620/556/422 621/556/422 625/556/422 624/556/422
f 621/556/423 622/556/423 626/556/423 625/556/423
f 622/556/424 619/556/424 623/556/424 626/556/424
f 623/557/425 624/557/425 628/557/425 627/557/425
f 624/557/426 625/557/426 629/557/426 628/557/426
f 625/557/427 626/557/427 630/557/427 629/557/427
f 626/557/428 623/557/428 627/557/428 630/557/428
f 622/556/400 621/556/400 620/556/400 619/556/400
f 627/557/399 628/557/399 629/557/399 630/557/399
f 631/556/429 632/556/429 636/556/429 635/556/429
f 632/556/430 633/556/430 637/556/430 636/556/430
f 633/556/431 634/556/431 638/556/431 637/556/431
f 634/556/432 631/556/432 635/556/432 638/556/432
f 635/557/433 636/557/433 640/557/433 639/557/433
f 636/557/434 637/557/434 641/557/434 640/557/434
f 637/557/435 638/557/435 642/557/435 641/557/435
f 638/557/436 635/557/436 639/557/436 642/557/436
f 634/556/410 633/556/410 632/556/410 631/556/410
f 639/557/409 640/557/409 641/557/409 642/557/409
f 643/556/437 644/556/437 648/556/437 647/556/437
f 644/556/438 645/556/438 649/556/438 648/556/438
f 645/556/439 646/556/439 650/556/439 649/556/439
f 646/556/440 643/556/440 647/556/440 650/556/440
f 647/557/441 648/557/441 652/557/441 651/557/441
f 648/557/442 649/557/442 653/557/442 652/557/442
f 649/557/443 650/557/443 654/557/443 653/557/443
f 650/557/444 647/557/444 651/557/444 654/557/444
f 646/556/420 645/556/420 644/556/420 643/556/420
f 651/557/419 652/557/419 653/557/419 654/557/419
o $gear_l
v 1.585000 1.909835 0.190181
v 1.620000 1.900000 0.250000
v 1.585000 1.890165 0.309819
v 1.515000 1.890165 0.309819
v 1.480000 1.900000 0.250000
v 1.515000 1.909835 0.190181
v 1.585000 0.389335 -0.059819
v 1.620000 0.379500 0.000000
v 1.585000 0.369665 0.059819
v 1.515000 0.369665 0.059819
v 1.480000 0.379500 0.000000
v 1.515000 0.389335 -0.059819
v 1.499000 0.358000 -0.048497
v 1.499000 0.386000 0.000000
v 1.499000 0.358000 0.048497
v 1.499000 0.302000 0.048497
v 1.499000 0.274000 0.000000
v 1.499000 0.302000 -0.048497
v 1.601000 0.358000 -0.048497
v 1.601000 0.386000 0.000000
v 1.601000 0.358000 0.048497
v 1.601000 0.302000 0.048497
v 1.601000 0.274000 0.000000
v 1.601000 0.302000 -0.048497
v 1.465000 0.431976 -0.313849
v 1.465000 0.596976 -0.193969
v 1.465000 0.660000 0.000000
v 1.465000 0.596976 0.193969
v 1.465000 0.431976 0.313849
v 1.465000 0.228024 0.313849
v 1.465000 0.063024 0.193969
v 1.465000 0.000000 0.000000
v 1.465000 0.063024 -0.193969
v 1.465000 0.228024 -0.313849
v 1.635000 0.431976 -0.313849
v 1.635000 0.596976 -0.193969
v 1.635000 0.660000 0.000000
v 1.635000 0.596976 0.193969
v 1.635000 0.431976 0.313849
v 1.635000 0.228024 0.313849
v 1.635000 0.063024 0.193969
v 1.635000 0.000000 0.000000
v 1.635000 0.063024 -0.193969
v 1.635000 0.228024 -0.313849
vn 0.8660 0.0811 -0.4934
vn 0.8660 -0.0811 0.4934
vn 0.0000 -0.1622 0.9868
vn -0.8660 -0.0811 0.4934
vn -0.8660 0.0811 -0.4934
vn 0.0000 0.1622 -0.9868
vn 0.0000 0.9868 0.1622
vn 0.0000 -0.9868 -0.1622
vn 0.0000 0.8660 -0.5000
vn 0.0000 0.8660 0.5000
vn 0.0000 0.0000 1.0000
vn 0.0000 -0.8660 0.5000
vn 0.0000 -0.8660 -0.5000
vn 0.0000 0.0000 -1.0000
vn -1.0000 0.0000 0.0000
vn 1.0000 -0.0000 0.0000
vn 0.0000 0.5878 -0.8090
vn 0.0000 0.9511 -0.3090
vn 0.0000 0.9511 0.3090
vn 0.0000 0.5878 0.8090
vn 0.0000 -0.5878 0.8090
vn 0.0000 -0.9511 0.3090
vn 0.0000 -0.9511 -0.3090
vn 0.0000 -0.5878 -0.8090
vt 0.076172 0.013672
vt 0.060547 0.013672
usemtl material
s 0
f 655/558/445 656/558/445 662/558/445 661/558/445
f 656/558/446 657/558/446 663/558/446 662/558/446
f 657/558/447 658/558/447 664/558/447 663/558/447
f 658/558/448 659/558/448 665/558/448 664/558/448
f 659/558/449 660/558/449 666/558/449 665/558/449
f 660/558/450 655/558/450 661/558/450 666/558/450
f 660/558/451 659/558/451 658/558/451 657/558/451 656/558/451 655/558/451
f 661/558/452 662/558/452 663/558/452 664/558/452 665/558/452 666/558/452
f 667/558/453 668/558/453 674/558/453 673/558/453
f 668/558/454 669/558/454 675/558/454 674/558/454
f 669/558/455 670/558/455 676/558/455 675/558/455
f 670/558/456 671/558/456 677/558/456 676/558/456
f 671/558/457 672/558/457 678/558/457 677/558/457
f 672/558/458 667/558/458 673/558/458 678/558/458
f 672/558/459 671/558/459 670/558/459 669/558/459 668/558/459 667/558/459
f 673/558/460 674/558/460 675/558/460 676/558/460 677/558/460 678/558/460
f 679/559/461 680/559/461 690/559/461 689/559/461
f 680/559/462 681/559/462 691/559/462 690/559/462
f 681/559/463 682/559/463 692/559/463 691/559/463
f 682/559/464 683/559/464 693/559/464 692/559/464
f 683/559/455 684/559/455 694/559/455 693/559/455
f 684/559/465 685/559/465 695/559/465 694/559/465
f 685/559/466 686/559/466 696/559/466 695/559/466
f 686/559/467 687/559/467 697/559/467 696/559/467
f 687/559/468 688/559/468 698/559/468 697/559/468
f 688/559/458 679/559/458 689/559/458 698/559/458
f 688/559/459 687/559/459 686/559/459 685/559/459 684/559/459 683/559/459 682/559/459 681/559/459 680/559/459 679/559/459
f 689/559/460 690/559/460 691/559/460 692/559/460 693/559/460 694/559/460 695/559/460 696/559/460 697/559/460 698/559/460
o $gear_r
v -1.515000 1.909835 0.190181
v -1.480000 1.900000 0.250000
v -1.515000 1.890165 0.309819
v -1.585000 1.890165 0.309819
v -1.620000 1.900000 0.250000
v -1.585000 1.909835 0.190181
v -1.515000 0.389335 -0.059819
v -1.480000 0.379500 0.000000
v -1.515000 0.369665 0.059819
v -1.585000 0.369665 0.059819
v -1.620000 0.379500 0.000000
v -1.585000 0.389335 -0.059819
v -1.601000 0.358000 -0.048497
v -1.601000 0.386000 0.000000
v -1.601000 0.358000 0.048497
v -1.601000 0.302000 0.048497
v -1.601000 0.274000 0.000000
v -1.601000 0.302000 -0.048497
v -1.499000 0.358000 -0.048497
v -1.499000 0.386000 0.000000
v -1.499000 0.358000 0.048497
v -1.499000 0.302000 0.048497
v -1.499000 0.274000 0.000000
v -1.499000 0.302000 -0.048497
v -1.635000 0.431976 -0.313849
v -1.635000 0.596976 -0.193969
v -1.635000 0.660000 0.000000
v -1.635000 0.596976 0.193969
v -1.635000 0.431976 0.313849
v -1.635000 0.228024 0.313849
v -1.635000 0.063024 0.193969
v -1.635000 0.000000 0.000000
v -1.635000 0.063024 -0.193969
v -1.635000 0.228024 -0.313849
v -1.465000 0.431976 -0.313849
v -1.465000 0.596976 -0.193969
v -1.465000 0.660000 0.000000
v -1.465000 0.596976 0.193969
v -1.465000 0.431976 0.313849
v -1.465000 0.228024 0.313849
v -1.465000 0.063024 0.193969
v -1.465000 0.000000 0.000000
v -1.465000 0.063024 -0.193969
v -1.465000 0.228024 -0.313849
vn 0.8660 0.0811 -0.4934
vn 0.8660 -0.0811 0.4934
vn 0.0000 -0.1622 0.9868
vn -0.8660 -0.0811 0.4934
vn -0.8660 0.0811 -0.4934
vn 0.0000 0.1622 -0.9868
vn 0.0000 0.9868 0.1622
vn 0.0000 -0.9868 -0.1622
vn 0.0000 0.8660 -0.5000
vn 0.0000 0.8660 0.5000
vn 0.0000 0.0000 1.0000
vn 0.0000 -0.8660 0.5000
vn 0.0000 -0.8660 -0.5000
vn 0.0000 0.0000 -1.0000
vn -1.0000 -0.0000 0.0000
vn 1.0000 0.0000 0.0000
vn 0.0000 0.5878 -0.8090
vn 0.0000 0.9511 -0.3090
vn 0.0000 0.9511 0.3090
vn 0.0000 0.5878 0.8090
vn 0.0000 -0.5878 0.8090
vn 0.0000 -0.9511 0.3090
vn 0.0000 -0.9511 -0.3090
vn 0.0000 -0.5878 -0.8090
vt 0.076172 0.013672
vt 0.060547 0.013672
usemtl material
s 0
f 699/560/469 700/560/469 706/560/469 705/560/469
f 700/560/470 701/560/470 707/560/470 706/560/470
f 701/560/471 702/560/471 708/560/471 707/560/471
f 702/560/472 703/560/472 709/560/472 708/560/472
f 703/560/473 704/560/473 710/560/473 709/560/473
f 704/560/474 699/560/474 705/560/474 710/560/474
f 704/560/475 703/560/475 702/560/475 701/560/475 700/560/475 699/560/475
f 705/560/476 706/560/476 707/560/476 708/560/476 709/560/476 710/560/476
f 711/560/477 712/560/477 718/560/477 717/560/477
f 712/560/478 713/560/478 719/560/478 718/560/478
f 713/560/479 714/560/479 720/560/479 719/560/479
f 714/560/480 715/560/480 721/560/480 720/560/480
f 715/560/481 716/560/481 722/560/481 721/560/481
f 716/560/482 711/560/482 717/560/482 722/560/482
f 716/560/483 715/560/483 714/560/483 713/560/483 712/560/483 711/560/483
f 717/560/484 718/560/484 719/560/484 720/560/484 721/560/484 722/560/484
f 723/561/485 724/561/485 734/561/485 733/561/485
f 724/561/486 725/561/486 735/561/486 734/561/486
f 725/561/487 726/561/487 736/561/487 735/561/487
f 726/561/488 727/561/488 737/561/488 736/561/488
f 727/561/479 728/561/479 738/561/479 737/561/479
f 728/561/489 729/561/489 739/561/489 738/561/489
f 729/561/490 730/561/490 740/561/490 739/561/490
f 730/561/491 731/561/491 741/561/491 740/561/491
f 731/561/492 732/561/492 742/561/492 741/561/492
f 732/561/482 723/561/482 733/561/482 742/561/482
f 732/561/483 731/561/483 730/561/483 729/561/483 728/561/483 727/561/483 726/561/483 725/561/483 724/561/483 723/561/483
f 733/561/484 734/561/484 735/561/484 736/561/484 737/561/484 738/561/484 739/561/484 740/561/484 741/561/484 742/561/484
o $gear_n
v 0.030000 1.854965 5.698276
v 0.060000 1.850000 5.750000
v 0.030000 1.845035 5.801724
v -0.030000 1.845035 5.801724
v -0.060000 1.850000 5.750000
v -0.030000 1.854965 5.698276
v 0.030000 0.292465 5.548276
v 0.060000 0.287500 5.600000
v 0.030000 0.282535 5.651724
v -0.030000 0.282535 5.651724
v -0.060000 0.287500 5.600000
v -0.030000 0.292465 5.548276
v -0.042000 0.274000 5.558431
v -0.042000 0.298000 5.600000
v -0.042000 0.274000 5.641569
v -0.042000 0.226000 5.641569
v -0.042000 0.202000 5.600000
v -0.042000 0.226000 5.558431
v 0.042000 0.274000 5.558431
v 0.042000 0.298000 5.600000
v 0.042000 0.274000 5.641569
v 0.042000 0.226000 5.641569
v 0.042000 0.202000 5.600000
v 0.042000 0.226000 5.558431
v -0.070000 0.327254 5.362236
v -0.070000 0.452254 5.453054
v -0.070000 0.500000 5.600000
v -0.070000 0.452254 5.746946
v -0.070000 0.327254 5.837764
v -0.070000 0.172746 5.837764
v -0.070000 0.047746 5.746946
v -0.070000 0.000000 5.600000
v -0.070000 0.047746 5.453054
v -0.070000 0.172746 5.362236
v 0.070000 0.327254 5.362236
v 0.070000 0.452254 5.453054
v 0.070000 0.500000 5.600000
v 0.070000 0.452254 5.746946
v 0.070000 0.327254 5.837764
v 0.070000 0.172746 5.837764
v 0.070000 0.047746 5.746946
v 0.070000 0.000000 5.600000
v 0.070000 0.047746 5.453054
v 0.070000 0.172746 5.362236
vn 0.8660 0.0478 -0.4977
vn 0.8660 -0.0478 0.4977
vn 0.0000 -0.0956 0.9954
vn -0.8660 -0.0478 0.4977
vn -0.8660 0.0478 -0.4977
vn 0.0000 0.0956 -0.9954
vn -0.0000 0.9954 0.0956
vn 0.0000 -0.9954 -0.0956
vn 0.0000 0.8660 -0.5000
vn 0.0000 0.8660 0.5000
vn 0.0000 0.0000 1.0000
vn 0.0000 -0.8660 0.5000
vn 0.0000 -0.8660 -0.5000
vn 0.0000 0.0000 -1.0000
vn -1.0000 0.0000 0.0000
vn 1.0000 0.0000 0.0000
vn 0.0000 0.5878 -0.8090
vn 0.0000 0.9511 -0.3090
vn 0.0000 0.9511 0.3090
vn 0.0000 0.5878 0.8090
vn 0.0000 -0.5878 0.8090
vn 0.0000 -0.9511 0.3090
vn 0.0000 -0.9511 -0.3090
vn 0.0000 -0.5878 -0.8090
vt 0.076172 0.013672
vt 0.060547 0.013672
usemtl material
s 0
f 743/562/493 744/562/493 750/562/493 749/562/493
f 744/562/494 745/562/494 751/562/494 750/562/494
f 745/562/495 746/562/495 752/562/495 751/562/495
f 746/562/496 747/562/496 753/562/496 752/562/496
f 747/562/497 748/562/497 754/562/497 753/562/497
f 748/562/498 743/562/498 749/562/498 754/562/498
f 748/562/499 747/562/499 746/562/499 745/562/499 744/562/499 743/562/499
f 749/562/500 750/562/500 751/562/500 752/562/500 753/562/500 754/562/500
f 755/562/501 756/562/501 762/562/501 761/562/501
f 756/562/502 757/562/502 763/562/502 762/562/502
f 757/562/503 758/562/503 764/562/503 763/562/503
f 758/562/504 759/562/504 765/562/504 764/562/504
f 759/562/505 760/562/505 766/562/505 765/562/505
f 760/562/506 755/562/506 761/562/506 766/562/506
f 760/562/507 759/562/507 758/562/507 757/562/507 756/562/507 755/562/507
f 761/562/508 762/562/508 763/562/508 764/562/508 765/562/508 766/562/508
f 767/563/509 768/563/509 778/563/509 777/563/509
f 768/563/510 769/563/510 779/563/510 778/563/510
f 769/563/511 770/563/511 780/563/511 779/563/511
f 770/563/512 771/563/512 781/563/512 780/563/512
f 771/563/503 772/563/503 782/563/503 781/563/503
f 772/563/513 773/563/513 783/563/513 782/563/513
f 773/563/514 774/563/514 784/563/514 783/563/514
f 774/563/515 775/563/515 785/563/515 784/563/515
f 775/563/516 776/563/516 786/563/516 785/563/516
f 776/563/506 767/563/506 777/563/506 786/563/506
f 776/563/507 775/563/507 774/563/507 773/563/507 772/563/507 771/563/507 770/563/507 769/563/507 768/563/507 767/563/507
f 777/563/508 778/563/508 779/563/508 780/563/508 781/563/508 782/563/508 783/563/508 784/563/508 785/563/508 786/563/508
