# meshkit verification model 'j8m1'
mtllib j8m1.mtl
o fuselage
v 0.170000 1.010000 -3.030000
v 0.147224 1.105000 -3.030000
v 0.085000 1.174545 -3.030000
v 0.000000 1.200000 -3.030000
v -0.085000 1.174545 -3.030000
v -0.147224 1.105000 -3.030000
v -0.170000 1.010000 -3.030000
v -0.147224 0.925000 -3.030000
v -0.085000 0.862776 -3.030000
v -0.000000 0.840000 -3.030000
v 0.085000 0.862776 -3.030000
v 0.147224 0.925000 -3.030000
v 0.360000 1.000000 -2.350000
v 0.313912 1.222215 -2.350000
v 0.186040 1.374950 -2.350000
v 0.000000 1.430000 -2.350000
v -0.186040 1.374950 -2.350000
v -0.313912 1.222215 -2.350000
v -0.360000 1.000000 -2.350000
v -0.313912 0.793288 -2.350000
v -0.186040 0.651209 -2.350000
v -0.000000 0.600000 -2.350000
v 0.186040 0.651209 -2.350000
v 0.313912 0.793288 -2.350000
v 0.490000 0.970000 -1.150000
v 0.429938 1.289512 -1.150000
v 0.260935 1.496455 -1.150000
v 0.000000 1.570000 -1.150000
v -0.260935 1.496455 -1.150000
v -0.429938 1.289512 -1.150000
v -0.490000 0.970000 -1.150000
v -0.429938 0.677114 -1.150000
v -0.260935 0.487417 -1.150000
v -0.000000 0.420000 -1.150000
v 0.260935 0.487417 -1.150000
v 0.429938 0.677114 -1.150000
v 0.520000 0.950000 0.050000
v 0.456261 1.285488 0.050000
v 0.276911 1.502777 0.050000
v 0.000000 1.580000 0.050000
v -0.276911 1.502777 0.050000
v -0.456261 1.285488 0.050000
v -0.520000 0.950000 0.050000
v -0.456261 0.641138 0.050000
v -0.276911 0.441094 0.050000
v -0.000000 0.370000 0.050000
v 0.276911 0.441094 0.050000
v 0.456261 0.641138 0.050000
v 0.490000 0.950000 1.050000
v 0.429938 1.253537 1.050000
v 0.260935 1.450132 1.050000
v 0.000000 1.520000 1.050000
v -0.260935 1.450132 1.050000
v -0.429938 1.253537 1.050000
v -0.490000 0.950000 1.050000
v -0.429938 0.662439 1.050000
v -0.260935 0.476191 1.050000
v -0.000000 0.410000 1.050000
v 0.260935 0.476191 1.050000
v 0.429938 0.662439 1.050000
v 0.440000 0.940000 1.950000
v 0.383670 1.188054 1.950000
v 0.227383 1.358549 1.950000
v 0.000000 1.420000 1.950000
v -0.227383 1.358549 1.950000
v -0.383670 1.188054 1.950000
v -0.440000 0.940000 1.950000
v -0.383670 0.697114 1.950000
v -0.227383 0.530170 1.950000
v -0.000000 0.470000 1.950000
v 0.227383 0.530170 1.950000
v 0.383670 0.697114 1.950000
v 0.350000 0.930000 2.450000
v 0.303109 1.115000 2.450000
v 0.175000 1.250429 2.450000
v 0.000000 1.300000 2.450000
v -0.175000 1.250429 2.450000
v -0.303109 1.115000 2.450000
v -0.350000 0.930000 2.450000
v -0.303109 0.745000 2.450000
v -0.175000 0.609571 2.450000
v -0.000000 0.560000 2.450000
v 0.175000 0.609571 2.450000
v 0.303109 0.745000 2.450000
v 0.240000 0.920000 2.680000
v 0.207846 1.045000 2.680000
v 0.120000 1.136506 2.680000
v 0.000000 1.170000 2.680000
v -0.120000 1.136506 2.680000
v -0.207846 1.045000 2.680000
v -0.240000 0.920000 2.680000
v -0.207846 0.795000 2.680000
v -0.120000 0.703494 2.680000
v -0.000000 0.670000 2.680000
v 0.120000 0.703494 2.680000
v 0.207846 0.795000 2.680000
v 0.120000 0.920000 2.770000
v 0.103923 0.985000 2.770000
v 0.060000 1.032583 2.770000
v 0.000000 1.050000 2.770000
v -0.060000 1.032583 2.770000
v -0.103923 0.985000 2.770000
v -0.120000 0.920000 2.770000
v -0.103923 0.855000 2.770000
v -0.060000 0.807417 2.770000
v -0.000000 0.790000 2.770000
v 0.060000 0.807417 2.770000
v 0.103923 0.855000 2.770000
v 0.000000 0.920000 2.800000
v 0.114127 1.047082 -3.250000
v 0.070534 1.107082 -3.250000
v 0.000000 1.130000 -3.250000
v -0.070534 1.107082 -3.250000
v -0.114127 1.047082 -3.250000
v -0.114127 0.972918 -3.250000
v -0.070534 0.912918 -3.250000
v -0.000000 0.890000 -3.250000
v 0.070534 0.912918 -3.250000
v 0.114127 0.972918 -3.250000
v 0.114127 1.047082 -2.950000
v 0.070534 1.107082 -2.950000
v 0.000000 1.130000 -2.950000
v -0.070534 1.107082 -2.950000
v -0.114127 1.047082 -2.950000
v -0.114127 0.972918 -2.950000
v -0.070534 0.912918 -2.950000
v -0.000000 0.890000 -2.950000
v 0.070534 0.912918 -2.950000
v 0.114127 0.972918 -2.950000
v -0.190000 1.360000 0.700000
v 0.190000 1.360000 0.700000
v 0.190000 1.640000 0.700000
v -0.190000 1.640000 0.700000
v -0.190000 1.360000 0.800000
v 0.190000 1.360000 0.800000
v 0.190000 1.640000 0.800000
v -0.190000 1.640000 0.800000
v -0.220000 1.400000 1.450000
v 0.220000 1.400000 1.450000
v 0.220000 1.500000 1.450000
v -0.220000 1.500000 1.450000
v -0.220000 1.400000 1.550000
v 0.220000 1.400000 1.550000
v 0.220000 1.500000 1.550000
v -0.220000 1.500000 1.550000
v -0.070000 0.310000 -0.800000
v 0.070000 0.310000 -0.800000
v 0.070000 0.390000 -0.800000
v -0.070000 0.390000 -0.800000
v -0.070000 0.310000 1.100000
v 0.070000 0.310000 1.100000
v 0.070000 0.390000 1.100000
v -0.070000 0.390000 1.100000
v -0.030311 0.658733 -2.365166
v -0.000000 0.667465 -2.380331
v 0.030311 0.658733 -2.365166
v 0.030311 0.641267 -2.334834
v 0.000000 0.632535 -2.319669
v -0.030311 0.641267 -2.334834
v -0.030311 0.398233 -2.515166
v -0.000000 0.406965 -2.530331
v 0.030311 0.398233 -2.515166
v 0.030311 0.380767 -2.484834
v 0.000000 0.372035 -2.469669
v -0.030311 0.380767 -2.484834
v -0.024000 0.384000 -2.524249
v -0.024000 0.398000 -2.500000
v -0.024000 0.384000 -2.475751
v -0.024000 0.356000 -2.475751
v -0.024000 0.342000 -2.500000
v -0.024000 0.356000 -2.524249
v 0.024000 0.384000 -2.524249
v 0.024000 0.398000 -2.500000
v 0.024000 0.384000 -2.475751
v 0.024000 0.356000 -2.475751
v 0.024000 0.342000 -2.500000
v 0.024000 0.356000 -2.524249
v -0.040000 0.410172 -2.623637
v -0.040000 0.475172 -2.576412
v -0.040000 0.500000 -2.500000
v -0.040000 0.475172 -2.423588
v -0.040000 0.410172 -2.376363
v -0.040000 0.329828 -2.376363
v -0.040000 0.264828 -2.423588
v -0.040000 0.240000 -2.500000
v -0.040000 0.264828 -2.576412
v -0.040000 0.329828 -2.623637
v 0.040000 0.410172 -2.623637
v 0.040000 0.475172 -2.576412
v 0.040000 0.500000 -2.500000
v 0.040000 0.475172 -2.423588
v 0.040000 0.410172 -2.376363
v 0.040000 0.329828 -2.376363
v 0.040000 0.264828 -2.423588
v 0.040000 0.240000 -2.500000
v 0.040000 0.264828 -2.576412
v 0.040000 0.329828 -2.623637
vn 0.9427 0.2047 -0.2634
vn 0.7277 0.6223 -0.2886
vn 0.2708 0.9118 -0.3087
vn -0.2708 0.9118 -0.3087
vn -0.7277 0.6223 -0.2886
vn -0.9427 0.2047 -0.2634
vn -0.9374 -0.2213 -0.2689
vn -0.6981 -0.6495 -0.3014
vn -0.2493 -0.9134 -0.3218
vn 0.2493 -0.9134 -0.3218
vn 0.6981 -0.6495 -0.3014
vn 0.9374 -0.2213 -0.2689
vn 0.9761 0.1913 -0.1030
vn 0.7665 0.6326 -0.1107
vn 0.2747 0.9549 -0.1126
vn -0.2747 0.9549 -0.1126
vn -0.7665 0.6326 -0.1107
vn -0.9761 0.1913 -0.1030
vn -0.9720 -0.2065 -0.1122
vn -0.7383 -0.6606 -0.1358
vn -0.2538 -0.9563 -0.1449
vn 0.2538 -0.9563 -0.1449
vn 0.7383 -0.6606 -0.1358
vn 0.9720 -0.2065 -0.1122
vn 0.9824 0.1857 -0.0212
vn 0.7728 0.6345 -0.0142
vn 0.2699 0.9629 -0.0083
vn -0.2699 0.9629 -0.0083
vn -0.7728 0.6345 -0.0142
vn -0.9824 0.1857 -0.0212
vn -0.9791 -0.2014 -0.0277
vn -0.7451 -0.6660 -0.0360
vn -0.2492 -0.9676 -0.0405
vn 0.2492 -0.9676 -0.0405
vn 0.7451 -0.6660 -0.0360
vn 0.9791 -0.2014 -0.0277
vn 0.9813 0.1901 0.0307
vn 0.7644 0.6433 0.0434
vn 0.2634 0.9630 0.0563
vn -0.2634 0.9630 0.0563
vn -0.7644 0.6433 0.0434
vn -0.9813 0.1901 0.0307
vn -0.9787 -0.2032 0.0297
vn -0.7422 -0.6693 0.0346
vn -0.2471 -0.9682 0.0383
vn 0.2471 -0.9682 0.0383
vn 0.7422 -0.6693 0.0346
vn 0.9787 -0.2032 0.0297
vn 0.9766 0.2061 0.0609
vn 0.7453 0.6605 0.0907
vn 0.2582 0.9601 0.1070
vn -0.2582 0.9601 0.1070
vn -0.7453 0.6605 0.0907
vn -0.9766 0.2061 0.0609
vn -0.9753 -0.2140 0.0551
vn -0.7340 -0.6760 0.0658
vn -0.2500 -0.9660 0.0658
vn 0.2500 -0.9660 0.0658
vn 0.7340 -0.6760 0.0658
vn 0.9753 -0.2140 0.0551
vn 0.9565 0.2280 0.1821
vn 0.7152 0.6649 0.2155
vn 0.2590 0.9387 0.2277
vn -0.2590 0.9387 0.2277
vn -0.7152 0.6649 0.2155
vn -0.9565 0.2280 0.1821
vn -0.9576 -0.2310 0.1721
vn -0.7164 -0.6738 0.1810
vn -0.2591 -0.9500 0.1745
vn 0.2591 -0.9500 0.1745
vn 0.7164 -0.6738 0.1810
vn 0.9576 -0.2310 0.1721
vn 0.8752 0.2231 0.4293
vn 0.6447 0.6135 0.4559
vn 0.2382 0.8460 0.4771
vn -0.2382 0.8460 0.4771
vn -0.6447 0.6135 0.4559
vn -0.8752 0.2231 0.4293
vn -0.8824 -0.2250 0.4133
vn -0.6600 -0.6281 0.4121
vn -0.2463 -0.8748 0.4172
vn 0.2463 -0.8748 0.4172
vn 0.6600 -0.6281 0.4121
vn 0.8824 -0.2250 0.4133
vn 0.5945 0.1509 0.7898
vn 0.4453 0.4219 0.7897
vn 0.1669 0.5902 0.7898
vn -0.1669 0.5902 0.7898
vn -0.4453 0.4219 0.7897
vn -0.5945 0.1509 0.7898
vn -0.5945 -0.1509 0.7898
vn -0.4453 -0.4219 0.7897
vn -0.1669 -0.5902 0.7898
vn 0.1669 -0.5902 0.7898
vn 0.4453 -0.4219 0.7897
vn 0.5945 -0.1509 0.7898
vn 0.2421 0.0599 0.9684
vn 0.1776 0.1639 0.9704
vn 0.0651 0.2244 0.9723
vn -0.0651 0.2244 0.9723
vn -0.1776 0.1639 0.9704
vn -0.2421 0.0599 0.9684
vn -0.2421 -0.0599 0.9684
vn -0.1776 -0.1639 0.9704
vn -0.0651 -0.2244 0.9723
vn 0.0651 -0.2244 0.9723
vn 0.1776 -0.1639 0.9704
vn 0.2421 -0.0599 0.9684
vn 0.0000 0.0000 -1.0000
vn 0.8090 0.5878 0.0000
vn 0.3090 0.9511 0.0000
vn -0.3090 0.9511 0.0000
vn -0.8090 0.5878 0.0000
vn -1.0000 0.0000 0.0000
vn -0.8090 -0.5878 0.0000
vn -0.3090 -0.9511 0.0000
vn 0.3090 -0.9511 0.0000
vn 0.8090 -0.5878 0.0000
vn 1.0000 0.0000 0.0000
vn -0.0000 0.0000 1.0000
vn 0.0000 -1.0000 0.0000
vn 0.0000 1.0000 0.0000
vn -0.5000 0.4321 -0.7505
vn 0.5000 0.4321 -0.7505
vn 0.5000 -0.4321 0.7505
vn -0.5000 -0.4321 0.7505
vn 0.0000 0.8666 0.4990
vn 0.0000 -0.8666 -0.4990
vn 0.0000 0.8660 -0.5000
vn 0.0000 0.8660 0.5000
vn 0.0000 -0.8660 0.5000
vn 0.0000 -0.8660 -0.5000
vn 0.0000 0.5878 -0.8090
vn 0.0000 0.9511 -0.3090
vn 0.0000 0.9511 0.3090
vn 0.0000 0.5878 0.8090
vn 0.0000 -0.5878 0.8090
vn 0.0000 -0.9511 0.3090
vn 0.0000 -0.9511 -0.3090
vn 0.0000 -0.5878 -0.8090
vt 0.632379 0.500180
vt 0.632379 0.506107
vt 0.675013 0.513421
vt 0.675013 0.499556
vt 0.632379 0.510447
vt 0.675013 0.522952
vt 0.302285 0.632379
vt 0.307617 0.632379
vt 0.307617 0.675013
vt 0.295946 0.675013
vt 0.312950 0.632379
vt 0.319289 0.675013
vt 0.632379 0.494876
vt 0.675013 0.486657
vt 0.632379 0.490993
vt 0.675013 0.477792
vt 0.302285 0.247899
vt 0.307617 0.247899
vt 0.307617 0.290500
vt 0.295946 0.290500
vt 0.312950 0.247899
vt 0.319289 0.290500
vt 0.750249 0.517620
vt 0.750249 0.497684
vt 0.750249 0.530533
vt 0.307617 0.750249
vt 0.291247 0.750249
vt 0.323987 0.750249
vt 0.750249 0.479408
vt 0.750249 0.467572
vt 0.307617 0.365677
vt 0.291247 0.365677
vt 0.323987 0.365677
vt 0.825486 0.517369
vt 0.825486 0.496436
vt 0.825486 0.530928
vt 0.307617 0.825486
vt 0.290245 0.825486
vt 0.324989 0.825486
vt 0.825486 0.477164
vt 0.825486 0.464681
vt 0.307617 0.440853
vt 0.290245 0.440853
vt 0.324989 0.440853
vt 0.888183 0.515376
vt 0.888183 0.496436
vt 0.888183 0.527643
vt 0.307617 0.888183
vt 0.291247 0.888183
vt 0.323987 0.888183
vt 0.888183 0.478493
vt 0.888183 0.466871
vt 0.307617 0.503501
vt 0.291247 0.503501
vt 0.323987 0.503501
vt 0.944610 0.511290
vt 0.944610 0.495812
vt 0.944610 0.521928
vt 0.307617 0.944610
vt 0.293352 0.944610
vt 0.321882 0.944610
vt 0.944610 0.480656
vt 0.944610 0.470239
vt 0.307617 0.559884
vt 0.293352 0.559884
vt 0.321882 0.559884
vt 0.975959 0.506731
vt 0.975959 0.495188
vt 0.975959 0.515182
vt 0.307617 0.975959
vt 0.296638 0.975959
vt 0.318596 0.975959
vt 0.975959 0.483644
vt 0.975959 0.475194
vt 0.307617 0.591207
vt 0.296638 0.591207
vt 0.318596 0.591207
vt 0.990379 0.502363
vt 0.990379 0.494564
vt 0.990379 0.508073
vt 0.307617 0.990379
vt 0.300089 0.990379
vt 0.315145 0.990379
vt 0.990379 0.486764
vt 0.990379 0.481054
vt 0.307617 0.605616
vt 0.300089 0.605616
vt 0.315145 0.605616
vt 0.322674 0.126797
vt 0.320657 0.134609
vt 0.314137 0.130859
vt 0.315145 0.126797
vt 0.315145 0.140329
vt 0.311381 0.133833
vt 0.307617 0.142422
vt 0.307617 0.134922
vt 0.300089 0.140329
vt 0.303853 0.133833
vt 0.294578 0.134609
vt 0.301098 0.130859
vt 0.292561 0.126797
vt 0.300089 0.126797
vt 0.294578 0.118984
vt 0.301098 0.122734
vt 0.300089 0.113265
vt 0.303853 0.119760
vt 0.307617 0.111172
vt 0.307617 0.118672
vt 0.315145 0.113265
vt 0.311381 0.119760
vt 0.320657 0.118984
vt 0.314137 0.122734
vt 0.307617 0.126797
vt 0.316853 0.127109
vt 0.312950 0.123220
vt 0.307617 0.121797
vt 0.302285 0.123220
vt 0.298381 0.127109
vt 0.296952 0.132422
vt 0.298381 0.138359
vt 0.302285 0.142706
vt 0.307617 0.144297
vt 0.312950 0.142706
vt 0.316853 0.138359
vt 0.318282 0.132422
vt 0.859375 0.224609
vt 0.890625 0.224609
vt 0.843750 0.224609
vt 0.828125 0.224609
usemtl material
s 0
f 1/1/1 2/2/1 14/3/1 13/4/1
f 2/2/2 3/5/2 15/6/2 14/3/2
f 3/7/3 4/8/3 16/9/3 15/10/3
f 4/8/4 5/11/4 17/12/4 16/9/4
f 5/5/5 6/2/5 18/3/5 17/6/5
f 6/2/6 7/1/6 19/4/6 18/3/6
f 7/1/7 8/13/7 20/14/7 19/4/7
f 8/13/8 9/15/8 21/16/8 20/14/8
f 9/17/9 10/18/9 22/19/9 21/20/9
f 10/18/10 11/21/10 23/22/10 22/19/10
f 11/15/11 12/13/11 24/14/11 23/16/11
f 12/13/12 1/1/12 13/4/12 24/14/12
f 13/4/13 14/3/13 26/23/13 25/24/13
f 14/3/14 15/6/14 27/25/14 26/23/14
f 15/10/15 16/9/15 28/26/15 27/27/15
f 16/9/16 17/12/16 29/28/16 28/26/16
f 17/6/17 18/3/17 30/23/17 29/25/17
f 18/3/18 19/4/18 31/24/18 30/23/18
f 19/4/19 20/14/19 32/29/19 31/24/19
f 20/14/20 21/16/20 33/30/20 32/29/20
f 21/20/21 22/19/21 34/31/21 33/32/21
f 22/19/22 23/22/22 35/33/22 34/31/22
f 23/16/23 24/14/23 36/29/23 35/30/23
f 24/14/24 13/4/24 25/24/24 36/29/24
f 25/24/25 26/23/25 38/34/25 37/35/25
f 26/23/26 27/25/26 39/36/26 38/34/26
f 27/27/27 28/26/27 40/37/27 39/38/27
f 28/26/28 29/28/28 41/39/28 40/37/28
f 29/25/29 30/23/29 42/34/29 41/36/29
f 30/23/30 31/24/30 43/35/30 42/34/30
f 31/24/31 32/29/31 44/40/31 43/35/31
f 32/29/32 33/30/32 45/41/32 44/40/32
f 33/32/33 34/31/33 46/42/33 45/43/33
f 34/31/34 35/33/34 47/44/34 46/42/34
f 35/30/35 36/29/35 48/40/35 47/41/35
f 36/29/36 25/24/36 37/35/36 48/40/36
f 37/35/37 38/34/37 50/45/37 49/46/37
f 38/34/38 39/36/38 51/47/38 50/45/38
f 39/38/39 40/37/39 52/48/39 51/49/39
f 40/37/40 41/39/40 53/50/40 52/48/40
f 41/36/41 42/34/41 54/45/41 53/47/41
f 42/34/42 43/35/42 55/46/42 54/45/42
f 43/35/43 44/40/43 56/51/43 55/46/43
f 44/40/44 45/41/44 57/52/44 56/51/44
f 45/43/45 46/42/45 58/53/45 57/54/45
f 46/42/46 47/44/46 59/55/46 58/53/46
f 47/41/47 48/40/47 60/51/47 59/52/47
f 48/40/48 37/35/48 49/46/48 60/51/48
f 49/46/49 50/45/49 62/56/49 61/57/49
f 50/45/50 51/47/50 63/58/50 62/56/50
f 51/49/51 52/48/51 64/59/51 63/60/51
f 52/48/52 53/50/52 65/61/52 64/59/52
f 53/47/53 54/45/53 66/56/53 65/58/53
f 54/45/54 55/46/54 67/57/54 66/56/54
f 55/46/55 56/51/55 68/62/55 67/57/55
f 56/51/56 57/52/56 69/63/56 68/62/56
f 57/54/57 58/53/57 70/64/57 69/65/57
f 58/53/58 59/55/58 71/66/58 70/64/58
f 59/52/59 60/51/59 72/62/59 71/63/59
f 60/51/60 49/46/60 61/57/60 72/62/60
f 61/57/61 62/56/61 74/67/61 73/68/61
f 62/56/62 63/58/62 75/69/62 74/67/62
f 63/60/63 64/59/63 76/70/63 75/71/63
f 64/59/64 65/61/64 77/72/64 76/70/64
f 65/58/65 66/56/65 78/67/65 77/69/65
f 66/56/66 67/57/66 79/68/66 78/67/66
f 67/57/67 68/62/67 80/73/67 79/68/67
f 68/62/68 69/63/68 81/74/68 80/73/68
f 69/65/69 70/64/69 82/75/69 81/76/69
f 70/64/70 71/66/70 83/77/70 82/75/70
f 71/63/71 72/62/71 84/73/71 83/74/71
f 72/62/72 61/57/72 73/68/72 84/73/72
f 73/68/73 74/67/73 86/78/73 85/79/73
f 74/67/74 75/69/74 87/80/74 86/78/74
f 75/71/75 76/70/75 88/81/75 87/82/75
f 76/70/76 77/72/76 89/83/76 88/81/76
f 77/69/77 78/67/77 90/78/77 89/80/77
f 78/67/78 79/68/78 91/79/78 90/78/78
f 79/68/79 80/73/79 92/84/79 91/79/79
f 80/73/80 81/74/80 93/85/80 92/84/80
f 81/76/81 82/75/81 94/86/81 93/87/81
f 82/75/82 83/77/82 95/88/82 94/86/82
f 83/74/83 84/73/83 96/84/83 95/85/83
f 84/73/84 73/68/84 85/79/84 96/84/84
f 85/89/85 86/90/85 98/91/85 97/92/85
f 86/90/86 87/93/86 99/94/86 98/91/86
f 87/93/87 88/95/87 100/96/87 99/94/87
f 88/95/88 89/97/88 101/98/88 100/96/88
f 89/97/89 90/99/89 102/100/89 101/98/89
f 90/99/90 91/101/90 103/102/90 102/100/90
f 91/101/91 92/103/91 104/104/91 103/102/91
f 92/103/92 93/105/92 105/106/92 104/104/92
f 93/105/93 94/107/93 106/108/93 105/106/93
f 94/107/94 95/109/94 107/110/94 106/108/94
f 95/109/95 96/111/95 108/112/95 107/110/95
f 96/111/96 85/89/96 97/92/96 108/112/96
f 97/92/97 98/91/97 109/113/97
f 98/91/98 99/94/98 109/113/98
f 99/94/99 100/96/99 109/113/99
f 100/96/100 101/98/100 109/113/100
f 101/98/101 102/100/101 109/113/101
f 102/100/102 103/102/102 109/113/102
f 103/102/103 104/104/103 109/113/103
f 104/104/104 105/106/104 109/113/104
f 105/106/105 106/108/105 109/113/105
f 106/108/106 107/110/106 109/113/106
f 107/110/107 108/112/107 109/113/107
f 108/112/108 97/92/108 109/113/108
f 12/114/109 11/115/109 10/116/109 9/117/109 8/118/109 7/119/109 6/120/109 5/121/109 4/122/109 3/123/109 2/124/109 1/125/109
f 110/126/110 111/126/110 121/126/110 120/126/110
f 111/126/111 112/126/111 122/126/111 121/126/111
f 112/126/112 113/126/112 123/126/112 122/126/112
f 113/126/113 114/126/113 124/126/113 123/126/113
f 114/126/114 115/126/114 125/126/114 124/126/114
f 115/126/115 116/126/115 126/126/115 125/126/115
f 116/126/116 117/126/116 127/126/116 126/126/116
f 117/126/117 118/126/117 128/126/117 127/126/117
f 118/126/118 119/126/118 129/126/118 128/126/118
f 119/126/119 110/126/119 120/126/119 129/126/119
f 119/126/109 118/126/109 117/126/109 116/126/109 115/126/109 114/126/109 113/126/109 112/126/109 111/126/109 110/126/109
f 120/126/120 121/126/120 122/126/120 123/126/120 124/126/120 125/126/120 126/126/120 127/126/120 128/126/120 129/126/120
f 130/127/121 131/127/121 135/127/121 134/127/121
f 131/127/119 132/127/119 136/127/119 135/127/119
f 132/127/122 133/127/122 137/127/122 136/127/122
f 133/127/114 130/127/114 134/127/114 137/127/114
f 133/127/109 132/127/109 131/127/109 130/127/109
f 134/127/120 135/127/120 136/127/120 137/127/120
f 138/127/121 139/127/121 143/127/121 142/127/121
f 139/127/119 140/127/119 144/127/119 143/127/119
f 140/127/122 141/127/122 145/127/122 144/127/122
f 141/127/114 138/127/114 142/127/114 145/127/114
f 141/127/109 140/127/109 139/127/109 138/127/109
f 142/127/120 143/127/120 144/127/120 145/127/120
f 146/128/121 147/128/121 151/128/121 150/128/121
f 147/128/119 148/128/119 152/128/119 151/128/119
f 148/128/122 149/128/122 153/128/122 152/128/122
f 149/128/114 146/128/114 150/128/114 153/128/114
f 149/128/109 148/128/109 147/128/109 146/128/109
f 150/128/120 151/128/120 152/128/120 153/128/120
f 154/128/123 155/128/123 161/128/123 160/128/123
f 155/128/124 156/128/124 162/128/124 161/128/124
f 156/128/119 157/128/119 163/128/119 162/128/119
f 157/128/125 158/128/125 164/128/125 163/128/125
f 158/128/126 159/128/126 165/128/126 164/128/126
f 159/128/114 154/128/114 160/128/114 165/128/114
f 159/128/127 158/128/127 157/128/127 156/128/127 155/128/127 154/128/127
f 160/128/128 161/128/128 162/128/128 163/128/128 164/128/128 165/128/128
f 166/128/129 167/128/129 173/128/129 172/128/129
f 167/128/130 168/128/130 174/128/130 173/128/130
f 168/128/120 169/128/120 175/128/120 174/128/120
f 169/128/131 170/128/131 176/128/131 175/128/131
f 170/128/132 171/128/132 177/128/132 176/128/132
f 171/128/109 166/128/109 172/128/109 177/128/109
f 171/128/114 170/128/114 169/128/114 168/128/114 167/128/114 166/128/114
f 172/128/119 173/128/119 174/128/119 175/128/119 176/128/119 177/128/119
f 178/129/133 179/129/133 189/129/133 188/129/133
f 179/129/134 180/129/134 190/129/134 189/129/134
f 180/129/135 181/129/135 191/129/135 190/129/135
f 181/129/136 182/129/136 192/129/136 191/129/136
f 182/129/120 183/129/120 193/129/120 192/129/120
f 183/129/137 184/129/137 194/129/137 193/129/137
f 184/129/138 185/129/138 195/129/138 194/129/138
f 185/129/139 186/129/139 196/129/139 195/129/139
f 186/129/140 187/129/140 197/129/140 196/129/140
f 187/129/109 178/129/109 188/129/109 197/129/109
f 187/129/114 186/129/114 185/129/114 184/129/114 183/129/114 182/129/114 181/129/114 180/129/114 179/129/114 178/129/114
f 188/129/119 189/129/119 190/129/119 191/129/119 192/129/119 193/129/119 194/129/119 195/129/119 196/129/119 197/129/119
o wing
v -4.750000 0.857844 -1.312782
v -4.750000 0.875104 -1.363541
v -4.750000 0.894033 -1.526778
v -4.750000 0.908559 -1.785596
v -4.750000 0.921561 -2.174436
v -4.750000 0.914666 -2.174918
v -4.750000 0.873426 -1.788052
v -4.750000 0.851790 -1.529732
v -4.750000 0.847817 -1.365449
v -4.450000 0.851985 -1.216986
v -4.450000 0.891461 -1.286402
v -4.450000 0.926248 -1.512526
v -4.450000 0.942384 -1.872276
v -4.450000 0.940481 -2.413728
v -4.450000 0.930904 -2.414398
v -4.450000 0.853664 -1.878480
v -4.450000 0.819575 -1.519985
v -4.450000 0.822553 -1.291220
v -2.612500 0.817391 -0.309290
v -2.612500 0.889978 -0.420436
v -2.612500 0.941204 -0.779259
v -2.612500 0.945283 -1.348772
v -2.612500 0.897816 -2.205100
v -2.612500 0.882648 -2.205683
v -2.612500 0.769624 -1.355520
v -2.612500 0.729999 -0.787372
v -2.612500 0.753545 -0.425677
v -0.570000 0.794579 0.558027
v -0.570000 0.905739 0.405113
v -0.570000 0.970035 -0.081526
v -0.570000 0.947853 -0.850939
v -0.570000 0.826315 -2.005797
v -0.570000 0.805804 -2.005969
v -0.570000 0.664934 -0.853309
v -0.570000 0.629864 -0.084376
v -0.570000 0.685997 0.403272
v 0.000000 0.790000 0.800000
v 0.000000 0.913122 0.635000
v 0.000000 0.980599 0.112500
v 0.000000 0.948520 -0.712500
v 0.000000 0.801000 -1.950000
v 0.000000 0.779000 -1.950000
v 0.000000 0.631480 -0.712500
v 0.000000 0.599401 0.112500
v 0.000000 0.666878 0.635000
v 0.570000 0.794579 0.558027
v 0.570000 0.905739 0.405113
v 0.570000 0.970035 -0.081526
v 0.570000 0.947853 -0.850939
v 0.570000 0.826315 -2.005797
v 0.570000 0.805804 -2.005969
v 0.570000 0.664934 -0.853309
v 0.570000 0.629864 -0.084376
v 0.570000 0.685997 0.403272
v 2.612500 0.817391 -0.309290
v 2.612500 0.889978 -0.420436
v 2.612500 0.941204 -0.779259
v 2.612500 0.945283 -1.348772
v 2.612500 0.897816 -2.205100
v 2.612500 0.882648 -2.205683
v 2.612500 0.769624 -1.355520
v 2.612500 0.729999 -0.787372
v 2.612500 0.753545 -0.425677
v 4.450000 0.851985 -1.216986
v 4.450000 0.891461 -1.286402
v 4.450000 0.926248 -1.512526
v 4.450000 0.942384 -1.872276
v 4.450000 0.940481 -2.413728
v 4.450000 0.930904 -2.414398
v 4.450000 0.853664 -1.878480
v 4.450000 0.819575 -1.519985
v 4.450000 0.822553 -1.291220
v 4.750000 0.857844 -1.312782
v 4.750000 0.875104 -1.363541
v 4.750000 0.894033 -1.526778
v 4.750000 0.908559 -1.785596
v 4.750000 0.921561 -2.174436
v 4.750000 0.914666 -2.174918
v 4.750000 0.873426 -1.788052
v 4.750000 0.851790 -1.529732
v 4.750000 0.847817 -1.365449
v 0.750311 0.807500 -0.105622
v 0.720000 0.825000 -0.105622
v 0.689689 0.807500 -0.105622
v 0.689689 0.772500 -0.105622
v 0.720000 0.755000 -0.105622
v 0.750311 0.772500 -0.105622
v 0.750311 0.807500 0.714378
v 0.720000 0.825000 0.714378
v 0.689689 0.807500 0.714378
v 0.689689 0.772500 0.714378
v 0.720000 0.755000 0.714378
v 0.750311 0.772500 0.714378
v -0.689689 0.807500 -0.105622
v -0.720000 0.825000 -0.105622
v -0.750311 0.807500 -0.105622
v -0.750311 0.772500 -0.105622
v -0.720000 0.755000 -0.105622
v -0.689689 0.772500 -0.105622
v -0.689689 0.807500 0.714378
v -0.720000 0.825000 0.714378
v -0.750311 0.807500 0.714378
v -0.750311 0.772500 0.714378
v -0.720000 0.755000 0.714378
v -0.689689 0.772500 0.714378
vn -0.1376 0.8957 0.4229
vn -0.1005 0.9856 0.1360
vn -0.1034 0.9934 0.0492
vn -0.0812 0.9966 0.0119
vn -0.6247 0.0545 -0.7789
vn -0.0756 -0.9890 -0.1270
vn -0.0979 -0.9912 -0.0895
vn -0.0950 -0.9955 -0.0025
vn -0.1325 -0.9465 0.2943
vn -0.2390 0.8250 0.5120
vn -0.0668 0.9872 0.1452
vn -0.0123 0.9997 0.0217
vn 0.0178 0.9992 -0.0353
vn 0.1139 0.0502 -0.9922
vn -0.0086 -0.9907 -0.1360
vn -0.0200 -0.9967 -0.0793
vn -0.0625 -0.9970 0.0448
vn -0.2310 -0.8739 0.4276
vn -0.2290 0.7990 0.5560
vn -0.0612 0.9889 0.1351
vn -0.0037 0.9999 -0.0135
vn 0.0311 0.9960 -0.0837
vn 0.0980 0.0210 -0.9950
vn -0.0225 -0.9918 -0.1257
vn -0.0336 -0.9979 -0.0557
vn -0.0757 -0.9928 0.0931
vn -0.2347 -0.8202 0.5216
vn -0.2403 0.7814 0.5759
vn -0.0636 0.9896 0.1292
vn 0.0001 0.9994 -0.0340
vn 0.0405 0.9929 -0.1117
vn 0.0978 0.0040 -0.9952
vn -0.0318 -0.9923 -0.1197
vn -0.0435 -0.9982 -0.0421
vn -0.0885 -0.9887 0.1210
vn -0.2522 -0.7836 0.5678
vn 0.2403 0.7814 0.5759
vn 0.0636 0.9896 0.1292
vn -0.0001 0.9994 -0.0340
vn -0.0405 0.9929 -0.1117
vn -0.0978 0.0040 -0.9952
vn 0.0318 -0.9923 -0.1197
vn 0.0435 -0.9982 -0.0421
vn 0.0885 -0.9887 0.1210
vn 0.2522 -0.7836 0.5678
vn 0.2290 0.7990 0.5560
vn 0.0612 0.9889 0.1351
vn 0.0037 0.9999 -0.0135
vn -0.0311 0.9960 -0.0837
vn -0.0980 0.0210 -0.9950
vn 0.0225 -0.9918 -0.1257
vn 0.0336 -0.9979 -0.0557
vn 0.0757 -0.9928 0.0931
vn 0.2347 -0.8202 0.5216
vn 0.2390 0.8250 0.5120
vn 0.0668 0.9872 0.1452
vn 0.0123 0.9997 0.0217
vn -0.0178 0.9992 -0.0353
vn -0.1139 0.0502 -0.9922
vn 0.0086 -0.9907 -0.1360
vn 0.0200 -0.9967 -0.0793
vn 0.0625 -0.9970 0.0448
vn 0.2310 -0.8739 0.4276
vn 0.1376 0.8957 0.4229
vn 0.1005 0.9856 0.1360
vn 0.1034 0.9934 0.0492
vn 0.0812 0.9966 0.0119
vn 0.6247 0.0545 -0.7789
vn 0.0756 -0.9890 -0.1270
vn 0.0979 -0.9912 -0.0895
vn 0.0950 -0.9955 -0.0025
vn 0.1325 -0.9465 0.2943
vn -1.0000 0.0000 0.0000
vn 1.0000 -0.0000 0.0000
vn 0.5000 0.8660 0.0000
vn -0.5000 0.8660 0.0000
vn -0.5000 -0.8660 0.0000
vn 0.5000 -0.8660 0.0000
vn -0.0000 0.0000 -1.0000
vn 0.0000 0.0000 1.0000
vt 0.586790 0.746050
vt 0.586790 0.741698
vt 0.605611 0.736861
vt 0.605611 0.740044
vt 0.586790 0.727520
vt 0.605611 0.726627
vt 0.586790 0.704965
vt 0.605611 0.710400
vt 0.586790 0.671018
vt 0.605611 0.686020
vt 0.028444 0.128077
vt 0.028444 0.127478
vt 0.009624 0.126464
vt 0.009624 0.126894
vt 0.028444 0.286465
vt 0.028444 0.320039
vt 0.009624 0.325704
vt 0.009624 0.301468
vt 0.028444 0.342498
vt 0.009624 0.341887
vt 0.028444 0.356830
vt 0.009624 0.352179
vt 0.028444 0.361480
vt 0.009624 0.355479
vt 0.471514 0.802959
vt 0.471514 0.795991
vt 0.471514 0.773494
vt 0.471514 0.737787
vt 0.471514 0.684098
vt 0.143721 0.125410
vt 0.143721 0.124462
vt 0.143721 0.299541
vt 0.143721 0.352801
vt 0.143721 0.388394
vt 0.143721 0.411054
vt 0.143721 0.418345
vt 0.343376 0.857338
vt 0.343376 0.847750
vt 0.343376 0.817240
vt 0.343376 0.769000
vt 0.343376 0.696594
vt 0.271858 0.120942
vt 0.271858 0.119660
vt 0.271858 0.312052
vt 0.271858 0.384264
vt 0.271858 0.432435
vt 0.271858 0.462985
vt 0.271858 0.472680
vt 0.307617 0.872509
vt 0.307617 0.862164
vt 0.307617 0.829404
vt 0.307617 0.777679
vt 0.307617 0.700092
vt 0.307617 0.119359
vt 0.307617 0.117984
vt 0.307617 0.315559
vt 0.307617 0.393085
vt 0.307617 0.444769
vt 0.307617 0.477502
vt 0.307617 0.487839
vt 0.271858 0.857338
vt 0.271858 0.847750
vt 0.271858 0.817240
vt 0.271858 0.769000
vt 0.271858 0.696594
vt 0.343376 0.120942
vt 0.343376 0.119660
vt 0.343376 0.312052
vt 0.343376 0.384264
vt 0.343376 0.432435
vt 0.343376 0.462985
vt 0.343376 0.472680
vt 0.143721 0.802959
vt 0.143721 0.795991
vt 0.143721 0.773494
vt 0.143721 0.737787
vt 0.143721 0.684098
vt 0.471514 0.125410
vt 0.471514 0.124462
vt 0.471514 0.299541
vt 0.471514 0.352801
vt 0.471514 0.388394
vt 0.471514 0.411054
vt 0.471514 0.418345
vt 0.028444 0.746050
vt 0.028444 0.741698
vt 0.028444 0.727520
vt 0.028444 0.704965
vt 0.028444 0.671018
vt 0.586790 0.128077
vt 0.586790 0.127478
vt 0.586790 0.286465
vt 0.586790 0.320039
vt 0.586790 0.342498
vt 0.586790 0.356830
vt 0.586790 0.361480
vt 0.009624 0.740044
vt 0.009624 0.736861
vt 0.009624 0.726627
vt 0.009624 0.710400
vt 0.009624 0.686020
vt 0.605611 0.126894
vt 0.605611 0.126464
vt 0.605611 0.301468
vt 0.605611 0.325704
vt 0.605611 0.341887
vt 0.605611 0.352179
vt 0.605611 0.355479
vt 0.740044 0.490685
vt 0.736861 0.491762
vt 0.726627 0.492944
vt 0.710400 0.493850
vt 0.686020 0.494661
vt 0.685990 0.494231
vt 0.710246 0.491658
vt 0.726441 0.490308
vt 0.736741 0.490060
vt 0.875000 0.224609
usemtl material
s 0
f 207/130/141 208/131/141 199/132/141 198/133/141
f 208/131/142 209/134/142 200/135/142 199/132/142
f 209/134/143 210/136/143 201/137/143 200/135/143
f 210/136/144 211/138/144 202/139/144 201/137/144
f 211/140/145 212/141/145 203/142/145 202/143/145
f 212/144/146 213/145/146 204/146/146 203/147/146
f 213/145/147 214/148/147 205/149/147 204/146/147
f 214/148/148 215/150/148 206/151/148 205/149/148
f 215/150/149 207/152/149 198/153/149 206/151/149
f 216/154/150 217/155/150 208/131/150 207/130/150
f 217/155/151 218/156/151 209/134/151 208/131/151
f 218/156/152 219/157/152 210/136/152 209/134/152
f 219/157/153 220/158/153 211/138/153 210/136/153
f 220/159/154 221/160/154 212/141/154 211/140/154
f 221/161/155 222/162/155 213/145/155 212/144/155
f 222/162/156 223/163/156 214/148/156 213/145/156
f 223/163/157 224/164/157 215/150/157 214/148/157
f 224/164/158 216/165/158 207/152/158 215/150/158
f 225/166/159 226/167/159 217/155/159 216/154/159
f 226/167/160 227/168/160 218/156/160 217/155/160
f 227/168/161 228/169/161 219/157/161 218/156/161
f 228/169/162 229/170/162 220/158/162 219/157/162
f 229/171/163 230/172/163 221/160/163 220/159/163
f 230/173/164 231/174/164 222/162/164 221/161/164
f 231/174/165 232/175/165 223/163/165 222/162/165
f 232/175/166 233/176/166 224/164/166 223/163/166
f 233/176/167 225/177/167 216/165/167 224/164/167
f 234/178/168 235/179/168 226/167/168 225/166/168
f 235/179/169 236/180/169 227/168/169 226/167/169
f 236/180/170 237/181/170 228/169/170 227/168/170
f 237/181/171 238/182/171 229/170/171 228/169/171
f 238/183/172 239/184/172 230/172/172 229/171/172
f 239/185/173 240/186/173 231/174/173 230/173/173
f 240/186/174 241/187/174 232/175/174 231/174/174
f 241/187/175 242/188/175 233/176/175 232/175/175
f 242/188/176 234/189/176 225/177/176 233/176/176
f 243/190/177 244/191/177 235/179/177 234/178/177
f 244/191/178 245/192/178 236/180/178 235/179/178
f 245/192/179 246/193/179 237/181/179 236/180/179
f 246/193/180 247/194/180 238/182/180 237/181/180
f 247/195/181 248/196/181 239/184/181 238/183/181
f 248/197/182 249/198/182 240/186/182 239/185/182
f 249/198/183 250/199/183 241/187/183 240/186/183
f 250/199/184 251/200/184 242/188/184 241/187/184
f 251/200/185 243/201/185 234/189/185 242/188/185
f 252/202/186 253/203/186 244/191/186 243/190/186
f 253/203/187 254/204/187 245/192/187 244/191/187
f 254/204/188 255/205/188 246/193/188 245/192/188
f 255/205/189 256/206/189 247/194/189 246/193/189
f 256/207/190 257/208/190 248/196/190 247/195/190
f 257/209/191 258/210/191 249/198/191 248/197/191
f 258/210/192 259/211/192 250/199/192 249/198/192
f 259/211/193 260/212/193 251/200/193 250/199/193
f 260/212/194 252/213/194 243/201/194 251/200/194
f 261/214/195 262/215/195 253/203/195 252/202/195
f 262/215/196 263/216/196 254/204/196 253/203/196
f 263/216/197 264/217/197 255/205/197 254/204/197
f 264/217/198 265/218/198 256/206/198 255/205/198
f 265/219/199 266/220/199 257/208/199 256/207/199
f 266/221/200 267/222/200 258/210/200 257/209/200
f 267/222/201 268/223/201 259/211/201 258/210/201
f 268/223/202 269/224/202 260/212/202 259/211/202
f 269/224/203 261/225/203 252/213/203 260/212/203
f 270/226/204 271/227/204 262/215/204 261/214/204
f 271/227/205 272/228/205 263/216/205 262/215/205
f 272/228/206 273/229/206 264/217/206 263/216/206
f 273/229/207 274/230/207 265/218/207 264/217/207
f 274/231/208 275/232/208 266/220/208 265/219/208
f 275/233/209 276/234/209 267/222/209 266/221/209
f 276/234/210 277/235/210 268/223/210 267/222/210
f 277/235/211 278/236/211 269/224/211 268/223/211
f 278/236/212 270/237/212 261/225/212 269/224/212
f 198/238/213 199/239/213 200/240/213 201/241/213 202/242/213 203/243/213 204/244/213 205/245/213 206/246/213
f 278/246/214 277/245/214 276/244/214 275/243/214 274/242/214 273/241/214 272/240/214 271/239/214 270/238/214
f 279/247/215 280/247/215 286/247/215 285/247/215
f 280/247/216 281/247/216 287/247/216 286/247/216
f 281/247/213 282/247/213 288/247/213 287/247/213
f 282/247/217 283/247/217 289/247/217 288/247/217
f 283/247/218 284/247/218 290/247/218 289/247/218
f 284/247/214 279/247/214 285/247/214 290/247/214
f 284/247/219 283/247/219 282/247/219 281/247/219 280/247/219 279/247/219
f 285/247/220 286/247/220 287/247/220 288/247/220 289/247/220 290/247/220
f 291/247/215 292/247/215 298/247/215 297/247/215
f 292/247/216 293/247/216 299/247/216 298/247/216
f 293/247/213 294/247/213 300/247/213 299/247/213
f 294/247/217 295/247/217 301/247/217 300/247/217
f 295/247/218 296/247/218 302/247/218 301/247/218
f 296/247/214 291/247/214 297/247/214 302/247/214
f 296/247/219 295/247/219 294/247/219 293/247/219 292/247/219 291/247/219
f 297/247/220 298/247/220 299/247/220 300/247/220 301/247/220 302/247/220
o tail
v 0.000000 1.300000 -0.900000
v 0.062361 1.300000 -1.017000
v 0.096537 1.300000 -1.387500
v 0.080290 1.300000 -1.972500
v 0.007800 1.300000 -2.850000
v -0.007800 1.300000 -2.850000
v -0.080290 1.300000 -1.972500
v -0.096537 1.300000 -1.387500
v -0.062361 1.300000 -1.017000
v 0.000000 2.550000 -2.300000
v 0.027183 2.550000 -2.351000
v 0.042080 2.550000 -2.512500
v 0.034998 2.550000 -2.767500
v 0.003400 2.550000 -3.150000
v -0.003400 2.550000 -3.150000
v -0.034998 2.550000 -2.767500
v -0.042080 2.550000 -2.512500
v -0.027183 2.550000 -2.351000
v 0.000000 2.700000 -2.385000
v 0.011417 2.700000 -2.420700
v 0.017674 2.700000 -2.533750
v 0.014699 2.700000 -2.712250
v 0.002380 2.700000 -2.980000
v -0.002380 2.700000 -2.980000
v -0.014699 2.700000 -2.712250
v -0.017674 2.700000 -2.533750
v -0.011417 2.700000 -2.420700
vn 0.7808 0.4661 0.4161
vn 0.9880 0.1251 0.0911
vn 0.9994 0.0186 -0.0278
vn 0.9965 -0.0162 -0.0823
vn 0.0000 -0.2334 -0.9724
vn -0.9965 -0.0162 -0.0823
vn -0.9994 0.0186 -0.0278
vn -0.9880 0.1251 0.0911
vn -0.7808 0.4661 0.4161
vn 0.8846 0.2496 0.3939
vn 0.9850 0.1549 0.0759
vn 0.9884 0.1499 -0.0229
vn 0.9904 0.1206 -0.0669
vn 0.0000 0.7498 -0.6616
vn -0.9904 0.1206 -0.0669
vn -0.9884 0.1499 -0.0229
vn -0.9850 0.1549 0.0759
vn -0.8846 0.2496 0.3939
vn 0.0000 -1.0000 0.0000
vn 0.0000 1.0000 -0.0000
vt 0.765924 0.518275
vt 0.758588 0.518275
vt 0.674950 0.596272
vt 0.678148 0.596272
vt 0.735359 0.518275
vt 0.664825 0.596272
vt 0.698681 0.518275
vt 0.648837 0.596272
vt 0.643665 0.518275
vt 0.624856 0.596272
vt 0.308107 0.150547
vt 0.307128 0.150547
vt 0.307404 0.228672
vt 0.307830 0.228672
vt 0.670580 0.605631
vt 0.672819 0.605631
vt 0.663493 0.605631
vt 0.652301 0.605631
vt 0.635514 0.605631
vt 0.307404 0.624856
vt 0.307830 0.624856
vt 0.307766 0.635514
vt 0.307468 0.635514
vt 0.303705 0.374009
vt 0.301561 0.350798
vt 0.302580 0.314149
vt 0.307128 0.259176
vt 0.308107 0.259176
vt 0.312654 0.314149
vt 0.313673 0.350798
vt 0.311529 0.374009
vt 0.307617 0.381338
vt 0.307617 0.672819
vt 0.306901 0.670580
vt 0.306508 0.663493
vt 0.306695 0.652301
vt 0.308539 0.652301
vt 0.308726 0.663493
vt 0.308333 0.670580
usemtl material
s 0
f 303/248/221 304/249/221 313/250/221 312/251/221
f 304/249/222 305/252/222 314/253/222 313/250/222
f 305/252/223 306/254/223 315/255/223 314/253/223
f 306/254/224 307/256/224 316/257/224 315/255/224
f 307/258/225 308/259/225 317/260/225 316/261/225
f 308/256/226 309/254/226 318/255/226 317/257/226
f 309/254/227 310/252/227 319/253/227 318/255/227
f 310/252/228 311/249/228 320/250/228 319/253/228
f 311/249/229 303/248/229 312/251/229 320/250/229
f 312/251/230 313/250/230 322/262/230 321/263/230
f 313/250/231 314/253/231 323/264/231 322/262/231
f 314/253/232 315/255/232 324/265/232 323/264/232
f 315/255/233 316/257/233 325/266/233 324/265/233
f 316/267/234 317/268/234 326/269/234 325/270/234
f 317/257/235 318/255/235 327/265/235 326/266/235
f 318/255/236 319/253/236 328/264/236 327/265/236
f 319/253/237 320/250/237 329/262/237 328/264/237
f 320/250/238 312/251/238 321/263/238 329/262/238
f 311/271/239 310/272/239 309/273/239 308/274/239 307/275/239 306/276/239 305/277/239 304/278/239 303/279/239
f 321/280/240 322/281/240 323/282/240 324/283/240 325/270/240 326/269/240 327/284/240 328/285/240 329/286/240
o canopy
v 0.115500 1.310000 0.600000
v 0.101343 1.498379 0.600000
v 0.061506 1.620389 0.600000
v 0.000000 1.663750 0.600000
v -0.061506 1.620389 0.600000
v -0.101343 1.498379 0.600000
v -0.115500 1.310000 0.600000
v -0.101343 1.295622 0.600000
v -0.061506 1.286310 0.600000
v -0.000000 1.283000 0.600000
v 0.061506 1.286310 0.600000
v 0.101343 1.295622 0.600000
v 0.280500 1.310000 0.847500
v 0.246118 1.558288 0.847500
v 0.149372 1.719099 0.847500
v 0.000000 1.776250 0.847500
v -0.149372 1.719099 0.847500
v -0.246118 1.558288 0.847500
v -0.280500 1.310000 0.847500
v -0.246118 1.290297 0.847500
v -0.149372 1.277535 0.847500
v -0.000000 1.273000 0.847500
v 0.149372 1.277535 0.847500
v 0.246118 1.290297 0.847500
v 0.330000 1.310000 1.150000
v 0.289550 1.576260 1.150000
v 0.175732 1.748712 1.150000
v 0.000000 1.810000 1.150000
v -0.175732 1.748712 1.150000
v -0.289550 1.576260 1.150000
v -0.330000 1.310000 1.150000
v -0.289550 1.288699 1.150000
v -0.175732 1.274903 1.150000
v -0.000000 1.270000 1.150000
v 0.175732 1.274903 1.150000
v 0.289550 1.288699 1.150000
v 0.264000 1.310000 1.452500
v 0.231640 1.552297 1.452500
v 0.140585 1.709228 1.452500
v 0.000000 1.765000 1.452500
v -0.140585 1.709228 1.452500
v -0.231640 1.552297 1.452500
v -0.264000 1.310000 1.452500
v -0.231640 1.290829 1.452500
v -0.140585 1.278413 1.452500
v -0.000000 1.274000 1.452500
v 0.140585 1.278413 1.452500
v 0.231640 1.290829 1.452500
v 0.099000 1.310000 1.700000
v 0.086865 1.492388 1.700000
v 0.052720 1.610518 1.700000
v 0.000000 1.652500 1.700000
v -0.052720 1.610518 1.700000
v -0.086865 1.492388 1.700000
v -0.099000 1.310000 1.700000
v -0.086865 1.296154 1.700000
v -0.052720 1.287187 1.700000
v -0.000000 1.284000 1.700000
v 0.052720 1.287187 1.700000
v 0.086865 1.296154 1.700000
vn 0.8389 0.0933 -0.5363
vn 0.7848 0.3790 -0.4903
vn 0.3907 0.8196 -0.4191
vn -0.3907 0.8196 -0.4191
vn -0.7848 0.3790 -0.4903
vn -0.8389 0.0933 -0.5363
vn -0.5392 -0.7680 -0.3457
vn -0.1587 -0.9820 -0.1026
vn -0.0371 -0.9983 -0.0445
vn 0.0371 -0.9983 -0.0445
vn 0.1587 -0.9820 -0.1026
vn 0.5392 -0.7680 -0.3457
vn 0.9777 0.1422 -0.1544
vn 0.8373 0.5290 -0.1382
vn 0.3401 0.9336 -0.1126
vn -0.3401 0.9336 -0.1126
vn -0.8373 0.5290 -0.1382
vn -0.9777 0.1422 -0.1544
vn -0.4791 -0.8744 -0.0759
vn -0.1251 -0.9919 -0.0214
vn -0.0290 -0.9995 -0.0106
vn 0.0290 -0.9995 -0.0106
vn 0.1251 -0.9919 -0.0214
vn 0.4791 -0.8744 -0.0759
vn 0.9691 0.1387 0.2040
vn 0.8348 0.5193 0.1829
vn 0.3432 0.9273 0.1494
vn -0.3432 0.9273 0.1494
vn -0.8348 0.5193 0.1829
vn -0.9691 0.1387 0.2040
vn -0.4833 -0.8695 0.1020
vn -0.1269 -0.9915 0.0288
vn -0.0294 -0.9995 0.0141
vn 0.0294 -0.9995 0.0141
vn 0.1269 -0.9915 0.0288
vn 0.4833 -0.8695 0.1020
vn 0.8396 0.0880 0.5361
vn 0.7939 0.3614 0.4889
vn 0.4098 0.8105 0.4186
vn -0.4098 0.8105 0.4186
vn -0.7939 0.3614 0.4889
vn -0.8396 0.0880 0.5361
vn -0.5567 -0.7503 0.3565
vn -0.1674 -0.9801 0.1066
vn -0.0392 -0.9982 0.0448
vn 0.0392 -0.9982 0.0448
vn 0.1674 -0.9801 0.1066
vn 0.5567 -0.7503 0.3565
vn -0.0000 0.0000 -1.0000
vn 0.0000 0.0000 1.0000
vt 0.712171 0.204349
vt 0.712171 0.215878
vt 0.727436 0.219544
vt 0.727436 0.204349
vt 0.712171 0.223345
vt 0.727436 0.229386
vt 0.629130 0.163343
vt 0.632812 0.163343
vt 0.632812 0.178608
vt 0.623869 0.178608
vt 0.636495 0.163343
vt 0.641756 0.178608
vt 0.670645 0.163343
vt 0.671514 0.163343
vt 0.662627 0.178608
vt 0.660516 0.178608
vt 0.673959 0.163343
vt 0.668565 0.178608
vt 0.677734 0.163343
vt 0.677734 0.178608
vt 0.681510 0.163343
vt 0.686903 0.178608
vt 0.683955 0.163343
vt 0.692842 0.178608
vt 0.684824 0.163343
vt 0.694953 0.178608
vt 0.746094 0.220644
vt 0.746094 0.204349
vt 0.746094 0.231198
vt 0.632812 0.197266
vt 0.622291 0.197266
vt 0.643334 0.197266
vt 0.659961 0.197266
vt 0.657478 0.197266
vt 0.666947 0.197266
vt 0.677734 0.197266
vt 0.688521 0.197266
vt 0.695508 0.197266
vt 0.697991 0.197266
vt 0.764751 0.219177
vt 0.764751 0.204349
vt 0.764751 0.228781
vt 0.632812 0.215923
vt 0.624395 0.215923
vt 0.641230 0.215923
vt 0.663515 0.215923
vt 0.661529 0.215923
vt 0.669105 0.215923
vt 0.677734 0.215923
vt 0.686364 0.215923
vt 0.691953 0.215923
vt 0.693940 0.215923
vt 0.780016 0.215511
vt 0.780016 0.204349
vt 0.780016 0.222740
vt 0.632812 0.231188
vt 0.629656 0.231188
vt 0.635969 0.231188
vt 0.672402 0.231188
vt 0.671657 0.231188
vt 0.674498 0.231188
vt 0.677734 0.231188
vt 0.680971 0.231188
vt 0.683066 0.231188
vt 0.683811 0.231188
vt 0.806624 0.209000
vt 0.804327 0.208438
vt 0.800781 0.208238
vt 0.797235 0.208438
vt 0.794938 0.209000
vt 0.794122 0.209868
vt 0.794938 0.221235
vt 0.797235 0.228598
vt 0.800781 0.231215
vt 0.804327 0.228598
vt 0.806624 0.221235
vt 0.807441 0.209868
vt 0.806489 0.209868
vt 0.805790 0.220874
vt 0.803821 0.228003
vt 0.800781 0.230536
vt 0.797742 0.228003
vt 0.795773 0.220874
vt 0.795073 0.209868
vt 0.795773 0.209032
vt 0.797742 0.208491
vt 0.800781 0.208299
vt 0.803821 0.208491
vt 0.805790 0.209032
usemtl material
s 0
f 330/287/241 331/288/241 343/289/241 342/290/241
f 331/288/242 332/291/242 344/292/242 343/289/242
f 332/293/243 333/294/243 345/295/243 344/296/243
f 333/294/244 334/297/244 346/298/244 345/295/244
f 334/291/245 335/288/245 347/289/245 346/292/245
f 335/288/246 336/287/246 348/290/246 347/289/246
f 336/299/247 337/300/247 349/301/247 348/302/247
f 337/300/248 338/303/248 350/304/248 349/301/248
f 338/303/249 339/305/249 351/306/249 350/304/249
f 339/305/250 340/307/250 352/308/250 351/306/250
f 340/307/251 341/309/251 353/310/251 352/308/251
f 341/309/252 330/311/252 342/312/252 353/310/252
f 342/290/253 343/289/253 355/313/253 354/314/253
f 343/289/254 344/292/254 356/315/254 355/313/254
f 344/296/255 345/295/255 357/316/255 356/317/255
f 345/295/256 346/298/256 358/318/256 357/316/256
f 346/292/257 347/289/257 359/313/257 358/315/257
f 347/289/258 348/290/258 360/314/258 359/313/258
f 348/302/259 349/301/259 361/319/259 360/320/259
f 349/301/260 350/304/260 362/321/260 361/319/260
f 350/304/261 351/306/261 363/322/261 362/321/261
f 351/306/262 352/308/262 364/323/262 363/322/262
f 352/308/263 353/310/263 365/324/263 364/323/263
f 353/310/264 342/312/264 354/325/264 365/324/264
f 354/314/265 355/313/265 367/326/265 366/327/265
f 355/313/266 356/315/266 368/328/266 367/326/266
f 356/317/267 357/316/267 369/329/267 368/330/267
f 357/316/268 358/318/268 370/331/268 369/329/268
f 358/315/269 359/313/269 371/326/269 370/328/269
f 359/313/270 360/314/270 372/327/270 371/326/270
f 360/320/271 361/319/271 373/332/271 372/333/271
f 361/319/272 362/321/272 374/334/272 373/332/272
f 362/321/273 363/322/273 375/335/273 374/334/273
f 363/322/274 364/323/274 376/336/274 375/335/274
f 364/323/275 365/324/275 377/337/275 376/336/275
f 365/324/276 354/325/276 366/338/276 377/337/276
f 366/327/277 367/326/277 379/339/277 378/340/277
f 367/326/278 368/328/278 380/341/278 379/339/278
f 368/330/279 369/329/279 381/342/279 380/343/279
f 369/329/280 370/331/280 382/344/280 381/342/280
f 370/328/281 371/326/281 383/339/281 382/341/281
f 371/326/282 372/327/282 384/340/282 383/339/282
f 372/333/283 373/332/283 385/345/283 384/346/283
f 373/332/284 374/334/284 386/347/284 385/345/284
f 374/334/285 375/335/285 387/348/285 386/347/285
f 375/335/286 376/336/286 388/349/286 387/348/286
f 376/336/287 377/337/287 389/350/287 388/349/287
f 377/337/288 366/338/288 378/351/288 389/350/288
f 341/352/289 340/353/289 339/354/289 338/355/289 337/356/289 336/357/289 335/358/289 334/359/289 333/360/289 332/361/289 331/362/289 330/363/289
f 378/364/290 379/365/290 380/366/290 381/367/290 382/368/290 383/369/290 384/370/290 385/371/290 386/372/290 387/373/290 388/374/290 389/375/290
o $dolly
v -0.620000 0.355000 -0.043301
v -0.620000 0.380000 0.000000
v -0.620000 0.355000 0.043301
v -0.620000 0.305000 0.043301
v -0.620000 0.280000 0.000000
v -0.620000 0.305000 -0.043301
v 0.620000 0.355000 -0.043301
v 0.620000 0.380000 0.000000
v 0.620000 0.355000 0.043301
v 0.620000 0.305000 0.043301
v 0.620000 0.280000 0.000000
v 0.620000 0.305000 -0.043301
v 0.500000 0.431976 -0.313849
v 0.500000 0.596976 -0.193969
v 0.500000 0.660000 0.000000
v 0.500000 0.596976 0.193969
v 0.500000 0.431976 0.313849
v 0.500000 0.228024 0.313849
v 0.500000 0.063024 0.193969
v 0.500000 0.000000 0.000000
v 0.500000 0.063024 -0.193969
v 0.500000 0.228024 -0.313849
v 0.660000 0.431976 -0.313849
v 0.660000 0.596976 -0.193969
v 0.660000 0.660000 0.000000
v 0.660000 0.596976 0.193969
v 0.660000 0.431976 0.313849
v 0.660000 0.228024 0.313849
v 0.660000 0.063024 0.193969
v 0.660000 0.000000 0.000000
v 0.660000 0.063024 -0.193969
v 0.660000 0.228024 -0.313849
v 0.259788 0.344389 0.015326
v 0.244462 0.358779 -0.024462
v 0.204674 0.344389 -0.039788
v 0.180212 0.315611 -0.015326
v 0.195538 0.301221 0.024462
v 0.235326 0.315611 0.039788
v 0.159788 0.514389 0.115326
v 0.144462 0.528779 0.075538
v 0.104674 0.514389 0.060212
v 0.080212 0.485611 0.084674
v 0.095538 0.471221 0.124462
v 0.135326 0.485611 0.139788
v -0.660000 0.431976 -0.313849
v -0.660000 0.596976 -0.193969
v -0.660000 0.660000 0.000000
v -0.660000 0.596976 0.193969
v -0.660000 0.431976 0.313849
v -0.660000 0.228024 0.313849
v -0.660000 0.063024 0.193969
v -0.660000 0.000000 0.000000
v -0.660000 0.063024 -0.193969
v -0.660000 0.228024 -0.313849
v -0.500000 0.431976 -0.313849
v -0.500000 0.596976 -0.193969
v -0.500000 0.660000 0.000000
v -0.500000 0.596976 0.193969
v -0.500000 0.431976 0.313849
v -0.500000 0.228024 0.313849
v -0.500000 0.063024 0.193969
v -0.500000 0.000000 0.000000
v -0.500000 0.063024 -0.193969
v -0.500000 0.228024 -0.313849
v -0.204674 0.344389 -0.039788
v -0.244462 0.358779 -0.024462
v -0.259788 0.344389 0.015326
v -0.235326 0.315611 0.039788
v -0.195538 0.301221 0.024462
v -0.180212 0.315611 -0.015326
v -0.104674 0.514389 0.060212
v -0.144462 0.528779 0.075538
v -0.159788 0.514389 0.115326
v -0.135326 0.485611 0.139788
v -0.095538 0.471221 0.124462
v -0.080212 0.485611 0.084674
vn 0.0000 0.8660 -0.5000
vn 0.0000 0.8660 0.5000
vn 0.0000 0.0000 1.0000
vn 0.0000 -0.8660 0.5000
vn 0.0000 -0.8660 -0.5000
vn 0.0000 0.0000 -1.0000
vn -1.0000 0.0000 0.0000
vn 1.0000 0.0000 0.0000
vn 0.0000 0.5878 -0.8090
vn 0.0000 0.9511 -0.3090
vn 0.0000 0.9511 0.3090
vn 0.0000 0.5878 0.8090
vn 0.0000 -0.5878 0.8090
vn 0.0000 -0.9511 0.3090
vn 0.0000 -0.9511 -0.3090
vn 0.0000 -0.5878 -0.8090
vn 0.8243 0.5538 -0.1172
vn 0.1172 0.5538 -0.8243
vn -0.7071 0.0000 -0.7071
vn -0.8243 -0.5538 0.1172
vn -0.1172 -0.5538 0.8243
vn 0.7071 -0.0000 0.7071
vn 0.4522 -0.7688 -0.4522
vn -0.4522 0.7688 0.4522
vn -0.1172 0.5538 -0.8243
vn -0.8243 0.5538 -0.1172
vn -0.7071 -0.0000 0.7071
vn 0.1172 -0.5538 0.8243
vn 0.8243 -0.5538 0.1172
vn 0.7071 0.0000 -0.7071
vn -0.4522 -0.7688 -0.4522
vn 0.4522 0.7688 0.4522
vt 0.843750 0.224609
vt 0.828125 0.224609
usemtl material
s 0
f 390/376/291 391/376/291 397/376/291 396/376/291
f 391/376/292 392/376/292 398/376/292 397/376/292
f 392/376/293 393/376/293 399/376/293 398/376/293
f 393/376/294 394/376/294 400/376/294 399/376/294
f 394/376/295 395/376/295 401/376/295 400/376/295
f 395/376/296 390/376/296 396/376/296 401/376/296
f 395/376/297 394/376/297 393/376/297 392/376/297 391/376/297 390/376/297
f 396/376/298 397/376/298 398/376/298 399/376/298 400/376/298 401/376/298
f 402/377/299 403/377/299 413/377/299 412/377/299
f 403/377/300 404/377/300 414/377/300 413/377/300
f 404/377/301 405/377/301 415/377/301 414/377/301
f 405/377/302 406/377/302 416/377/302 415/377/302
f 406/377/293 407/377/293 417/377/293 416/377/293
f 407/377/303 408/377/303 418/377/303 417/377/303
f 408/377/304 409/377/304 419/377/304 418/377/304
f 409/377/305 410/377/305 420/377/305 419/377/305
f 410/377/306 411/377/306 421/377/306 420/377/306
f 411/377/296 402/377/296 412/377/296 421/377/296
f 411/377/297 410/377/297 409/377/297 408/377/297 407/377/297 406/377/297 405/377/297 404/377/297 403/377/297 402/377/297
f 412/377/298 413/377/298 414/377/298 415/377/298 416/377/298 417/377/298 418/377/298 419/377/298 420/377/298 421/377/298
f 422/376/307 423/376/307 429/376/307 428/376/307
f 423/376/308 424/376/308 430/376/308 429/376/308
f 424/376/309 425/376/309 431/376/309 430/376/309
f 425/376/310 426/376/310 432/376/310 431/376/310
f 426/376/311 427/376/311 433/376/311 432/376/311
f 427/376/312 422/376/312 428/376/312 433/376/312
f 427/376/313 426/376/313 425/376/313 424/376/313 423/376/313 422/376/313
f 428/376/314 429/376/314 430/376/314 431/376/314 432/376/314 433/376/314
f 434/377/299 435/377/299 445/377/299 444/377/299
f 435/377/300 436/377/300 446/377/300 445/377/300
f 436/377/301 437/377/301 447/377/301 446/377/301
f 437/377/302 438/377/302 448/377/302 447/377/302
f 438/377/293 439/377/293 449/377/293 448/377/293
f 439/377/303 440/377/303 450/377/303 449/377/303
f 440/377/304 441/377/304 451/377/304 450/377/304
f 441/377/305 442/377/305 452/377/305 451/377/305
f 442/377/306 443/377/306 453/377/306 452/377/306
f 443/377/296 434/377/296 444/377/296 453/377/296
f 443/377/297 442/377/297 441/377/297 440/377/297 439/377/297 438/377/297 437/377/297 436/377/297 435/377/297 434/377/297
f 444/377/298 445/377/298 446/377/298 447/377/298 448/377/298 449/377/298 450/377/298 451/377/298 452/377/298 453/377/298
f 454/376/315 455/376/315 461/376/315 460/376/315
f 455/376/316 456/376/316 462/376/316 461/376/316
f 456/376/317 457/376/317 463/376/317 462/376/317
f 457/376/318 458/376/318 464/376/318 463/376/318
f 458/376/319 459/376/319 465/376/319 464/376/319
f 459/376/320 454/376/320 460/376/320 465/376/320
f 459/376/321 458/376/321 457/376/321 456/376/321 455/376/321 454/376/321
f 460/376/322 461/376/322 462/376/322 463/376/322 464/376/322 465/376/322
