# meshkit verification model 'kikka'
mtllib kikka.mtl
o fuselage
v 0.000000 1.740000 -4.900000
v 0.170000 1.720000 -4.400000
v 0.147224 1.830000 -4.400000
v 0.085000 1.910526 -4.400000
v 0.000000 1.940000 -4.400000
v -0.085000 1.910526 -4.400000
v -0.147224 1.830000 -4.400000
v -0.170000 1.720000 -4.400000
v -0.147224 1.630000 -4.400000
v -0.085000 1.564115 -4.400000
v -0.000000 1.540000 -4.400000
v 0.085000 1.564115 -4.400000
v 0.147224 1.630000 -4.400000
v 0.360000 1.660000 -2.900000
v 0.315873 1.883659 -2.900000
v 0.191707 2.028518 -2.900000
v 0.000000 2.080000 -2.900000
v -0.191707 2.028518 -2.900000
v -0.315873 1.883659 -2.900000
v -0.360000 1.660000 -2.900000
v -0.315873 1.457642 -2.900000
v -0.191707 1.326579 -2.900000
v -0.000000 1.280000 -2.900000
v 0.191707 1.326579 -2.900000
v 0.315873 1.457642 -2.900000
v 0.480000 1.620000 -0.900000
v 0.423565 1.921021 -0.900000
v 0.262710 2.105335 -0.900000
v 0.000000 2.170000 -0.900000
v -0.262710 2.105335 -0.900000
v -0.423565 1.921021 -0.900000
v -0.480000 1.620000 -0.900000
v -0.423565 1.346344 -0.900000
v -0.262710 1.178786 -0.900000
v -0.000000 1.120000 -0.900000
v 0.262710 1.178786 -0.900000
v 0.423565 1.346344 -0.900000
v 0.500000 1.620000 0.400000
v 0.441214 1.937441 0.400000
v 0.273656 2.131808 0.400000
v 0.000000 2.200000 0.400000
v -0.273656 2.131808 0.400000
v -0.441214 1.937441 0.400000
v -0.500000 1.620000 0.400000
v -0.441214 1.335398 0.400000
v -0.273656 1.161138 0.400000
v -0.000000 1.100000 0.400000
v 0.273656 1.161138 0.400000
v 0.441214 1.335398 0.400000
v 0.480000 1.600000 1.700000
v 0.421164 1.876911 1.700000
v 0.255610 2.056261 1.700000
v 0.000000 2.120000 1.700000
v -0.255610 2.056261 1.700000
v -0.421164 1.876911 1.700000
v -0.480000 1.600000 1.700000
v -0.421164 1.333740 1.700000
v -0.255610 1.161288 1.700000
v -0.000000 1.100000 1.700000
v 0.255610 1.161288 1.700000
v 0.421164 1.333740 1.700000
v 0.390000 1.570000 3.000000
v 0.340071 1.787047 3.000000
v 0.201544 1.936231 3.000000
v 0.000000 1.990000 3.000000
v -0.201544 1.936231 3.000000
v -0.340071 1.787047 3.000000
v -0.390000 1.570000 3.000000
v -0.340071 1.352953 3.000000
v -0.201544 1.203769 3.000000
v -0.000000 1.150000 3.000000
v 0.201544 1.203769 3.000000
v 0.340071 1.352953 3.000000
v 0.230000 1.540000 3.950000
v 0.199186 1.660000 3.950000
v 0.115000 1.747846 3.950000
v 0.000000 1.780000 3.950000
v -0.115000 1.747846 3.950000
v -0.199186 1.660000 3.950000
v -0.230000 1.540000 3.950000
v -0.199186 1.420000 3.950000
v -0.115000 1.332154 3.950000
v -0.000000 1.300000 3.950000
v 0.115000 1.332154 3.950000
v 0.199186 1.420000 3.950000
v 0.000000 1.520000 4.350000
v -0.200000 2.090000 0.050000
v 0.200000 2.090000 0.050000
v 0.200000 2.390000 0.050000
v -0.200000 2.390000 0.050000
v -0.200000 2.090000 0.150000
v 0.200000 2.090000 0.150000
v 0.200000 2.390000 0.150000
v -0.200000 2.390000 0.150000
v -0.250000 2.110000 1.000000
v 0.250000 2.110000 1.000000
v 0.250000 2.230000 1.000000
v -0.250000 2.230000 1.000000
v -0.250000 2.110000 1.100000
v 0.250000 2.110000 1.100000
v 0.250000 2.230000 1.100000
v -0.250000 2.230000 1.100000
vn 0.9313 0.1928 -0.3089
vn 0.7485 0.5784 -0.3245
vn 0.3065 0.8838 -0.3535
vn -0.3065 0.8838 -0.3535
vn -0.7485 0.5784 -0.3245
vn -0.9313 0.1928 -0.3089
vn -0.9180 -0.2323 -0.3214
vn -0.6829 -0.6450 -0.3430
vn -0.2547 -0.8978 -0.3591
vn 0.2547 -0.8978 -0.3591
vn 0.6829 -0.6450 -0.3430
vn 0.9180 -0.2323 -0.3214
vn 0.9739 0.1953 -0.1160
vn 0.7662 0.6337 -0.1066
vn 0.2796 0.9557 -0.0921
vn -0.2796 0.9557 -0.0921
vn -0.7662 0.6337 -0.1066
vn -0.9739 0.1953 -0.1160
vn -0.9662 -0.2211 -0.1326
vn -0.7171 -0.6787 -0.1585
vn -0.2441 -0.9553 -0.1671
vn 0.2441 -0.9553 -0.1671
vn 0.7171 -0.6787 -0.1585
vn 0.9662 -0.2211 -0.1326
vn 0.9806 0.1879 -0.0557
vn 0.7549 0.6537 -0.0524
vn 0.2474 0.9679 -0.0448
vn -0.2474 0.9679 -0.0448
vn -0.7549 0.6537 -0.0524
vn -0.9806 0.1879 -0.0557
vn -0.9764 -0.2063 -0.0634
vn -0.7213 -0.6884 -0.0768
vn -0.2252 -0.9711 -0.0787
vn 0.2252 -0.9711 -0.0787
vn 0.7213 -0.6884 -0.0768
vn 0.9764 -0.2063 -0.0634
vn 0.9830 0.1831 -0.0154
vn 0.7553 0.6551 -0.0191
vn 0.2404 0.9704 -0.0221
vn -0.2404 0.9704 -0.0221
vn -0.7553 0.6551 -0.0191
vn -0.9830 0.1831 -0.0154
vn -0.9792 -0.2021 -0.0150
vn -0.7210 -0.6927 -0.0155
vn -0.2182 -0.9758 -0.0150
vn 0.2182 -0.9758 -0.0150
vn 0.7210 -0.6927 -0.0155
vn 0.9792 -0.2021 -0.0150
vn 0.9808 0.1941 0.0211
vn 0.7457 0.6647 0.0457
vn 0.2414 0.9686 0.0596
vn -0.2414 0.9686 0.0596
vn -0.7457 0.6647 0.0457
vn -0.9808 0.1941 0.0211
vn -0.9779 -0.2088 0.0133
vn -0.7211 -0.6928 0.0102
vn -0.2254 -0.9743 0.0016
vn 0.2254 -0.9743 0.0016
vn 0.7211 -0.6928 0.0102
vn 0.9779 -0.2088 0.0133
vn 0.9739 0.2145 0.0740
vn 0.7307 0.6764 0.0926
vn 0.2478 0.9639 0.0978
vn -0.2478 0.9639 0.0978
vn -0.7307 0.6764 0.0926
vn -0.9739 0.2145 0.0740
vn -0.9737 -0.2191 0.0632
vn -0.7256 -0.6860 0.0540
vn -0.2439 -0.9690 0.0395
vn 0.2439 -0.9690 0.0395
vn 0.7256 -0.6860 0.0540
vn 0.9737 -0.2191 0.0632
vn 0.9582 0.2295 0.1707
vn 0.7145 0.6713 0.1970
vn 0.2561 0.9437 0.2095
vn -0.2561 0.9437 0.2095
vn -0.7145 0.6713 0.1970
vn -0.9582 0.2295 0.1707
vn -0.9605 -0.2301 0.1566
vn -0.7199 -0.6764 0.1557
vn -0.2589 -0.9539 0.1516
vn 0.2589 -0.9539 0.1516
vn 0.7199 -0.6764 0.1557
vn 0.9605 -0.2301 0.1566
vn 0.8417 0.2161 0.4948
vn 0.6186 0.5929 0.5156
vn 0.2282 0.8163 0.5306
vn -0.2282 0.8163 0.5306
vn -0.6186 0.5929 0.5156
vn -0.8417 0.2161 0.4948
vn -0.8507 -0.2184 0.4782
vn -0.6373 -0.6107 0.4700
vn -0.2380 -0.8510 0.4681
vn 0.2380 -0.8510 0.4681
vn 0.6373 -0.6107 0.4700
vn 0.8507 -0.2184 0.4782
vn 0.0000 -1.0000 0.0000
vn 1.0000 0.0000 0.0000
vn 0.0000 1.0000 0.0000
vn -1.0000 0.0000 0.0000
vn 0.0000 0.0000 -1.0000
vn 0.0000 0.0000 1.0000
vt 0.008761 0.459871
vt 0.032940 0.464210
vt 0.032940 0.458907
vt 0.032940 0.468092
vt 0.250000 0.543917
vt 0.250000 0.568097
vt 0.245899 0.568097
vt 0.254101 0.568097
vt 0.032940 0.454567
vt 0.032940 0.451391
vt 0.750000 0.543917
vt 0.750000 0.568097
vt 0.745899 0.568097
vt 0.754101 0.568097
vt 0.105479 0.466797
vt 0.105479 0.456014
vt 0.105479 0.473781
vt 0.250000 0.640635
vt 0.240750 0.640635
vt 0.259250 0.640635
vt 0.105479 0.446258
vt 0.105479 0.439939
vt 0.750000 0.640635
vt 0.740750 0.640635
vt 0.759250 0.640635
vt 0.202197 0.468598
vt 0.202197 0.454085
vt 0.202197 0.477485
vt 0.250000 0.737354
vt 0.237324 0.737354
vt 0.262676 0.737354
vt 0.202197 0.440892
vt 0.202197 0.432813
vt 0.750000 0.737354
vt 0.737324 0.737354
vt 0.762676 0.737354
vt 0.265064 0.469390
vt 0.265064 0.454085
vt 0.265064 0.478761
vt 0.250000 0.800221
vt 0.236796 0.800221
vt 0.263204 0.800221
vt 0.543930 0.401404
vt 0.543930 0.388547
vt 0.606440 0.388033
vt 0.606440 0.401404
vt 0.543930 0.380675
vt 0.606440 0.379846
vt 0.750000 0.800221
vt 0.736796 0.800221
vt 0.763204 0.800221
vt 0.327931 0.466472
vt 0.327931 0.453121
vt 0.327931 0.475119
vt 0.250000 0.863087
vt 0.237667 0.863087
vt 0.262333 0.863087
vt 0.668950 0.387955
vt 0.668950 0.400464
vt 0.668950 0.379853
vt 0.750000 0.863087
vt 0.737667 0.863087
vt 0.762333 0.863087
vt 0.390798 0.462139
vt 0.390798 0.451675
vt 0.390798 0.469332
vt 0.250000 0.925954
vt 0.240276 0.925954
vt 0.259724 0.925954
vt 0.327931 0.440284
vt 0.390798 0.441210
vt 0.731460 0.381849
vt 0.731460 0.388858
vt 0.750000 0.925954
vt 0.740276 0.925954
vt 0.759724 0.925954
vt 0.436739 0.456014
vt 0.436739 0.450228
vt 0.436739 0.460249
vt 0.250000 0.971895
vt 0.244451 0.971895
vt 0.255549 0.971895
vt 0.436739 0.444443
vt 0.390798 0.434018
vt 0.436739 0.440207
vt 0.750000 0.971895
vt 0.744451 0.971895
vt 0.755549 0.971895
vt 0.456083 0.449264
vt 0.250000 0.991239
vt 0.750000 0.991239
vt 0.228516 0.283203
usemtl material
s 0
f 1/1/1 3/2/1 2/3/1
f 1/1/2 4/4/2 3/2/2
f 1/5/3 5/6/3 4/7/3
f 1/5/4 6/8/4 5/6/4
f 1/1/5 7/2/5 6/4/5
f 1/1/6 8/3/6 7/2/6
f 1/1/7 9/9/7 8/3/7
f 1/1/8 10/10/8 9/9/8
f 1/11/9 11/12/9 10/13/9
f 1/11/10 12/14/10 11/12/10
f 1/1/11 13/9/11 12/10/11
f 1/1/12 2/3/12 13/9/12
f 2/3/13 3/2/13 15/15/13 14/16/13
f 3/2/14 4/4/14 16/17/14 15/15/14
f 4/7/15 5/6/15 17/18/15 16/19/15
f 5/6/16 6/8/16 18/20/16 17/18/16
f 6/4/17 7/2/17 19/15/17 18/17/17
f 7/2/18 8/3/18 20/16/18 19/15/18
f 8/3/19 9/9/19 21/21/19 20/16/19
f 9/9/20 10/10/20 22/22/20 21/21/20
f 10/13/21 11/12/21 23/23/21 22/24/21
f 11/12/22 12/14/22 24/25/22 23/23/22
f 12/10/23 13/9/23 25/21/23 24/22/23
f 13/9/24 2/3/24 14/16/24 25/21/24
f 14/16/25 15/15/25 27/26/25 26/27/25
f 15/15/26 16/17/26 28/28/26 27/26/26
f 16/19/27 17/18/27 29/29/27 28/30/27
f 17/18/28 18/20/28 30/31/28 29/29/28
f 18/17/29 19/15/29 31/26/29 30/28/29
f 19/15/30 20/16/30 32/27/30 31/26/30
f 20/16/31 21/21/31 33/32/31 32/27/31
f 21/21/32 22/22/32 34/33/32 33/32/32
f 22/24/33 23/23/33 35/34/33 34/35/33
f 23/23/34 24/25/34 36/36/34 35/34/34
f 24/22/35 25/21/35 37/32/35 36/33/35
f 25/21/36 14/16/36 26/27/36 37/32/36
f 26/27/37 27/26/37 39/37/37 38/38/37
f 27/26/38 28/28/38 40/39/38 39/37/38
f 28/30/39 29/29/39 41/40/39 40/41/39
f 29/29/40 30/31/40 42/42/40 41/40/40
f 30/28/41 31/26/41 43/37/41 42/39/41
f 31/26/42 32/27/42 44/38/42 43/37/42
f 32/43/43 33/44/43 45/45/43 44/46/43
f 33/44/44 34/47/44 46/48/44 45/45/44
f 34/35/45 35/34/45 47/49/45 46/50/45
f 35/34/46 36/36/46 48/51/46 47/49/46
f 36/47/47 37/44/47 49/45/47 48/48/47
f 37/44/48 26/43/48 38/46/48 49/45/48
f 38/38/49 39/37/49 51/52/49 50/53/49
f 39/37/50 40/39/50 52/54/50 51/52/50
f 40/41/51 41/40/51 53/55/51 52/56/51
f 41/40/52 42/42/52 54/57/52 53/55/52
f 42/39/53 43/37/53 55/52/53 54/54/53
f 43/37/54 44/38/54 56/53/54 55/52/54
f 44/46/55 45/45/55 57/58/55 56/59/55
f 45/45/56 46/48/56 58/60/56 57/58/56
f 46/50/57 47/49/57 59/61/57 58/62/57
f 47/49/58 48/51/58 60/63/58 59/61/58
f 48/48/59 49/45/59 61/58/59 60/60/59
f 49/45/60 38/46/60 50/59/60 61/58/60
f 50/53/61 51/52/61 63/64/61 62/65/61
f 51/52/62 52/54/62 64/66/62 63/64/62
f 52/56/63 53/55/63 65/67/63 64/68/63
f 53/55/64 54/57/64 66/69/64 65/67/64
f 54/54/65 55/52/65 67/64/65 66/66/65
f 55/52/66 56/53/66 68/65/66 67/64/66
f 56/53/67 57/70/67 69/71/67 68/65/67
f 57/58/68 58/60/68 70/72/68 69/73/68
f 58/62/69 59/61/69 71/74/69 70/75/69
f 59/61/70 60/63/70 72/76/70 71/74/70
f 60/60/71 61/58/71 73/73/71 72/72/71
f 61/70/72 50/53/72 62/65/72 73/71/72
f 62/65/73 63/64/73 75/77/73 74/78/73
f 63/64/74 64/66/74 76/79/74 75/77/74
f 64/68/75 65/67/75 77/80/75 76/81/75
f 65/67/76 66/69/76 78/82/76 77/80/76
f 66/66/77 67/64/77 79/77/77 78/79/77
f 67/64/78 68/65/78 80/78/78 79/77/78
f 68/65/79 69/71/79 81/83/79 80/78/79
f 69/71/80 70/84/80 82/85/80 81/83/80
f 70/75/81 71/74/81 83/86/81 82/87/81
f 71/74/82 72/76/82 84/88/82 83/86/82
f 72/84/83 73/71/83 85/83/83 84/85/83
f 73/71/84 62/65/84 74/78/84 85/83/84
f 74/78/85 75/77/85 86/89/85
f 75/77/86 76/79/86 86/89/86
f 76/81/87 77/80/87 86/90/87
f 77/80/88 78/82/88 86/90/88
f 78/79/89 79/77/89 86/89/89
f 79/77/90 80/78/90 86/89/90
f 80/78/91 81/83/91 86/89/91
f 81/83/92 82/85/92 86/89/92
f 82/87/93 83/86/93 86/91/93
f 83/86/94 84/88/94 86/91/94
f 84/85/95 85/83/95 86/89/95
f 85/83/96 74/78/96 86/89/96
f 87/92/97 88/92/97 92/92/97 91/92/97
f 88/92/98 89/92/98 93/92/98 92/92/98
f 89/92/99 90/92/99 94/92/99 93/92/99
f 90/92/100 87/92/100 91/92/100 94/92/100
f 90/92/101 89/92/101 88/92/101 87/92/101
f 91/92/102 92/92/102 93/92/102 94/92/102
f 95/92/97 96/92/97 100/92/97 99/92/97
f 96/92/98 97/92/98 101/92/98 100/92/98
f 97/92/99 98/92/99 102/92/99 101/92/99
f 98/92/100 95/92/100 99/92/100 102/92/100
f 98/92/101 97/92/101 96/92/101 95/92/101
f 99/92/102 100/92/102 101/92/102 102/92/102
o wing
v -2.620000 1.529220 0.953280
v -2.620000 1.577119 0.870864
v -2.620000 1.603369 0.609880
v -2.620000 1.590890 0.197800
v -2.620000 1.534715 -0.420320
v -2.620000 1.523726 -0.420320
v -2.620000 1.467551 0.197800
v -2.620000 1.455071 0.609880
v -2.620000 1.481322 0.870864
v -1.200000 1.404986 1.032800
v -1.200000 1.469904 0.931640
v -1.200000 1.505481 0.611300
v -1.200000 1.488568 0.105500
v -1.200000 1.411730 -0.653200
v -1.200000 1.398242 -0.653200
v -1.200000 1.321405 0.105500
v -1.200000 1.304491 0.611300
v -1.200000 1.340069 0.931640
v 0.000000 1.300000 1.100000
v 0.000000 1.381069 0.983000
v 0.000000 1.425498 0.612500
v 0.000000 1.404376 0.027500
v 0.000000 1.307800 -0.850000
v 0.000000 1.292200 -0.850000
v 0.000000 1.195624 0.027500
v 0.000000 1.174502 0.612500
v 0.000000 1.218931 0.983000
v 1.200000 1.404986 1.032800
v 1.200000 1.469904 0.931640
v 1.200000 1.505481 0.611300
v 1.200000 1.488568 0.105500
v 1.200000 1.411730 -0.653200
v 1.200000 1.398242 -0.653200
v 1.200000 1.321405 0.105500
v 1.200000 1.304491 0.611300
v 1.200000 1.340069 0.931640
v 2.620000 1.529220 0.953280
v 2.620000 1.577119 0.870864
v 2.620000 1.603369 0.609880
v 2.620000 1.590890 0.197800
v 2.620000 1.534715 -0.420320
v 2.620000 1.523726 -0.420320
v 2.620000 1.467551 0.197800
v 2.620000 1.455071 0.609880
v 2.620000 1.481322 0.870864
v 1.750000 1.060000 -0.650000
v 1.730902 1.121803 -0.650000
v 1.680902 1.160000 -0.650000
v 1.619098 1.160000 -0.650000
v 1.569098 1.121803 -0.650000
v 1.550000 1.060000 -0.650000
v 1.569098 0.998197 -0.650000
v 1.619098 0.960000 -0.650000
v 1.680902 0.960000 -0.650000
v 1.730902 0.998197 -0.650000
v 1.890000 1.060000 -0.400000
v 1.844164 1.208328 -0.400000
v 1.724164 1.300000 -0.400000
v 1.575836 1.300000 -0.400000
v 1.455836 1.208328 -0.400000
v 1.410000 1.060000 -0.400000
v 1.455836 0.911672 -0.400000
v 1.575836 0.820000 -0.400000
v 1.724164 0.820000 -0.400000
v 1.844164 0.911672 -0.400000
v 1.980000 1.060000 0.300000
v 1.916976 1.276312 0.300000
v 1.751976 1.410000 0.300000
v 1.548024 1.410000 0.300000
v 1.383024 1.276312 0.300000
v 1.320000 1.060000 0.300000
v 1.383024 0.856049 0.300000
v 1.548024 0.730000 0.300000
v 1.751976 0.730000 0.300000
v 1.916976 0.856049 0.300000
v 1.990000 1.060000 1.400000
v 1.925066 1.282492 1.400000
v 1.755066 1.420000 1.400000
v 1.544934 1.420000 1.400000
v 1.374934 1.282492 1.400000
v 1.310000 1.060000 1.400000
v 1.374934 0.849868 1.400000
v 1.544934 0.720000 1.400000
v 1.755066 0.720000 1.400000
v 1.925066 0.849868 1.400000
v 1.960000 1.060000 2.100000
v 1.900795 1.257771 2.100000
v 1.745795 1.380000 2.100000
v 1.554205 1.380000 2.100000
v 1.399205 1.257771 2.100000
v 1.340000 1.060000 2.100000
v 1.399205 0.868409 2.100000
v 1.554205 0.750000 2.100000
v 1.745795 0.750000 2.100000
v 1.900795 0.868409 2.100000
v 1.940000 1.060000 2.250000
v 1.884615 1.245410 2.250000
v 1.739615 1.360000 2.250000
v 1.560385 1.360000 2.250000
v 1.415385 1.245410 2.250000
v 1.360000 1.060000 2.250000
v 1.415385 0.880770 2.250000
v 1.560385 0.770000 2.250000
v 1.739615 0.770000 2.250000
v 1.884615 0.880770 2.250000
v 1.859232 1.127984 2.100000
v 1.779313 1.237984 2.100000
v 1.650000 1.280000 2.100000
v 1.520687 1.237984 2.100000
v 1.440768 1.127984 2.100000
v 1.440768 0.992016 2.100000
v 1.520687 0.882016 2.100000
v 1.650000 0.840000 2.100000
v 1.779313 0.882016 2.100000
v 1.859232 0.992016 2.100000
v 1.859232 1.127984 2.280000
v 1.779313 1.237984 2.280000
v 1.650000 1.280000 2.280000
v 1.520687 1.237984 2.280000
v 1.440768 1.127984 2.280000
v 1.440768 0.992016 2.280000
v 1.520687 0.882016 2.280000
v 1.650000 0.840000 2.280000
v 1.779313 0.882016 2.280000
v 1.859232 0.992016 2.280000
v 1.797821 1.121229 -0.750000
v 1.711229 1.207821 -0.750000
v 1.588771 1.207821 -0.750000
v 1.502179 1.121229 -0.750000
v 1.502179 0.998771 -0.750000
v 1.588771 0.912179 -0.750000
v 1.711229 0.912179 -0.750000
v 1.797821 0.998771 -0.750000
v 1.751627 1.102095 -0.450000
v 1.692095 1.161627 -0.450000
v 1.607905 1.161627 -0.450000
v 1.548373 1.102095 -0.450000
v 1.548373 1.017905 -0.450000
v 1.607905 0.958373 -0.450000
v 1.692095 0.958373 -0.450000
v 1.751627 1.017905 -0.450000
v -1.550000 1.060000 -0.650000
v -1.569098 1.121803 -0.650000
v -1.619098 1.160000 -0.650000
v -1.680902 1.160000 -0.650000
v -1.730902 1.121803 -0.650000
v -1.750000 1.060000 -0.650000
v -1.730902 0.998197 -0.650000
v -1.680902 0.960000 -0.650000
v -1.619098 0.960000 -0.650000
v -1.569098 0.998197 -0.650000
v -1.410000 1.060000 -0.400000
v -1.455836 1.208328 -0.400000
v -1.575836 1.300000 -0.400000
v -1.724164 1.300000 -0.400000
v -1.844164 1.208328 -0.400000
v -1.890000 1.060000 -0.400000
v -1.844164 0.911672 -0.400000
v -1.724164 0.820000 -0.400000
v -1.575836 0.820000 -0.400000
v -1.455836 0.911672 -0.400000
v -1.320000 1.060000 0.300000
v -1.383024 1.276312 0.300000
v -1.548024 1.410000 0.300000
v -1.751976 1.410000 0.300000
v -1.916976 1.276312 0.300000
v -1.980000 1.060000 0.300000
v -1.916976 0.856049 0.300000
v -1.751976 0.730000 0.300000
v -1.548024 0.730000 0.300000
v -1.383024 0.856049 0.300000
v -1.310000 1.060000 1.400000
v -1.374934 1.282492 1.400000
v -1.544934 1.420000 1.400000
v -1.755066 1.420000 1.400000
v -1.925066 1.282492 1.400000
v -1.990000 1.060000 1.400000
v -1.925066 0.849868 1.400000
v -1.755066 0.720000 1.400000
v -1.544934 0.720000 1.400000
v -1.374934 0.849868 1.400000
v -1.340000 1.060000 2.100000
v -1.399205 1.257771 2.100000
v -1.554205 1.380000 2.100000
v -1.745795 1.380000 2.100000
v -1.900795 1.257771 2.100000
v -1.960000 1.060000 2.100000
v -1.900795 0.868409 2.100000
v -1.745795 0.750000 2.100000
v -1.554205 0.750000 2.100000
v -1.399205 0.868409 2.100000
v -1.360000 1.060000 2.250000
v -1.415385 1.245410 2.250000
v -1.560385 1.360000 2.250000
v -1.739615 1.360000 2.250000
v -1.884615 1.245410 2.250000
v -1.940000 1.060000 2.250000
v -1.884615 0.880770 2.250000
v -1.739615 0.770000 2.250000
v -1.560385 0.770000 2.250000
v -1.415385 0.880770 2.250000
v -1.440768 1.127984 2.100000
v -1.520687 1.237984 2.100000
v -1.650000 1.280000 2.100000
v -1.779313 1.237984 2.100000
v -1.859232 1.127984 2.100000
v -1.859232 0.992016 2.100000
v -1.779313 0.882016 2.100000
v -1.650000 0.840000 2.100000
v -1.520687 0.882016 2.100000
v -1.440768 0.992016 2.100000
v -1.440768 1.127984 2.280000
v -1.520687 1.237984 2.280000
v -1.650000 1.280000 2.280000
v -1.779313 1.237984 2.280000
v -1.859232 1.127984 2.280000
v -1.859232 0.992016 2.280000
v -1.779313 0.882016 2.280000
v -1.650000 0.840000 2.280000
v -1.520687 0.882016 2.280000
v -1.440768 0.992016 2.280000
v -1.502179 1.121229 -0.750000
v -1.588771 1.207821 -0.750000
v -1.711229 1.207821 -0.750000
v -1.797821 1.121229 -0.750000
v -1.797821 0.998771 -0.750000
v -1.711229 0.912179 -0.750000
v -1.588771 0.912179 -0.750000
v -1.502179 0.998771 -0.750000
v -1.548373 1.102095 -0.450000
v -1.607905 1.161627 -0.450000
v -1.692095 1.161627 -0.450000
v -1.751627 1.102095 -0.450000
v -1.751627 1.017905 -0.450000
v -1.692095 0.958373 -0.450000
v -1.607905 0.958373 -0.450000
v -1.548373 1.017905 -0.450000
vn 0.0435 0.8512 0.5231
vn 0.0693 0.9920 0.1055
vn 0.0693 0.9971 -0.0319
vn 0.0678 0.9931 -0.0959
vn -0.1618 0.0000 -0.9868
vn -0.1056 -0.9898 -0.0956
vn -0.1049 -0.9940 -0.0318
vn -0.1039 -0.9890 0.1052
vn -0.1049 -0.8473 0.5207
vn 0.0396 0.8304 0.5557
vn 0.0672 0.9911 0.1148
vn 0.0671 0.9971 -0.0348
vn 0.0657 0.9923 -0.1052
vn -0.1075 -0.9887 -0.1048
vn -0.1070 -0.9937 -0.0346
vn -0.1059 -0.9878 0.1144
vn -0.1052 -0.8265 0.5531
vn -0.0396 0.8304 0.5557
vn -0.0672 0.9911 0.1148
vn -0.0671 0.9971 -0.0348
vn -0.0657 0.9923 -0.1052
vn 0.1618 0.0000 -0.9868
vn 0.1075 -0.9887 -0.1048
vn 0.1070 -0.9937 -0.0346
vn 0.1059 -0.9878 0.1144
vn 0.1052 -0.8265 0.5531
vn -0.0435 0.8512 0.5231
vn -0.0693 0.9920 0.1055
vn -0.0693 0.9971 -0.0319
vn -0.0678 0.9931 -0.0959
vn 0.1056 -0.9898 -0.0956
vn 0.1049 -0.9940 -0.0318
vn 0.1039 -0.9890 0.1052
vn 0.1049 -0.8473 0.5207
vn -1.0000 -0.0000 0.0000
vn 1.0000 -0.0000 0.0000
vn 0.8424 0.2603 -0.4718
vn 0.5319 0.6963 -0.4820
vn 0.0000 0.8725 -0.4886
vn -0.5319 0.6963 -0.4820
vn -0.8424 0.2603 -0.4718
vn -0.8424 -0.2603 -0.4718
vn -0.5319 -0.6963 -0.4820
vn 0.0000 -0.8725 -0.4886
vn 0.5319 -0.6963 -0.4820
vn 0.8424 -0.2603 -0.4718
vn 0.9508 0.2838 -0.1244
vn 0.6139 0.7764 -0.1428
vn 0.0000 0.9879 -0.1552
vn -0.6139 0.7764 -0.1428
vn -0.9508 0.2838 -0.1244
vn -0.9483 -0.2930 -0.1219
vn -0.6023 -0.7884 -0.1253
vn 0.0000 -0.9918 -0.1275
vn 0.6023 -0.7884 -0.1253
vn 0.9483 -0.2930 -0.1219
vn 0.9600 0.2799 -0.0087
vn 0.6292 0.7772 -0.0089
vn 0.0000 1.0000 -0.0091
vn -0.6292 0.7772 -0.0089
vn -0.9600 0.2799 -0.0087
vn -0.9554 -0.2952 -0.0087
vn -0.6070 -0.7946 -0.0089
vn 0.0000 -1.0000 -0.0091
vn 0.6070 -0.7946 -0.0089
vn 0.9554 -0.2952 -0.0087
vn 0.9582 0.2830 0.0421
vn 0.6235 0.7802 0.0510
vn 0.0000 0.9984 0.0570
vn -0.6235 0.7802 0.0510
vn -0.9582 0.2830 0.0421
vn -0.9546 -0.2950 0.0409
vn -0.6065 -0.7940 0.0421
vn 0.0000 -0.9991 0.0428
vn 0.6065 -0.7940 0.0421
vn 0.9546 -0.2950 0.0409
vn 0.9504 0.2842 0.1263
vn 0.6144 0.7783 0.1297
vn 0.0000 0.9912 0.1322
vn -0.6144 0.7783 0.1297
vn -0.9504 0.2842 0.1263
vn -0.9478 -0.2929 0.1264
vn -0.6019 -0.7879 0.1299
vn 0.0000 -0.9912 0.1322
vn 0.6019 -0.7879 0.1299
vn 0.9478 -0.2929 0.1264
vn 0.0000 0.0000 -1.0000
vn 0.0000 0.0000 1.0000
vn 0.8090 0.5878 0.0000
vn 0.3090 0.9511 0.0000
vn -0.3090 0.9511 0.0000
vn -0.8090 0.5878 0.0000
vn -0.8090 -0.5878 0.0000
vn -0.3090 -0.9511 0.0000
vn 0.3090 -0.9511 0.0000
vn 0.8090 -0.5878 0.0000
vn 0.6989 0.6989 0.1522
vn 0.0000 0.9884 0.1522
vn -0.6989 0.6989 0.1522
vn -0.9884 0.0000 0.1522
vn -0.6989 -0.6989 0.1522
vn -0.0000 -0.9884 0.1522
vn 0.6989 -0.6989 0.1522
vn 0.9884 -0.0000 0.1522
vt 0.307899 0.830822
vt 0.307899 0.825930
vt 0.376413 0.822991
vt 0.376413 0.826977
vt 0.307899 0.810439
vt 0.376413 0.810370
vt 0.307899 0.785979
vt 0.376413 0.790442
vt 0.307899 0.749289
vt 0.376413 0.760551
vt 0.656945 0.451642
vt 0.656945 0.450995
vt 0.588431 0.457016
vt 0.588431 0.457544
vt 0.227450 0.321263
vt 0.227450 0.357322
vt 0.159165 0.361708
vt 0.159165 0.332331
vt 0.227450 0.381361
vt 0.159165 0.381293
vt 0.227450 0.396585
vt 0.159165 0.393697
vt 0.227450 0.401393
vt 0.159165 0.397614
vt 0.250000 0.834072
vt 0.250000 0.828414
vt 0.250000 0.810497
vt 0.250000 0.782207
vt 0.250000 0.739772
vt 0.714844 0.446655
vt 0.714844 0.445906
vt 0.750000 0.739772
vt 0.750000 0.782207
vt 0.692101 0.785979
vt 0.692101 0.749289
vt 0.750000 0.810497
vt 0.692101 0.810439
vt 0.750000 0.828414
vt 0.692101 0.825930
vt 0.750000 0.834072
vt 0.692101 0.830822
vt 0.192101 0.830822
vt 0.192101 0.825930
vt 0.192101 0.810439
vt 0.192101 0.785979
vt 0.192101 0.749289
vt 0.772743 0.451642
vt 0.772743 0.450995
vt 0.807899 0.749289
vt 0.807899 0.785979
vt 0.807899 0.810439
vt 0.807899 0.825930
vt 0.807899 0.830822
vt 0.123587 0.826977
vt 0.123587 0.822991
vt 0.123587 0.810370
vt 0.123587 0.790442
vt 0.123587 0.760551
vt 0.841256 0.457544
vt 0.841256 0.457016
vt 0.411148 0.332331
vt 0.411148 0.361708
vt 0.342862 0.357322
vt 0.342862 0.321263
vt 0.411148 0.381293
vt 0.342862 0.381361
vt 0.411148 0.393697
vt 0.342862 0.396585
vt 0.411148 0.397614
vt 0.342862 0.401393
vt 0.291820 0.449709
vt 0.287835 0.452018
vt 0.275214 0.453283
vt 0.255286 0.452682
vt 0.225394 0.449973
vt 0.225394 0.449444
vt 0.255286 0.446735
vt 0.275214 0.446134
vt 0.287835 0.447399
vt 0.214287 0.427086
vt 0.214287 0.430066
vt 0.226377 0.434238
vt 0.226377 0.427086
vt 0.015783 0.303688
vt 0.018099 0.303688
vt 0.016095 0.315603
vt 0.010535 0.315603
vt 0.020963 0.303688
vt 0.022968 0.315603
vt 0.023280 0.303688
vt 0.028528 0.315603
vt 0.745097 0.391321
vt 0.745097 0.388511
vt 0.757055 0.384578
vt 0.757055 0.391321
vt 0.825708 0.749443
vt 0.828120 0.749443
vt 0.826033 0.761533
vt 0.820243 0.761533
vt 0.831102 0.749443
vt 0.833189 0.761533
vt 0.833515 0.749443
vt 0.838979 0.761533
vt 0.214287 0.424107
vt 0.226377 0.419935
vt 0.260228 0.437515
vt 0.260228 0.427086
vt 0.014806 0.348965
vt 0.007161 0.348965
vt 0.024256 0.348965
vt 0.031902 0.348965
vt 0.790537 0.382049
vt 0.790537 0.391321
vt 0.824691 0.795385
vt 0.816730 0.795385
vt 0.834531 0.795385
vt 0.842492 0.795385
vt 0.260228 0.417253
vt 0.313423 0.437813
vt 0.313423 0.427086
vt 0.014663 0.401391
vt 0.006786 0.401391
vt 0.165469 0.795385
vt 0.175309 0.795385
vt 0.175458 0.848580
vt 0.165320 0.848580
vt 0.032276 0.401391
vt 0.024399 0.401391
vt 0.790537 0.401154
vt 0.843152 0.391321
vt 0.843152 0.401435
vt 0.843152 0.381769
vt 0.824542 0.848580
vt 0.816339 0.848580
vt 0.834680 0.848580
vt 0.842883 0.848580
vt 0.313423 0.416955
vt 0.347275 0.436621
vt 0.347275 0.427086
vt 0.157117 0.848580
vt 0.165767 0.882431
vt 0.158288 0.882431
vt 0.175011 0.882431
vt 0.183661 0.848580
vt 0.182490 0.882431
vt 0.876634 0.391321
vt 0.876634 0.400311
vt 0.876634 0.382611
vt 0.824989 0.882431
vt 0.817510 0.882431
vt 0.834233 0.882431
vt 0.841712 0.882431
vt 0.347275 0.417849
vt 0.354529 0.436025
vt 0.354529 0.427086
vt 0.166065 0.889685
vt 0.159069 0.889685
vt 0.174713 0.889685
vt 0.181709 0.889685
vt 0.883809 0.383173
vt 0.883809 0.391321
vt 0.825287 0.889685
vt 0.818291 0.889685
vt 0.833935 0.889685
vt 0.840931 0.889685
vt 0.354529 0.418445
vt 0.798358 0.431798
vt 0.795946 0.429965
vt 0.792964 0.429965
vt 0.790551 0.431798
vt 0.789630 0.434764
vt 0.790551 0.437730
vt 0.792964 0.439563
vt 0.795946 0.439563
vt 0.798358 0.437730
vt 0.799280 0.434764
vt 0.808447 0.434764
vt 0.805775 0.443661
vt 0.798779 0.449160
vt 0.790131 0.449160
vt 0.783135 0.443661
vt 0.780463 0.434764
vt 0.783135 0.426163
vt 0.790131 0.420848
vt 0.798779 0.420848
vt 0.805775 0.426163
vt 0.197266 0.283203
vt 0.212891 0.283203
vt 0.006816 0.280131
vt 0.006816 0.282978
vt 0.018774 0.286963
vt 0.018774 0.280131
vt 0.054845 0.303688
vt 0.057162 0.303688
vt 0.055157 0.315603
vt 0.049597 0.315603
vt 0.060026 0.303688
vt 0.062030 0.315603
vt 0.062342 0.303688
vt 0.067590 0.315603
vt 0.666485 0.749443
vt 0.668898 0.749443
vt 0.666811 0.761533
vt 0.661021 0.761533
vt 0.671880 0.749443
vt 0.673967 0.761533
vt 0.674292 0.749443
vt 0.679757 0.761533
vt 0.006816 0.277284
vt 0.018774 0.273299
vt 0.052256 0.290094
vt 0.052256 0.280131
vt 0.053869 0.348965
vt 0.046223 0.348965
vt 0.063319 0.348965
vt 0.070964 0.348965
vt 0.665469 0.795385
vt 0.657508 0.795385
vt 0.675309 0.795385
vt 0.683270 0.795385
vt 0.052256 0.270737
vt 0.053726 0.401391
vt 0.045849 0.401391
vt 0.324691 0.795385
vt 0.334531 0.795385
vt 0.334680 0.848580
vt 0.324542 0.848580
vt 0.071339 0.401391
vt 0.063462 0.401391
vt 0.665320 0.848580
vt 0.657117 0.848580
vt 0.675458 0.848580
vt 0.683661 0.848580
vt 0.104871 0.280131
vt 0.104871 0.270452
vt 0.316339 0.848580
vt 0.324989 0.882431
vt 0.317510 0.882431
vt 0.334233 0.882431
vt 0.342883 0.848580
vt 0.341712 0.882431
vt 0.665767 0.882431
vt 0.658288 0.882431
vt 0.675011 0.882431
vt 0.682490 0.882431
vt 0.138353 0.280131
vt 0.138353 0.271306
vt 0.138353 0.289240
vt 0.145528 0.288671
vt 0.145528 0.280131
vt 0.325287 0.889685
vt 0.318291 0.889685
vt 0.333935 0.889685
vt 0.340931 0.889685
vt 0.666065 0.889685
vt 0.659069 0.889685
vt 0.674713 0.889685
vt 0.681709 0.889685
vt 0.145528 0.271876
vt 0.639136 0.431798
vt 0.636724 0.429965
vt 0.633742 0.429965
vt 0.631329 0.431798
vt 0.630408 0.434764
vt 0.631329 0.437730
vt 0.633742 0.439563
vt 0.636724 0.439563
vt 0.639136 0.437730
vt 0.640058 0.434764
vt 0.649225 0.434764
vt 0.646553 0.443661
vt 0.639557 0.449160
vt 0.630909 0.449160
vt 0.623913 0.443661
vt 0.621240 0.434764
vt 0.623913 0.426163
vt 0.630909 0.420848
vt 0.639557 0.420848
vt 0.646553 0.426163
usemtl material
s 0
f 112/93/103 113/94/103 104/95/103 103/96/103
f 113/94/104 114/97/104 105/98/104 104/95/104
f 114/97/105 115/99/105 106/100/105 105/98/105
f 115/99/106 116/101/106 107/102/106 106/100/106
f 116/103/107 117/104/107 108/105/107 107/106/107
f 117/107/108 118/108/108 109/109/108 108/110/108
f 118/108/109 119/111/109 110/112/109 109/109/109
f 119/111/110 120/113/110 111/114/110 110/112/110
f 120/113/111 112/115/111 103/116/111 111/114/111
f 121/117/112 122/118/112 113/94/112 112/93/112
f 122/118/113 123/119/113 114/97/113 113/94/113
f 123/119/114 124/120/114 115/99/114 114/97/114
f 124/120/115 125/121/115 116/101/115 115/99/115
f 125/122/107 126/123/107 117/104/107 116/103/107
f 126/124/116 127/125/116 118/126/116 117/127/116
f 127/125/117 128/128/117 119/129/117 118/126/117
f 128/128/118 129/130/118 120/131/118 119/129/118
f 129/130/119 121/132/119 112/133/119 120/131/119
f 130/134/120 131/135/120 122/118/120 121/117/120
f 131/135/121 132/136/121 123/119/121 122/118/121
f 132/136/122 133/137/122 124/120/122 123/119/122
f 133/137/123 134/138/123 125/121/123 124/120/123
f 134/139/124 135/140/124 126/123/124 125/122/124
f 135/141/125 136/142/125 127/125/125 126/124/125
f 136/142/126 137/143/126 128/128/126 127/125/126
f 137/143/127 138/144/127 129/130/127 128/128/127
f 138/144/128 130/145/128 121/132/128 129/130/128
f 139/146/129 140/147/129 131/135/129 130/134/129
f 140/147/130 141/148/130 132/136/130 131/135/130
f 141/148/131 142/149/131 133/137/131 132/136/131
f 142/149/132 143/150/132 134/138/132 133/137/132
f 143/151/124 144/152/124 135/140/124 134/139/124
f 144/153/133 145/154/133 136/155/133 135/156/133
f 145/154/134 146/157/134 137/158/134 136/155/134
f 146/157/135 147/159/135 138/160/135 137/158/135
f 147/159/136 139/161/136 130/162/136 138/160/136
f 103/163/137 104/164/137 105/165/137 106/166/137 107/167/137 108/168/137 109/169/137 110/170/137 111/171/137
f 147/171/138 146/170/138 145/169/138 144/168/138 143/167/138 142/166/138 141/165/138 140/164/138 139/163/138
f 148/172/139 149/173/139 159/174/139 158/175/139
f 149/176/140 150/177/140 160/178/140 159/179/140
f 150/177/141 151/180/141 161/181/141 160/178/141
f 151/180/142 152/182/142 162/183/142 161/181/142
f 152/173/143 153/172/143 163/175/143 162/174/143
f 153/184/144 154/185/144 164/186/144 163/187/144
f 154/188/145 155/189/145 165/190/145 164/191/145
f 155/189/146 156/192/146 166/193/146 165/190/146
f 156/192/147 157/194/147 167/195/147 166/193/147
f 157/196/148 148/172/148 158/175/148 167/197/148
f 158/175/149 159/174/149 169/198/149 168/199/149
f 159/179/150 160/178/150 170/200/150 169/201/150
f 160/178/151 161/181/151 171/202/151 170/200/151
f 161/181/152 162/183/152 172/203/152 171/202/152
f 162/174/153 163/175/153 173/199/153 172/198/153
f 163/187/154 164/186/154 174/204/154 173/205/154
f 164/191/155 165/190/155 175/206/155 174/207/155
f 165/190/156 166/193/156 176/208/156 175/206/156
f 166/193/157 167/195/157 177/209/157 176/208/157
f 167/197/158 158/175/158 168/199/158 177/210/158
f 168/199/159 169/198/159 179/211/159 178/212/159
f 169/201/160 170/200/160 180/213/160 179/214/160
f 170/215/161 171/216/161 181/217/161 180/218/161
f 171/202/162 172/203/162 182/219/162 181/220/162
f 172/221/163 173/205/163 183/222/163 182/223/163
f 173/205/164 174/204/164 184/224/164 183/222/164
f 174/207/165 175/206/165 185/225/165 184/226/165
f 175/206/166 176/208/166 186/227/166 185/225/166
f 176/208/167 177/209/167 187/228/167 186/227/167
f 177/210/168 168/199/168 178/212/168 187/229/168
f 178/212/169 179/211/169 189/230/169 188/231/169
f 179/232/170 180/218/170 190/233/170 189/234/170
f 180/218/171 181/217/171 191/235/171 190/233/171
f 181/217/172 182/236/172 192/237/172 191/235/172
f 182/223/173 183/222/173 193/238/173 192/239/173
f 183/222/174 184/224/174 194/240/174 193/238/174
f 184/226/175 185/225/175 195/241/175 194/242/175
f 185/225/176 186/227/176 196/243/176 195/241/176
f 186/227/177 187/228/177 197/244/177 196/243/177
f 187/229/178 178/212/178 188/231/178 197/245/178
f 188/231/179 189/230/179 199/246/179 198/247/179
f 189/234/180 190/233/180 200/248/180 199/249/180
f 190/233/181 191/235/181 201/250/181 200/248/181
f 191/235/182 192/237/182 202/251/182 201/250/182
f 192/230/183 193/231/183 203/247/183 202/246/183
f 193/238/184 194/240/184 204/252/184 203/253/184
f 194/242/185 195/241/185 205/254/185 204/255/185
f 195/241/186 196/243/186 206/256/186 205/254/186
f 196/243/187 197/244/187 207/257/187 206/256/187
f 197/245/188 188/231/188 198/247/188 207/258/188
f 157/259/189 156/260/189 155/261/189 154/262/189 153/263/189 152/264/189 151/265/189 150/266/189 149/267/189 148/268/189
f 198/269/190 199/270/190 200/271/190 201/272/190 202/273/190 203/274/190 204/275/190 205/276/190 206/277/190 207/278/190
f 208/279/191 209/279/191 219/279/191 218/279/191
f 209/279/192 210/279/192 220/279/192 219/279/192
f 210/279/193 211/279/193 221/279/193 220/279/193
f 211/279/194 212/279/194 222/279/194 221/279/194
f 212/279/137 213/279/137 223/279/137 222/279/137
f 213/279/195 214/279/195 224/279/195 223/279/195
f 214/279/196 215/279/196 225/279/196 224/279/196
f 215/279/197 216/279/197 226/279/197 225/279/197
f 216/279/198 217/279/198 227/279/198 226/279/198
f 217/279/138 208/279/138 218/279/138 227/279/138
f 217/279/189 216/279/189 215/279/189 214/279/189 213/279/189 212/279/189 211/279/189 210/279/189 209/279/189 208/279/189
f 218/279/190 219/279/190 220/279/190 221/279/190 222/279/190 223/279/190 224/279/190 225/279/190 226/279/190 227/279/190
f 228/280/199 229/280/199 237/280/199 236/280/199
f 229/280/200 230/280/200 238/280/200 237/280/200
f 230/280/201 231/280/201 239/280/201 238/280/201
f 231/280/202 232/280/202 240/280/202 239/280/202
f 232/280/203 233/280/203 241/280/203 240/280/203
f 233/280/204 234/280/204 242/280/204 241/280/204
f 234/280/205 235/280/205 243/280/205 242/280/205
f 235/280/206 228/280/206 236/280/206 243/280/206
f 235/280/189 234/280/189 233/280/189 232/280/189 231/280/189 230/280/189 229/280/189 228/280/189
f 236/280/190 237/280/190 238/280/190 239/280/190 240/280/190 241/280/190 242/280/190 243/280/190
f 244/281/139 245/282/139 255/283/139 254/284/139
f 245/285/140 246/286/140 256/287/140 255/288/140
f 246/286/141 247/289/141 257/290/141 256/287/141
f 247/289/142 248/291/142 258/292/142 257/290/142
f 248/173/143 249/172/143 259/175/143 258/174/143
f 249/172/144 250/196/144 260/197/144 259/175/144
f 250/293/145 251/294/145 261/295/145 260/296/145
f 251/294/146 252/297/146 262/298/146 261/295/146
f 252/297/147 253/299/147 263/300/147 262/298/147
f 253/301/148 244/281/148 254/284/148 263/302/148
f 254/284/149 255/283/149 265/303/149 264/304/149
f 255/288/150 256/287/150 266/305/150 265/306/150
f 256/287/151 257/290/151 267/307/151 266/305/151
f 257/290/152 258/292/152 268/308/152 267/307/152
f 258/174/153 259/175/153 269/199/153 268/198/153
f 259/175/154 260/197/154 270/210/154 269/199/154
f 260/296/155 261/295/155 271/309/155 270/310/155
f 261/295/156 262/298/156 272/311/156 271/309/156
f 262/298/157 263/300/157 273/312/157 272/311/157
f 263/302/158 254/284/158 264/304/158 273/313/158
f 264/199/159 265/198/159 275/211/159 274/212/159
f 265/306/160 266/305/160 276/314/160 275/315/160
f 266/316/161 267/317/161 277/318/161 276/319/161
f 267/307/162 268/308/162 278/320/162 277/321/162
f 268/198/163 269/199/163 279/212/163 278/211/163
f 269/199/164 270/210/164 280/229/164 279/212/164
f 270/310/165 271/309/165 281/322/165 280/323/165
f 271/309/166 272/311/166 282/324/166 281/322/166
f 272/311/167 273/312/167 283/325/167 282/324/167
f 273/313/168 264/304/168 274/326/168 283/327/168
f 274/212/169 275/211/169 285/230/169 284/231/169
f 275/328/170 276/319/170 286/329/170 285/330/170
f 276/319/171 277/318/171 287/331/171 286/329/171
f 277/318/172 278/332/172 288/333/172 287/331/172
f 278/211/173 279/212/173 289/231/173 288/230/173
f 279/212/174 280/229/174 290/245/174 289/231/174
f 280/323/175 281/322/175 291/334/175 290/335/175
f 281/322/176 282/324/176 292/336/176 291/334/176
f 282/324/177 283/325/177 293/337/177 292/336/177
f 283/327/178 274/326/178 284/338/178 293/339/178
f 284/338/179 285/340/179 295/341/179 294/342/179
f 285/330/180 286/329/180 296/343/180 295/344/180
f 286/329/181 287/331/181 297/345/181 296/343/181
f 287/331/182 288/333/182 298/346/182 297/345/182
f 288/230/183 289/231/183 299/247/183 298/246/183
f 289/231/184 290/245/184 300/258/184 299/247/184
f 290/335/185 291/334/185 301/347/185 300/348/185
f 291/334/186 292/336/186 302/349/186 301/347/186
f 292/336/187 293/337/187 303/350/187 302/349/187
f 293/339/188 284/338/188 294/342/188 303/351/188
f 253/352/189 252/353/189 251/354/189 250/355/189 249/356/189 248/357/189 247/358/189 246/359/189 245/360/189 244/361/189
f 294/362/190 295/363/190 296/364/190 297/365/190 298/366/190 299/367/190 300/368/190 301/369/190 302/370/190 303/371/190
f 304/279/191 305/279/191 315/279/191 314/279/191
f 305/279/192 306/279/192 316/279/192 315/279/192
f 306/279/193 307/279/193 317/279/193 316/279/193
f 307/279/194 308/279/194 318/279/194 317/279/194
f 308/279/137 309/279/137 319/279/137 318/279/137
f 309/279/195 310/279/195 320/279/195 319/279/195
f 310/279/196 311/279/196 321/279/196 320/279/196
f 311/279/197 312/279/197 322/279/197 321/279/197
f 312/279/198 313/279/198 323/279/198 322/279/198
f 313/279/138 304/279/138 314/279/138 323/279/138
f 313/279/189 312/279/189 311/279/189 310/279/189 309/279/189 308/279/189 307/279/189 306/279/189 305/279/189 304/279/189
f 314/279/190 315/279/190 316/279/190 317/279/190 318/279/190 319/279/190 320/279/190 321/279/190 322/279/190 323/279/190
f 324/280/199 325/280/199 333/280/199 332/280/199
f 325/280/200 326/280/200 334/280/200 333/280/200
f 326/280/201 327/280/201 335/280/201 334/280/201
f 327/280/202 328/280/202 336/280/202 335/280/202
f 328/280/203 329/280/203 337/280/203 336/280/203
f 329/280/204 330/280/204 338/280/204 337/280/204
f 330/280/205 331/280/205 339/280/205 338/280/205
f 331/280/206 324/280/206 332/280/206 339/280/206
f 331/280/189 330/280/189 329/280/189 328/280/189 327/280/189 326/280/189 325/280/189 324/280/189
f 332/280/190 333/280/190 334/280/190 335/280/190 336/280/190 337/280/190 338/280/190 339/280/190
o $wing_outer_l
v 2.580000 1.525721 0.955520
v 2.580000 1.574068 0.872576
v 2.580000 1.600564 0.609920
v 2.580000 1.587968 0.195200
v 2.580000 1.531250 -0.426880
v 2.580000 1.520191 -0.426880
v 2.580000 1.463474 0.195200
v 2.580000 1.450878 0.609920
v 2.580000 1.477374 0.872576
v 3.800000 1.632457 0.887200
v 3.800000 1.667940 0.820360
v 3.800000 1.687386 0.608700
v 3.800000 1.678141 0.274500
v 3.800000 1.636913 -0.226800
v 3.800000 1.628001 -0.226800
v 3.800000 1.586772 0.274500
v 3.800000 1.577528 0.608700
v 3.800000 1.596974 0.820360
v 4.787500 1.737443 0.820000
v 4.787500 1.761908 0.769000
v 4.787500 1.775316 0.607500
v 4.787500 1.768942 0.352500
v 4.787500 1.740843 -0.030000
v 4.787500 1.734043 -0.030000
v 4.787500 1.705945 0.352500
v 4.787500 1.699571 0.607500
v 4.787500 1.712979 0.769000
v 5.000000 1.737443 0.752000
v 5.000000 1.747131 0.715280
v 5.000000 1.752441 0.599000
v 5.000000 1.749917 0.415400
v 5.000000 1.739891 0.140000
v 5.000000 1.734995 0.140000
v 5.000000 1.724970 0.415400
v 5.000000 1.722446 0.599000
v 5.000000 1.727755 0.715280
vn -0.0476 0.8716 0.4878
vn -0.0714 0.9928 0.0962
vn -0.0714 0.9970 -0.0291
vn -0.0698 0.9938 -0.0866
vn 0.1618 0.0000 -0.9868
vn 0.1037 -0.9908 -0.0864
vn 0.1028 -0.9943 -0.0290
vn 0.1020 -0.9901 0.0959
vn 0.1045 -0.8679 0.4857
vn -0.0624 0.8896 0.4525
vn -0.0891 0.9922 0.0874
vn -0.0891 0.9957 -0.0264
vn -0.0871 0.9932 -0.0779
vn 0.1954 0.0000 -0.9807
vn 0.1236 -0.9893 -0.0776
vn 0.1222 -0.9922 -0.0263
vn 0.1215 -0.9888 0.0871
vn 0.1259 -0.8842 0.4498
vn 0.1351 0.9233 0.3595
vn 0.0978 0.9930 0.0669
vn 0.1007 0.9947 -0.0202
vn 0.0784 0.9953 -0.0577
vn 0.6247 0.0000 -0.7809
vn 0.0784 -0.9953 -0.0577
vn 0.1007 -0.9947 -0.0202
vn 0.0978 -0.9930 0.0669
vn 0.1351 -0.9233 0.3595
vn -1.0000 0.0000 0.0000
vn 1.0000 0.0000 0.0000
vt 0.066653 0.823781
vt 0.066653 0.820549
vt 0.125517 0.823074
vt 0.125517 0.827085
vt 0.066653 0.810313
vt 0.125517 0.810372
vt 0.066653 0.794151
vt 0.125517 0.790317
vt 0.066653 0.769909
vt 0.125517 0.760233
vt 0.898190 0.462448
vt 0.898190 0.462020
vt 0.839327 0.456847
vt 0.839327 0.457377
vt 0.933347 0.769909
vt 0.933347 0.794151
vt 0.874483 0.790317
vt 0.874483 0.760233
vt 0.933347 0.810313
vt 0.874483 0.810372
vt 0.933347 0.820549
vt 0.874483 0.823074
vt 0.933347 0.823781
vt 0.874483 0.827085
vt 0.019007 0.820531
vt 0.019007 0.818065
vt 0.019007 0.810255
vt 0.019007 0.797923
vt 0.019007 0.779426
vt 0.945836 0.467435
vt 0.945836 0.467109
vt 0.980993 0.779426
vt 0.980993 0.797923
vt 0.980993 0.810255
vt 0.980993 0.818065
vt 0.980993 0.820531
vt 0.008754 0.817243
vt 0.008754 0.815467
vt 0.008754 0.809844
vt 0.008754 0.800965
vt 0.008754 0.787647
vt 0.956089 0.467389
vt 0.956089 0.467154
vt 0.991246 0.787647
vt 0.991246 0.800965
vt 0.991246 0.809844
vt 0.991246 0.815467
vt 0.991246 0.817243
vt 0.291929 0.449540
vt 0.287918 0.451871
vt 0.275216 0.453148
vt 0.255160 0.452541
vt 0.225077 0.449806
vt 0.225077 0.449273
vt 0.255160 0.446539
vt 0.275216 0.445931
vt 0.287918 0.447209
vt 0.280311 0.459280
vt 0.274688 0.459024
vt 0.265809 0.459146
vt 0.252491 0.459629
vt 0.252491 0.459866
vt 0.265809 0.460349
vt 0.274688 0.460471
vt 0.280311 0.460215
vt 0.282087 0.459748
usemtl material
s 0
f 349/372/207 350/373/207 341/374/207 340/375/207
f 350/373/208 351/376/208 342/377/208 341/374/208
f 351/376/209 352/378/209 343/379/209 342/377/209
f 352/378/210 353/380/210 344/381/210 343/379/210
f 353/382/211 354/383/211 345/384/211 344/385/211
f 354/386/212 355/387/212 346/388/212 345/389/212
f 355/387/213 356/390/213 347/391/213 346/388/213
f 356/390/214 357/392/214 348/393/214 347/391/214
f 357/392/215 349/394/215 340/395/215 348/393/215
f 358/396/216 359/397/216 350/373/216 349/372/216
f 359/397/217 360/398/217 351/376/217 350/373/217
f 360/398/218 361/399/218 352/378/218 351/376/218
f 361/399/219 362/400/219 353/380/219 352/378/219
f 362/401/220 363/402/220 354/383/220 353/382/220
f 363/403/221 364/404/221 355/387/221 354/386/221
f 364/404/222 365/405/222 356/390/222 355/387/222
f 365/405/223 366/406/223 357/392/223 356/390/223
f 366/406/224 358/407/224 349/394/224 357/392/224
f 367/408/225 368/409/225 359/397/225 358/396/225
f 368/409/226 369/410/226 360/398/226 359/397/226
f 369/410/227 370/411/227 361/399/227 360/398/227
f 370/411/228 371/412/228 362/400/228 361/399/228
f 371/413/229 372/414/229 363/402/229 362/401/229
f 372/415/230 373/416/230 364/404/230 363/403/230
f 373/416/231 374/417/231 365/405/231 364/404/231
f 374/417/232 375/418/232 366/406/232 365/405/232
f 375/418/233 367/419/233 358/407/233 366/406/233
f 340/420/234 341/421/234 342/422/234 343/423/234 344/424/234 345/425/234 346/426/234 347/427/234 348/428/234
f 375/429/235 374/430/235 373/431/235 372/432/235 371/433/235 370/434/235 369/435/235 368/436/235 367/437/235
o $wing_outer_r
v -2.580000 1.525721 0.955520
v -2.580000 1.574068 0.872576
v -2.580000 1.600564 0.609920
v -2.580000 1.587968 0.195200
v -2.580000 1.531250 -0.426880
v -2.580000 1.520191 -0.426880
v -2.580000 1.463474 0.195200
v -2.580000 1.450878 0.609920
v -2.580000 1.477374 0.872576
v -3.800000 1.632457 0.887200
v -3.800000 1.667940 0.820360
v -3.800000 1.687386 0.608700
v -3.800000 1.678141 0.274500
v -3.800000 1.636913 -0.226800
v -3.800000 1.628001 -0.226800
v -3.800000 1.586772 0.274500
v -3.800000 1.577528 0.608700
v -3.800000 1.596974 0.820360
v -4.787500 1.737443 0.820000
v -4.787500 1.761908 0.769000
v -4.787500 1.775316 0.607500
v -4.787500 1.768942 0.352500
v -4.787500 1.740843 -0.030000
v -4.787500 1.734043 -0.030000
v -4.787500 1.705945 0.352500
v -4.787500 1.699571 0.607500
v -4.787500 1.712979 0.769000
v -5.000000 1.737443 0.752000
v -5.000000 1.747131 0.715280
v -5.000000 1.752441 0.599000
v -5.000000 1.749917 0.415400
v -5.000000 1.739891 0.140000
v -5.000000 1.734995 0.140000
v -5.000000 1.724970 0.415400
v -5.000000 1.722446 0.599000
v -5.000000 1.727755 0.715280
vn 0.0476 0.8716 0.4878
vn 0.0714 0.9928 0.0962
vn 0.0714 0.9970 -0.0291
vn 0.0698 0.9938 -0.0866
vn -0.1618 0.0000 -0.9868
vn -0.1037 -0.9908 -0.0864
vn -0.1028 -0.9943 -0.0290
vn -0.1020 -0.9901 0.0959
vn -0.1045 -0.8679 0.4857
vn 0.0624 0.8896 0.4525
vn 0.0891 0.9922 0.0874
vn 0.0891 0.9957 -0.0264
vn 0.0871 0.9932 -0.0779
vn -0.1954 0.0000 -0.9807
vn -0.1236 -0.9893 -0.0776
vn -0.1222 -0.9922 -0.0263
vn -0.1215 -0.9888 0.0871
vn -0.1259 -0.8842 0.4498
vn -0.1351 0.9233 0.3595
vn -0.0978 0.9930 0.0669
vn -0.1007 0.9947 -0.0202
vn -0.0784 0.9953 -0.0577
vn -0.6247 0.0000 -0.7809
vn -0.0784 -0.9953 -0.0577
vn -0.1007 -0.9947 -0.0202
vn -0.0978 -0.9930 0.0669
vn -0.1351 -0.9233 0.3595
vn 1.0000 0.0000 0.0000
vn -1.0000 0.0000 0.0000
vt 0.374483 0.827085
vt 0.374483 0.823074
vt 0.433347 0.820549
vt 0.433347 0.823781
vt 0.374483 0.810372
vt 0.433347 0.810313
vt 0.374483 0.790317
vt 0.433347 0.794151
vt 0.374483 0.760233
vt 0.433347 0.769909
vt 0.590361 0.457377
vt 0.590361 0.456847
vt 0.531497 0.462020
vt 0.531497 0.462448
vt 0.625517 0.760233
vt 0.625517 0.790317
vt 0.566653 0.794151
vt 0.566653 0.769909
vt 0.625517 0.810372
vt 0.566653 0.810313
vt 0.625517 0.823074
vt 0.566653 0.820549
vt 0.625517 0.827085
vt 0.566653 0.823781
vt 0.480993 0.818065
vt 0.480993 0.820531
vt 0.480993 0.810255
vt 0.480993 0.797923
vt 0.480993 0.779426
vt 0.483851 0.467109
vt 0.483851 0.467435
vt 0.519007 0.797923
vt 0.519007 0.779426
vt 0.519007 0.810255
vt 0.519007 0.818065
vt 0.519007 0.820531
vt 0.491246 0.815467
vt 0.491246 0.817243
vt 0.491246 0.809844
vt 0.491246 0.800965
vt 0.491246 0.787647
vt 0.473598 0.467154
vt 0.473598 0.467389
vt 0.508754 0.800965
vt 0.508754 0.787647
vt 0.508754 0.809844
vt 0.508754 0.815467
vt 0.508754 0.817243
vt 0.287918 0.447209
vt 0.275216 0.445931
vt 0.255160 0.446539
vt 0.225077 0.449273
vt 0.225077 0.449806
vt 0.255160 0.452541
vt 0.275216 0.453148
vt 0.287918 0.451871
vt 0.291929 0.449540
vt 0.282087 0.459748
vt 0.280311 0.460215
vt 0.274688 0.460471
vt 0.265809 0.460349
vt 0.252491 0.459866
vt 0.252491 0.459629
vt 0.265809 0.459146
vt 0.274688 0.459024
vt 0.280311 0.459280
usemtl material
s 0
f 376/438/236 377/439/236 386/440/236 385/441/236
f 377/439/237 378/442/237 387/443/237 386/440/237
f 378/442/238 379/444/238 388/445/238 387/443/238
f 379/444/239 380/446/239 389/447/239 388/445/239
f 380/448/240 381/449/240 390/450/240 389/451/240
f 381/452/241 382/453/241 391/454/241 390/455/241
f 382/453/242 383/456/242 392/457/242 391/454/242
f 383/456/243 384/458/243 393/459/243 392/457/243
f 384/458/244 376/460/244 385/461/244 393/459/244
f 385/441/245 386/440/245 395/462/245 394/463/245
f 386/440/246 387/443/246 396/464/246 395/462/246
f 387/443/247 388/445/247 397/465/247 396/464/247
f 388/445/248 389/447/248 398/466/248 397/465/248
f 389/451/249 390/450/249 399/467/249 398/468/249
f 390/455/250 391/454/250 400/469/250 399/470/250
f 391/454/251 392/457/251 401/471/251 400/469/251
f 392/457/252 393/459/252 402/472/252 401/471/252
f 393/459/253 385/461/253 394/473/253 402/472/253
f 394/463/254 395/462/254 404/474/254 403/475/254
f 395/462/255 396/464/255 405/476/255 404/474/255
f 396/464/256 397/465/256 406/477/256 405/476/256
f 397/465/257 398/466/257 407/478/257 406/477/257
f 398/468/258 399/467/258 408/479/258 407/480/258
f 399/470/259 400/469/259 409/481/259 408/482/259
f 400/469/260 401/471/260 410/483/260 409/481/260
f 401/471/261 402/472/261 411/484/261 410/483/261
f 402/472/262 394/473/262 403/485/262 411/484/262
f 384/486/263 383/487/263 382/488/263 381/489/263 380/490/263 379/491/263 378/492/263 377/493/263 376/494/263
f 403/495/264 404/496/264 405/497/264 406/498/264 407/499/264 408/500/264 409/501/264 410/502/264 411/503/264
o tail
v 0.000000 1.870000 -2.950000
v 0.047490 1.870000 -3.049000
v 0.073517 1.870000 -3.362500
v 0.061144 1.870000 -3.857500
v 0.006600 1.870000 -4.600000
v -0.006600 1.870000 -4.600000
v -0.061144 1.870000 -3.857500
v -0.073517 1.870000 -3.362500
v -0.047490 1.870000 -3.049000
v 0.000000 2.970000 -3.950000
v 0.024465 2.970000 -4.001000
v 0.037872 2.970000 -4.162500
v 0.031498 2.970000 -4.417500
v 0.003400 2.970000 -4.800000
v -0.003400 2.970000 -4.800000
v -0.031498 2.970000 -4.417500
v -0.037872 2.970000 -4.162500
v -0.024465 2.970000 -4.001000
v 0.000000 3.120000 -4.035000
v 0.010275 3.120000 -4.070700
v 0.015906 3.120000 -4.183750
v 0.013229 3.120000 -4.362250
v 0.002380 3.120000 -4.630000
v -0.002380 3.120000 -4.630000
v -0.013229 3.120000 -4.362250
v -0.015906 3.120000 -4.183750
v -0.010275 3.120000 -4.070700
v -1.800000 1.920000 -3.598000
v -1.800000 1.925319 -3.623920
v -1.800000 1.928234 -3.706000
v -1.800000 1.926848 -3.835600
v -1.800000 1.921728 -4.030000
v -1.800000 1.918272 -4.030000
v -1.800000 1.913152 -3.835600
v -1.800000 1.911766 -3.706000
v -1.800000 1.914681 -3.623920
v -1.650000 1.920000 -3.550000
v -1.650000 1.933432 -3.586000
v -1.650000 1.940793 -3.700000
v -1.650000 1.937293 -3.880000
v -1.650000 1.922400 -4.150000
v -1.650000 1.917600 -4.150000
v -1.650000 1.902707 -3.880000
v -1.650000 1.899207 -3.700000
v -1.650000 1.906568 -3.586000
v 0.000000 1.840000 -3.150000
v 0.000000 1.873099 -3.219000
v 0.000000 1.891239 -3.437500
v 0.000000 1.882615 -3.782500
v 0.000000 1.844600 -4.300000
v 0.000000 1.835400 -4.300000
v 0.000000 1.797385 -3.782500
v 0.000000 1.788761 -3.437500
v 0.000000 1.806901 -3.219000
v 1.650000 1.920000 -3.550000
v 1.650000 1.933432 -3.586000
v 1.650000 1.940793 -3.700000
v 1.650000 1.937293 -3.880000
v 1.650000 1.922400 -4.150000
v 1.650000 1.917600 -4.150000
v 1.650000 1.902707 -3.880000
v 1.650000 1.899207 -3.700000
v 1.650000 1.906568 -3.586000
v 1.800000 1.920000 -3.598000
v 1.800000 1.925319 -3.623920
v 1.800000 1.928234 -3.706000
v 1.800000 1.926848 -3.835600
v 1.800000 1.921728 -4.030000
v 1.800000 1.918272 -4.030000
v 1.800000 1.913152 -3.835600
v 1.800000 1.911766 -3.706000
v 1.800000 1.914681 -3.623920
vn 0.8391 0.3659 0.4025
vn 0.9923 0.0921 0.0824
vn 0.9996 0.0142 -0.0250
vn 0.9973 -0.0104 -0.0733
vn 0.0000 -0.1789 -0.9839
vn -0.9973 -0.0104 -0.0733
vn -0.9996 0.0142 -0.0250
vn -0.9923 0.0921 0.0824
vn -0.8391 0.3659 0.4025
vn 0.9035 0.2294 0.3620
vn 0.9878 0.1398 0.0685
vn 0.9906 0.1352 -0.0207
vn 0.9923 0.1084 -0.0594
vn 0.0000 0.7498 -0.6616
vn -0.9923 0.1084 -0.0594
vn -0.9906 0.1352 -0.0207
vn -0.9878 0.1398 0.0685
vn -0.9035 0.2294 0.3620
vn 0.0000 -1.0000 0.0000
vn 0.0000 1.0000 0.0000
vn -0.1082 0.9515 0.2881
vn -0.0762 0.9957 0.0522
vn -0.0784 0.9968 -0.0157
vn -0.0605 0.9972 -0.0430
vn -0.6247 0.0000 -0.7809
vn -0.0605 -0.9972 -0.0430
vn -0.0784 -0.9968 -0.0157
vn -0.0762 -0.9957 0.0522
vn -0.1082 -0.9515 0.2881
vn -0.0552 0.9129 0.4045
vn 0.0186 0.9969 0.0765
vn 0.0341 0.9992 -0.0231
vn 0.0390 0.9970 -0.0670
vn -0.0905 0.0000 -0.9959
vn -0.0577 -0.9961 -0.0669
vn -0.0627 -0.9978 -0.0230
vn -0.0778 -0.9940 0.0762
vn -0.1425 -0.9049 0.4010
vn 0.0552 0.9129 0.4045
vn -0.0186 0.9969 0.0765
vn -0.0341 0.9992 -0.0231
vn -0.0390 0.9970 -0.0670
vn 0.0905 0.0000 -0.9959
vn 0.0577 -0.9961 -0.0669
vn 0.0627 -0.9978 -0.0230
vn 0.0778 -0.9940 0.0762
vn 0.1425 -0.9049 0.4010
vn 0.1082 0.9515 0.2881
vn 0.0762 0.9957 0.0522
vn 0.0784 0.9968 -0.0157
vn 0.0605 0.9972 -0.0430
vn 0.6247 0.0000 -0.7809
vn 0.0605 -0.9972 -0.0430
vn 0.0784 -0.9968 -0.0157
vn 0.0762 -0.9957 0.0522
vn 0.1082 -0.9515 0.2881
vn -1.0000 0.0000 0.0000
vn 1.0000 0.0000 0.0000
vt 0.103061 0.466138
vt 0.098274 0.466138
vt 0.052236 0.519172
vt 0.054702 0.519172
vt 0.083113 0.466138
vt 0.044426 0.519172
vt 0.059175 0.466138
vt 0.032094 0.519172
vt 0.023269 0.466138
vt 0.013597 0.519172
vt 0.715162 0.473633
vt 0.714525 0.473633
vt 0.714680 0.526418
vt 0.715008 0.526418
vt 0.048865 0.526404
vt 0.050592 0.526404
vt 0.043398 0.526404
vt 0.034766 0.526404
vt 0.021818 0.526404
vt 0.249836 0.548753
vt 0.250164 0.548753
vt 0.250115 0.556974
vt 0.249885 0.556974
vt 0.747709 0.633430
vt 0.746453 0.618269
vt 0.747050 0.594332
vt 0.749682 0.558425
vt 0.750318 0.558425
vt 0.752950 0.594332
vt 0.753547 0.618269
vt 0.752291 0.633430
vt 0.750000 0.638217
vt 0.250000 0.585748
vt 0.249504 0.584021
vt 0.249233 0.578554
vt 0.249362 0.569922
vt 0.250638 0.569922
vt 0.250767 0.578554
vt 0.250496 0.584021
vt 0.329611 0.609202
vt 0.329611 0.607461
vt 0.336848 0.605627
vt 0.336848 0.606881
vt 0.329611 0.601948
vt 0.336848 0.601658
vt 0.329611 0.593243
vt 0.336848 0.595391
vt 0.329611 0.580187
vt 0.336848 0.585990
vt 0.635233 0.476147
vt 0.635233 0.475917
vt 0.627995 0.475949
vt 0.627995 0.476115
vt 0.670389 0.580187
vt 0.670389 0.593243
vt 0.663152 0.595391
vt 0.663152 0.585990
vt 0.670389 0.601948
vt 0.663152 0.601658
vt 0.670389 0.607461
vt 0.663152 0.605627
vt 0.670389 0.609202
vt 0.663152 0.606881
vt 0.250000 0.628546
vt 0.250000 0.625209
vt 0.250000 0.614642
vt 0.250000 0.597958
vt 0.250000 0.572933
vt 0.714844 0.472414
vt 0.714844 0.471972
vt 0.750000 0.572933
vt 0.750000 0.597958
vt 0.750000 0.614642
vt 0.750000 0.625209
vt 0.750000 0.628546
vt 0.170389 0.609202
vt 0.170389 0.607461
vt 0.170389 0.601948
vt 0.170389 0.593243
vt 0.170389 0.580187
vt 0.794455 0.476147
vt 0.794455 0.475917
vt 0.829611 0.580187
vt 0.829611 0.593243
vt 0.829611 0.601948
vt 0.829611 0.607461
vt 0.829611 0.609202
vt 0.163152 0.606881
vt 0.163152 0.605627
vt 0.163152 0.601658
vt 0.163152 0.595391
vt 0.163152 0.585990
vt 0.801692 0.476115
vt 0.801692 0.475949
vt 0.836848 0.585990
vt 0.836848 0.595391
vt 0.836848 0.601658
vt 0.836848 0.605627
vt 0.836848 0.606881
vt 0.071725 0.468549
vt 0.070471 0.468805
vt 0.066502 0.468946
vt 0.060234 0.468879
vt 0.050833 0.468632
vt 0.050833 0.468466
vt 0.060234 0.468219
vt 0.066502 0.468152
vt 0.070471 0.468293
usemtl material
s 0
f 412/504/265 413/505/265 422/506/265 421/507/265
f 413/505/266 414/508/266 423/509/266 422/506/266
f 414/508/267 415/510/267 424/511/267 423/509/267
f 415/510/268 416/512/268 425/513/268 424/511/268
f 416/514/269 417/515/269 426/516/269 425/517/269
f 417/512/270 418/510/270 427/511/270 426/513/270
f 418/510/271 419/508/271 428/509/271 427/511/271
f 419/508/272 420/505/272 429/506/272 428/509/272
f 420/505/273 412/504/273 421/507/273 429/506/273
f 421/507/274 422/506/274 431/518/274 430/519/274
f 422/506/275 423/509/275 432/520/275 431/518/275
f 423/509/276 424/511/276 433/521/276 432/520/276
f 424/511/277 425/513/277 434/522/277 433/521/277
f 425/523/278 426/524/278 435/525/278 434/526/278
f 426/513/279 427/511/279 436/521/279 435/522/279
f 427/511/280 428/509/280 437/520/280 436/521/280
f 428/509/281 429/506/281 438/518/281 437/520/281
f 429/506/282 421/507/282 430/519/282 438/518/282
f 420/527/283 419/528/283 418/529/283 417/530/283 416/531/283 415/532/283 414/533/283 413/534/283 412/535/283
f 430/536/284 431/537/284 432/538/284 433/539/284 434/526/284 435/525/284 436/540/284 437/541/284 438/542/284
f 448/543/285 449/544/285 440/545/285 439/546/285
f 449/544/286 450/547/286 441/548/286 440/545/286
f 450/547/287 451/549/287 442/550/287 441/548/287
f 451/549/288 452/551/288 443/552/288 442/550/288
f 452/553/289 453/554/289 444/555/289 443/556/289
f 453/557/290 454/558/290 445/559/290 444/560/290
f 454/558/291 455/561/291 446/562/291 445/559/291
f 455/561/292 456/563/292 447/564/292 446/562/292
f 456/563/293 448/565/293 439/566/293 447/564/293
f 457/567/294 458/568/294 449/544/294 448/543/294
f 458/568/295 459/569/295 450/547/295 449/544/295
f 459/569/296 460/570/296 451/549/296 450/547/296
f 460/570/297 461/571/297 452/551/297 451/549/297
f 461/572/298 462/573/298 453/554/298 452/553/298
f 462/574/299 463/575/299 454/558/299 453/557/299
f 463/575/300 464/576/300 455/561/300 454/558/300
f 464/576/301 465/577/301 456/563/301 455/561/301
f 465/577/302 457/578/302 448/565/302 456/563/302
f 466/579/303 467/580/303 458/568/303 457/567/303
f 467/580/304 468/581/304 459/569/304 458/568/304
f 468/581/305 469/582/305 460/570/305 459/569/305
f 469/582/306 470/583/306 461/571/306 460/570/306
f 470/584/307 471/585/307 462/573/307 461/572/307
f 471/586/308 472/587/308 463/575/308 462/574/308
f 472/587/309 473/588/309 464/576/309 463/575/309
f 473/588/310 474/589/310 465/577/310 464/576/310
f 474/589/311 466/590/311 457/578/311 465/577/311
f 475/591/312 476/592/312 467/580/312 466/579/312
f 476/592/313 477/593/313 468/581/313 467/580/313
f 477/593/314 478/594/314 469/582/314 468/581/314
f 478/594/315 479/595/315 470/583/315 469/582/315
f 479/596/316 480/597/316 471/585/316 470/584/316
f 480/598/317 481/599/317 472/587/317 471/586/317
f 481/599/318 482/600/318 473/588/318 472/587/318
f 482/600/319 483/601/319 474/589/319 473/588/319
f 483/601/320 475/602/320 466/590/320 474/589/320
f 439/603/321 440/604/321 441/605/321 442/606/321 443/607/321 444/608/321 445/609/321 446/610/321 447/611/321
f 483/611/322 482/610/322 481/609/322 480/608/322 479/607/322 478/606/322 477/605/322 476/604/322 475/603/322
o canopy
v 0.119000 1.940000 -0.350000
v 0.104413 2.188660 -0.350000
v 0.063370 2.349713 -0.350000
v 0.000000 2.406950 -0.350000
v -0.063370 2.349713 -0.350000
v -0.104413 2.188660 -0.350000
v -0.119000 1.940000 -0.350000
v -0.104413 1.925622 -0.350000
v -0.063370 1.916310 -0.350000
v -0.000000 1.913000 -0.350000
v 0.063370 1.916310 -0.350000
v 0.104413 1.925622 -0.350000
v 0.289000 1.940000 -0.044000
v 0.253576 2.267740 -0.044000
v 0.153898 2.480011 -0.044000
v 0.000000 2.555450 -0.044000
v -0.153898 2.480011 -0.044000
v -0.253576 2.267740 -0.044000
v -0.289000 1.940000 -0.044000
v -0.253576 1.920297 -0.044000
v -0.153898 1.907535 -0.044000
v -0.000000 1.903000 -0.044000
v 0.153898 1.907535 -0.044000
v 0.253576 1.920297 -0.044000
v 0.340000 1.940000 0.330000
v 0.298324 2.291464 0.330000
v 0.181057 2.519100 0.330000
v 0.000000 2.600000 0.330000
v -0.181057 2.519100 0.330000
v -0.298324 2.291464 0.330000
v -0.340000 1.940000 0.330000
v -0.298324 1.918699 0.330000
v -0.181057 1.904903 0.330000
v -0.000000 1.900000 0.330000
v 0.181057 1.904903 0.330000
v 0.298324 1.918699 0.330000
v 0.340000 1.940000 0.585000
v 0.298324 2.291464 0.585000
v 0.181057 2.519100 0.585000
v 0.000000 2.600000 0.585000
v -0.181057 2.519100 0.585000
v -0.298324 2.291464 0.585000
v -0.340000 1.940000 0.585000
v -0.298324 1.918699 0.585000
v -0.181057 1.904903 0.585000
v -0.000000 1.900000 0.585000
v 0.181057 1.904903 0.585000
v 0.298324 1.918699 0.585000
v 0.272000 1.940000 1.005750
v 0.238659 2.259832 1.005750
v 0.144846 2.466981 1.005750
v 0.000000 2.540600 1.005750
v -0.144846 2.466981 1.005750
v -0.238659 2.259832 1.005750
v -0.272000 1.940000 1.005750
v -0.238659 1.920829 1.005750
v -0.144846 1.908413 1.005750
v -0.000000 1.904000 1.005750
v 0.144846 1.908413 1.005750
v 0.238659 1.920829 1.005750
v 0.102000 1.940000 1.350000
v 0.089497 2.180753 1.350000
v 0.054317 2.336684 1.350000
v 0.000000 2.392100 1.350000
v -0.054317 2.336684 1.350000
v -0.089497 2.180753 1.350000
v -0.102000 1.940000 1.350000
v -0.089497 1.926154 1.350000
v -0.054317 1.917187 1.350000
v -0.000000 1.914000 1.350000
v 0.054317 1.917187 1.350000
v 0.089497 1.926154 1.350000
vn 0.8800 0.0764 -0.4688
vn 0.8412 0.3171 -0.4379
vn 0.4724 0.7736 -0.4223
vn -0.4724 0.7736 -0.4223
vn -0.8412 0.3171 -0.4379
vn -0.8800 0.0764 -0.4688
vn -0.5393 -0.7913 -0.2881
vn -0.1544 -0.9845 -0.0832
vn -0.0361 -0.9987 -0.0360
vn 0.0361 -0.9987 -0.0360
vn 0.1544 -0.9845 -0.0832
vn 0.5393 -0.7913 -0.2881
vn 0.9852 0.1118 -0.1297
vn 0.8901 0.4390 -0.1224
vn 0.4201 0.9000 -0.1159
vn -0.4201 0.9000 -0.1159
vn -0.8901 0.4390 -0.1224
vn -0.9852 0.1118 -0.1297
vn -0.4687 -0.8812 -0.0619
vn -0.1215 -0.9924 -0.0173
vn -0.0282 -0.9996 -0.0085
vn 0.0282 -0.9996 -0.0085
vn 0.1215 -0.9924 -0.0173
vn 0.4687 -0.8812 -0.0619
vn 0.9930 0.1178 0.0000
vn 0.8890 0.4580 0.0000
vn 0.4079 0.9130 0.0000
vn -0.4079 0.9130 0.0000
vn -0.8890 0.4580 0.0000
vn -0.9930 0.1178 0.0000
vn -0.4551 -0.8904 0.0000
vn -0.1168 -0.9932 0.0000
vn -0.0271 -0.9996 0.0000
vn 0.0271 -0.9996 0.0000
vn 0.1168 -0.9932 0.0000
vn 0.4551 -0.8904 0.0000
vn 0.9821 0.1097 0.1531
vn 0.8902 0.4322 0.1444
vn 0.4244 0.8951 0.1369
vn -0.4244 0.8951 0.1369
vn -0.8902 0.4322 0.1444
vn -0.9821 0.1097 0.1531
vn -0.4735 -0.8777 0.0741
vn -0.1232 -0.9922 0.0207
vn -0.0286 -0.9995 0.0101
vn 0.0286 -0.9995 0.0101
vn 0.1232 -0.9922 0.0207
vn 0.4735 -0.8777 0.0741
vn 0.9015 0.0737 0.4264
vn 0.8657 0.3076 0.3949
vn 0.5029 0.7762 0.3804
vn -0.5029 0.7762 0.3804
vn -0.8657 0.3076 0.3949
vn -0.9015 0.0737 0.4264
vn -0.5632 -0.7820 0.2671
vn -0.1631 -0.9836 0.0769
vn -0.0381 -0.9988 0.0322
vn 0.0381 -0.9988 0.0322
vn 0.1631 -0.9836 0.0769
vn 0.5632 -0.7820 0.2671
vn 0.0000 0.0000 -1.0000
vn -0.0000 0.0000 1.0000
vt 0.424793 0.373993
vt 0.424793 0.385760
vt 0.439563 0.389503
vt 0.439563 0.373993
vt 0.424793 0.393382
vt 0.439563 0.399548
vt 0.090003 0.319325
vt 0.092773 0.319325
vt 0.092773 0.334094
vt 0.086046 0.334094
vt 0.095544 0.319325
vt 0.099501 0.334094
vt 0.124395 0.319325
vt 0.125068 0.319325
vt 0.118189 0.334094
vt 0.116555 0.334094
vt 0.126960 0.319325
vt 0.122786 0.334094
vt 0.129883 0.319325
vt 0.129883 0.334094
vt 0.132805 0.319325
vt 0.136980 0.334094
vt 0.134698 0.319325
vt 0.141577 0.334094
vt 0.135371 0.319325
vt 0.143210 0.334094
vt 0.457615 0.390625
vt 0.457615 0.373993
vt 0.457615 0.401397
vt 0.092773 0.352146
vt 0.084859 0.352146
vt 0.100688 0.352146
vt 0.116125 0.352146
vt 0.114204 0.352146
vt 0.121533 0.352146
vt 0.129883 0.352146
vt 0.138232 0.352146
vt 0.143640 0.352146
vt 0.145562 0.352146
vt 0.469923 0.390625
vt 0.469923 0.373993
vt 0.469923 0.401397
vt 0.092773 0.364454
vt 0.084859 0.364454
vt 0.100688 0.364454
vt 0.116125 0.364454
vt 0.114204 0.364454
vt 0.121533 0.364454
vt 0.129883 0.364454
vt 0.138232 0.364454
vt 0.143640 0.364454
vt 0.145562 0.364454
vt 0.490231 0.389128
vt 0.490231 0.373993
vt 0.490231 0.398931
vt 0.092773 0.384763
vt 0.086442 0.384763
vt 0.099105 0.384763
vt 0.118877 0.384763
vt 0.117339 0.384763
vt 0.123203 0.384763
vt 0.129883 0.384763
vt 0.136562 0.384763
vt 0.140889 0.384763
vt 0.142426 0.384763
vt 0.506847 0.385386
vt 0.506847 0.373993
vt 0.506847 0.392765
vt 0.092773 0.401378
vt 0.090399 0.401378
vt 0.095148 0.401378
vt 0.125756 0.401378
vt 0.125179 0.401378
vt 0.127378 0.401378
vt 0.129883 0.401378
vt 0.132388 0.401378
vt 0.134010 0.401378
vt 0.134587 0.401378
vt 0.529792 0.378504
vt 0.528062 0.378062
vt 0.525391 0.377904
vt 0.522719 0.378062
vt 0.520989 0.378504
vt 0.520374 0.379188
vt 0.520989 0.391013
vt 0.522719 0.398671
vt 0.525391 0.401393
vt 0.528062 0.398671
vt 0.529792 0.391013
vt 0.530407 0.379188
vt 0.529690 0.379188
vt 0.529163 0.390636
vt 0.527680 0.398051
vt 0.525391 0.400687
vt 0.523101 0.398051
vt 0.521618 0.390636
vt 0.521091 0.379188
vt 0.521618 0.378530
vt 0.523101 0.378103
vt 0.525391 0.377952
vt 0.527680 0.378103
vt 0.529163 0.378530
usemtl material
s 0
f 484/612/323 485/613/323 497/614/323 496/615/323
f 485/613/324 486/616/324 498/617/324 497/614/324
f 486/618/325 487/619/325 499/620/325 498/621/325
f 487/619/326 488/622/326 500/623/326 499/620/326
f 488/616/327 489/613/327 501/614/327 500/617/327
f 489/613/328 490/612/328 502/615/328 501/614/328
f 490/624/329 491/625/329 503/626/329 502/627/329
f 491/625/330 492/628/330 504/629/330 503/626/330
f 492/628/331 493/630/331 505/631/331 504/629/331
f 493/630/332 494/632/332 506/633/332 505/631/332
f 494/632/333 495/634/333 507/635/333 506/633/333
f 495/634/334 484/636/334 496/637/334 507/635/334
f 496/615/335 497/614/335 509/638/335 508/639/335
f 497/614/336 498/617/336 510/640/336 509/638/336
f 498/621/337 499/620/337 511/641/337 510/642/337
f 499/620/338 500/623/338 512/643/338 511/641/338
f 500/617/339 501/614/339 513/638/339 512/640/339
f 501/614/340 502/615/340 514/639/340 513/638/340
f 502/627/341 503/626/341 515/644/341 514/645/341
f 503/626/342 504/629/342 516/646/342 515/644/342
f 504/629/343 505/631/343 517/647/343 516/646/343
f 505/631/344 506/633/344 518/648/344 517/647/344
f 506/633/345 507/635/345 519/649/345 518/648/345
f 507/635/346 496/637/346 508/650/346 519/649/346
f 508/639/347 509/638/347 521/651/347 520/652/347
f 509/638/348 510/640/348 522/653/348 521/651/348
f 510/642/349 511/641/349 523/654/349 522/655/349
f 511/641/350 512/643/350 524/656/350 523/654/350
f 512/640/351 513/638/351 525/651/351 524/653/351
f 513/638/352 514/639/352 526/652/352 525/651/352
f 514/645/353 515/644/353 527/657/353 526/658/353
f 515/644/354 516/646/354 528/659/354 527/657/354
f 516/646/355 517/647/355 529/660/355 528/659/355
f 517/647/356 518/648/356 530/661/356 529/660/356
f 518/648/357 519/649/357 531/662/357 530/661/357
f 519/649/358 508/650/358 520/663/358 531/662/358
f 520/652/359 521/651/359 533/664/359 532/665/359
f 521/651/360 522/653/360 534/666/360 533/664/360
f 522/655/361 523/654/361 535/667/361 534/668/361
f 523/654/362 524/656/362 536/669/362 535/667/362
f 524/653/363 525/651/363 537/664/363 536/666/363
f 525/651/364 526/652/364 538/665/364 537/664/364
f 526/658/365 527/657/365 539/670/365 538/671/365
f 527/657/366 528/659/366 540/672/366 539/670/366
f 528/659/367 529/660/367 541/673/367 540/672/367
f 529/660/368 530/661/368 542/674/368 541/673/368
f 530/661/369 531/662/369 543/675/369 542/674/369
f 531/662/370 520/663/370 532/676/370 543/675/370
f 532/665/371 533/664/371 545/677/371 544/678/371
f 533/664/372 534/666/372 546/679/372 545/677/372
f 534/668/373 535/667/373 547/680/373 546/681/373
f 535/667/374 536/669/374 548/682/374 547/680/374
f 536/666/375 537/664/375 549/677/375 548/679/375
f 537/664/376 538/665/376 550/678/376 549/677/376
f 538/671/377 539/670/377 551/683/377 550/684/377
f 539/670/378 540/672/378 552/685/378 551/683/378
f 540/672/379 541/673/379 553/686/379 552/685/379
f 541/673/380 542/674/380 554/687/380 553/686/380
f 542/674/381 543/675/381 555/688/381 554/687/381
f 543/675/382 532/676/382 544/689/382 555/688/382
f 495/690/383 494/691/383 493/692/383 492/693/383 491/694/383 490/695/383 489/696/383 488/697/383 487/698/383 486/699/383 485/700/383 484/701/383
f 544/702/384 545/703/384 546/704/384 547/705/384 548/706/384 549/707/384 550/708/384 551/709/384 552/710/384 553/711/384 554/712/384 555/713/384
o $gear_l
v 0.980000 1.357670 0.098608
v 1.010000 1.350000 0.150000
v 0.980000 1.342330 0.201392
v 0.920000 1.342330 0.201392
v 0.890000 1.350000 0.150000
v 0.920000 1.357670 0.098608
v 0.980000 0.352670 -0.051392
v 1.010000 0.345000 0.000000
v 0.980000 0.337330 0.051392
v 0.920000 0.337330 0.051392
v 0.890000 0.345000 0.000000
v 0.920000 0.352670 -0.051392
v 0.905000 0.324000 -0.041569
v 0.905000 0.348000 0.000000
v 0.905000 0.324000 0.041569
v 0.905000 0.276000 0.041569
v 0.905000 0.252000 0.000000
v 0.905000 0.276000 -0.041569
v 0.995000 0.324000 -0.041569
v 0.995000 0.348000 0.000000
v 0.995000 0.324000 0.041569
v 0.995000 0.276000 0.041569
v 0.995000 0.252000 0.000000
v 0.995000 0.276000 -0.041569
v 0.875000 0.392705 -0.285317
v 0.875000 0.542705 -0.176336
v 0.875000 0.600000 0.000000
v 0.875000 0.542705 0.176336
v 0.875000 0.392705 0.285317
v 0.875000 0.207295 0.285317
v 0.875000 0.057295 0.176336
v 0.875000 0.000000 0.000000
v 0.875000 0.057295 -0.176336
v 0.875000 0.207295 -0.285317
v 1.025000 0.392705 -0.285317
v 1.025000 0.542705 -0.176336
v 1.025000 0.600000 0.000000
v 1.025000 0.542705 0.176336
v 1.025000 0.392705 0.285317
v 1.025000 0.207295 0.285317
v 1.025000 0.057295 0.176336
v 1.025000 0.000000 0.000000
v 1.025000 0.057295 -0.176336
v 1.025000 0.207295 -0.285317
vn 0.8660 0.0738 -0.4945
vn 0.8660 -0.0738 0.4945
vn 0.0000 -0.1476 0.9890
vn -0.8660 -0.0738 0.4945
vn -0.8660 0.0738 -0.4945
vn 0.0000 0.1476 -0.9890
vn 0.0000 0.9890 0.1476
vn 0.0000 -0.9890 -0.1476
vn 0.0000 0.8660 -0.5000
vn 0.0000 0.8660 0.5000
vn 0.0000 0.0000 1.0000
vn 0.0000 -0.8660 0.5000
vn 0.0000 -0.8660 -0.5000
vn 0.0000 0.0000 -1.0000
vn -1.0000 0.0000 0.0000
vn 1.0000 0.0000 0.0000
vn 0.0000 0.5878 -0.8090
vn 0.0000 0.9511 -0.3090
vn 0.0000 0.9511 0.3090
vn 0.0000 0.5878 0.8090
vn 0.0000 -0.5878 0.8090
vn 0.0000 -0.9511 0.3090
vn 0.0000 -0.9511 -0.3090
vn 0.0000 -0.5878 -0.8090
vt 0.181641 0.283203
vt 0.166016 0.283203
usemtl material
s 0
f 556/714/385 557/714/385 563/714/385 562/714/385
f 557/714/386 558/714/386 564/714/386 563/714/386
f 558/714/387 559/714/387 565/714/387 564/714/387
f 559/714/388 560/714/388 566/714/388 565/714/388
f 560/714/389 561/714/389 567/714/389 566/714/389
f 561/714/390 556/714/390 562/714/390 567/714/390
f 561/714/391 560/714/391 559/714/391 558/714/391 557/714/391 556/714/391
f 562/714/392 563/714/392 564/714/392 565/714/392 566/714/392 567/714/392
f 568/714/393 569/714/393 575/714/393 574/714/393
f 569/714/394 570/714/394 576/714/394 575/714/394
f 570/714/395 571/714/395 577/714/395 576/714/395
f 571/714/396 572/714/396 578/714/396 577/714/396
f 572/714/397 573/714/397 579/714/397 578/714/397
f 573/714/398 568/714/398 574/714/398 579/714/398
f 573/714/399 572/714/399 571/714/399 570/714/399 569/714/399 568/714/399
f 574/714/400 575/714/400 576/714/400 577/714/400 578/714/400 579/714/400
f 580/715/401 581/715/401 591/715/401 590/715/401
f 581/715/402 582/715/402 592/715/402 591/715/402
f 582/715/403 583/715/403 593/715/403 592/715/403
f 583/715/404 584/715/404 594/715/404 593/715/404
f 584/715/395 585/715/395 595/715/395 594/715/395
f 585/715/405 586/715/405 596/715/405 595/715/405
f 586/715/406 587/715/406 597/715/406 596/715/406
f 587/715/407 588/715/407 598/715/407 597/715/407
f 588/715/408 589/715/408 599/715/408 598/715/408
f 589/715/398 580/715/398 590/715/398 599/715/398
f 589/715/399 588/715/399 587/715/399 586/715/399 585/715/399 584/715/399 583/715/399 582/715/399 581/715/399 580/715/399
f 590/715/400 591/715/400 592/715/400 593/715/400 594/715/400 595/715/400 596/715/400 597/715/400 598/715/400 599/715/400
o $gear_r
v -0.920000 1.357670 0.098608
v -0.890000 1.350000 0.150000
v -0.920000 1.342330 0.201392
v -0.980000 1.342330 0.201392
v -1.010000 1.350000 0.150000
v -0.980000 1.357670 0.098608
v -0.920000 0.352670 -0.051392
v -0.890000 0.345000 0.000000
v -0.920000 0.337330 0.051392
v -0.980000 0.337330 0.051392
v -1.010000 0.345000 0.000000
v -0.980000 0.352670 -0.051392
v -0.995000 0.324000 -0.041569
v -0.995000 0.348000 0.000000
v -0.995000 0.324000 0.041569
v -0.995000 0.276000 0.041569
v -0.995000 0.252000 0.000000
v -0.995000 0.276000 -0.041569
v -0.905000 0.324000 -0.041569
v -0.905000 0.348000 0.000000
v -0.905000 0.324000 0.041569
v -0.905000 0.276000 0.041569
v -0.905000 0.252000 0.000000
v -0.905000 0.276000 -0.041569
v -1.025000 0.392705 -0.285317
v -1.025000 0.542705 -0.176336
v -1.025000 0.600000 0.000000
v -1.025000 0.542705 0.176336
v -1.025000 0.392705 0.285317
v -1.025000 0.207295 0.285317
v -1.025000 0.057295 0.176336
v -1.025000 0.000000 0.000000
v -1.025000 0.057295 -0.176336
v -1.025000 0.207295 -0.285317
v -0.875000 0.392705 -0.285317
v -0.875000 0.542705 -0.176336
v -0.875000 0.600000 0.000000
v -0.875000 0.542705 0.176336
v -0.875000 0.392705 0.285317
v -0.875000 0.207295 0.285317
v -0.875000 0.057295 0.176336
v -0.875000 0.000000 0.000000
v -0.875000 0.057295 -0.176336
v -0.875000 0.207295 -0.285317
vn 0.8660 0.0738 -0.4945
vn 0.8660 -0.0738 0.4945
vn 0.0000 -0.1476 0.9890
vn -0.8660 -0.0738 0.4945
vn -0.8660 0.0738 -0.4945
vn 0.0000 0.1476 -0.9890
vn 0.0000 0.9890 0.1476
vn 0.0000 -0.9890 -0.1476
vn 0.0000 0.8660 -0.5000
vn 0.0000 0.8660 0.5000
vn 0.0000 0.0000 1.0000
vn 0.0000 -0.8660 0.5000
vn 0.0000 -0.8660 -0.5000
vn 0.0000 0.0000 -1.0000
vn -1.0000 0.0000 0.0000
vn 1.0000 0.0000 0.0000
vn 0.0000 0.5878 -0.8090
vn 0.0000 0.9511 -0.3090
vn 0.0000 0.9511 0.3090
vn 0.0000 0.5878 0.8090
vn 0.0000 -0.5878 0.8090
vn 0.0000 -0.9511 0.3090
vn 0.0000 -0.9511 -0.3090
vn 0.0000 -0.5878 -0.8090
vt 0.181641 0.283203
vt 0.166016 0.283203
usemtl material
s 0
f 600/716/409 601/716/409 607/716/409 606/716/409
f 601/716/410 602/716/410 608/716/410 607/716/410
f 602/716/411 603/716/411 609/716/411 608/716/411
f 603/716/412 604/716/412 610/716/412 609/716/412
f 604/716/413 605/716/413 611/716/413 610/716/413
f 605/716/414 600/716/414 606/716/414 611/716/414
f 605/716/415 604/716/415 603/716/415 602/716/415 601/716/415 600/716/415
f 606/716/416 607/716/416 608/716/416 609/716/416 610/716/416 611/716/416
f 612/716/417 613/716/417 619/716/417 618/716/417
f 613/716/418 614/716/418 620/716/418 619/716/418
f 614/716/419 615/716/419 621/716/419 620/716/419
f 615/716/420 616/716/420 622/716/420 621/716/420
f 616/716/421 617/716/421 623/716/421 622/716/421
f 617/716/422 612/716/422 618/716/422 623/716/422
f 617/716/423 616/716/423 615/716/423 614/716/423 613/716/423 612/716/423
f 618/716/424 619/716/424 620/716/424 621/716/424 622/716/424 623/716/424
f 624/717/425 625/717/425 635/717/425 634/717/425
f 625/717/426 626/717/426 636/717/426 635/717/426
f 626/717/427 627/717/427 637/717/427 636/717/427
f 627/717/428 628/717/428 638/717/428 637/717/428
f 628/717/419 629/717/419 639/717/419 638/717/419
f 629/717/429 630/717/429 640/717/429 639/717/429
f 630/717/430 631/717/430 641/717/430 640/717/430
f 631/717/431 632/717/431 642/717/431 641/717/431
f 632/717/432 633/717/432 643/717/432 642/717/432
f 633/717/422 624/717/422 634/717/422 643/717/422
f 633/717/423 632/717/423 631/717/423 630/717/423 629/717/423 628/717/423 627/717/423 626/717/423 625/717/423 624/717/423
f 634/717/424 635/717/424 636/717/424 637/717/424 638/717/424 639/717/424 640/717/424 641/717/424 642/717/424 643/717/424
o $gear_n
v 0.025000 1.374625 3.026946
v 0.050000 1.370000 3.070000
v 0.025000 1.365375 3.113054
v -0.025000 1.365375 3.113054
v -0.050000 1.370000 3.070000
v -0.025000 1.374625 3.026946
v 0.025000 0.257625 2.906946
v 0.050000 0.253000 2.950000
v 0.025000 0.248375 2.993054
v -0.025000 0.248375 2.993054
v -0.050000 0.253000 2.950000
v -0.025000 0.257625 2.906946
v -0.036000 0.240000 2.915359
v -0.036000 0.260000 2.950000
v -0.036000 0.240000 2.984641
v -0.036000 0.200000 2.984641
v -0.036000 0.180000 2.950000
v -0.036000 0.200000 2.915359
v 0.036000 0.240000 2.915359
v 0.036000 0.260000 2.950000
v 0.036000 0.240000 2.984641
v 0.036000 0.200000 2.984641
v 0.036000 0.180000 2.950000
v 0.036000 0.200000 2.915359
v -0.060000 0.287984 2.740768
v -0.060000 0.397984 2.820687
v -0.060000 0.440000 2.950000
v -0.060000 0.397984 3.079313
v -0.060000 0.287984 3.159232
v -0.060000 0.152016 3.159232
v -0.060000 0.042016 3.079313
v -0.060000 0.000000 2.950000
v -0.060000 0.042016 2.820687
v -0.060000 0.152016 2.740768
v 0.060000 0.287984 2.740768
v 0.060000 0.397984 2.820687
v 0.060000 0.440000 2.950000
v 0.060000 0.397984 3.079313
v 0.060000 0.287984 3.159232
v 0.060000 0.152016 3.159232
v 0.060000 0.042016 3.079313
v 0.060000 0.000000 2.950000
v 0.060000 0.042016 2.820687
v 0.060000 0.152016 2.740768
vn 0.8660 0.0534 -0.4971
vn 0.8660 -0.0534 0.4971
vn 0.0000 -0.1068 0.9943
vn -0.8660 -0.0534 0.4971
vn -0.8660 0.0534 -0.4971
vn 0.0000 0.1068 -0.9943
vn 0.0000 0.9943 0.1068
vn 0.0000 -0.9943 -0.1068
vn 0.0000 0.8660 -0.5000
vn 0.0000 0.8660 0.5000
vn 0.0000 0.0000 1.0000
vn 0.0000 -0.8660 0.5000
vn 0.0000 -0.8660 -0.5000
vn 0.0000 0.0000 -1.0000
vn -1.0000 0.0000 0.0000
vn 1.0000 0.0000 0.0000
vn 0.0000 0.5878 -0.8090
vn 0.0000 0.9511 -0.3090
vn 0.0000 0.9511 0.3090
vn 0.0000 0.5878 0.8090
vn 0.0000 -0.5878 0.8090
vn 0.0000 -0.9511 0.3090
vn 0.0000 -0.9511 -0.3090
vn 0.0000 -0.5878 -0.8090
vt 0.181641 0.283203
vt 0.166016 0.283203
usemtl material
s 0
f 644/718/433 645/718/433 651/718/433 650/718/433
f 645/718/434 646/718/434 652/718/434 651/718/434
f 646/718/435 647/718/435 653/718/435 652/718/435
f 647/718/436 648/718/436 654/718/436 653/718/436
f 648/718/437 649/718/437 655/718/437 654/718/437
f 649/718/438 644/718/438 650/718/438 655/718/438
f 649/718/439 648/718/439 647/718/439 646/718/439 645/718/439 644/718/439
f 650/718/440 651/718/440 652/718/440 653/718/440 654/718/440 655/718/440
f 656/718/441 657/718/441 663/718/441 662/718/441
f 657/718/442 658/718/442 664/718/442 663/718/442
f 658/718/443 659/718/443 665/718/443 664/718/443
f 659/718/444 660/718/444 666/718/444 665/718/444
f 660/718/445 661/718/445 667/718/445 666/718/445
f 661/718/446 656/718/446 662/718/446 667/718/446
f 661/718/447 660/718/447 659/718/447 658/718/447 657/718/447 656/718/447
f 662/718/448 663/718/448 664/718/448 665/718/448 666/718/448 667/718/448
f 668/719/449 669/719/449 679/719/449 678/719/449
f 669/719/450 670/719/450 680/719/450 679/719/450
f 670/719/451 671/719/451 681/719/451 680/719/451
f 671/719/452 672/719/452 682/719/452 681/719/452
f 672/719/443 673/719/443 683/719/443 682/719/443
f 673/719/453 674/719/453 684/719/453 683/719/453
f 674/719/454 675/719/454 685/719/454 684/719/454
f 675/719/455 676/719/455 686/719/455 685/719/455
f 676/719/456 677/719/456 687/719/456 686/719/456
f 677/719/446 668/719/446 678/719/446 687/719/446
f 677/719/447 676/719/447 675/719/447 674/719/447 673/719/447 672/719/447 671/719/447 670/719/447 669/719/447 668/719/447
f 678/719/448 679/719/448 680/719/448 681/719/448 682/719/448 683/719/448 684/719/448 685/719/448 686/719/448 687/719/448
