# meshkit verification model 'light_tank'
mtllib light_tank.mtl
o hull
v -0.790000 0.350000 -2.100000
v -0.790000 0.350000 1.850000
v -0.790000 0.700000 2.200000
v -0.790000 0.700000 -2.200000
v 0.790000 0.350000 -2.100000
v 0.790000 0.350000 1.850000
v 0.790000 0.700000 2.200000
v 0.790000 0.700000 -2.200000
v -1.150000 0.650000 -2.300000
v -1.150000 0.650000 2.300000
v -1.150000 1.350000 1.750000
v -1.150000 1.350000 -2.150000
v -1.150000 1.100000 -2.300000
v 1.150000 0.650000 -2.300000
v 1.150000 0.650000 2.300000
v 1.150000 1.350000 1.750000
v 1.150000 1.350000 -2.150000
v 1.150000 1.100000 -2.300000
vn 0.0000 -1.0000 0.0000
vn 0.0000 -0.7071 0.7071
vn 0.0000 1.0000 0.0000
vn 0.0000 -0.2747 -0.9615
vn -1.0000 -0.0000 0.0000
vn 1.0000 -0.0000 0.0000
vn 0.0000 0.6178 0.7863
vn 0.0000 0.5145 -0.8575
vn 0.0000 0.0000 -1.0000
vt 0.279668 0.394018
vt 0.279668 0.920327
vt 0.067988 0.920327
vt 0.067988 0.394018
vt 0.279668 0.966962
vt 0.067988 0.966962
vt 0.415644 0.980244
vt 0.415644 0.390850
vt 0.627324 0.390850
vt 0.627324 0.980244
vt 0.279668 0.160406
vt 0.279668 0.113508
vt 0.067988 0.113508
vt 0.067988 0.160406
vt 0.394018 0.113508
vt 0.920327 0.113508
vt 0.966962 0.160406
vt 0.380694 0.160406
vt 0.327899 0.367370
vt 0.327899 0.980287
vt 0.019757 0.980287
vt 0.019757 0.367370
vt 0.327899 0.153706
vt 0.327899 0.247502
vt 0.019757 0.247502
vt 0.019757 0.153706
vt 0.367413 0.919965
vt 0.367413 0.397547
vt 0.675555 0.397547
vt 0.675555 0.919965
vt 0.327899 0.214003
vt 0.019757 0.214003
vt 0.367370 0.153706
vt 0.980287 0.153706
vt 0.907003 0.247502
vt 0.387356 0.247502
vt 0.367370 0.214003
usemtl material
s 0
f 5/1/1 6/2/1 2/3/1 1/4/1
f 6/2/2 7/5/2 3/6/2 2/3/2
f 7/7/3 8/8/3 4/9/3 3/10/3
f 8/11/4 5/12/4 1/13/4 4/14/4
f 1/15/5 2/16/5 3/17/5 4/18/5
f 8/18/6 7/17/6 6/16/6 5/15/6
f 14/19/1 15/20/1 10/21/1 9/22/1
f 15/23/7 16/24/7 11/25/7 10/26/7
f 16/27/3 17/28/3 12/29/3 11/30/3
f 17/24/8 18/31/8 13/32/8 12/25/8
f 18/31/9 14/23/9 9/26/9 13/32/9
f 9/33/5 10/34/5 11/35/5 12/36/5 13/37/5
f 18/37/6 17/36/6 16/35/6 15/34/6 14/33/6
o tracks
v 0.770000 0.020000 -2.050000
v 0.770000 0.020000 2.050000
v 0.770000 0.320000 2.280000
v 0.770000 0.620000 2.050000
v 0.770000 0.620000 -2.050000
v 0.770000 0.320000 -2.280000
v 1.140000 0.020000 -2.050000
v 1.140000 0.020000 2.050000
v 1.140000 0.320000 2.280000
v 1.140000 0.620000 2.050000
v 1.140000 0.620000 -2.050000
v 1.140000 0.320000 -2.280000
v 0.710000 0.413435 -1.956785
v 0.710000 0.548435 -1.858702
v 0.710000 0.600000 -1.700000
v 0.710000 0.548435 -1.541298
v 0.710000 0.413435 -1.443215
v 0.710000 0.246565 -1.443215
v 0.710000 0.111565 -1.541298
v 0.710000 0.060000 -1.700000
v 0.710000 0.111565 -1.858702
v 0.710000 0.246565 -1.956785
v 0.810000 0.413435 -1.956785
v 0.810000 0.548435 -1.858702
v 0.810000 0.600000 -1.700000
v 0.810000 0.548435 -1.541298
v 0.810000 0.413435 -1.443215
v 0.810000 0.246565 -1.443215
v 0.810000 0.111565 -1.541298
v 0.810000 0.060000 -1.700000
v 0.810000 0.111565 -1.858702
v 0.810000 0.246565 -1.956785
v 0.710000 0.413435 -1.106785
v 0.710000 0.548435 -1.008702
v 0.710000 0.600000 -0.850000
v 0.710000 0.548435 -0.691298
v 0.710000 0.413435 -0.593215
v 0.710000 0.246565 -0.593215
v 0.710000 0.111565 -0.691298
v 0.710000 0.060000 -0.850000
v 0.710000 0.111565 -1.008702
v 0.710000 0.246565 -1.106785
v 0.810000 0.413435 -1.106785
v 0.810000 0.548435 -1.008702
v 0.810000 0.600000 -0.850000
v 0.810000 0.548435 -0.691298
v 0.810000 0.413435 -0.593215
v 0.810000 0.246565 -0.593215
v 0.810000 0.111565 -0.691298
v 0.810000 0.060000 -0.850000
v 0.810000 0.111565 -1.008702
v 0.810000 0.246565 -1.106785
v 0.710000 0.413435 -0.256785
v 0.710000 0.548435 -0.158702
v 0.710000 0.600000 -0.000000
v 0.710000 0.548435 0.158702
v 0.710000 0.413435 0.256785
v 0.710000 0.246565 0.256785
v 0.710000 0.111565 0.158702
v 0.710000 0.060000 0.000000
v 0.710000 0.111565 -0.158702
v 0.710000 0.246565 -0.256785
v 0.810000 0.413435 -0.256785
v 0.810000 0.548435 -0.158702
v 0.810000 0.600000 -0.000000
v 0.810000 0.548435 0.158702
v 0.810000 0.413435 0.256785
v 0.810000 0.246565 0.256785
v 0.810000 0.111565 0.158702
v 0.810000 0.060000 0.000000
v 0.810000 0.111565 -0.158702
v 0.810000 0.246565 -0.256785
v 0.710000 0.413435 0.593215
v 0.710000 0.548435 0.691298
v 0.710000 0.600000 0.850000
v 0.710000 0.548435 1.008702
v 0.710000 0.413435 1.106785
v 0.710000 0.246565 1.106785
v 0.710000 0.111565 1.008702
v 0.710000 0.060000 0.850000
v 0.710000 0.111565 0.691298
v 0.710000 0.246565 0.593215
v 0.810000 0.413435 0.593215
v 0.810000 0.548435 0.691298
v 0.810000 0.600000 0.850000
v 0.810000 0.548435 1.008702
v 0.810000 0.413435 1.106785
v 0.810000 0.246565 1.106785
v 0.810000 0.111565 1.008702
v 0.810000 0.060000 0.850000
v 0.810000 0.111565 0.691298
v 0.810000 0.246565 0.593215
v 0.710000 0.413435 1.443215
v 0.710000 0.548435 1.541298
v 0.710000 0.600000 1.700000
v 0.710000 0.548435 1.858702
v 0.710000 0.413435 1.956785
v 0.710000 0.246565 1.956785
v 0.710000 0.111565 1.858702
v 0.710000 0.060000 1.700000
v 0.710000 0.111565 1.541298
v 0.710000 0.246565 1.443215
v 0.810000 0.413435 1.443215
v 0.810000 0.548435 1.541298
v 0.810000 0.600000 1.700000
v 0.810000 0.548435 1.858702
v 0.810000 0.413435 1.956785
v 0.810000 0.246565 1.956785
v 0.810000 0.111565 1.858702
v 0.810000 0.060000 1.700000
v 0.810000 0.111565 1.541298
v 0.810000 0.246565 1.443215
v -1.140000 0.020000 -2.050000
v -1.140000 0.020000 2.050000
v -1.140000 0.320000 2.280000
v -1.140000 0.620000 2.050000
v -1.140000 0.620000 -2.050000
v -1.140000 0.320000 -2.280000
v -0.770000 0.020000 -2.050000
v -0.770000 0.020000 2.050000
v -0.770000 0.320000 2.280000
v -0.770000 0.620000 2.050000
v -0.770000 0.620000 -2.050000
v -0.770000 0.320000 -2.280000
v -0.710000 0.413435 -1.443215
v -0.710000 0.548435 -1.541298
v -0.710000 0.600000 -1.700000
v -0.710000 0.548435 -1.858702
v -0.710000 0.413435 -1.956785
v -0.710000 0.246565 -1.956785
v -0.710000 0.111565 -1.858702
v -0.710000 0.060000 -1.700000
v -0.710000 0.111565 -1.541298
v -0.710000 0.246565 -1.443215
v -0.810000 0.413435 -1.443215
v -0.810000 0.548435 -1.541298
v -0.810000 0.600000 -1.700000
v -0.810000 0.548435 -1.858702
v -0.810000 0.413435 -1.956785
v -0.810000 0.246565 -1.956785
v -0.810000 0.111565 -1.858702
v -0.810000 0.060000 -1.700000
v -0.810000 0.111565 -1.541298
v -0.810000 0.246565 -1.443215
v -0.710000 0.413435 -0.593215
v -0.710000 0.548435 -0.691298
v -0.710000 0.600000 -0.850000
v -0.710000 0.548435 -1.008702
v -0.710000 0.413435 -1.106785
v -0.710000 0.246565 -1.106785
v -0.710000 0.111565 -1.008702
v -0.710000 0.060000 -0.850000
v -0.710000 0.111565 -0.691298
v -0.710000 0.246565 -0.593215
v -0.810000 0.413435 -0.593215
v -0.810000 0.548435 -0.691298
v -0.810000 0.600000 -0.850000
v -0.810000 0.548435 -1.008702
v -0.810000 0.413435 -1.106785
v -0.810000 0.246565 -1.106785
v -0.810000 0.111565 -1.008702
v -0.810000 0.060000 -0.850000
v -0.810000 0.111565 -0.691298
v -0.810000 0.246565 -0.593215
v -0.710000 0.413435 0.256785
v -0.710000 0.548435 0.158702
v -0.710000 0.600000 0.000000
v -0.710000 0.548435 -0.158702
v -0.710000 0.413435 -0.256785
v -0.710000 0.246565 -0.256785
v -0.710000 0.111565 -0.158702
v -0.710000 0.060000 -0.000000
v -0.710000 0.111565 0.158702
v -0.710000 0.246565 0.256785
v -0.810000 0.413435 0.256785
v -0.810000 0.548435 0.158702
v -0.810000 0.600000 0.000000
v -0.810000 0.548435 -0.158702
v -0.810000 0.413435 -0.256785
v -0.810000 0.246565 -0.256785
v -0.810000 0.111565 -0.158702
v -0.810000 0.060000 -0.000000
v -0.810000 0.111565 0.158702
v -0.810000 0.246565 0.256785
v -0.710000 0.413435 1.106785
v -0.710000 0.548435 1.008702
v -0.710000 0.600000 0.850000
v -0.710000 0.548435 0.691298
v -0.710000 0.413435 0.593215
v -0.710000 0.246565 0.593215
v -0.710000 0.111565 0.691298
v -0.710000 0.060000 0.850000
v -0.710000 0.111565 1.008702
v -0.710000 0.246565 1.106785
v -0.810000 0.413435 1.106785
v -0.810000 0.548435 1.008702
v -0.810000 0.600000 0.850000
v -0.810000 0.548435 0.691298
v -0.810000 0.413435 0.593215
v -0.810000 0.246565 0.593215
v -0.810000 0.111565 0.691298
v -0.810000 0.060000 0.850000
v -0.810000 0.111565 1.008702
v -0.810000 0.246565 1.106785
v -0.710000 0.413435 1.956785
v -0.710000 0.548435 1.858702
v -0.710000 0.600000 1.700000
v -0.710000 0.548435 1.541298
v -0.710000 0.413435 1.443215
v -0.710000 0.246565 1.443215
v -0.710000 0.111565 1.541298
v -0.710000 0.060000 1.700000
v -0.710000 0.111565 1.858702
v -0.710000 0.246565 1.956785
v -0.810000 0.413435 1.956785
v -0.810000 0.548435 1.858702
v -0.810000 0.600000 1.700000
v -0.810000 0.548435 1.541298
v -0.810000 0.413435 1.443215
v -0.810000 0.246565 1.443215
v -0.810000 0.111565 1.541298
v -0.810000 0.060000 1.700000
v -0.810000 0.111565 1.858702
v -0.810000 0.246565 1.956785
vn 0.0000 -1.0000 0.0000
vn 0.0000 -0.6084 0.7936
vn 0.0000 0.6084 0.7936
vn 0.0000 1.0000 0.0000
vn 0.0000 0.6084 -0.7936
vn 0.0000 -0.6084 -0.7936
vn -1.0000 0.0000 0.0000
vn 1.0000 -0.0000 0.0000
vn 0.0000 0.5878 -0.8090
vn 0.0000 0.9511 -0.3090
vn 0.0000 0.9511 0.3090
vn 0.0000 0.5878 0.8090
vn 0.0000 0.0000 1.0000
vn 0.0000 -0.5878 0.8090
vn 0.0000 -0.9511 0.3090
vn 0.0000 -0.9511 -0.3090
vn 0.0000 -0.5878 -0.8090
vn 0.0000 0.0000 -1.0000
vt 0.191406 0.066406
vt 0.222656 0.066406
usemtl material
s 0
f 25/38/10 26/38/10 20/38/10 19/38/10
f 26/38/11 27/38/11 21/38/11 20/38/11
f 27/38/12 28/38/12 22/38/12 21/38/12
f 28/38/13 29/38/13 23/38/13 22/38/13
f 29/38/14 30/38/14 24/38/14 23/38/14
f 30/38/15 25/38/15 19/38/15 24/38/15
f 19/38/16 20/38/16 21/38/16 22/38/16 23/38/16 24/38/16
f 30/38/17 29/38/17 28/38/17 27/38/17 26/38/17 25/38/17
f 31/39/18 32/39/18 42/39/18 41/39/18
f 32/39/19 33/39/19 43/39/19 42/39/19
f 33/39/20 34/39/20 44/39/20 43/39/20
f 34/39/21 35/39/21 45/39/21 44/39/21
f 35/39/22 36/39/22 46/39/22 45/39/22
f 36/39/23 37/39/23 47/39/23 46/39/23
f 37/39/24 38/39/24 48/39/24 47/39/24
f 38/39/25 39/39/25 49/39/25 48/39/25
f 39/39/26 40/39/26 50/39/26 49/39/26
f 40/39/27 31/39/27 41/39/27 50/39/27
f 40/39/16 39/39/16 38/39/16 37/39/16 36/39/16 35/39/16 34/39/16 33/39/16 32/39/16 31/39/16
f 41/39/17 42/39/17 43/39/17 44/39/17 45/39/17 46/39/17 47/39/17 48/39/17 49/39/17 50/39/17
f 51/39/18 52/39/18 62/39/18 61/39/18
f 52/39/19 53/39/19 63/39/19 62/39/19
f 53/39/20 54/39/20 64/39/20 63/39/20
f 54/39/21 55/39/21 65/39/21 64/39/21
f 55/39/22 56/39/22 66/39/22 65/39/22
f 56/39/23 57/39/23 67/39/23 66/39/23
f 57/39/24 58/39/24 68/39/24 67/39/24
f 58/39/25 59/39/25 69/39/25 68/39/25
f 59/39/26 60/39/26 70/39/26 69/39/26
f 60/39/27 51/39/27 61/39/27 70/39/27
f 60/39/16 59/39/16 58/39/16 57/39/16 56/39/16 55/39/16 54/39/16 53/39/16 52/39/16 51/39/16
f 61/39/17 62/39/17 63/39/17 64/39/17 65/39/17 66/39/17 67/39/17 68/39/17 69/39/17 70/39/17
f 71/39/18 72/39/18 82/39/18 81/39/18
f 72/39/19 73/39/19 83/39/19 82/39/19
f 73/39/20 74/39/20 84/39/20 83/39/20
f 74/39/21 75/39/21 85/39/21 84/39/21
f 75/39/22 76/39/22 86/39/22 85/39/22
f 76/39/23 77/39/23 87/39/23 86/39/23
f 77/39/24 78/39/24 88/39/24 87/39/24
f 78/39/25 79/39/25 89/39/25 88/39/25
f 79/39/26 80/39/26 90/39/26 89/39/26
f 80/39/27 71/39/27 81/39/27 90/39/27
f 80/39/16 79/39/16 78/39/16 77/39/16 76/39/16 75/39/16 74/39/16 73/39/16 72/39/16 71/39/16
f 81/39/17 82/39/17 83/39/17 84/39/17 85/39/17 86/39/17 87/39/17 88/39/17 89/39/17 90/39/17
f 91/39/18 92/39/18 102/39/18 101/39/18
f 92/39/19 93/39/19 103/39/19 102/39/19
f 93/39/20 94/39/20 104/39/20 103/39/20
f 94/39/21 95/39/21 105/39/21 104/39/21
f 95/39/22 96/39/22 106/39/22 105/39/22
f 96/39/23 97/39/23 107/39/23 106/39/23
f 97/39/24 98/39/24 108/39/24 107/39/24
f 98/39/25 99/39/25 109/39/25 108/39/25
f 99/39/26 100/39/26 110/39/26 109/39/26
f 100/39/27 91/39/27 101/39/27 110/39/27
f 100/39/16 99/39/16 98/39/16 97/39/16 96/39/16 95/39/16 94/39/16 93/39/16 92/39/16 91/39/16
f 101/39/17 102/39/17 103/39/17 104/39/17 105/39/17 106/39/17 107/39/17 108/39/17 109/39/17 110/39/17
f 111/39/18 112/39/18 122/39/18 121/39/18
f 112/39/19 113/39/19 123/39/19 122/39/19
f 113/39/20 114/39/20 124/39/20 123/39/20
f 114/39/21 115/39/21 125/39/21 124/39/21
f 115/39/22 116/39/22 126/39/22 125/39/22
f 116/39/23 117/39/23 127/39/23 126/39/23
f 117/39/24 118/39/24 128/39/24 127/39/24
f 118/39/25 119/39/25 129/39/25 128/39/25
f 119/39/26 120/39/26 130/39/26 129/39/26
f 120/39/27 111/39/27 121/39/27 130/39/27
f 120/39/16 119/39/16 118/39/16 117/39/16 116/39/16 115/39/16 114/39/16 113/39/16 112/39/16 111/39/16
f 121/39/17 122/39/17 123/39/17 124/39/17 125/39/17 126/39/17 127/39/17 128/39/17 129/39/17 130/39/17
f 137/38/10 138/38/10 132/38/10 131/38/10
f 138/38/11 139/38/11 133/38/11 132/38/11
f 139/38/12 140/38/12 134/38/12 133/38/12
f 140/38/13 141/38/13 135/38/13 134/38/13
f 141/38/14 142/38/14 136/38/14 135/38/14
f 142/38/15 137/38/15 131/38/15 136/38/15
f 131/38/16 132/38/16 133/38/16 134/38/16 135/38/16 136/38/16
f 142/38/17 141/38/17 140/38/17 139/38/17 138/38/17 137/38/17
f 143/39/21 144/39/21 154/39/21 153/39/21
f 144/39/20 145/39/20 155/39/20 154/39/20
f 145/39/19 146/39/19 156/39/19 155/39/19
f 146/39/18 147/39/18 157/39/18 156/39/18
f 147/39/27 148/39/27 158/39/27 157/39/27
f 148/39/26 149/39/26 159/39/26 158/39/26
f 149/39/25 150/39/25 160/39/25 159/39/25
f 150/39/24 151/39/24 161/39/24 160/39/24
f 151/39/23 152/39/23 162/39/23 161/39/23
f 152/39/22 143/39/22 153/39/22 162/39/22
f 152/39/17 151/39/17 150/39/17 149/39/17 148/39/17 147/39/17 146/39/17 145/39/17 144/39/17 143/39/17
f 153/39/16 154/39/16 155/39/16 156/39/16 157/39/16 158/39/16 159/39/16 160/39/16 161/39/16 162/39/16
f 163/39/21 164/39/21 174/39/21 173/39/21
f 164/39/20 165/39/20 175/39/20 174/39/20
f 165/39/19 166/39/19 176/39/19 175/39/19
f 166/39/18 167/39/18 177/39/18 176/39/18
f 167/39/27 168/39/27 178/39/27 177/39/27
f 168/39/26 169/39/26 179/39/26 178/39/26
f 169/39/25 170/39/25 180/39/25 179/39/25
f 170/39/24 171/39/24 181/39/24 180/39/24
f 171/39/23 172/39/23 182/39/23 181/39/23
f 172/39/22 163/39/22 173/39/22 182/39/22
f 172/39/17 171/39/17 170/39/17 169/39/17 168/39/17 167/39/17 166/39/17 165/39/17 164/39/17 163/39/17
f 173/39/16 174/39/16 175/39/16 176/39/16 177/39/16 178/39/16 179/39/16 180/39/16 181/39/16 182/39/16
f 183/39/21 184/39/21 194/39/21 193/39/21
f 184/39/20 185/39/20 195/39/20 194/39/20
f 185/39/19 186/39/19 196/39/19 195/39/19
f 186/39/18 187/39/18 197/39/18 196/39/18
f 187/39/27 188/39/27 198/39/27 197/39/27
f 188/39/26 189/39/26 199/39/26 198/39/26
f 189/39/25 190/39/25 200/39/25 199/39/25
f 190/39/24 191/39/24 201/39/24 200/39/24
f 191/39/23 192/39/23 202/39/23 201/39/23
f 192/39/22 183/39/22 193/39/22 202/39/22
f 192/39/17 191/39/17 190/39/17 189/39/17 188/39/17 187/39/17 186/39/17 185/39/17 184/39/17 183/39/17
f 193/39/16 194/39/16 195/39/16 196/39/16 197/39/16 198/39/16 199/39/16 200/39/16 201/39/16 202/39/16
f 203/39/21 204/39/21 214/39/21 213/39/21
f 204/39/20 205/39/20 215/39/20 214/39/20
f 205/39/19 206/39/19 216/39/19 215/39/19
f 206/39/18 207/39/18 217/39/18 216/39/18
f 207/39/27 208/39/27 218/39/27 217/39/27
f 208/39/26 209/39/26 219/39/26 218/39/26
f 209/39/25 210/39/25 220/39/25 219/39/25
f 210/39/24 211/39/24 221/39/24 220/39/24
f 211/39/23 212/39/23 222/39/23 221/39/23
f 212/39/22 203/39/22 213/39/22 222/39/22
f 212/39/17 211/39/17 210/39/17 209/39/17 208/39/17 207/39/17 206/39/17 205/39/17 204/39/17 203/39/17
f 213/39/16 214/39/16 215/39/16 216/39/16 217/39/16 218/39/16 219/39/16 220/39/16 221/39/16 222/39/16
f 223/39/21 224/39/21 234/39/21 233/39/21
f 224/39/20 225/39/20 235/39/20 234/39/20
f 225/39/19 226/39/19 236/39/19 235/39/19
f 226/39/18 227/39/18 237/39/18 236/39/18
f 227/39/27 228/39/27 238/39/27 237/39/27
f 228/39/26 229/39/26 239/39/26 238/39/26
f 229/39/25 230/39/25 240/39/25 239/39/25
f 230/39/24 231/39/24 241/39/24 240/39/24
f 231/39/23 232/39/23 242/39/23 241/39/23
f 232/39/22 223/39/22 233/39/22 242/39/22
f 232/39/17 231/39/17 230/39/17 229/39/17 228/39/17 227/39/17 226/39/17 225/39/17 224/39/17 223/39/17
f 233/39/16 234/39/16 235/39/16 236/39/16 237/39/16 238/39/16 239/39/16 240/39/16 241/39/16 242/39/16
o $turret
v 0.850000 1.330000 -0.200000
v 0.772276 1.330000 -0.672470
v 0.535466 1.330000 -0.881420
v 0.000000 1.330000 -0.950000
v -0.535466 1.330000 -0.881420
v -0.772276 1.330000 -0.672470
v -0.850000 1.330000 -0.200000
v -0.772276 1.330000 0.272470
v -0.535466 1.330000 0.481420
v -0.000000 1.330000 0.550000
v 0.535466 1.330000 0.481420
v 0.772276 1.330000 0.272470
v 0.720000 1.880000 -0.200000
v 0.654163 1.880000 -0.590576
v 0.453572 1.880000 -0.763307
v 0.000000 1.880000 -0.820000
v -0.453572 1.880000 -0.763307
v -0.654163 1.880000 -0.590576
v -0.720000 1.880000 -0.200000
v -0.654163 1.880000 0.190576
v -0.453572 1.880000 0.363307
v -0.000000 1.880000 0.420000
v 0.453572 1.880000 0.363307
v 0.654163 1.880000 0.190576
v 0.286525 1.870000 -0.183704
v 0.426525 1.870000 -0.285420
v 0.480000 1.870000 -0.450000
v 0.426525 1.870000 -0.614580
v 0.286525 1.870000 -0.716296
v 0.113475 1.870000 -0.716296
v -0.026525 1.870000 -0.614580
v -0.080000 1.870000 -0.450000
v -0.026525 1.870000 -0.285420
v 0.113475 1.870000 -0.183704
v 0.286525 1.950000 -0.183704
v 0.426525 1.950000 -0.285420
v 0.480000 1.950000 -0.450000
v 0.426525 1.950000 -0.614580
v 0.286525 1.950000 -0.716296
v 0.113475 1.950000 -0.716296
v -0.026525 1.950000 -0.614580
v -0.080000 1.950000 -0.450000
v -0.026525 1.950000 -0.285420
v 0.113475 1.950000 -0.183704
vn 0.9603 0.2285 -0.1597
vn 0.6369 0.2485 -0.7298
vn 0.1224 0.2270 -0.9662
vn -0.1224 0.2270 -0.9662
vn -0.6369 0.2485 -0.7298
vn -0.9603 0.2285 -0.1597
vn -0.9603 0.2285 0.1597
vn -0.6369 0.2485 0.7298
vn -0.1224 0.2270 0.9662
vn 0.1224 0.2270 0.9662
vn 0.6369 0.2485 0.7298
vn 0.9603 0.2285 0.1597
vn 0.0000 -1.0000 -0.0000
vn 0.0000 1.0000 0.0000
vn 0.5878 0.0000 0.8090
vn 0.9511 0.0000 0.3090
vn 0.9511 0.0000 -0.3090
vn 0.5878 0.0000 -0.8090
vn 0.0000 0.0000 -1.0000
vn -0.5878 0.0000 -0.8090
vn -0.9511 0.0000 -0.3090
vn -0.9511 0.0000 0.3090
vn -0.5878 0.0000 0.8090
vn 0.0000 0.0000 1.0000
vt 0.647180 0.244822
vt 0.584226 0.244822
vt 0.595138 0.318518
vt 0.647180 0.318518
vt 0.277294 0.244822
vt 0.245567 0.244822
vt 0.234595 0.318518
vt 0.261469 0.318518
vt 0.173828 0.244822
vt 0.173828 0.318518
vt 0.102089 0.244822
vt 0.113061 0.318518
vt 0.070363 0.244822
vt 0.086187 0.318518
vt 0.710133 0.244822
vt 0.699221 0.318518
vt 0.277294 0.710133
vt 0.245567 0.737974
vt 0.173828 0.747112
vt 0.102089 0.737974
vt 0.070363 0.710133
vt 0.059950 0.647180
vt 0.070363 0.584226
vt 0.102089 0.556385
vt 0.173828 0.547247
vt 0.245567 0.556385
vt 0.277294 0.584226
vt 0.287707 0.647180
vt 0.425023 0.658756
vt 0.433843 0.606437
vt 0.460717 0.583299
vt 0.521484 0.575705
vt 0.582251 0.583299
vt 0.609126 0.606437
vt 0.617946 0.658756
vt 0.609126 0.711075
vt 0.582251 0.734213
vt 0.521484 0.741807
vt 0.460717 0.734213
vt 0.433843 0.711075
vt 0.212215 0.317178
vt 0.230972 0.317178
vt 0.230972 0.327898
vt 0.212215 0.327898
vt 0.635798 0.317178
vt 0.613869 0.317178
vt 0.613869 0.327898
vt 0.635798 0.327898
vt 0.591940 0.317178
vt 0.591940 0.327898
vt 0.189031 0.317178
vt 0.189031 0.327898
vt 0.170274 0.317178
vt 0.170274 0.327898
vt 0.189031 0.649351
vt 0.170274 0.635798
vt 0.163110 0.613869
vt 0.170274 0.591940
vt 0.189031 0.578387
vt 0.212215 0.578387
vt 0.230972 0.591940
vt 0.238136 0.613869
vt 0.230972 0.635798
vt 0.212215 0.649351
vt 0.483097 0.660939
vt 0.464341 0.647314
vt 0.457177 0.625268
vt 0.464341 0.603222
vt 0.483097 0.589597
vt 0.506282 0.589597
vt 0.525038 0.603222
vt 0.532202 0.625268
vt 0.525038 0.647314
vt 0.506282 0.660939
usemtl material
s 0
f 243/40/28 244/41/28 256/42/28 255/43/28
f 244/44/29 245/45/29 257/46/29 256/47/29
f 245/45/30 246/48/30 258/49/30 257/46/30
f 246/48/31 247/50/31 259/51/31 258/49/31
f 247/50/32 248/52/32 260/53/32 259/51/32
f 248/41/33 249/40/33 261/43/33 260/42/33
f 249/40/34 250/54/34 262/55/34 261/43/34
f 250/52/35 251/50/35 263/51/35 262/53/35
f 251/50/36 252/48/36 264/49/36 263/51/36
f 252/48/37 253/45/37 265/46/37 264/49/37
f 253/45/38 254/44/38 266/47/38 265/46/38
f 254/54/39 243/40/39 255/43/39 266/55/39
f 254/56/40 253/57/40 252/58/40 251/59/40 250/60/40 249/61/40 248/62/40 247/63/40 246/64/40 245/65/40 244/66/40 243/67/40
f 255/68/41 256/69/41 257/70/41 258/71/41 259/72/41 260/73/41 261/74/41 262/75/41 263/76/41 264/77/41 265/78/41 266/79/41
f 267/80/42 268/81/42 278/82/42 277/83/42
f 268/84/43 269/85/43 279/86/43 278/87/43
f 269/85/44 270/88/44 280/89/44 279/86/44
f 270/81/45 271/80/45 281/83/45 280/82/45
f 271/80/46 272/90/46 282/91/46 281/83/46
f 272/90/47 273/92/47 283/93/47 282/91/47
f 273/88/48 274/85/48 284/86/48 283/89/48
f 274/85/49 275/84/49 285/87/49 284/86/49
f 275/92/50 276/90/50 286/91/50 285/93/50
f 276/90/51 267/80/51 277/83/51 286/91/51
f 276/94/40 275/95/40 274/96/40 273/97/40 272/98/40 271/99/40 270/100/40 269/101/40 268/102/40 267/103/40
f 277/104/41 278/105/41 279/106/41 280/107/41 281/108/41 282/109/41 283/110/41 284/111/41 285/112/41 286/113/41
o $gun
v -0.210000 1.470000 0.300000
v 0.210000 1.470000 0.300000
v 0.210000 1.790000 0.300000
v -0.210000 1.790000 0.300000
v -0.210000 1.470000 0.600000
v 0.210000 1.470000 0.600000
v 0.210000 1.790000 0.600000
v -0.210000 1.790000 0.600000
v 0.050813 1.651048 0.550000
v 0.021048 1.680813 0.550000
v -0.021048 1.680813 0.550000
v -0.050813 1.651048 0.550000
v -0.050813 1.608952 0.550000
v -0.021048 1.579187 0.550000
v 0.021048 1.579187 0.550000
v 0.050813 1.608952 0.550000
v 0.050813 1.651048 2.450000
v 0.021048 1.680813 2.450000
v -0.021048 1.680813 2.450000
v -0.050813 1.651048 2.450000
v -0.050813 1.608952 2.450000
v -0.021048 1.579187 2.450000
v 0.021048 1.579187 2.450000
v 0.050813 1.608952 2.450000
vn 0.0000 -1.0000 0.0000
vn 1.0000 0.0000 0.0000
vn 0.0000 1.0000 0.0000
vn -1.0000 0.0000 0.0000
vn 0.0000 0.0000 -1.0000
vn 0.0000 0.0000 1.0000
vn 0.7071 0.7071 0.0000
vn -0.7071 0.7071 0.0000
vn -0.7071 -0.7071 0.0000
vn 0.7071 -0.7071 0.0000
vt 0.096298 0.041590
vt 0.149796 0.041590
vt 0.149796 0.079504
vt 0.096298 0.079504
vt 0.713801 0.263581
vt 0.713801 0.306459
vt 0.753774 0.306459
vt 0.753774 0.263581
vt 0.493350 0.725733
vt 0.549619 0.725733
vt 0.549619 0.765919
vt 0.493350 0.765919
vt 0.145693 0.306459
vt 0.201963 0.306459
vt 0.201963 0.263581
vt 0.145693 0.263581
vt 0.014266 0.037760
vt 0.067765 0.037760
vt 0.067765 0.079427
vt 0.014266 0.079427
vt 0.253906 0.066406
usemtl material
s 0
f 287/114/52 288/115/52 292/116/52 291/117/52
f 288/118/53 289/119/53 293/120/53 292/121/53
f 289/122/54 290/123/54 294/124/54 293/125/54
f 290/119/55 287/118/55 291/121/55 294/120/55
f 290/126/56 289/127/56 288/128/56 287/129/56
f 291/130/57 292/131/57 293/132/57 294/133/57
f 295/134/58 296/134/58 304/134/58 303/134/58
f 296/134/54 297/134/54 305/134/54 304/134/54
f 297/134/59 298/134/59 306/134/59 305/134/59
f 298/134/55 299/134/55 307/134/55 306/134/55
f 299/134/60 300/134/60 308/134/60 307/134/60
f 300/134/52 301/134/52 309/134/52 308/134/52
f 301/134/61 302/134/61 310/134/61 309/134/61
f 302/134/53 295/134/53 303/134/53 310/134/53
f 302/134/56 301/134/56 300/134/56 299/134/56 298/134/56 297/134/56 296/134/56 295/134/56
f 303/134/57 304/134/57 305/134/57 306/134/57 307/134/57 308/134/57 309/134/57 310/134/57
