# meshkit verification model 'xf15c'
mtllib xf15c.mtl
o fuselage
v 0.000000 2.850000 -7.900000
v 0.200000 2.800000 -7.300000
v 0.180194 2.911260 -7.300000
v 0.124698 3.000484 -7.300000
v 0.044504 3.050000 -7.300000
v -0.044504 3.050000 -7.300000
v -0.124698 3.000484 -7.300000
v -0.180194 2.911260 -7.300000
v -0.200000 2.800000 -7.300000
v -0.180194 2.688740 -7.300000
v -0.124698 2.599516 -7.300000
v -0.044504 2.550000 -7.300000
v 0.044504 2.550000 -7.300000
v 0.124698 2.599516 -7.300000
v 0.180194 2.688740 -7.300000
v 0.420000 2.650000 -5.900000
v 0.380291 2.881267 -5.900000
v 0.267823 3.055206 -5.900000
v 0.100392 3.150000 -5.900000
v -0.100392 3.150000 -5.900000
v -0.267823 3.055206 -5.900000
v -0.380291 2.881267 -5.900000
v -0.420000 2.650000 -5.900000
v -0.380291 2.395606 -5.900000
v -0.267823 2.204274 -5.900000
v -0.100392 2.100000 -5.900000
v 0.100392 2.100000 -5.900000
v 0.267823 2.204274 -5.900000
v 0.380291 2.395606 -5.900000
v 0.580000 2.500000 -3.900000
v 0.527540 2.835322 -3.900000
v 0.377493 3.072734 -3.900000
v 0.147955 3.200000 -3.900000
v -0.147955 3.200000 -3.900000
v -0.377493 3.072734 -3.900000
v -0.527540 2.835322 -3.900000
v -0.580000 2.500000 -3.900000
v -0.527540 2.155097 -3.900000
v -0.377493 1.910902 -3.900000
v -0.147955 1.780000 -3.900000
v 0.147955 1.780000 -3.900000
v 0.377493 1.910902 -3.900000
v 0.527540 2.155097 -3.900000
v 0.660000 2.400000 -1.900000
v 0.602783 2.785795 -1.900000
v 0.437658 3.043782 -1.900000
v 0.178665 3.180000 -1.900000
v -0.178665 3.180000 -1.900000
v -0.437658 3.043782 -1.900000
v -0.602783 2.785795 -1.900000
v -0.660000 2.400000 -1.900000
v -0.602783 2.004313 -1.900000
v -0.437658 1.739711 -1.900000
v -0.178665 1.600000 -1.900000
v 0.178665 1.600000 -1.900000
v 0.437658 1.739711 -1.900000
v 0.602783 2.004313 -1.900000
v 0.680000 2.350000 0.100000
v 0.621049 2.745687 0.100000
v 0.450920 3.010289 0.100000
v 0.184079 3.150000 0.100000
v -0.184079 3.150000 0.100000
v -0.450920 3.010289 0.100000
v -0.621049 2.745687 0.100000
v -0.680000 2.350000 0.100000
v -0.621049 1.964205 0.100000
v -0.450920 1.706218 0.100000
v -0.184079 1.570000 0.100000
v 0.184079 1.570000 0.100000
v 0.450920 1.706218 0.100000
v 0.621049 1.964205 0.100000
v 0.690000 2.300000 2.100000
v 0.627590 2.659274 2.100000
v 0.449087 2.913644 2.100000
v 0.176015 3.050000 2.100000
v -0.176015 3.050000 2.100000
v -0.449087 2.913644 2.100000
v -0.627590 2.659274 2.100000
v -0.690000 2.300000 2.100000
v -0.627590 1.950307 2.100000
v -0.449087 1.702720 2.100000
v -0.176015 1.570000 2.100000
v 0.176015 1.570000 2.100000
v 0.449087 1.702720 2.100000
v 0.627590 1.950307 2.100000
v 0.720000 2.300000 3.300000
v 0.648698 2.620430 3.300000
v 0.448913 2.877395 3.300000
v 0.160215 3.020000 3.300000
v -0.160215 3.020000 3.300000
v -0.448913 2.877395 3.300000
v -0.648698 2.620430 3.300000
v -0.720000 2.300000 3.300000
v -0.648698 1.979570 3.300000
v -0.448913 1.722605 3.300000
v -0.160215 1.580000 3.300000
v 0.160215 1.580000 3.300000
v 0.448913 1.722605 3.300000
v 0.648698 1.979570 3.300000
v 0.720000 2.300000 4.650000
v 0.648698 2.620430 4.650000
v 0.448913 2.877395 4.650000
v 0.160215 3.020000 4.650000
v -0.160215 3.020000 4.650000
v -0.448913 2.877395 4.650000
v -0.648698 2.620430 4.650000
v -0.720000 2.300000 4.650000
v -0.648698 1.979570 4.650000
v -0.448913 1.722605 4.650000
v -0.160215 1.580000 4.650000
v 0.160215 1.580000 4.650000
v 0.448913 1.722605 4.650000
v 0.648698 1.979570 4.650000
v 0.600000 2.300000 4.850000
v 0.540581 2.567025 4.850000
v 0.374094 2.781163 4.850000
v 0.133513 2.900000 4.850000
v -0.133513 2.900000 4.850000
v -0.374094 2.781163 4.850000
v -0.540581 2.567025 4.850000
v -0.600000 2.300000 4.850000
v -0.540581 2.032975 4.850000
v -0.374094 1.818837 4.850000
v -0.133513 1.700000 4.850000
v 0.133513 1.700000 4.850000
v 0.374094 1.818837 4.850000
v 0.540581 2.032975 4.850000
v 0.482963 2.429410 4.700000
v 0.353553 2.653553 4.700000
v 0.129410 2.782963 4.700000
v -0.129410 2.782963 4.700000
v -0.353553 2.653553 4.700000
v -0.482963 2.429410 4.700000
v -0.482963 2.170590 4.700000
v -0.353553 1.946447 4.700000
v -0.129410 1.817037 4.700000
v 0.129410 1.817037 4.700000
v 0.353553 1.946447 4.700000
v 0.482963 2.170590 4.700000
v 0.482963 2.429410 4.900000
v 0.353553 2.653553 4.900000
v 0.129410 2.782963 4.900000
v -0.129410 2.782963 4.900000
v -0.353553 2.653553 4.900000
v -0.482963 2.429410 4.900000
v -0.482963 2.170590 4.900000
v -0.353553 1.946447 4.900000
v -0.129410 1.817037 4.900000
v 0.129410 1.817037 4.900000
v 0.353553 1.946447 4.900000
v 0.482963 2.170590 4.900000
v 0.220000 2.180000 -6.350000
v 0.177984 2.303607 -6.350000
v 0.067984 2.380000 -6.350000
v -0.067984 2.380000 -6.350000
v -0.177984 2.303607 -6.350000
v -0.220000 2.180000 -6.350000
v -0.177984 2.044033 -6.350000
v -0.067984 1.960000 -6.350000
v 0.067984 1.960000 -6.350000
v 0.177984 2.044033 -6.350000
v 0.280000 2.180000 -5.700000
v 0.226525 2.340689 -5.700000
v 0.086525 2.440000 -5.700000
v -0.086525 2.440000 -5.700000
v -0.226525 2.340689 -5.700000
v -0.280000 2.180000 -5.700000
v -0.226525 2.006950 -5.700000
v -0.086525 1.900000 -5.700000
v 0.086525 1.900000 -5.700000
v 0.226525 2.006950 -5.700000
v 0.300000 2.280000 -4.300000
v 0.242705 2.465410 -4.300000
v 0.092705 2.580000 -4.300000
v -0.092705 2.580000 -4.300000
v -0.242705 2.465410 -4.300000
v -0.300000 2.280000 -4.300000
v -0.242705 2.094590 -4.300000
v -0.092705 1.980000 -4.300000
v 0.092705 1.980000 -4.300000
v 0.242705 2.094590 -4.300000
v 0.161680 2.232533 -6.450000
v 0.099923 2.317533 -6.450000
v 0.000000 2.350000 -6.450000
v -0.099923 2.317533 -6.450000
v -0.161680 2.232533 -6.450000
v -0.161680 2.127467 -6.450000
v -0.099923 2.042467 -6.450000
v -0.000000 2.010000 -6.450000
v 0.099923 2.042467 -6.450000
v 0.161680 2.127467 -6.450000
v 0.161680 2.232533 -6.250000
v 0.099923 2.317533 -6.250000
v 0.000000 2.350000 -6.250000
v -0.099923 2.317533 -6.250000
v -0.161680 2.232533 -6.250000
v -0.161680 2.127467 -6.250000
v -0.099923 2.042467 -6.250000
v -0.000000 2.010000 -6.250000
v 0.099923 2.042467 -6.250000
v 0.161680 2.127467 -6.250000
v -0.210000 3.100000 0.290000
v 0.210000 3.100000 0.290000
v 0.210000 3.460000 0.290000
v -0.210000 3.460000 0.290000
v -0.210000 3.100000 0.410000
v 0.210000 3.100000 0.410000
v 0.210000 3.460000 0.410000
v -0.210000 3.460000 0.410000
v -0.250000 3.140000 1.290000
v 0.250000 3.140000 1.290000
v 0.250000 3.260000 1.290000
v -0.250000 3.260000 1.290000
v -0.250000 3.140000 1.410000
v 0.250000 3.140000 1.410000
v 0.250000 3.260000 1.410000
v -0.250000 3.260000 1.410000
vn 0.9394 0.1672 -0.2992
vn 0.8113 0.5046 -0.2952
vn 0.5000 0.8098 -0.3070
vn 0.0000 0.9487 -0.3162
vn -0.5000 0.8098 -0.3070
vn -0.8113 0.5046 -0.2952
vn -0.9394 0.1672 -0.2992
vn -0.9313 -0.1658 -0.3243
vn -0.7892 -0.4909 -0.3690
vn -0.4765 -0.7717 -0.4212
vn 0.0000 -0.8944 -0.4472
vn 0.4765 -0.7717 -0.4212
vn 0.7892 -0.4909 -0.3690
vn 0.9313 -0.1658 -0.3243
vn 0.9761 0.1696 -0.1356
vn 0.8381 0.5349 -0.1075
vn 0.5018 0.8610 -0.0832
vn 0.0000 0.9975 -0.0712
vn -0.5018 0.8610 -0.0832
vn -0.8381 0.5349 -0.1075
vn -0.9761 0.1696 -0.1356
vn -0.9725 -0.1583 -0.1710
vn -0.8359 -0.5004 -0.2255
vn -0.5062 -0.8150 -0.2820
vn 0.0000 -0.9520 -0.3060
vn 0.5062 -0.8150 -0.2820
vn 0.8359 -0.5004 -0.2255
vn 0.9725 -0.1583 -0.1710
vn 0.9848 0.1602 -0.0678
vn 0.8419 0.5373 -0.0503
vn 0.4879 0.8722 -0.0339
vn 0.0000 0.9997 -0.0250
vn -0.4879 0.8722 -0.0339
vn -0.8419 0.5373 -0.0503
vn -0.9848 0.1602 -0.0678
vn -0.9843 -0.1514 -0.0904
vn -0.8500 -0.5123 -0.1230
vn -0.5039 -0.8506 -0.1502
vn 0.0000 -0.9874 -0.1580
vn 0.5039 -0.8506 -0.1502
vn 0.8500 -0.5123 -0.1230
vn 0.9843 -0.1514 -0.0904
vn 0.9881 0.1503 -0.0327
vn 0.8436 0.5367 -0.0180
vn 0.4747 0.8801 -0.0000
vn 0.0000 1.0000 0.0100
vn -0.4747 0.8801 -0.0000
vn -0.8436 0.5367 -0.0180
vn -0.9881 0.1503 -0.0327
vn -0.9881 -0.1463 -0.0475
vn -0.8480 -0.5253 -0.0710
vn -0.4827 -0.8714 -0.0875
vn -0.0000 -0.9960 -0.0896
vn 0.4827 -0.8714 -0.0875
vn 0.8480 -0.5253 -0.0710
vn 0.9881 -0.1463 -0.0475
vn 0.9891 0.1470 -0.0062
vn 0.8417 0.5400 0.0033
vn 0.4646 0.8854 0.0119
vn 0.0000 0.9999 0.0150
vn -0.4646 0.8854 0.0119
vn -0.8417 0.5400 0.0033
vn -0.9891 0.1470 -0.0062
vn -0.9891 -0.1470 -0.0128
vn -0.8416 -0.5399 -0.0166
vn -0.4646 -0.8854 -0.0162
vn -0.0000 -0.9999 -0.0150
vn 0.4646 -0.8854 -0.0162
vn 0.8416 -0.5399 -0.0166
vn 0.9891 -0.1470 -0.0128
vn 0.9873 0.1587 0.0013
vn 0.8298 0.5575 0.0245
vn 0.4548 0.8895 0.0449
vn 0.0000 0.9988 0.0499
vn -0.4548 0.8895 0.0449
vn -0.8298 0.5575 0.0245
vn -0.9873 0.1587 0.0013
vn -0.9866 -0.1628 -0.0067
vn -0.8232 -0.5677 -0.0034
vn -0.4459 -0.8951 0.0003
vn -0.0000 -1.0000 -0.0000
vn 0.4459 -0.8951 0.0003
vn 0.8232 -0.5677 -0.0034
vn 0.9866 -0.1628 -0.0067
vn 0.9810 0.1930 -0.0178
vn 0.8039 0.5947 0.0116
vn 0.4446 0.8953 0.0277
vn 0.0000 0.9997 0.0250
vn -0.4446 0.8953 0.0277
vn -0.8039 0.5947 0.0116
vn -0.9810 0.1930 -0.0178
vn -0.9805 -0.1956 -0.0185
vn -0.8001 -0.5999 0.0053
vn -0.4400 -0.8979 0.0141
vn -0.0000 -1.0000 0.0083
vn 0.4400 -0.8979 0.0141
vn 0.8001 -0.5999 0.0053
vn 0.9805 -0.1956 -0.0185
vn 0.9761 0.2172 0.0000
vn 0.7895 0.6138 0.0000
vn 0.4429 0.8966 0.0000
vn 0.0000 1.0000 0.0000
vn -0.4429 0.8966 0.0000
vn -0.7895 0.6138 0.0000
vn -0.9761 0.2172 0.0000
vn -0.9761 -0.2172 0.0000
vn -0.7895 -0.6138 0.0000
vn -0.4429 -0.8966 0.0000
vn 0.4429 -0.8966 0.0000
vn 0.7895 -0.6138 0.0000
vn 0.9761 -0.2172 0.0000
vn 0.8423 0.1874 0.5054
vn 0.6797 0.5285 0.5086
vn 0.3803 0.7698 0.5127
vn 0.0000 0.8575 0.5145
vn -0.3803 0.7698 0.5127
vn -0.6797 0.5285 0.5086
vn -0.8423 0.1874 0.5054
vn -0.8423 -0.1874 0.5054
vn -0.6797 -0.5285 0.5086
vn -0.3803 -0.7698 0.5127
vn -0.0000 -0.8575 0.5145
vn 0.3803 -0.7698 0.5127
vn 0.6797 -0.5285 0.5086
vn 0.8423 -0.1874 0.5054
vn 0.0000 0.0000 1.0000
vn 0.8660 0.5000 0.0000
vn 0.5000 0.8660 0.0000
vn -0.5000 0.8660 0.0000
vn -0.8660 0.5000 0.0000
vn -1.0000 0.0000 0.0000
vn -0.8660 -0.5000 0.0000
vn -0.5000 -0.8660 0.0000
vn 0.5000 -0.8660 0.0000
vn 0.8660 -0.5000 0.0000
vn 1.0000 -0.0000 0.0000
vn 0.0000 0.0000 -1.0000
vn 0.9443 0.3172 -0.0879
vn 0.5727 0.8148 -0.0904
vn 0.0000 0.9958 -0.0919
vn -0.5727 0.8148 -0.0904
vn -0.9443 0.3172 -0.0879
vn -0.9517 -0.2941 -0.0879
vn -0.6046 -0.7914 -0.0903
vn 0.0000 -0.9958 -0.0919
vn 0.6046 -0.7914 -0.0903
vn 0.9517 -0.2941 -0.0879
vn 0.9518 0.3046 -0.0367
vn 0.5917 0.8022 -0.0806
vn 0.0000 0.9950 -0.0995
vn -0.5917 0.8022 -0.0806
vn -0.9518 0.3046 -0.0367
vn -0.9554 -0.2952 0.0074
vn -0.6065 -0.7939 0.0427
vn -0.0000 -0.9984 0.0570
vn 0.6065 -0.7939 0.0427
vn 0.9554 -0.2952 0.0074
vn 0.8090 0.5878 0.0000
vn 0.3090 0.9511 0.0000
vn -0.3090 0.9511 0.0000
vn -0.8090 0.5878 0.0000
vn -0.8090 -0.5878 0.0000
vn -0.3090 -0.9511 0.0000
vn 0.3090 -0.9511 0.0000
vn 0.8090 -0.5878 0.0000
vt 0.517646 0.487903
vt 0.537861 0.489965
vt 0.537861 0.486220
vt 0.537861 0.492968
vt 0.254883 0.562568
vt 0.253380 0.582782
vt 0.250672 0.582782
vt 0.256386 0.582782
vt 0.259093 0.582782
vt 0.537861 0.482475
vt 0.537861 0.479472
vt 0.254883 0.117256
vt 0.253380 0.137470
vt 0.250672 0.137470
vt 0.256386 0.137470
vt 0.259093 0.137470
vt 0.585027 0.488955
vt 0.585027 0.481171
vt 0.585027 0.494810
vt 0.251493 0.629949
vt 0.245840 0.629949
vt 0.258273 0.629949
vt 0.263926 0.629949
vt 0.585027 0.472608
vt 0.585027 0.466168
vt 0.251493 0.184636
vt 0.245840 0.184636
vt 0.258273 0.184636
vt 0.263926 0.184636
vt 0.652407 0.487409
vt 0.652407 0.476122
vt 0.652407 0.495400
vt 0.249887 0.697329
vt 0.242136 0.697329
vt 0.259879 0.697329
vt 0.267629 0.697329
vt 0.652407 0.464512
vt 0.652407 0.456293
vt 0.249887 0.252017
vt 0.242136 0.252017
vt 0.259879 0.252017
vt 0.267629 0.252017
vt 0.719788 0.485742
vt 0.719788 0.472756
vt 0.719788 0.494426
vt 0.248850 0.764710
vt 0.240105 0.764710
vt 0.260916 0.764710
vt 0.269661 0.764710
vt 0.719788 0.459437
vt 0.719788 0.450530
vt 0.248850 0.319397
vt 0.240105 0.319397
vt 0.260916 0.319397
vt 0.269661 0.319397
vt 0.787169 0.484392
vt 0.787169 0.471073
vt 0.787169 0.493298
vt 0.248667 0.832090
vt 0.239657 0.832090
vt 0.261098 0.832090
vt 0.270109 0.832090
vt 0.654974 0.102877
vt 0.654974 0.090252
vt 0.722656 0.088972
vt 0.722656 0.101282
vt 0.787169 0.449403
vt 0.787169 0.458087
vt 0.248667 0.386778
vt 0.239657 0.386778
vt 0.261098 0.386778
vt 0.270109 0.386778
vt 0.854549 0.481483
vt 0.854549 0.469390
vt 0.854549 0.490045
vt 0.248940 0.899471
vt 0.239719 0.899471
vt 0.260826 0.899471
vt 0.270047 0.899471
vt 0.790339 0.088529
vt 0.790339 0.099687
vt 0.854549 0.449285
vt 0.854549 0.457619
vt 0.248940 0.454158
vt 0.239719 0.454158
vt 0.260826 0.454158
vt 0.270047 0.454158
vt 0.894977 0.480176
vt 0.894977 0.469390
vt 0.894977 0.488825
vt 0.249473 0.939899
vt 0.239725 0.939899
vt 0.260293 0.939899
vt 0.270041 0.939899
vt 0.894977 0.458604
vt 0.894977 0.449955
vt 0.249473 0.494587
vt 0.239725 0.494587
vt 0.260293 0.494587
vt 0.270041 0.494587
vt 0.940459 0.480176
vt 0.940459 0.469390
vt 0.940459 0.488825
vt 0.249473 0.985381
vt 0.239725 0.985381
vt 0.260293 0.985381
vt 0.270041 0.985381
vt 0.940459 0.458604
vt 0.940459 0.449955
vt 0.249473 0.540069
vt 0.239725 0.540069
vt 0.260293 0.540069
vt 0.270041 0.540069
vt 0.947197 0.478378
vt 0.947197 0.469390
vt 0.947197 0.485586
vt 0.250375 0.992119
vt 0.242251 0.992119
vt 0.259391 0.992119
vt 0.267514 0.992119
vt 0.947197 0.460402
vt 0.947197 0.453194
vt 0.250375 0.546807
vt 0.242251 0.546807
vt 0.259391 0.546807
vt 0.267514 0.546807
vt 0.265408 0.029821
vt 0.263398 0.038725
vt 0.257768 0.045866
vt 0.249632 0.049829
vt 0.240602 0.049829
vt 0.232466 0.045866
vt 0.226836 0.038725
vt 0.224827 0.029821
vt 0.226836 0.020917
vt 0.232466 0.013776
vt 0.240602 0.009813
vt 0.249632 0.009813
vt 0.257768 0.013776
vt 0.263398 0.020917
vt 0.919922 0.095703
vt 0.569866 0.465351
vt 0.569866 0.469511
vt 0.591765 0.470759
vt 0.591765 0.465351
vt 0.248873 0.614788
vt 0.252587 0.614788
vt 0.251961 0.636687
vt 0.247234 0.636687
vt 0.257178 0.614788
vt 0.257804 0.636687
vt 0.260893 0.614788
vt 0.262532 0.636687
vt 0.569866 0.460774
vt 0.591765 0.459526
vt 0.248873 0.169476
vt 0.252587 0.169476
vt 0.251961 0.191374
vt 0.247234 0.191374
vt 0.257178 0.169476
vt 0.257804 0.191374
vt 0.260893 0.169476
vt 0.262532 0.191374
vt 0.638931 0.474958
vt 0.638931 0.468717
vt 0.251753 0.683853
vt 0.246688 0.683853
vt 0.258013 0.683853
vt 0.263078 0.683853
vt 0.638931 0.462476
vt 0.251753 0.238541
vt 0.246688 0.238541
vt 0.258013 0.238541
vt 0.263078 0.238541
vt 0.251136 0.021285
vt 0.247416 0.018483
vt 0.242818 0.018483
vt 0.239098 0.021285
vt 0.237677 0.025819
vt 0.239098 0.029941
vt 0.242818 0.032489
vt 0.247416 0.032489
vt 0.251136 0.029941
vt 0.252557 0.025819
vt 0.255262 0.029154
vt 0.253325 0.035337
vt 0.248252 0.039158
vt 0.241982 0.039158
vt 0.236910 0.035337
vt 0.234972 0.029154
vt 0.236910 0.022971
vt 0.241982 0.019150
vt 0.248252 0.019150
vt 0.253325 0.022971
vt 0.935547 0.095703
vt 0.904297 0.095703
usemtl material
s 0
f 1/1/1 3/2/1 2/3/1
f 1/1/2 4/4/2 3/2/2
f 1/5/3 5/6/3 4/7/3
f 1/5/4 6/8/4 5/6/4
f 1/5/5 7/9/5 6/8/5
f 1/1/6 8/2/6 7/4/6
f 1/1/7 9/3/7 8/2/7
f 1/1/8 10/10/8 9/3/8
f 1/1/9 11/11/9 10/10/9
f 1/12/10 12/13/10 11/14/10
f 1/12/11 13/15/11 12/13/11
f 1/12/12 14/16/12 13/15/12
f 1/1/13 15/10/13 14/11/13
f 1/1/14 2/3/14 15/10/14
f 2/3/15 3/2/15 17/17/15 16/18/15
f 3/2/16 4/4/16 18/19/16 17/17/16
f 4/7/17 5/6/17 19/20/17 18/21/17
f 5/6/18 6/8/18 20/22/18 19/20/18
f 6/8/19 7/9/19 21/23/19 20/22/19
f 7/4/20 8/2/20 22/17/20 21/19/20
f 8/2/21 9/3/21 23/18/21 22/17/21
f 9/3/22 10/10/22 24/24/22 23/18/22
f 10/10/23 11/11/23 25/25/23 24/24/23
f 11/14/24 12/13/24 26/26/24 25/27/24
f 12/13/25 13/15/25 27/28/25 26/26/25
f 13/15/26 14/16/26 28/29/26 27/28/26
f 14/11/27 15/10/27 29/24/27 28/25/27
f 15/10/28 2/3/28 16/18/28 29/24/28
f 16/18/29 17/17/29 31/30/29 30/31/29
f 17/17/30 18/19/30 32/32/30 31/30/30
f 18/21/31 19/20/31 33/33/31 32/34/31
f 19/20/32 20/22/32 34/35/32 33/33/32
f 20/22/33 21/23/33 35/36/33 34/35/33
f 21/19/34 22/17/34 36/30/34 35/32/34
f 22/17/35 23/18/35 37/31/35 36/30/35
f 23/18/36 24/24/36 38/37/36 37/31/36
f 24/24/37 25/25/37 39/38/37 38/37/37
f 25/27/38 26/26/38 40/39/38 39/40/38
f 26/26/39 27/28/39 41/41/39 40/39/39
f 27/28/40 28/29/40 42/42/40 41/41/40
f 28/25/41 29/24/41 43/37/41 42/38/41
f 29/24/42 16/18/42 30/31/42 43/37/42
f 30/31/43 31/30/43 45/43/43 44/44/43
f 31/30/44 32/32/44 46/45/44 45/43/44
f 32/34/45 33/33/45 47/46/45 46/47/45
f 33/33/46 34/35/46 48/48/46 47/46/46
f 34/35/47 35/36/47 49/49/47 48/48/47
f 35/32/48 36/30/48 50/43/48 49/45/48
f 36/30/49 37/31/49 51/44/49 50/43/49
f 37/31/50 38/37/50 52/50/50 51/44/50
f 38/37/51 39/38/51 53/51/51 52/50/51
f 39/40/52 40/39/52 54/52/52 53/53/52
f 40/39/53 41/41/53 55/54/53 54/52/53
f 41/41/54 42/42/54 56/55/54 55/54/54
f 42/38/55 43/37/55 57/50/55 56/51/55
f 43/37/56 30/31/56 44/44/56 57/50/56
f 44/44/57 45/43/57 59/56/57 58/57/57
f 45/43/58 46/45/58 60/58/58 59/56/58
f 46/47/59 47/46/59 61/59/59 60/60/59
f 47/46/60 48/48/60 62/61/60 61/59/60
f 48/48/61 49/49/61 63/62/61 62/61/61
f 49/45/62 50/43/62 64/56/62 63/58/62
f 50/43/63 51/44/63 65/57/63 64/56/63
f 51/63/64 52/64/64 66/65/64 65/66/64
f 52/50/65 53/51/65 67/67/65 66/68/65
f 53/53/66 54/52/66 68/69/66 67/70/66
f 54/52/67 55/54/67 69/71/67 68/69/67
f 55/54/68 56/55/68 70/72/68 69/71/68
f 56/51/69 57/50/69 71/68/69 70/67/69
f 57/64/70 44/63/70 58/66/70 71/65/70
f 58/57/71 59/56/71 73/73/71 72/74/71
f 59/56/72 60/58/72 74/75/72 73/73/72
f 60/60/73 61/59/73 75/76/73 74/77/73
f 61/59/74 62/61/74 76/78/74 75/76/74
f 62/61/75 63/62/75 77/79/75 76/78/75
f 63/58/76 64/56/76 78/73/76 77/75/76
f 64/56/77 65/57/77 79/74/77 78/73/77
f 65/66/78 66/65/78 80/80/78 79/81/78
f 66/68/79 67/67/79 81/82/79 80/83/79
f 67/70/80 68/69/80 82/84/80 81/85/80
f 68/69/81 69/71/81 83/86/81 82/84/81
f 69/71/82 70/72/82 84/87/82 83/86/82
f 70/67/83 71/68/83 85/83/83 84/82/83
f 71/65/84 58/66/84 72/81/84 85/80/84
f 72/74/85 73/73/85 87/88/85 86/89/85
f 73/73/86 74/75/86 88/90/86 87/88/86
f 74/77/87 75/76/87 89/91/87 88/92/87
f 75/76/88 76/78/88 90/93/88 89/91/88
f 76/78/89 77/79/89 91/94/89 90/93/89
f 77/75/90 78/73/90 92/88/90 91/90/90
f 78/73/91 79/74/91 93/89/91 92/88/91
f 79/74/92 80/83/92 94/95/92 93/89/92
f 80/83/93 81/82/93 95/96/93 94/95/93
f 81/85/94 82/84/94 96/97/94 95/98/94
f 82/84/95 83/86/95 97/99/95 96/97/95
f 83/86/96 84/87/96 98/100/96 97/99/96
f 84/82/97 85/83/97 99/95/97 98/96/97
f 85/83/98 72/74/98 86/89/98 99/95/98
f 86/89/99 87/88/99 101/101/99 100/102/99
f 87/88/100 88/90/100 102/103/100 101/101/100
f 88/92/101 89/91/101 103/104/101 102/105/101
f 89/91/102 90/93/102 104/106/102 103/104/102
f 90/93/103 91/94/103 105/107/103 104/106/103
f 91/90/104 92/88/104 106/101/104 105/103/104
f 92/88/105 93/89/105 107/102/105 106/101/105
f 93/89/106 94/95/106 108/108/106 107/102/106
f 94/95/107 95/96/107 109/109/107 108/108/107
f 95/98/108 96/97/108 110/110/108 109/111/108
f 96/97/81 97/99/81 111/112/81 110/110/81
f 97/99/109 98/100/109 112/113/109 111/112/109
f 98/96/110 99/95/110 113/108/110 112/109/110
f 99/95/111 86/89/111 100/102/111 113/108/111
f 100/102/112 101/101/112 115/114/112 114/115/112
f 101/101/113 102/103/113 116/116/113 115/114/113
f 102/105/114 103/104/114 117/117/114 116/118/114
f 103/104/115 104/106/115 118/119/115 117/117/115
f 104/106/116 105/107/116 119/120/116 118/119/116
f 105/103/117 106/101/117 120/114/117 119/116/117
f 106/101/118 107/102/118 121/115/118 120/114/118
f 107/102/119 108/108/119 122/121/119 121/115/119
f 108/108/120 109/109/120 123/122/120 122/121/120
f 109/111/121 110/110/121 124/123/121 123/124/121
f 110/110/122 111/112/122 125/125/122 124/123/122
f 111/112/123 112/113/123 126/126/123 125/125/123
f 112/109/124 113/108/124 127/121/124 126/122/124
f 113/108/125 100/102/125 114/115/125 127/121/125
f 114/127/126 115/128/126 116/129/126 117/130/126 118/131/126 119/132/126 120/133/126 121/134/126 122/135/126 123/136/126 124/137/126 125/138/126 126/139/126 127/140/126
f 128/141/127 129/141/127 141/141/127 140/141/127
f 129/141/128 130/141/128 142/141/128 141/141/128
f 130/141/102 131/141/102 143/141/102 142/141/102
f 131/141/129 132/141/129 144/141/129 143/141/129
f 132/141/130 133/141/130 145/141/130 144/141/130
f 133/141/131 134/141/131 146/141/131 145/141/131
f 134/141/132 135/141/132 147/141/132 146/141/132
f 135/141/133 136/141/133 148/141/133 147/141/133
f 136/141/81 137/141/81 149/141/81 148/141/81
f 137/141/134 138/141/134 150/141/134 149/141/134
f 138/141/135 139/141/135 151/141/135 150/141/135
f 139/141/136 128/141/136 140/141/136 151/141/136
f 139/141/137 138/141/137 137/141/137 136/141/137 135/141/137 134/141/137 133/141/137 132/141/137 131/141/137 130/141/137 129/141/137 128/141/137
f 140/141/126 141/141/126 142/141/126 143/141/126 144/141/126 145/141/126 146/141/126 147/141/126 148/141/126 149/141/126 150/141/126 151/141/126
f 152/142/138 153/143/138 163/144/138 162/145/138
f 153/146/139 154/147/139 164/148/139 163/149/139
f 154/147/140 155/150/140 165/151/140 164/148/140
f 155/150/141 156/152/141 166/153/141 165/151/141
f 156/143/142 157/142/142 167/145/142 166/144/142
f 157/142/143 158/154/143 168/155/143 167/145/143
f 158/156/144 159/157/144 169/158/144 168/159/144
f 159/157/145 160/160/145 170/161/145 169/158/145
f 160/160/146 161/162/146 171/163/146 170/161/146
f 161/154/147 152/142/147 162/145/147 171/155/147
f 162/145/148 163/144/148 173/164/148 172/165/148
f 163/149/149 164/148/149 174/166/149 173/167/149
f 164/148/150 165/151/150 175/168/150 174/166/150
f 165/151/151 166/153/151 176/169/151 175/168/151
f 166/144/152 167/145/152 177/165/152 176/164/152
f 167/145/153 168/155/153 178/170/153 177/165/153
f 168/159/154 169/158/154 179/171/154 178/172/154
f 169/158/155 170/161/155 180/173/155 179/171/155
f 170/161/156 171/163/156 181/174/156 180/173/156
f 171/155/157 162/145/157 172/165/157 181/170/157
f 161/175/137 160/176/137 159/177/137 158/178/137 157/179/137 156/180/137 155/181/137 154/182/137 153/183/137 152/184/137
f 172/185/126 173/186/126 174/187/126 175/188/126 176/189/126 177/190/126 178/191/126 179/192/126 180/193/126 181/194/126
f 182/195/158 183/195/158 193/195/158 192/195/158
f 183/195/159 184/195/159 194/195/159 193/195/159
f 184/195/160 185/195/160 195/195/160 194/195/160
f 185/195/161 186/195/161 196/195/161 195/195/161
f 186/195/131 187/195/131 197/195/131 196/195/131
f 187/195/162 188/195/162 198/195/162 197/195/162
f 188/195/163 189/195/163 199/195/163 198/195/163
f 189/195/164 190/195/164 200/195/164 199/195/164
f 190/195/165 191/195/165 201/195/165 200/195/165
f 191/195/136 182/195/136 192/195/136 201/195/136
f 191/195/137 190/195/137 189/195/137 188/195/137 187/195/137 186/195/137 185/195/137 184/195/137 183/195/137 182/195/137
f 192/195/126 193/195/126 194/195/126 195/195/126 196/195/126 197/195/126 198/195/126 199/195/126 200/195/126 201/195/126
f 202/196/81 203/196/81 207/196/81 206/196/81
f 203/196/136 204/196/136 208/196/136 207/196/136
f 204/196/102 205/196/102 209/196/102 208/196/102
f 205/196/131 202/196/131 206/196/131 209/196/131
f 205/196/137 204/196/137 203/196/137 202/196/137
f 206/196/126 207/196/126 208/196/126 209/196/126
f 210/196/81 211/196/81 215/196/81 214/196/81
f 211/196/136 212/196/136 216/196/136 215/196/136
f 212/196/102 213/196/102 217/196/102 216/196/102
f 213/196/131 210/196/131 214/196/131 217/196/131
f 213/196/137 212/196/137 211/196/137 210/196/137
f 214/196/126 215/196/126 216/196/126 217/196/126
o $propeller
v 0.291023 2.394559 4.600000
v 0.179862 2.547559 4.600000
v 0.000000 2.606000 4.600000
v -0.179862 2.547559 4.600000
v -0.291023 2.394559 4.600000
v -0.291023 2.205441 4.600000
v -0.179862 2.052441 4.600000
v -0.000000 1.994000 4.600000
v 0.179862 2.052441 4.600000
v 0.291023 2.205441 4.600000
v 0.323359 2.405066 5.050000
v 0.199847 2.575066 5.050000
v 0.000000 2.640000 5.050000
v -0.199847 2.575066 5.050000
v -0.323359 2.405066 5.050000
v -0.323359 2.194934 5.050000
v -0.199847 2.024934 5.050000
v -0.000000 1.960000 5.050000
v 0.199847 2.024934 5.050000
v 0.323359 2.194934 5.050000
v 0.242519 2.378799 5.365000
v 0.149885 2.506299 5.365000
v 0.000000 2.555000 5.365000
v -0.149885 2.506299 5.365000
v -0.242519 2.378799 5.365000
v -0.242519 2.221201 5.365000
v -0.149885 2.093701 5.365000
v -0.000000 2.045000 5.365000
v 0.149885 2.093701 5.365000
v 0.242519 2.221201 5.365000
v 0.000000 2.300000 5.500000
v 0.187000 2.412583 5.115000
v 0.187000 2.288300 5.070265
v 0.187000 2.187417 4.985000
v 0.187000 2.311700 5.029735
v 1.091000 2.397728 5.085570
v 1.091000 2.293998 5.066492
v 1.091000 2.202272 5.014430
v 1.091000 2.306002 5.033508
v 1.995000 2.349930 5.058804
v 1.995000 2.297968 5.061522
v 1.995000 2.250070 5.041196
v 1.995000 2.302032 5.038478
v -0.112583 2.487000 5.115000
v 0.011700 2.487000 5.070265
v 0.112583 2.487000 4.985000
v -0.011700 2.487000 5.029735
v -0.097728 3.391000 5.085570
v 0.006002 3.391000 5.066492
v 0.097728 3.391000 5.014430
v -0.006002 3.391000 5.033508
v -0.049930 4.295000 5.058804
v 0.002032 4.295000 5.061522
v 0.049930 4.295000 5.041196
v -0.002032 4.295000 5.038478
v -0.187000 2.187417 5.115000
v -0.187000 2.311700 5.070265
v -0.187000 2.412583 4.985000
v -0.187000 2.288300 5.029735
v -1.091000 2.202272 5.085570
v -1.091000 2.306002 5.066492
v -1.091000 2.397728 5.014430
v -1.091000 2.293998 5.033508
v -1.995000 2.250070 5.058804
v -1.995000 2.302032 5.061522
v -1.995000 2.349930 5.041196
v -1.995000 2.297968 5.038478
v 0.112583 2.113000 5.115000
v -0.011700 2.113000 5.070265
v -0.112583 2.113000 4.985000
v 0.011700 2.113000 5.029735
v 0.097728 1.209000 5.085570
v -0.006002 1.209000 5.066492
v -0.097728 1.209000 5.014430
v 0.006002 1.209000 5.033508
v 0.049930 0.305000 5.058804
v -0.002032 0.305000 5.061522
v -0.049930 0.305000 5.041196
v 0.002032 0.305000 5.038478
vn 0.8069 0.5863 -0.0717
vn 0.3082 0.9486 -0.0717
vn -0.3082 0.9486 -0.0717
vn -0.8069 0.5863 -0.0717
vn -0.9974 0.0000 -0.0717
vn -0.8069 -0.5863 -0.0717
vn -0.3082 -0.9486 -0.0717
vn 0.3082 -0.9486 -0.0717
vn 0.8069 -0.5863 -0.0717
vn 0.9974 0.0000 -0.0717
vn 0.7836 0.5693 0.2486
vn 0.2993 0.9212 0.2486
vn -0.2993 0.9212 0.2486
vn -0.7836 0.5693 0.2486
vn -0.9686 0.0000 0.2486
vn -0.7836 -0.5693 0.2486
vn -0.2993 -0.9212 0.2486
vn 0.2993 -0.9212 0.2486
vn 0.7836 -0.5693 0.2486
vn 0.9686 0.0000 0.2486
vn 0.3935 0.2859 0.8737
vn 0.1503 0.4626 0.8737
vn -0.1503 0.4626 0.8737
vn -0.3935 0.2859 0.8737
vn -0.4864 0.0000 0.8737
vn -0.3935 -0.2859 0.8737
vn -0.1503 -0.4626 0.8737
vn 0.1503 -0.4626 0.8737
vn 0.3935 -0.2859 0.8737
vn 0.4864 0.0000 0.8737
vn -0.0000 0.0000 -1.0000
vn 0.0163 -0.2695 0.9629
vn -0.0050 -0.5805 0.8142
vn 0.0163 0.2695 -0.9629
vn -0.0050 0.5805 -0.8142
vn 0.0149 -0.1045 0.9944
vn 0.0025 -0.4603 0.8878
vn 0.0149 0.1045 -0.9944
vn 0.0025 0.4603 -0.8878
vn -1.0000 0.0000 0.0000
vn 1.0000 0.0000 0.0000
vn 0.2695 0.0163 0.9629
vn 0.5805 -0.0050 0.8142
vn -0.2695 0.0163 -0.9629
vn -0.5805 -0.0050 -0.8142
vn 0.1045 0.0149 0.9944
vn 0.4603 0.0025 0.8878
vn -0.1045 0.0149 -0.9944
vn -0.4603 0.0025 -0.8878
vn 0.0000 -1.0000 0.0000
vn 0.0000 1.0000 -0.0000
vn -0.0163 0.2695 0.9629
vn 0.0050 0.5805 0.8142
vn -0.0163 -0.2695 -0.9629
vn 0.0050 -0.5805 -0.8142
vn -0.0149 0.1045 0.9944
vn -0.0025 0.4603 0.8878
vn -0.0149 -0.1045 -0.9944
vn -0.0025 -0.4603 -0.8878
vn -0.2695 -0.0163 0.9629
vn -0.5805 0.0050 0.8142
vn 0.2695 -0.0163 -0.9629
vn 0.5805 0.0050 -0.8142
vn -0.1045 -0.0149 0.9944
vn -0.4603 -0.0025 0.8878
vn 0.1045 -0.0149 -0.9944
vn 0.4603 -0.0025 -0.8878
vt 0.841797 0.095703
vt 0.810547 0.095703
vt 0.826172 0.095703
usemtl material
s 0
f 218/197/166 219/197/166 229/197/166 228/197/166
f 219/197/167 220/197/167 230/197/167 229/197/167
f 220/197/168 221/197/168 231/197/168 230/197/168
f 221/197/169 222/197/169 232/197/169 231/197/169
f 222/197/170 223/197/170 233/197/170 232/197/170
f 223/197/171 224/197/171 234/197/171 233/197/171
f 224/197/172 225/197/172 235/197/172 234/197/172
f 225/197/173 226/197/173 236/197/173 235/197/173
f 226/197/174 227/197/174 237/197/174 236/197/174
f 227/197/175 218/197/175 228/197/175 237/197/175
f 228/197/176 229/197/176 239/197/176 238/197/176
f 229/197/177 230/197/177 240/197/177 239/197/177
f 230/197/178 231/197/178 241/197/178 240/197/178
f 231/197/179 232/197/179 242/197/179 241/197/179
f 232/197/180 233/197/180 243/197/180 242/197/180
f 233/197/181 234/197/181 244/197/181 243/197/181
f 234/197/182 235/197/182 245/197/182 244/197/182
f 235/197/183 236/197/183 246/197/183 245/197/183
f 236/197/184 237/197/184 247/197/184 246/197/184
f 237/197/185 228/197/185 238/197/185 247/197/185
f 238/197/186 239/197/186 248/197/186
f 239/197/187 240/197/187 248/197/187
f 240/197/188 241/197/188 248/197/188
f 241/197/189 242/197/189 248/197/189
f 242/197/190 243/197/190 248/197/190
f 243/197/191 244/197/191 248/197/191
f 244/197/192 245/197/192 248/197/192
f 245/197/193 246/197/193 248/197/193
f 246/197/194 247/197/194 248/197/194
f 247/197/195 238/197/195 248/197/195
f 227/197/196 226/197/196 225/197/196 224/197/196 223/197/196 222/197/196 221/197/196 220/197/196 219/197/196 218/197/196
f 249/198/197 250/198/197 254/198/197 253/198/197
f 250/198/198 251/198/198 255/198/198 254/198/198
f 251/198/199 252/198/199 256/198/199 255/198/199
f 252/198/200 249/198/200 253/198/200 256/198/200
f 253/199/201 254/199/201 258/199/201 257/199/201
f 254/199/202 255/199/202 259/199/202 258/199/202
f 255/199/203 256/199/203 260/199/203 259/199/203
f 256/199/204 253/199/204 257/199/204 260/199/204
f 252/198/205 251/198/205 250/198/205 249/198/205
f 257/199/206 258/199/206 259/199/206 260/199/206
f 261/198/207 262/198/207 266/198/207 265/198/207
f 262/198/208 263/198/208 267/198/208 266/198/208
f 263/198/209 264/198/209 268/198/209 267/198/209
f 264/198/210 261/198/210 265/198/210 268/198/210
f 265/199/211 266/199/211 270/199/211 269/199/211
f 266/199/212 267/199/212 271/199/212 270/199/212
f 267/199/213 268/199/213 272/199/213 271/199/213
f 268/199/214 265/199/214 269/199/214 272/199/214
f 264/198/215 263/198/215 262/198/215 261/198/215
f 269/199/216 270/199/216 271/199/216 272/199/216
f 273/198/217 274/198/217 278/198/217 277/198/217
f 274/198/218 275/198/218 279/198/218 278/198/218
f 275/198/219 276/198/219 280/198/219 279/198/219
f 276/198/220 273/198/220 277/198/220 280/198/220
f 277/199/221 278/199/221 282/199/221 281/199/221
f 278/199/222 279/199/222 283/199/222 282/199/222
f 279/199/223 280/199/223 284/199/223 283/199/223
f 280/199/224 277/199/224 281/199/224 284/199/224
f 276/198/206 275/198/206 274/198/206 273/198/206
f 281/199/205 282/199/205 283/199/205 284/199/205
f 285/198/225 286/198/225 290/198/225 289/198/225
f 286/198/226 287/198/226 291/198/226 290/198/226
f 287/198/227 288/198/227 292/198/227 291/198/227
f 288/198/228 285/198/228 289/198/228 292/198/228
f 289/199/229 290/199/229 294/199/229 293/199/229
f 290/199/230 291/199/230 295/199/230 294/199/230
f 291/199/231 292/199/231 296/199/231 295/199/231
f 292/199/232 289/199/232 293/199/232 296/199/232
f 288/198/216 287/198/216 286/198/216 285/198/216
f 293/199/215 294/199/215 295/199/215 296/199/215
o wing
v -3.100000 2.021215 1.338107
v -3.100000 2.136983 1.183333
v -3.100000 2.200429 0.693216
v -3.100000 2.170266 -0.080653
v -3.100000 2.031533 -1.241456
v -3.100000 2.010897 -1.241456
v -3.100000 1.872163 -0.080653
v -3.100000 1.842001 0.693216
v -3.100000 1.905447 1.183333
v -1.400000 1.872484 1.454306
v -1.400000 2.021458 1.275828
v -1.400000 2.103103 0.710646
v -1.400000 2.064289 -0.181746
v -1.400000 1.884383 -1.520335
v -1.400000 1.860586 -1.520335
v -1.400000 1.680680 -0.181746
v -1.400000 1.641866 0.710646
v -1.400000 1.723510 1.275828
v 0.000000 1.750000 1.550000
v 0.000000 1.929407 1.352000
v 0.000000 2.027730 0.725000
v 0.000000 1.980987 -0.265000
v 0.000000 1.763200 -1.750000
v 0.000000 1.736800 -1.750000
v 0.000000 1.519013 -0.265000
v 0.000000 1.472270 0.725000
v 0.000000 1.570593 1.352000
v 1.400000 1.872484 1.454306
v 1.400000 2.021458 1.275828
v 1.400000 2.103103 0.710646
v 1.400000 2.064289 -0.181746
v 1.400000 1.884383 -1.520335
v 1.400000 1.860586 -1.520335
v 1.400000 1.680680 -0.181746
v 1.400000 1.641866 0.710646
v 1.400000 1.723510 1.275828
v 3.100000 2.021215 1.338107
v 3.100000 2.136983 1.183333
v 3.100000 2.200429 0.693216
v 3.100000 2.170266 -0.080653
v 3.100000 2.031533 -1.241456
v 3.100000 2.010897 -1.241456
v 3.100000 1.872163 -0.080653
v 3.100000 1.842001 0.693216
v 3.100000 1.905447 1.183333
vn 0.0227 0.7828 0.6219
vn 0.0575 0.9890 0.1360
vn 0.0586 0.9974 -0.0413
vn 0.0596 0.9902 -0.1262
vn -0.1619 0.0000 -0.9868
vn -0.1131 -0.9856 -0.1257
vn -0.1153 -0.9925 -0.0411
vn -0.1150 -0.9841 0.1353
vn -0.1136 -0.7779 0.6180
vn 0.0174 0.7535 0.6572
vn 0.0542 0.9873 0.1490
vn 0.0554 0.9974 -0.0453
vn 0.0566 0.9886 -0.1392
vn -0.1158 -0.9836 -0.1385
vn -0.1185 -0.9919 -0.0451
vn -0.1179 -0.9819 0.1482
vn -0.1137 -0.7487 0.6531
vn -0.0174 0.7535 0.6572
vn -0.0542 0.9873 0.1490
vn -0.0554 0.9974 -0.0453
vn -0.0566 0.9886 -0.1392
vn 0.1619 0.0000 -0.9868
vn 0.1158 -0.9836 -0.1385
vn 0.1185 -0.9919 -0.0451
vn 0.1179 -0.9819 0.1482
vn 0.1137 -0.7487 0.6531
vn -0.0227 0.7828 0.6219
vn -0.0575 0.9890 0.1360
vn -0.0586 0.9974 -0.0413
vn -0.0596 0.9902 -0.1262
vn 0.1131 -0.9856 -0.1257
vn 0.1153 -0.9925 -0.0411
vn 0.1150 -0.9841 0.1353
vn 0.1136 -0.7779 0.6180
vn -1.0000 -0.0000 0.0000
vn 1.0000 0.0000 0.0000
vt 0.302155 0.877717
vt 0.302155 0.871704
vt 0.359557 0.868588
vt 0.359557 0.873803
vt 0.302155 0.852663
vt 0.359557 0.852076
vt 0.302155 0.822598
vt 0.359557 0.826004
vt 0.302155 0.777501
vt 0.359557 0.786896
vt 0.197773 0.015962
vt 0.197773 0.015168
vt 0.140283 0.020180
vt 0.140283 0.020869
vt 0.207611 0.332188
vt 0.207611 0.377286
vt 0.150209 0.380692
vt 0.150209 0.341584
vt 0.207611 0.407351
vt 0.150209 0.406764
vt 0.207611 0.426392
vt 0.150209 0.423276
vt 0.207611 0.432405
vt 0.150209 0.428490
vt 0.254883 0.880941
vt 0.254883 0.874271
vt 0.254883 0.853147
vt 0.254883 0.819793
vt 0.254883 0.769763
vt 0.245117 0.011921
vt 0.245117 0.011040
vt 0.254883 0.324451
vt 0.254883 0.374481
vt 0.254883 0.407834
vt 0.254883 0.428958
vt 0.254883 0.435629
vt 0.207611 0.877717
vt 0.207611 0.871704
vt 0.207611 0.852663
vt 0.207611 0.822598
vt 0.207611 0.777501
vt 0.292461 0.015962
vt 0.292461 0.015168
vt 0.302155 0.332188
vt 0.302155 0.377286
vt 0.302155 0.407351
vt 0.302155 0.426392
vt 0.302155 0.432405
vt 0.150209 0.873803
vt 0.150209 0.868588
vt 0.150209 0.852076
vt 0.150209 0.826004
vt 0.150209 0.786896
vt 0.349951 0.020869
vt 0.349951 0.020180
vt 0.359557 0.341584
vt 0.359557 0.380692
vt 0.359557 0.406764
vt 0.359557 0.423276
vt 0.359557 0.428490
vt 0.828881 0.460006
vt 0.823666 0.463903
vt 0.807154 0.466038
vt 0.781082 0.465023
vt 0.741975 0.460353
vt 0.741975 0.459659
vt 0.781082 0.454989
vt 0.807154 0.453973
vt 0.823666 0.456109
usemtl material
s 0
f 306/200/233 307/201/233 298/202/233 297/203/233
f 307/201/234 308/204/234 299/205/234 298/202/234
f 308/204/235 309/206/235 300/207/235 299/205/235
f 309/206/236 310/208/236 301/209/236 300/207/236
f 310/210/237 311/211/237 302/212/237 301/213/237
f 311/214/238 312/215/238 303/216/238 302/217/238
f 312/215/239 313/218/239 304/219/239 303/216/239
f 313/218/240 314/220/240 305/221/240 304/219/240
f 314/220/241 306/222/241 297/223/241 305/221/241
f 315/224/242 316/225/242 307/201/242 306/200/242
f 316/225/243 317/226/243 308/204/243 307/201/243
f 317/226/244 318/227/244 309/206/244 308/204/244
f 318/227/245 319/228/245 310/208/245 309/206/245
f 319/229/237 320/230/237 311/211/237 310/210/237
f 320/231/246 321/232/246 312/215/246 311/214/246
f 321/232/247 322/233/247 313/218/247 312/215/247
f 322/233/248 323/234/248 314/220/248 313/218/248
f 323/234/249 315/235/249 306/222/249 314/220/249
f 324/236/250 325/237/250 316/225/250 315/224/250
f 325/237/251 326/238/251 317/226/251 316/225/251
f 326/238/252 327/239/252 318/227/252 317/226/252
f 327/239/253 328/240/253 319/228/253 318/227/253
f 328/241/254 329/242/254 320/230/254 319/229/254
f 329/243/255 330/244/255 321/232/255 320/231/255
f 330/244/256 331/245/256 322/233/256 321/232/256
f 331/245/257 332/246/257 323/234/257 322/233/257
f 332/246/258 324/247/258 315/235/258 323/234/258
f 333/248/259 334/249/259 325/237/259 324/236/259
f 334/249/260 335/250/260 326/238/260 325/237/260
f 335/250/261 336/251/261 327/239/261 326/238/261
f 336/251/262 337/252/262 328/240/262 327/239/262
f 337/253/254 338/254/254 329/242/254 328/241/254
f 338/255/263 339/256/263 330/244/263 329/243/263
f 339/256/264 340/257/264 331/245/264 330/244/264
f 340/257/265 341/258/265 332/246/265 331/245/265
f 341/258/266 333/259/266 324/247/266 332/246/266
f 297/260/267 298/261/267 299/262/267 300/263/267 301/264/267 302/265/267 303/266/267 304/267/267 305/268/267
f 341/268/268 340/267/268 339/266/268 338/265/268 337/264/268 336/263/268 335/262/268 334/261/268 333/260/268
o $wing_outer_l
v 3.060000 2.017715 1.340841
v 3.060000 2.134217 1.185509
v 3.060000 2.198066 0.693626
v 3.060000 2.167712 -0.083031
v 3.060000 2.028071 -1.248018
v 3.060000 2.007360 -1.248018
v 3.060000 1.867719 -0.083031
v 3.060000 1.837365 0.693626
v 3.060000 1.901213 1.185509
v 5.000000 2.187443 1.208237
v 5.000000 2.270963 1.079956
v 5.000000 2.316736 0.673735
v 5.000000 2.294975 0.032334
v 5.000000 2.195995 -0.929768
v 5.000000 2.178891 -0.929768
v 5.000000 2.079911 0.032334
v 5.000000 2.058151 0.673735
v 5.000000 2.103924 1.079956
v 7.015000 2.389980 1.050000
v 7.015000 2.441147 0.954000
v 7.015000 2.469190 0.650000
v 7.015000 2.455858 0.170000
v 7.015000 2.396380 -0.550000
v 7.015000 2.383580 -0.550000
v 7.015000 2.324101 0.170000
v 7.015000 2.310770 0.650000
v 7.015000 2.338812 0.954000
v 7.315000 2.389980 0.922000
v 7.315000 2.410242 0.852880
v 7.315000 2.421347 0.634000
v 7.315000 2.416068 0.288400
v 7.315000 2.394588 -0.230000
v 7.315000 2.385372 -0.230000
v 7.315000 2.363892 0.288400
v 7.315000 2.358612 0.634000
v 7.315000 2.369717 0.852880
v 3.580311 2.078085 0.807348
v 3.550000 2.095585 0.807348
v 3.519689 2.078085 0.807348
v 3.519689 2.043085 0.807348
v 3.550000 2.025585 0.807348
v 3.580311 2.043085 0.807348
v 3.580311 2.078085 1.807348
v 3.550000 2.095585 1.807348
v 3.519689 2.078085 1.807348
v 3.519689 2.043085 1.807348
v 3.550000 2.025585 1.807348
v 3.580311 2.043085 1.807348
v 3.930311 2.108706 0.783424
v 3.900000 2.126206 0.783424
v 3.869689 2.108706 0.783424
v 3.869689 2.073706 0.783424
v 3.900000 2.056206 0.783424
v 3.930311 2.073706 0.783424
v 3.930311 2.108706 1.783424
v 3.900000 2.126206 1.783424
v 3.869689 2.108706 1.783424
v 3.869689 2.073706 1.783424
v 3.900000 2.056206 1.783424
v 3.930311 2.073706 1.783424
vn -0.0292 0.8169 0.5761
vn -0.0613 0.9908 0.1209
vn -0.0623 0.9974 -0.0367
vn -0.0630 0.9918 -0.1113
vn 0.1619 0.0000 -0.9868
vn 0.1101 -0.9877 -0.1108
vn 0.1117 -0.9931 -0.0365
vn 0.1116 -0.9864 0.1204
vn 0.1131 -0.8120 0.5726
vn -0.0429 0.8565 0.5144
vn -0.0756 0.9918 0.1031
vn -0.0766 0.9966 -0.0312
vn -0.0770 0.9926 -0.0935
vn 0.1852 0.0000 -0.9827
vn 0.1220 -0.9882 -0.0931
vn 0.1232 -0.9919 -0.0310
vn 0.1232 -0.9871 0.1026
vn 0.1283 -0.8502 0.5106
vn 0.1951 0.9002 0.3894
vn 0.1439 0.9868 0.0739
vn 0.1482 0.9887 -0.0223
vn 0.1160 0.9911 -0.0648
vn 0.7295 0.0000 -0.6839
vn 0.1160 -0.9911 -0.0648
vn 0.1482 -0.9887 -0.0223
vn 0.1439 -0.9868 0.0739
vn 0.1951 -0.9002 0.3894
vn -1.0000 0.0000 0.0000
vn 1.0000 0.0000 0.0000
vn 0.5000 0.8660 0.0000
vn -0.5000 0.8660 0.0000
vn -0.5000 -0.8660 0.0000
vn 0.5000 -0.8660 0.0000
vn 0.0000 0.0000 -1.0000
vn 0.0000 0.0000 1.0000
vt 0.086053 0.869427
vt 0.086053 0.865105
vt 0.151559 0.868662
vt 0.151559 0.873895
vt 0.086053 0.851420
vt 0.151559 0.852090
vt 0.086053 0.829811
vt 0.151559 0.825924
vt 0.086053 0.797397
vt 0.151559 0.786675
vt 0.414204 0.026353
vt 0.414204 0.025782
vt 0.348598 0.020062
vt 0.348598 0.020753
vt 0.423712 0.352085
vt 0.423712 0.384498
vt 0.358206 0.380612
vt 0.358206 0.341363
vt 0.423712 0.406107
vt 0.358206 0.406777
vt 0.423712 0.419793
vt 0.358206 0.423349
vt 0.423712 0.424115
vt 0.358206 0.428582
vt 0.018015 0.864096
vt 0.018015 0.860862
vt 0.018015 0.850620
vt 0.018015 0.834449
vt 0.018015 0.810192
vt 0.482346 0.033035
vt 0.482346 0.032608
vt 0.491751 0.364879
vt 0.491751 0.389136
vt 0.491751 0.405308
vt 0.491751 0.415549
vt 0.491751 0.418784
vt 0.007885 0.859784
vt 0.007885 0.857455
vt 0.007885 0.850081
vt 0.007885 0.838438
vt 0.007885 0.820973
vt 0.776051 0.472574
vt 0.776051 0.472263
vt 0.765270 0.472203
vt 0.765270 0.472634
vt 0.501880 0.375660
vt 0.501880 0.393125
vt 0.501880 0.404769
vt 0.501880 0.412143
vt 0.501880 0.414471
vt 0.828973 0.459888
vt 0.823740 0.463810
vt 0.807168 0.465959
vt 0.781002 0.464937
vt 0.741753 0.460237
vt 0.741753 0.459540
vt 0.781002 0.454839
vt 0.807168 0.453817
vt 0.823740 0.455967
vt 0.812533 0.471737
vt 0.805159 0.471363
vt 0.793516 0.471540
vt 0.793516 0.473297
vt 0.805159 0.473474
vt 0.812533 0.473101
vt 0.814862 0.472419
vt 0.888672 0.095703
usemtl material
s 0
f 351/269/269 352/270/269 343/271/269 342/272/269
f 352/270/270 353/273/270 344/274/270 343/271/270
f 353/273/271 354/275/271 345/276/271 344/274/271
f 354/275/272 355/277/272 346/278/272 345/276/272
f 355/279/273 356/280/273 347/281/273 346/282/273
f 356/283/274 357/284/274 348/285/274 347/286/274
f 357/284/275 358/287/275 349/288/275 348/285/275
f 358/287/276 359/289/276 350/290/276 349/288/276
f 359/289/277 351/291/277 342/292/277 350/290/277
f 360/293/278 361/294/278 352/270/278 351/269/278
f 361/294/279 362/295/279 353/273/279 352/270/279
f 362/295/280 363/296/280 354/275/280 353/273/280
f 363/296/281 364/297/281 355/277/281 354/275/281
f 364/298/282 365/299/282 356/280/282 355/279/282
f 365/300/283 366/301/283 357/284/283 356/283/283
f 366/301/284 367/302/284 358/287/284 357/284/284
f 367/302/285 368/303/285 359/289/285 358/287/285
f 368/303/286 360/304/286 351/291/286 359/289/286
f 369/305/287 370/306/287 361/294/287 360/293/287
f 370/306/288 371/307/288 362/295/288 361/294/288
f 371/307/289 372/308/289 363/296/289 362/295/289
f 372/308/290 373/309/290 364/297/290 363/296/290
f 373/310/291 374/311/291 365/312/291 364/313/291
f 374/314/292 375/315/292 366/301/292 365/300/292
f 375/315/293 376/316/293 367/302/293 366/301/293
f 376/316/294 377/317/294 368/303/294 367/302/294
f 377/317/295 369/318/295 360/304/295 368/303/295
f 342/319/296 343/320/296 344/321/296 345/322/296 346/323/296 347/324/296 348/325/296 349/326/296 350/327/296
f 377/328/297 376/329/297 375/330/297 374/311/297 373/310/297 372/331/297 371/332/297 370/333/297 369/334/297
f 378/335/298 379/335/298 385/335/298 384/335/298
f 379/335/299 380/335/299 386/335/299 385/335/299
f 380/335/296 381/335/296 387/335/296 386/335/296
f 381/335/300 382/335/300 388/335/300 387/335/300
f 382/335/301 383/335/301 389/335/301 388/335/301
f 383/335/297 378/335/297 384/335/297 389/335/297
f 383/335/302 382/335/302 381/335/302 380/335/302 379/335/302 378/335/302
f 384/335/303 385/335/303 386/335/303 387/335/303 388/335/303 389/335/303
f 390/335/298 391/335/298 397/335/298 396/335/298
f 391/335/299 392/335/299 398/335/299 397/335/299
f 392/335/296 393/335/296 399/335/296 398/335/296
f 393/335/300 394/335/300 400/335/300 399/335/300
f 394/335/301 395/335/301 401/335/301 400/335/301
f 395/335/297 390/335/297 396/335/297 401/335/297
f 395/335/302 394/335/302 393/335/302 392/335/302 391/335/302 390/335/302
f 396/335/303 397/335/303 398/335/303 399/335/303 400/335/303 401/335/303
o $wing_outer_r
v -3.060000 2.017715 1.340841
v -3.060000 2.134217 1.185509
v -3.060000 2.198066 0.693626
v -3.060000 2.167712 -0.083031
v -3.060000 2.028071 -1.248018
v -3.060000 2.007360 -1.248018
v -3.060000 1.867719 -0.083031
v -3.060000 1.837365 0.693626
v -3.060000 1.901213 1.185509
v -5.000000 2.187443 1.208237
v -5.000000 2.270963 1.079956
v -5.000000 2.316736 0.673735
v -5.000000 2.294975 0.032334
v -5.000000 2.195995 -0.929768
v -5.000000 2.178891 -0.929768
v -5.000000 2.079911 0.032334
v -5.000000 2.058151 0.673735
v -5.000000 2.103924 1.079956
v -7.015000 2.389980 1.050000
v -7.015000 2.441147 0.954000
v -7.015000 2.469190 0.650000
v -7.015000 2.455858 0.170000
v -7.015000 2.396380 -0.550000
v -7.015000 2.383580 -0.550000
v -7.015000 2.324101 0.170000
v -7.015000 2.310770 0.650000
v -7.015000 2.338812 0.954000
v -7.315000 2.389980 0.922000
v -7.315000 2.410242 0.852880
v -7.315000 2.421347 0.634000
v -7.315000 2.416068 0.288400
v -7.315000 2.394588 -0.230000
v -7.315000 2.385372 -0.230000
v -7.315000 2.363892 0.288400
v -7.315000 2.358612 0.634000
v -7.315000 2.369717 0.852880
v -3.519689 2.078085 0.807348
v -3.550000 2.095585 0.807348
v -3.580311 2.078085 0.807348
v -3.580311 2.043085 0.807348
v -3.550000 2.025585 0.807348
v -3.519689 2.043085 0.807348
v -3.519689 2.078085 1.807348
v -3.550000 2.095585 1.807348
v -3.580311 2.078085 1.807348
v -3.580311 2.043085 1.807348
v -3.550000 2.025585 1.807348
v -3.519689 2.043085 1.807348
v -3.869689 2.108706 0.783424
v -3.900000 2.126206 0.783424
v -3.930311 2.108706 0.783424
v -3.930311 2.073706 0.783424
v -3.900000 2.056206 0.783424
v -3.869689 2.073706 0.783424
v -3.869689 2.108706 1.783424
v -3.900000 2.126206 1.783424
v -3.930311 2.108706 1.783424
v -3.930311 2.073706 1.783424
v -3.900000 2.056206 1.783424
v -3.869689 2.073706 1.783424
vn 0.0292 0.8169 0.5761
vn 0.0613 0.9908 0.1209
vn 0.0623 0.9974 -0.0367
vn 0.0630 0.9918 -0.1113
vn -0.1619 0.0000 -0.9868
vn -0.1101 -0.9877 -0.1108
vn -0.1117 -0.9931 -0.0365
vn -0.1116 -0.9864 0.1204
vn -0.1131 -0.8120 0.5726
vn 0.0429 0.8565 0.5144
vn 0.0756 0.9918 0.1031
vn 0.0766 0.9966 -0.0312
vn 0.0770 0.9926 -0.0935
vn -0.1852 0.0000 -0.9827
vn -0.1220 -0.9882 -0.0931
vn -0.1232 -0.9919 -0.0310
vn -0.1232 -0.9871 0.1026
vn -0.1283 -0.8502 0.5106
vn -0.1951 0.9002 0.3894
vn -0.1439 0.9868 0.0739
vn -0.1482 0.9887 -0.0223
vn -0.1160 0.9911 -0.0648
vn -0.7295 0.0000 -0.6839
vn -0.1160 -0.9911 -0.0648
vn -0.1482 -0.9887 -0.0223
vn -0.1439 -0.9868 0.0739
vn -0.1951 -0.9002 0.3894
vn 1.0000 -0.0000 0.0000
vn -1.0000 0.0000 0.0000
vn 0.5000 0.8660 0.0000
vn -0.5000 0.8660 0.0000
vn -0.5000 -0.8660 0.0000
vn 0.5000 -0.8660 0.0000
vn 0.0000 0.0000 -1.0000
vn 0.0000 0.0000 1.0000
vt 0.358206 0.873895
vt 0.358206 0.868662
vt 0.423712 0.865105
vt 0.423712 0.869427
vt 0.358206 0.852090
vt 0.423712 0.851420
vt 0.358206 0.825924
vt 0.423712 0.829811
vt 0.358206 0.786675
vt 0.423712 0.797397
vt 0.141636 0.020753
vt 0.141636 0.020062
vt 0.076030 0.025782
vt 0.076030 0.026353
vt 0.151559 0.341363
vt 0.151559 0.380612
vt 0.086053 0.384498
vt 0.086053 0.352085
vt 0.151559 0.406777
vt 0.086053 0.406107
vt 0.151559 0.423349
vt 0.086053 0.419793
vt 0.151559 0.428582
vt 0.086053 0.424115
vt 0.491751 0.860862
vt 0.491751 0.864096
vt 0.491751 0.850620
vt 0.491751 0.834449
vt 0.491751 0.810192
vt 0.007888 0.032608
vt 0.007888 0.033035
vt 0.018015 0.389136
vt 0.018015 0.364879
vt 0.018015 0.405308
vt 0.018015 0.415549
vt 0.018015 0.418784
vt 0.501880 0.857455
vt 0.501880 0.859784
vt 0.501880 0.850081
vt 0.501880 0.838438
vt 0.501880 0.820973
vt 0.765270 0.472634
vt 0.765270 0.472203
vt 0.776051 0.472263
vt 0.776051 0.472574
vt 0.007885 0.393125
vt 0.007885 0.375660
vt 0.007885 0.404769
vt 0.007885 0.412143
vt 0.007885 0.414471
vt 0.823740 0.455967
vt 0.807168 0.453817
vt 0.781002 0.454839
vt 0.741753 0.459540
vt 0.741753 0.460237
vt 0.781002 0.464937
vt 0.807168 0.465959
vt 0.823740 0.463810
vt 0.828973 0.459888
vt 0.814862 0.472419
vt 0.812533 0.473101
vt 0.805159 0.473474
vt 0.793516 0.473297
vt 0.793516 0.471540
vt 0.805159 0.471363
vt 0.812533 0.471737
vt 0.888672 0.095703
usemtl material
s 0
f 402/336/304 403/337/304 412/338/304 411/339/304
f 403/337/305 404/340/305 413/341/305 412/338/305
f 404/340/306 405/342/306 414/343/306 413/341/306
f 405/342/307 406/344/307 415/345/307 414/343/307
f 406/346/308 407/347/308 416/348/308 415/349/308
f 407/350/309 408/351/309 417/352/309 416/353/309
f 408/351/310 409/354/310 418/355/310 417/352/310
f 409/354/311 410/356/311 419/357/311 418/355/311
f 410/356/312 402/358/312 411/359/312 419/357/312
f 411/339/313 412/338/313 421/360/313 420/361/313
f 412/338/314 413/341/314 422/362/314 421/360/314
f 413/341/315 414/343/315 423/363/315 422/362/315
f 414/343/316 415/345/316 424/364/316 423/363/316
f 415/349/317 416/348/317 425/365/317 424/366/317
f 416/353/318 417/352/318 426/367/318 425/368/318
f 417/352/319 418/355/319 427/369/319 426/367/319
f 418/355/320 419/357/320 428/370/320 427/369/320
f 419/357/321 411/359/321 420/371/321 428/370/321
f 420/361/322 421/360/322 430/372/322 429/373/322
f 421/360/323 422/362/323 431/374/323 430/372/323
f 422/362/324 423/363/324 432/375/324 431/374/324
f 423/363/325 424/364/325 433/376/325 432/375/325
f 424/377/326 425/378/326 434/379/326 433/380/326
f 425/368/327 426/367/327 435/381/327 434/382/327
f 426/367/328 427/369/328 436/383/328 435/381/328
f 427/369/329 428/370/329 437/384/329 436/383/329
f 428/370/330 420/371/330 429/385/330 437/384/330
f 410/386/331 409/387/331 408/388/331 407/389/331 406/390/331 405/391/331 404/392/331 403/393/331 402/394/331
f 429/395/332 430/396/332 431/397/332 432/398/332 433/380/332 434/379/332 435/399/332 436/400/332 437/401/332
f 438/402/333 439/402/333 445/402/333 444/402/333
f 439/402/334 440/402/334 446/402/334 445/402/334
f 440/402/332 441/402/332 447/402/332 446/402/332
f 441/402/335 442/402/335 448/402/335 447/402/335
f 442/402/336 443/402/336 449/402/336 448/402/336
f 443/402/331 438/402/331 444/402/331 449/402/331
f 443/402/337 442/402/337 441/402/337 440/402/337 439/402/337 438/402/337
f 444/402/338 445/402/338 446/402/338 447/402/338 448/402/338 449/402/338
f 450/402/333 451/402/333 457/402/333 456/402/333
f 451/402/334 452/402/334 458/402/334 457/402/334
f 452/402/332 453/402/332 459/402/332 458/402/332
f 453/402/335 454/402/335 460/402/335 459/402/335
f 454/402/336 455/402/336 461/402/336 460/402/336
f 455/402/331 450/402/331 456/402/331 461/402/331
f 455/402/337 454/402/337 453/402/337 452/402/337 451/402/337 450/402/337
f 456/402/338 457/402/338 458/402/338 459/402/338 460/402/338 461/402/338
o tail
v 0.000000 2.850000 -5.150000
v 0.071955 2.850000 -5.285000
v 0.111389 2.850000 -5.712500
v 0.092642 2.850000 -6.387500
v 0.009000 2.850000 -7.400000
v -0.009000 2.850000 -7.400000
v -0.092642 2.850000 -6.387500
v -0.111389 2.850000 -5.712500
v -0.071955 2.850000 -5.285000
v 0.000000 4.450000 -6.350000
v 0.031980 4.450000 -6.410000
v 0.049506 4.450000 -6.600000
v 0.041174 4.450000 -6.900000
v 0.004000 4.450000 -7.350000
v -0.004000 4.450000 -7.350000
v -0.041174 4.450000 -6.900000
v -0.049506 4.450000 -6.600000
v -0.031980 4.450000 -6.410000
v 0.000000 4.600000 -6.450000
v 0.013432 4.600000 -6.492000
v 0.020793 4.600000 -6.625000
v 0.017293 4.600000 -6.835000
v 0.002800 4.600000 -7.150000
v -0.002800 4.600000 -7.150000
v -0.017293 4.600000 -6.835000
v -0.020793 4.600000 -6.625000
v -0.013432 4.600000 -6.492000
v -2.800000 2.800000 -5.522000
v -2.800000 2.809118 -5.560880
v -2.800000 2.814115 -5.684000
v -2.800000 2.811740 -5.878400
v -2.800000 2.802592 -6.170000
v -2.800000 2.797408 -6.170000
v -2.800000 2.788260 -5.878400
v -2.800000 2.785885 -5.684000
v -2.800000 2.790882 -5.560880
v -2.575000 2.800000 -5.450000
v -2.575000 2.823025 -5.504000
v -2.575000 2.835644 -5.675000
v -2.575000 2.829645 -5.945000
v -2.575000 2.803600 -6.350000
v -2.575000 2.796400 -6.350000
v -2.575000 2.770355 -5.945000
v -2.575000 2.764355 -5.675000
v -2.575000 2.776975 -5.504000
v 0.000000 2.720000 -4.950000
v 0.000000 2.775965 -5.055000
v 0.000000 2.806636 -5.387500
v 0.000000 2.792055 -5.912500
v 0.000000 2.727000 -6.700000
v 0.000000 2.713000 -6.700000
v 0.000000 2.647945 -5.912500
v 0.000000 2.633364 -5.387500
v 0.000000 2.664035 -5.055000
v 2.575000 2.800000 -5.450000
v 2.575000 2.823025 -5.504000
v 2.575000 2.835644 -5.675000
v 2.575000 2.829645 -5.945000
v 2.575000 2.803600 -6.350000
v 2.575000 2.796400 -6.350000
v 2.575000 2.770355 -5.945000
v 2.575000 2.764355 -5.675000
v 2.575000 2.776975 -5.504000
v 2.800000 2.800000 -5.522000
v 2.800000 2.809118 -5.560880
v 2.800000 2.814115 -5.684000
v 2.800000 2.811740 -5.878400
v 2.800000 2.802592 -6.170000
v 2.800000 2.797408 -6.170000
v 2.800000 2.788260 -5.878400
v 2.800000 2.785885 -5.684000
v 2.800000 2.790882 -5.560880
vn 0.8322 0.3327 0.4436
vn 0.9918 0.0891 0.0915
vn 0.9993 0.0233 -0.0278
vn 0.9966 0.0057 -0.0823
vn 0.0000 0.0312 -0.9995
vn -0.9966 0.0057 -0.0823
vn -0.9993 0.0233 -0.0278
vn -0.9918 0.0891 0.0915
vn -0.8322 0.3327 0.4436
vn 0.8742 0.2902 0.3892
vn 0.9805 0.1814 0.0755
vn 0.9842 0.1756 -0.0228
vn 0.9877 0.1415 -0.0667
vn 0.0000 0.8000 -0.6000
vn -0.9877 0.1415 -0.0667
vn -0.9842 0.1756 -0.0228
vn -0.9805 0.1814 0.0755
vn -0.8742 0.2902 0.3892
vn 0.0000 -1.0000 0.0000
vn 0.0000 1.0000 0.0000
vn -0.1220 0.9380 0.3246
vn -0.0870 0.9944 0.0596
vn -0.0896 0.9958 -0.0180
vn -0.0695 0.9963 -0.0503
vn -0.6247 0.0000 -0.7809
vn -0.0695 -0.9963 -0.0503
vn -0.0896 -0.9958 -0.0180
vn -0.0870 -0.9944 0.0596
vn -0.1220 -0.9380 0.3246
vn -0.0598 0.8940 0.4441
vn 0.0025 0.9963 0.0857
vn 0.0145 0.9996 -0.0259
vn 0.0174 0.9969 -0.0762
vn -0.1347 0.0000 -0.9909
vn -0.0445 -0.9961 -0.0761
vn -0.0475 -0.9985 -0.0258
vn -0.0593 -0.9946 0.0855
vn -0.1148 -0.8897 0.4420
vn 0.0598 0.8940 0.4441
vn -0.0025 0.9963 0.0857
vn -0.0145 0.9996 -0.0259
vn -0.0174 0.9969 -0.0762
vn 0.1347 0.0000 -0.9909
vn 0.0445 -0.9961 -0.0761
vn 0.0475 -0.9985 -0.0258
vn 0.0593 -0.9946 0.0855
vn 0.1148 -0.8897 0.4420
vn 0.1220 0.9380 0.3246
vn 0.0870 0.9944 0.0596
vn 0.0896 0.9958 -0.0180
vn 0.0695 0.9963 -0.0503
vn 0.6247 0.0000 -0.7809
vn 0.0695 -0.9963 -0.0503
vn 0.0896 -0.9958 -0.0180
vn 0.0870 -0.9944 0.0596
vn 0.1220 -0.9380 0.3246
vn -1.0000 -0.0000 0.0000
vn 1.0000 -0.0000 0.0000
vt 0.610295 0.487903
vt 0.605746 0.487903
vt 0.567845 0.541759
vt 0.569866 0.541759
vt 0.591344 0.487903
vt 0.561444 0.541759
vt 0.568603 0.487903
vt 0.551337 0.541759
vt 0.534492 0.487903
vt 0.536176 0.541759
vt 0.245422 0.048161
vt 0.244813 0.048161
vt 0.244982 0.101515
vt 0.245252 0.101515
vt 0.565082 0.546809
vt 0.566497 0.546809
vt 0.560602 0.546809
vt 0.553527 0.546809
vt 0.542914 0.546809
vt 0.254748 0.581098
vt 0.255018 0.581098
vt 0.254977 0.587836
vt 0.254788 0.587836
vt 0.252453 0.205356
vt 0.251122 0.190953
vt 0.251755 0.168212
vt 0.254579 0.134101
vt 0.255187 0.134101
vt 0.258011 0.168212
vt 0.258644 0.190953
vt 0.257312 0.205356
vt 0.254883 0.209904
vt 0.254883 0.611419
vt 0.254429 0.610004
vt 0.254181 0.605523
vt 0.254299 0.598448
vt 0.255467 0.598448
vt 0.255585 0.605523
vt 0.255336 0.610004
vt 0.341830 0.645109
vt 0.341830 0.643290
vt 0.349427 0.641374
vt 0.349427 0.642684
vt 0.341830 0.637529
vt 0.349427 0.637226
vt 0.341830 0.628433
vt 0.349427 0.630677
vt 0.341830 0.614788
vt 0.349427 0.620852
vt 0.158037 0.046614
vt 0.158037 0.046374
vt 0.150429 0.046407
vt 0.150429 0.046580
vt 0.167936 0.169476
vt 0.167936 0.183120
vt 0.160338 0.185364
vt 0.160338 0.175540
vt 0.167936 0.192217
vt 0.160338 0.191913
vt 0.167936 0.197978
vt 0.160338 0.196061
vt 0.167936 0.199797
vt 0.160338 0.197371
vt 0.254883 0.661955
vt 0.254883 0.658417
vt 0.254883 0.647215
vt 0.254883 0.629528
vt 0.254883 0.602997
vt 0.245117 0.044060
vt 0.245117 0.043593
vt 0.254883 0.157684
vt 0.254883 0.184215
vt 0.254883 0.201903
vt 0.254883 0.213105
vt 0.254883 0.216642
vt 0.167936 0.645109
vt 0.167936 0.643290
vt 0.167936 0.637529
vt 0.167936 0.628433
vt 0.167936 0.614788
vt 0.332197 0.046614
vt 0.332197 0.046374
vt 0.341830 0.169476
vt 0.341830 0.183120
vt 0.341830 0.192217
vt 0.341830 0.197978
vt 0.341830 0.199797
vt 0.160338 0.642684
vt 0.160338 0.641374
vt 0.160338 0.637226
vt 0.160338 0.630677
vt 0.160338 0.620852
vt 0.339806 0.046580
vt 0.339806 0.046407
vt 0.349427 0.175540
vt 0.349427 0.185364
vt 0.349427 0.191913
vt 0.349427 0.196061
vt 0.349427 0.197371
vt 0.597762 0.486220
vt 0.596452 0.486527
vt 0.592304 0.486695
vt 0.585755 0.486615
vt 0.575931 0.486307
vt 0.575931 0.486133
vt 0.585755 0.485825
vt 0.592304 0.485745
vt 0.596452 0.485913
usemtl material
s 0
f 462/403/339 463/404/339 472/405/339 471/406/339
f 463/404/340 464/407/340 473/408/340 472/405/340
f 464/407/341 465/409/341 474/410/341 473/408/341
f 465/409/342 466/411/342 475/412/342 474/410/342
f 466/413/343 467/414/343 476/415/343 475/416/343
f 467/411/344 468/409/344 477/410/344 476/412/344
f 468/409/345 469/407/345 478/408/345 477/410/345
f 469/407/346 470/404/346 479/405/346 478/408/346
f 470/404/347 462/403/347 471/406/347 479/405/347
f 471/406/348 472/405/348 481/417/348 480/418/348
f 472/405/349 473/408/349 482/419/349 481/417/349
f 473/408/350 474/410/350 483/420/350 482/419/350
f 474/410/351 475/412/351 484/421/351 483/420/351
f 475/422/352 476/423/352 485/424/352 484/425/352
f 476/412/353 477/410/353 486/420/353 485/421/353
f 477/410/354 478/408/354 487/419/354 486/420/354
f 478/408/355 479/405/355 488/417/355 487/419/355
f 479/405/356 471/406/356 480/418/356 488/417/356
f 470/426/357 469/427/357 468/428/357 467/429/357 466/430/357 465/431/357 464/432/357 463/433/357 462/434/357
f 480/435/358 481/436/358 482/437/358 483/438/358 484/425/358 485/424/358 486/439/358 487/440/358 488/441/358
f 498/442/359 499/443/359 490/444/359 489/445/359
f 499/443/360 500/446/360 491/447/360 490/444/360
f 500/446/361 501/448/361 492/449/361 491/447/361
f 501/448/362 502/450/362 493/451/362 492/449/362
f 502/452/363 503/453/363 494/454/363 493/455/363
f 503/456/364 504/457/364 495/458/364 494/459/364
f 504/457/365 505/460/365 496/461/365 495/458/365
f 505/460/366 506/462/366 497/463/366 496/461/366
f 506/462/367 498/464/367 489/465/367 497/463/367
f 507/466/368 508/467/368 499/443/368 498/442/368
f 508/467/369 509/468/369 500/446/369 499/443/369
f 509/468/370 510/469/370 501/448/370 500/446/370
f 510/469/371 511/470/371 502/450/371 501/448/371
f 511/471/372 512/472/372 503/453/372 502/452/372
f 512/473/373 513/474/373 504/457/373 503/456/373
f 513/474/374 514/475/374 505/460/374 504/457/374
f 514/475/375 515/476/375 506/462/375 505/460/375
f 515/476/376 507/477/376 498/464/376 506/462/376
f 516/478/377 517/479/377 508/467/377 507/466/377
f 517/479/378 518/480/378 509/468/378 508/467/378
f 518/480/379 519/481/379 510/469/379 509/468/379
f 519/481/380 520/482/380 511/470/380 510/469/380
f 520/483/381 521/484/381 512/472/381 511/471/381
f 521/485/382 522/486/382 513/474/382 512/473/382
f 522/486/383 523/487/383 514/475/383 513/474/383
f 523/487/384 524/488/384 515/476/384 514/475/384
f 524/488/385 516/489/385 507/477/385 515/476/385
f 525/490/386 526/491/386 517/479/386 516/478/386
f 526/491/387 527/492/387 518/480/387 517/479/387
f 527/492/388 528/493/388 519/481/388 518/480/388
f 528/493/389 529/494/389 520/482/389 519/481/389
f 529/495/390 530/496/390 521/484/390 520/483/390
f 530/497/391 531/498/391 522/486/391 521/485/391
f 531/498/392 532/499/392 523/487/392 522/486/392
f 532/499/393 533/500/393 524/488/393 523/487/393
f 533/500/394 525/501/394 516/489/394 524/488/394
f 489/502/395 490/503/395 491/504/395 492/505/395 493/506/395 494/507/395 495/508/395 496/509/395 497/510/395
f 533/510/396 532/509/396 531/508/396 530/507/396 529/506/396 528/505/396 527/504/396 526/503/396 525/502/396
o canopy
v 0.133000 2.900000 -0.300000
v 0.116697 3.163731 -0.300000
v 0.070825 3.334544 -0.300000
v 0.000000 3.395250 -0.300000
v -0.070825 3.334544 -0.300000
v -0.116697 3.163731 -0.300000
v -0.133000 2.900000 -0.300000
v -0.116697 2.885622 -0.300000
v -0.070825 2.876310 -0.300000
v -0.000000 2.873000 -0.300000
v 0.070825 2.876310 -0.300000
v 0.116697 2.885622 -0.300000
v 0.323000 2.900000 0.116250
v 0.283408 3.247603 0.116250
v 0.172004 3.472739 0.116250
v 0.000000 3.552750 0.116250
v -0.172004 3.472739 0.116250
v -0.283408 3.247603 0.116250
v -0.323000 2.900000 0.116250
v -0.283408 2.880297 0.116250
v -0.172004 2.867535 0.116250
v -0.000000 2.863000 0.116250
v 0.172004 2.867535 0.116250
v 0.283408 2.880297 0.116250
v 0.380000 2.900000 0.625000
v 0.333421 3.272764 0.625000
v 0.202358 3.514197 0.625000
v 0.000000 3.600000 0.625000
v -0.202358 3.514197 0.625000
v -0.333421 3.272764 0.625000
v -0.380000 2.900000 0.625000
v -0.333421 2.878699 0.625000
v -0.202358 2.864903 0.625000
v -0.000000 2.860000 0.625000
v 0.202358 2.864903 0.625000
v 0.333421 2.878699 0.625000
v 0.380000 2.900000 0.717500
v 0.333421 3.272764 0.717500
v 0.202358 3.514197 0.717500
v 0.000000 3.600000 0.717500
v -0.202358 3.514197 0.717500
v -0.333421 3.272764 0.717500
v -0.380000 2.900000 0.717500
v -0.333421 2.878699 0.717500
v -0.202358 2.864903 0.717500
v -0.000000 2.860000 0.717500
v 0.202358 2.864903 0.717500
v 0.333421 2.878699 0.717500
v 0.304000 2.900000 1.175375
v 0.266737 3.239216 1.175375
v 0.161886 3.458919 1.175375
v 0.000000 3.537000 1.175375
v -0.161886 3.458919 1.175375
v -0.266737 3.239216 1.175375
v -0.304000 2.900000 1.175375
v -0.266737 2.880829 1.175375
v -0.161886 2.868413 1.175375
v -0.000000 2.864000 1.175375
v 0.161886 2.868413 1.175375
v 0.266737 2.880829 1.175375
v 0.114000 2.900000 1.550000
v 0.100026 3.155344 1.550000
v 0.060707 3.320725 1.550000
v 0.000000 3.379500 1.550000
v -0.060707 3.320725 1.550000
v -0.100026 3.155344 1.550000
v -0.114000 2.900000 1.550000
v -0.100026 2.886154 1.550000
v -0.060707 2.877187 1.550000
v -0.000000 2.874000 1.550000
v 0.060707 2.877187 1.550000
v 0.100026 2.886154 1.550000
vn 0.9129 0.0835 -0.3996
vn 0.8636 0.3430 -0.3694
vn 0.4705 0.8119 -0.3456
vn -0.4705 0.8119 -0.3456
vn -0.8636 0.3430 -0.3694
vn -0.9129 0.0835 -0.3996
vn -0.5075 -0.8323 -0.2228
vn -0.1387 -0.9884 -0.0614
vn -0.0323 -0.9991 -0.0265
vn 0.0323 -0.9991 -0.0265
vn 0.1387 -0.9884 -0.0614
vn 0.5075 -0.8323 -0.2228
vn 0.9872 0.1181 -0.1068
vn 0.8829 0.4588 -0.0998
vn 0.4033 0.9105 -0.0914
vn -0.4033 0.9105 -0.0914
vn -0.8829 0.4588 -0.0998
vn -0.9872 0.1181 -0.1068
vn -0.4292 -0.9020 -0.0466
vn -0.1089 -0.9940 -0.0127
vn -0.0252 -0.9997 -0.0063
vn 0.0252 -0.9997 -0.0063
vn 0.1089 -0.9940 -0.0127
vn 0.4292 -0.9020 -0.0466
vn 0.9923 0.1240 0.0000
vn 0.8789 0.4771 0.0000
vn 0.3904 0.9207 0.0000
vn -0.3904 0.9207 0.0000
vn -0.8789 0.4771 0.0000
vn -0.9923 0.1240 0.0000
vn -0.4159 -0.9094 0.0000
vn -0.1047 -0.9945 0.0000
vn -0.0242 -0.9997 0.0000
vn 0.0242 -0.9997 0.0000
vn 0.1047 -0.9945 0.0000
vn 0.4159 -0.9094 0.0000
vn 0.9808 0.1155 0.1571
vn 0.8806 0.4505 0.1467
vn 0.4066 0.9036 0.1347
vn -0.4066 0.9036 0.1347
vn -0.8806 0.4505 0.1467
vn -0.9808 0.1155 0.1571
vn -0.4337 -0.8984 0.0697
vn -0.1104 -0.9937 0.0190
vn -0.0256 -0.9996 0.0093
vn 0.0256 -0.9996 0.0093
vn 0.1104 -0.9937 0.0190
vn 0.4337 -0.8984 0.0697
vn 0.8968 0.0773 0.4356
vn 0.8576 0.3211 0.4018
vn 0.4851 0.7890 0.3769
vn -0.4851 0.7890 0.3769
vn -0.8576 0.3211 0.4018
vn -0.8968 0.0773 0.4356
vn -0.5237 -0.8128 0.2551
vn -0.1464 -0.9867 0.0709
vn -0.0341 -0.9990 0.0296
vn 0.0341 -0.9990 0.0296
vn 0.1464 -0.9867 0.0709
vn 0.5237 -0.8128 0.2551
vn -0.0000 0.0000 -1.0000
vn 0.0000 0.0000 1.0000
vt 0.559255 0.082688
vt 0.559255 0.091349
vt 0.573020 0.094104
vt 0.573020 0.082688
vt 0.559255 0.096959
vt 0.573020 0.101497
vt 0.500752 0.041677
vt 0.502930 0.041677
vt 0.502930 0.055442
vt 0.497642 0.055442
vt 0.505107 0.041677
vt 0.508218 0.055442
vt 0.529958 0.041677
vt 0.530476 0.041677
vt 0.525185 0.055442
vt 0.523928 0.055442
vt 0.531932 0.041677
vt 0.528721 0.055442
vt 0.534180 0.041677
vt 0.534180 0.055442
vt 0.536428 0.041677
vt 0.539639 0.055442
vt 0.537883 0.041677
vt 0.543175 0.055442
vt 0.538401 0.041677
vt 0.544431 0.055442
vt 0.589844 0.094930
vt 0.589844 0.082688
vt 0.589844 0.102859
vt 0.502930 0.072266
vt 0.496709 0.072266
vt 0.509151 0.072266
vt 0.523597 0.072266
vt 0.522119 0.072266
vt 0.527757 0.072266
vt 0.534180 0.072266
vt 0.540602 0.072266
vt 0.544762 0.072266
vt 0.546240 0.072266
vt 0.592903 0.094930
vt 0.592903 0.082688
vt 0.592903 0.102859
vt 0.502930 0.075324
vt 0.496709 0.075324
vt 0.509151 0.075324
vt 0.523597 0.075324
vt 0.522119 0.075324
vt 0.527757 0.075324
vt 0.534180 0.075324
vt 0.540602 0.075324
vt 0.544762 0.075324
vt 0.546240 0.075324
vt 0.608044 0.093828
vt 0.608044 0.082688
vt 0.608044 0.101043
vt 0.502930 0.090466
vt 0.497953 0.090466
vt 0.507907 0.090466
vt 0.525714 0.090466
vt 0.524531 0.090466
vt 0.529042 0.090466
vt 0.534180 0.090466
vt 0.539318 0.090466
vt 0.542645 0.090466
vt 0.543828 0.090466
vt 0.620432 0.091074
vt 0.620432 0.082688
vt 0.620432 0.096505
vt 0.502930 0.102854
vt 0.501063 0.102854
vt 0.504796 0.102854
vt 0.531005 0.102854
vt 0.530562 0.102854
vt 0.532253 0.102854
vt 0.534180 0.102854
vt 0.536106 0.102854
vt 0.537354 0.102854
vt 0.537798 0.102854
vt 0.641420 0.086957
vt 0.639956 0.086666
vt 0.637695 0.086563
vt 0.635435 0.086666
vt 0.633971 0.086957
vt 0.633451 0.087407
vt 0.633971 0.095652
vt 0.635435 0.100992
vt 0.637695 0.102890
vt 0.639956 0.100992
vt 0.641420 0.095652
vt 0.641940 0.087407
vt 0.641333 0.087407
vt 0.640888 0.095390
vt 0.639633 0.100560
vt 0.637695 0.102398
vt 0.635758 0.100560
vt 0.634503 0.095390
vt 0.634057 0.087407
vt 0.634503 0.086974
vt 0.635758 0.086694
vt 0.637695 0.086594
vt 0.639633 0.086694
vt 0.640888 0.086974
usemtl material
s 0
f 534/511/397 535/512/397 547/513/397 546/514/397
f 535/512/398 536/515/398 548/516/398 547/513/398
f 536/517/399 537/518/399 549/519/399 548/520/399
f 537/518/400 538/521/400 550/522/400 549/519/400
f 538/515/401 539/512/401 551/513/401 550/516/401
f 539/512/402 540/511/402 552/514/402 551/513/402
f 540/523/403 541/524/403 553/525/403 552/526/403
f 541/524/404 542/527/404 554/528/404 553/525/404
f 542/527/405 543/529/405 555/530/405 554/528/405
f 543/529/406 544/531/406 556/532/406 555/530/406
f 544/531/407 545/533/407 557/534/407 556/532/407
f 545/533/408 534/535/408 546/536/408 557/534/408
f 546/514/409 547/513/409 559/537/409 558/538/409
f 547/513/410 548/516/410 560/539/410 559/537/410
f 548/520/411 549/519/411 561/540/411 560/541/411
f 549/519/412 550/522/412 562/542/412 561/540/412
f 550/516/413 551/513/413 563/537/413 562/539/413
f 551/513/414 552/514/414 564/538/414 563/537/414
f 552/526/415 553/525/415 565/543/415 564/544/415
f 553/525/416 554/528/416 566/545/416 565/543/416
f 554/528/417 555/530/417 567/546/417 566/545/417
f 555/530/418 556/532/418 568/547/418 567/546/418
f 556/532/419 557/534/419 569/548/419 568/547/419
f 557/534/420 546/536/420 558/549/420 569/548/420
f 558/538/421 559/537/421 571/550/421 570/551/421
f 559/537/422 560/539/422 572/552/422 571/550/422
f 560/541/423 561/540/423 573/553/423 572/554/423
f 561/540/424 562/542/424 574/555/424 573/553/424
f 562/539/425 563/537/425 575/550/425 574/552/425
f 563/537/426 564/538/426 576/551/426 575/550/426
f 564/544/427 565/543/427 577/556/427 576/557/427
f 565/543/428 566/545/428 578/558/428 577/556/428
f 566/545/429 567/546/429 579/559/429 578/558/429
f 567/546/430 568/547/430 580/560/430 579/559/430
f 568/547/431 569/548/431 581/561/431 580/560/431
f 569/548/432 558/549/432 570/562/432 581/561/432
f 570/551/433 571/550/433 583/563/433 582/564/433
f 571/550/434 572/552/434 584/565/434 583/563/434
f 572/554/435 573/553/435 585/566/435 584/567/435
f 573/553/436 574/555/436 586/568/436 585/566/436
f 574/552/437 575/550/437 587/563/437 586/565/437
f 575/550/438 576/551/438 588/564/438 587/563/438
f 576/557/439 577/556/439 589/569/439 588/570/439
f 577/556/440 578/558/440 590/571/440 589/569/440
f 578/558/441 579/559/441 591/572/441 590/571/441
f 579/559/442 580/560/442 592/573/442 591/572/442
f 580/560/443 581/561/443 593/574/443 592/573/443
f 581/561/444 570/562/444 582/575/444 593/574/444
f 582/564/445 583/563/445 595/576/445 594/577/445
f 583/563/446 584/565/446 596/578/446 595/576/446
f 584/567/447 585/566/447 597/579/447 596/580/447
f 585/566/448 586/568/448 598/581/448 597/579/448
f 586/565/449 587/563/449 599/576/449 598/578/449
f 587/563/450 588/564/450 600/577/450 599/576/450
f 588/570/451 589/569/451 601/582/451 600/583/451
f 589/569/452 590/571/452 602/584/452 601/582/452
f 590/571/453 591/572/453 603/585/453 602/584/453
f 591/572/454 592/573/454 604/586/454 603/585/454
f 592/573/455 593/574/455 605/587/455 604/586/455
f 593/574/456 582/575/456 594/588/456 605/587/456
f 545/589/457 544/590/457 543/591/457 542/592/457 541/593/457 540/594/457 539/595/457 538/596/457 537/597/457 536/598/457 535/599/457 534/600/457
f 594/601/458 595/602/458 596/603/458 597/604/458 598/605/458 599/606/458 600/607/458 601/608/458 602/609/458 603/610/458 604/611/458 605/612/458
o $gear_l
v 2.140000 1.945492 0.181724
v 2.180000 1.933726 0.250000
v 2.140000 1.921960 0.318276
v 2.060000 1.921960 0.318276
v 2.020000 1.933726 0.250000
v 2.060000 1.945492 0.181724
v 2.140000 0.494766 -0.068276
v 2.180000 0.483000 0.000000
v 2.140000 0.471234 0.068276
v 2.060000 0.471234 0.068276
v 2.020000 0.483000 0.000000
v 2.060000 0.494766 -0.068276
v 2.034000 0.452000 -0.055426
v 2.034000 0.484000 0.000000
v 2.034000 0.452000 0.055426
v 2.034000 0.388000 0.055426
v 2.034000 0.356000 0.000000
v 2.034000 0.388000 -0.055426
v 2.166000 0.452000 -0.055426
v 2.166000 0.484000 0.000000
v 2.166000 0.452000 0.055426
v 2.166000 0.388000 0.055426
v 2.166000 0.356000 0.000000
v 2.166000 0.388000 -0.055426
v 1.990000 0.549787 -0.399444
v 1.990000 0.759787 -0.246870
v 1.990000 0.840000 0.000000
v 1.990000 0.759787 0.246870
v 1.990000 0.549787 0.399444
v 1.990000 0.290213 0.399444
v 1.990000 0.080213 0.246870
v 1.990000 0.000000 0.000000
v 1.990000 0.080213 -0.246870
v 1.990000 0.290213 -0.399444
v 2.210000 0.549787 -0.399444
v 2.210000 0.759787 -0.246870
v 2.210000 0.840000 0.000000
v 2.210000 0.759787 0.246870
v 2.210000 0.549787 0.399444
v 2.210000 0.290213 0.399444
v 2.210000 0.080213 0.246870
v 2.210000 0.000000 0.000000
v 2.210000 0.080213 -0.246870
v 2.210000 0.290213 -0.399444
vn 0.8660 0.0849 -0.4927
vn 0.8660 -0.0849 0.4927
vn 0.0000 -0.1698 0.9855
vn -0.8660 -0.0849 0.4927
vn -0.8660 0.0849 -0.4927
vn 0.0000 0.1698 -0.9855
vn 0.0000 0.9855 0.1698
vn 0.0000 -0.9855 -0.1698
vn 0.0000 0.8660 -0.5000
vn 0.0000 0.8660 0.5000
vn 0.0000 0.0000 1.0000
vn 0.0000 -0.8660 0.5000
vn 0.0000 -0.8660 -0.5000
vn 0.0000 0.0000 -1.0000
vn -1.0000 0.0000 0.0000
vn 1.0000 0.0000 0.0000
vn 0.0000 0.5878 -0.8090
vn 0.0000 0.9511 -0.3090
vn 0.0000 0.9511 0.3090
vn 0.0000 0.5878 0.8090
vn 0.0000 -0.5878 0.8090
vn 0.0000 -0.9511 0.3090
vn 0.0000 -0.9511 -0.3090
vn 0.0000 -0.5878 -0.8090
vt 0.873047 0.095703
vt 0.857422 0.095703
usemtl material
s 0
f 606/613/459 607/613/459 613/613/459 612/613/459
f 607/613/460 608/613/460 614/613/460 613/613/460
f 608/613/461 609/613/461 615/613/461 614/613/461
f 609/613/462 610/613/462 616/613/462 615/613/462
f 610/613/463 611/613/463 617/613/463 616/613/463
f 611/613/464 606/613/464 612/613/464 617/613/464
f 611/613/465 610/613/465 609/613/465 608/613/465 607/613/465 606/613/465
f 612/613/466 613/613/466 614/613/466 615/613/466 616/613/466 617/613/466
f 618/613/467 619/613/467 625/613/467 624/613/467
f 619/613/468 620/613/468 626/613/468 625/613/468
f 620/613/469 621/613/469 627/613/469 626/613/469
f 621/613/470 622/613/470 628/613/470 627/613/470
f 622/613/471 623/613/471 629/613/471 628/613/471
f 623/613/472 618/613/472 624/613/472 629/613/472
f 623/613/473 622/613/473 621/613/473 620/613/473 619/613/473 618/613/473
f 624/613/474 625/613/474 626/613/474 627/613/474 628/613/474 629/613/474
f 630/614/475 631/614/475 641/614/475 640/614/475
f 631/614/476 632/614/476 642/614/476 641/614/476
f 632/614/477 633/614/477 643/614/477 642/614/477
f 633/614/478 634/614/478 644/614/478 643/614/478
f 634/614/469 635/614/469 645/614/469 644/614/469
f 635/614/479 636/614/479 646/614/479 645/614/479
f 636/614/480 637/614/480 647/614/480 646/614/480
f 637/614/481 638/614/481 648/614/481 647/614/481
f 638/614/482 639/614/482 649/614/482 648/614/482
f 639/614/472 630/614/472 640/614/472 649/614/472
f 639/614/473 638/614/473 637/614/473 636/614/473 635/614/473 634/614/473 633/614/473 632/614/473 631/614/473 630/614/473
f 640/614/474 641/614/474 642/614/474 643/614/474 644/614/474 645/614/474 646/614/474 647/614/474 648/614/474 649/614/474
o $gear_r
v -2.060000 1.945492 0.181724
v -2.020000 1.933726 0.250000
v -2.060000 1.921960 0.318276
v -2.140000 1.921960 0.318276
v -2.180000 1.933726 0.250000
v -2.140000 1.945492 0.181724
v -2.060000 0.494766 -0.068276
v -2.020000 0.483000 0.000000
v -2.060000 0.471234 0.068276
v -2.140000 0.471234 0.068276
v -2.180000 0.483000 0.000000
v -2.140000 0.494766 -0.068276
v -2.166000 0.452000 -0.055426
v -2.166000 0.484000 0.000000
v -2.166000 0.452000 0.055426
v -2.166000 0.388000 0.055426
v -2.166000 0.356000 0.000000
v -2.166000 0.388000 -0.055426
v -2.034000 0.452000 -0.055426
v -2.034000 0.484000 0.000000
v -2.034000 0.452000 0.055426
v -2.034000 0.388000 0.055426
v -2.034000 0.356000 0.000000
v -2.034000 0.388000 -0.055426
v -2.210000 0.549787 -0.399444
v -2.210000 0.759787 -0.246870
v -2.210000 0.840000 0.000000
v -2.210000 0.759787 0.246870
v -2.210000 0.549787 0.399444
v -2.210000 0.290213 0.399444
v -2.210000 0.080213 0.246870
v -2.210000 0.000000 0.000000
v -2.210000 0.080213 -0.246870
v -2.210000 0.290213 -0.399444
v -1.990000 0.549787 -0.399444
v -1.990000 0.759787 -0.246870
v -1.990000 0.840000 0.000000
v -1.990000 0.759787 0.246870
v -1.990000 0.549787 0.399444
v -1.990000 0.290213 0.399444
v -1.990000 0.080213 0.246870
v -1.990000 0.000000 0.000000
v -1.990000 0.080213 -0.246870
v -1.990000 0.290213 -0.399444
vn 0.8660 0.0849 -0.4927
vn 0.8660 -0.0849 0.4927
vn 0.0000 -0.1698 0.9855
vn -0.8660 -0.0849 0.4927
vn -0.8660 0.0849 -0.4927
vn 0.0000 0.1698 -0.9855
vn 0.0000 0.9855 0.1698
vn 0.0000 -0.9855 -0.1698
vn 0.0000 0.8660 -0.5000
vn 0.0000 0.8660 0.5000
vn 0.0000 0.0000 1.0000
vn 0.0000 -0.8660 0.5000
vn 0.0000 -0.8660 -0.5000
vn 0.0000 0.0000 -1.0000
vn -1.0000 0.0000 0.0000
vn 1.0000 0.0000 0.0000
vn 0.0000 0.5878 -0.8090
vn 0.0000 0.9511 -0.3090
vn 0.0000 0.9511 0.3090
vn 0.0000 0.5878 0.8090
vn 0.0000 -0.5878 0.8090
vn 0.0000 -0.9511 0.3090
vn 0.0000 -0.9511 -0.3090
vn 0.0000 -0.5878 -0.8090
vt 0.873047 0.095703
vt 0.857422 0.095703
usemtl material
s 0
f 650/615/483 651/615/483 657/615/483 656/615/483
f 651/615/484 652/615/484 658/615/484 657/615/484
f 652/615/485 653/615/485 659/615/485 658/615/485
f 653/615/486 654/615/486 660/615/486 659/615/486
f 654/615/487 655/615/487 661/615/487 660/615/487
f 655/615/488 650/615/488 656/615/488 661/615/488
f 655/615/489 654/615/489 653/615/489 652/615/489 651/615/489 650/615/489
f 656/615/490 657/615/490 658/615/490 659/615/490 660/615/490 661/615/490
f 662/615/491 663/615/491 669/615/491 668/615/491
f 663/615/492 664/615/492 670/615/492 669/615/492
f 664/615/493 665/615/493 671/615/493 670/615/493
f 665/615/494 666/615/494 672/615/494 671/615/494
f 666/615/495 667/615/495 673/615/495 672/615/495
f 667/615/496 662/615/496 668/615/496 673/615/496
f 667/615/497 666/615/497 665/615/497 664/615/497 663/615/497 662/615/497
f 668/615/498 669/615/498 670/615/498 671/615/498 672/615/498 673/615/498
f 674/616/499 675/616/499 685/616/499 684/616/499
f 675/616/500 676/616/500 686/616/500 685/616/500
f 676/616/501 677/616/501 687/616/501 686/616/501
f 677/616/502 678/616/502 688/616/502 687/616/502
f 678/616/493 679/616/493 689/616/493 688/616/493
f 679/616/503 680/616/503 690/616/503 689/616/503
f 680/616/504 681/616/504 691/616/504 690/616/504
f 681/616/505 682/616/505 692/616/505 691/616/505
f 682/616/506 683/616/506 693/616/506 692/616/506
f 683/616/496 674/616/496 684/616/496 693/616/496
f 683/616/497 682/616/497 681/616/497 680/616/497 679/616/497 678/616/497 677/616/497 676/616/497 675/616/497 674/616/497
f 684/616/498 685/616/498 686/616/498 687/616/498 688/616/498 689/616/498 690/616/498 691/616/498 692/616/498 693/616/498
o $gear_n
v 0.035000 1.806217 3.589698
v 0.070000 1.800000 3.650000
v 0.035000 1.793783 3.710302
v -0.035000 1.793783 3.710302
v -0.070000 1.800000 3.650000
v -0.035000 1.806217 3.589698
v 0.035000 0.351217 3.439698
v 0.070000 0.345000 3.500000
v 0.035000 0.338783 3.560302
v -0.035000 0.338783 3.560302
v -0.070000 0.345000 3.500000
v -0.035000 0.351217 3.439698
v -0.048000 0.328000 3.451503
v -0.048000 0.356000 3.500000
v -0.048000 0.328000 3.548497
v -0.048000 0.272000 3.548497
v -0.048000 0.244000 3.500000
v -0.048000 0.272000 3.451503
v 0.048000 0.328000 3.451503
v 0.048000 0.356000 3.500000
v 0.048000 0.328000 3.548497
v 0.048000 0.272000 3.548497
v 0.048000 0.244000 3.500000
v 0.048000 0.272000 3.451503
v -0.080000 0.392705 3.214683
v -0.080000 0.542705 3.323664
v -0.080000 0.600000 3.500000
v -0.080000 0.542705 3.676336
v -0.080000 0.392705 3.785317
v -0.080000 0.207295 3.785317
v -0.080000 0.057295 3.676336
v -0.080000 0.000000 3.500000
v -0.080000 0.057295 3.323664
v -0.080000 0.207295 3.214683
v 0.080000 0.392705 3.214683
v 0.080000 0.542705 3.323664
v 0.080000 0.600000 3.500000
v 0.080000 0.542705 3.676336
v 0.080000 0.392705 3.785317
v 0.080000 0.207295 3.785317
v 0.080000 0.057295 3.676336
v 0.080000 0.000000 3.500000
v 0.080000 0.057295 3.323664
v 0.080000 0.207295 3.214683
vn 0.8660 0.0513 -0.4974
vn 0.8660 -0.0513 0.4974
vn 0.0000 -0.1025 0.9947
vn -0.8660 -0.0513 0.4974
vn -0.8660 0.0513 -0.4974
vn 0.0000 0.1025 -0.9947
vn 0.0000 0.9947 0.1025
vn 0.0000 -0.9947 -0.1025
vn 0.0000 0.8660 -0.5000
vn 0.0000 0.8660 0.5000
vn 0.0000 0.0000 1.0000
vn 0.0000 -0.8660 0.5000
vn 0.0000 -0.8660 -0.5000
vn 0.0000 0.0000 -1.0000
vn -1.0000 0.0000 0.0000
vn 1.0000 0.0000 0.0000
vn 0.0000 0.5878 -0.8090
vn 0.0000 0.9511 -0.3090
vn 0.0000 0.9511 0.3090
vn 0.0000 0.5878 0.8090
vn 0.0000 -0.5878 0.8090
vn 0.0000 -0.9511 0.3090
vn 0.0000 -0.9511 -0.3090
vn 0.0000 -0.5878 -0.8090
vt 0.873047 0.095703
vt 0.857422 0.095703
usemtl material
s 0
f 694/617/507 695/617/507 701/617/507 700/617/507
f 695/617/508 696/617/508 702/617/508 701/617/508
f 696/617/509 697/617/509 703/617/509 702/617/509
f 697/617/510 698/617/510 704/617/510 703/617/510
f 698/617/511 699/617/511 705/617/511 704/617/511
f 699/617/512 694/617/512 700/617/512 705/617/512
f 699/617/513 698/617/513 697/617/513 696/617/513 695/617/513 694/617/513
f 700/617/514 701/617/514 702/617/514 703/617/514 704/617/514 705/617/514
f 706/617/515 707/617/515 713/617/515 712/617/515
f 707/617/516 708/617/516 714/617/516 713/617/516
f 708/617/517 709/617/517 715/617/517 714/617/517
f 709/617/518 710/617/518 716/617/518 715/617/518
f 710/617/519 711/617/519 717/617/519 716/617/519
f 711/617/520 706/617/520 712/617/520 717/617/520
f 711/617/521 710/617/521 709/617/521 708/617/521 707/617/521 706/617/521
f 712/617/522 713/617/522 714/617/522 715/617/522 716/617/522 717/617/522
f 718/618/523 719/618/523 729/618/523 728/618/523
f 719/618/524 720/618/524 730/618/524 729/618/524
f 720/618/525 721/618/525 731/618/525 730/618/525
f 721/618/526 722/618/526 732/618/526 731/618/526
f 722/618/517 723/618/517 733/618/517 732/618/517
f 723/618/527 724/618/527 734/618/527 733/618/527
f 724/618/528 725/618/528 735/618/528 734/618/528
f 725/618/529 726/618/529 736/618/529 735/618/529
f 726/618/530 727/618/530 737/618/530 736/618/530
f 727/618/520 718/618/520 728/618/520 737/618/520
f 727/618/521 726/618/521 725/618/521 724/618/521 723/618/521 722/618/521 721/618/521 720/618/521 719/618/521 718/618/521
f 728/618/522 729/618/522 730/618/522 731/618/522 732/618/522 733/618/522 734/618/522 735/618/522 736/618/522 737/618/522
