# meshkit verification model 'xf5u'
mtllib xf5u.mtl
o wing
v -3.550000 2.550000 -0.981582
v -3.550000 2.618602 -1.127844
v -3.550000 2.656200 -1.591008
v -3.550000 2.638326 -2.322319
v -3.550000 2.559751 -3.419285
v -3.550000 2.540249 -3.419285
v -3.550000 2.461674 -2.322319
v -3.550000 2.443800 -1.591008
v -3.550000 2.481398 -1.127844
v -3.250000 2.550000 -0.710726
v -3.250000 2.723238 -0.913868
v -3.250000 2.818181 -1.557151
v -3.250000 2.773045 -2.572860
v -3.250000 2.563543 -4.096425
v -3.250000 2.536457 -4.096425
v -3.250000 2.326955 -2.572860
v -3.250000 2.281819 -1.557151
v -3.250000 2.376762 -0.913868
v -3.000000 2.550000 -0.026133
v -3.000000 2.769944 -0.284042
v -3.000000 2.890483 -1.100755
v -3.000000 2.833179 -2.390302
v -3.000000 2.567194 -4.324622
v -3.000000 2.532806 -4.324622
v -3.000000 2.266821 -2.390302
v -3.000000 2.209517 -1.100755
v -3.000000 2.330056 -0.284042
v -2.500000 2.550000 0.411295
v -2.500000 2.799787 0.118392
v -2.500000 2.936682 -0.809136
v -2.500000 2.871602 -2.273655
v -2.500000 2.569527 -4.470432
v -2.500000 2.530473 -4.470432
v -2.500000 2.228398 -2.273655
v -2.500000 2.163318 -0.809136
v -2.500000 2.300213 0.118392
v -1.800000 2.550000 0.836759
v -1.800000 2.828814 0.509818
v -1.800000 2.981616 -0.525494
v -1.800000 2.908973 -2.160198
v -1.800000 2.571796 -4.612253
v -1.800000 2.528204 -4.612253
v -1.800000 2.191027 -2.160198
v -1.800000 2.118384 -0.525494
v -1.800000 2.271186 0.509818
v -0.900000 2.550000 1.150329
v -0.900000 2.850206 0.798303
v -0.900000 3.014733 -0.316447
v -0.900000 2.936517 -2.076579
v -0.900000 2.573468 -4.716776
v -0.900000 2.526532 -4.716776
v -0.900000 2.163483 -2.076579
v -0.900000 2.085267 -0.316447
v -0.900000 2.249794 0.798303
v 0.000000 2.550000 1.250000
v 0.000000 2.857006 0.890000
v 0.000000 3.025260 -0.250000
v 0.000000 2.945272 -2.050000
v 0.000000 2.574000 -4.750000
v 0.000000 2.526000 -4.750000
v 0.000000 2.154728 -2.050000
v 0.000000 2.074740 -0.250000
v 0.000000 2.242994 0.890000
v 0.900000 2.550000 1.150329
v 0.900000 2.850206 0.798303
v 0.900000 3.014733 -0.316447
v 0.900000 2.936517 -2.076579
v 0.900000 2.573468 -4.716776
v 0.900000 2.526532 -4.716776
v 0.900000 2.163483 -2.076579
v 0.900000 2.085267 -0.316447
v 0.900000 2.249794 0.798303
v 1.800000 2.550000 0.836759
v 1.800000 2.828814 0.509818
v 1.800000 2.981616 -0.525494
v 1.800000 2.908973 -2.160198
v 1.800000 2.571796 -4.612253
v 1.800000 2.528204 -4.612253
v 1.800000 2.191027 -2.160198
v 1.800000 2.118384 -0.525494
v 1.800000 2.271186 0.509818
v 2.500000 2.550000 0.411295
v 2.500000 2.799787 0.118392
v 2.500000 2.936682 -0.809136
v 2.500000 2.871602 -2.273655
v 2.500000 2.569527 -4.470432
v 2.500000 2.530473 -4.470432
v 2.500000 2.228398 -2.273655
v 2.500000 2.163318 -0.809136
v 2.500000 2.300213 0.118392
v 3.000000 2.550000 -0.026133
v 3.000000 2.769944 -0.284042
v 3.000000 2.890483 -1.100755
v 3.000000 2.833179 -2.390302
v 3.000000 2.567194 -4.324622
v 3.000000 2.532806 -4.324622
v 3.000000 2.266821 -2.390302
v 3.000000 2.209517 -1.100755
v 3.000000 2.330056 -0.284042
v 3.250000 2.550000 -0.710726
v 3.250000 2.723238 -0.913868
v 3.250000 2.818181 -1.557151
v 3.250000 2.773045 -2.572860
v 3.250000 2.563543 -4.096425
v 3.250000 2.536457 -4.096425
v 3.250000 2.326955 -2.572860
v 3.250000 2.281819 -1.557151
v 3.250000 2.376762 -0.913868
v 3.550000 2.550000 -0.981582
v 3.550000 2.618602 -1.127844
v 3.550000 2.656200 -1.591008
v 3.550000 2.638326 -2.322319
v 3.550000 2.559751 -3.419285
v 3.550000 2.540249 -3.419285
v 3.550000 2.461674 -2.322319
v 3.550000 2.443800 -1.591008
v 3.550000 2.481398 -1.127844
v 0.450000 2.530000 -1.550000
v 0.394841 2.753659 -1.550000
v 0.239634 2.898518 -1.550000
v 0.000000 2.950000 -1.550000
v -0.239634 2.898518 -1.550000
v -0.394841 2.753659 -1.550000
v -0.450000 2.530000 -1.550000
v -0.394841 2.316992 -1.550000
v -0.239634 2.179030 -1.550000
v -0.000000 2.130000 -1.550000
v 0.239634 2.179030 -1.550000
v 0.394841 2.316992 -1.550000
v 0.540000 2.550000 0.850000
v 0.476511 2.878387 0.850000
v 0.295548 3.079456 0.850000
v 0.000000 3.150000 0.850000
v -0.295548 3.079456 0.850000
v -0.476511 2.878387 0.850000
v -0.540000 2.550000 0.850000
v -0.476511 2.276344 0.850000
v -0.295548 2.108786 0.850000
v -0.000000 2.050000 0.850000
v 0.295548 2.108786 0.850000
v 0.476511 2.276344 0.850000
v 0.500000 2.550000 1.850000
v 0.438712 2.842886 1.850000
v 0.266260 3.032583 1.850000
v 0.000000 3.100000 1.850000
v -0.266260 3.032583 1.850000
v -0.438712 2.842886 1.850000
v -0.500000 2.550000 1.850000
v -0.438712 2.310366 1.850000
v -0.266260 2.155159 1.850000
v -0.000000 2.100000 1.850000
v 0.266260 2.155159 1.850000
v 0.438712 2.310366 1.850000
v 0.360000 2.510000 2.650000
v 0.311769 2.690000 2.650000
v 0.180000 2.821769 2.650000
v 0.000000 2.870000 2.650000
v -0.180000 2.821769 2.650000
v -0.311769 2.690000 2.650000
v -0.360000 2.510000 2.650000
v -0.311769 2.350000 2.650000
v -0.180000 2.232872 2.650000
v -0.000000 2.190000 2.650000
v 0.180000 2.232872 2.650000
v 0.311769 2.350000 2.650000
v 0.140000 2.490000 3.070000
v 0.121244 2.560000 3.070000
v 0.070000 2.611244 3.070000
v 0.000000 2.630000 3.070000
v -0.070000 2.611244 3.070000
v -0.121244 2.560000 3.070000
v -0.140000 2.490000 3.070000
v -0.121244 2.425000 3.070000
v -0.070000 2.377417 3.070000
v -0.000000 2.360000 3.070000
v 0.070000 2.377417 3.070000
v 0.121244 2.425000 3.070000
v 0.000000 2.490000 3.150000
v -0.200000 2.990000 1.140000
v 0.200000 2.990000 1.140000
v 0.200000 3.350000 1.140000
v -0.200000 3.350000 1.140000
v -0.200000 2.990000 1.260000
v 0.200000 2.990000 1.260000
v 0.200000 3.350000 1.260000
v -0.200000 3.350000 1.260000
v -0.240000 3.070000 2.050000
v 0.240000 3.070000 2.050000
v 0.240000 3.190000 2.050000
v -0.240000 3.190000 2.050000
v -0.240000 3.070000 2.150000
v 0.240000 3.070000 2.150000
v 0.240000 3.190000 2.150000
v -0.240000 3.190000 2.150000
v 0.775981 2.515000 0.481022
v 0.750000 2.530000 0.481022
v 0.724019 2.515000 0.481022
v 0.724019 2.485000 0.481022
v 0.750000 2.470000 0.481022
v 0.775981 2.485000 0.481022
v 0.775981 2.515000 1.381022
v 0.750000 2.530000 1.381022
v 0.724019 2.515000 1.381022
v 0.724019 2.485000 1.381022
v 0.750000 2.470000 1.381022
v 0.775981 2.485000 1.381022
v 0.915981 2.515000 0.452556
v 0.890000 2.530000 0.452556
v 0.864019 2.515000 0.452556
v 0.864019 2.485000 0.452556
v 0.890000 2.470000 0.452556
v 0.915981 2.485000 0.452556
v 0.915981 2.515000 1.352556
v 0.890000 2.530000 1.352556
v 0.864019 2.515000 1.352556
v 0.864019 2.485000 1.352556
v 0.890000 2.470000 1.352556
v 0.915981 2.485000 1.352556
v 1.055981 2.515000 0.418995
v 1.030000 2.530000 0.418995
v 1.004019 2.515000 0.418995
v 1.004019 2.485000 0.418995
v 1.030000 2.470000 0.418995
v 1.055981 2.485000 0.418995
v 1.055981 2.515000 1.318995
v 1.030000 2.530000 1.318995
v 1.004019 2.515000 1.318995
v 1.004019 2.485000 1.318995
v 1.030000 2.470000 1.318995
v 1.055981 2.485000 1.318995
v -0.724019 2.515000 0.481022
v -0.750000 2.530000 0.481022
v -0.775981 2.515000 0.481022
v -0.775981 2.485000 0.481022
v -0.750000 2.470000 0.481022
v -0.724019 2.485000 0.481022
v -0.724019 2.515000 1.381022
v -0.750000 2.530000 1.381022
v -0.775981 2.515000 1.381022
v -0.775981 2.485000 1.381022
v -0.750000 2.470000 1.381022
v -0.724019 2.485000 1.381022
v -0.864019 2.515000 0.452556
v -0.890000 2.530000 0.452556
v -0.915981 2.515000 0.452556
v -0.915981 2.485000 0.452556
v -0.890000 2.470000 0.452556
v -0.864019 2.485000 0.452556
v -0.864019 2.515000 1.352556
v -0.890000 2.530000 1.352556
v -0.915981 2.515000 1.352556
v -0.915981 2.485000 1.352556
v -0.890000 2.470000 1.352556
v -0.864019 2.485000 1.352556
v -1.004019 2.515000 0.418995
v -1.030000 2.530000 0.418995
v -1.055981 2.515000 0.418995
v -1.055981 2.485000 0.418995
v -1.030000 2.470000 0.418995
v -1.004019 2.485000 0.418995
v -1.004019 2.515000 1.318995
v -1.030000 2.530000 1.318995
v -1.055981 2.515000 1.318995
v -1.055981 2.485000 1.318995
v -1.030000 2.470000 1.318995
v -1.004019 2.485000 1.318995
v 3.430000 2.550000 -1.786830
v 3.376525 2.735410 -1.786830
v 3.236525 2.850000 -1.786830
v 3.063475 2.850000 -1.786830
v 2.923475 2.735410 -1.786830
v 2.870000 2.550000 -1.786830
v 2.923475 2.364590 -1.786830
v 3.063475 2.250000 -1.786830
v 3.236525 2.250000 -1.786830
v 3.376525 2.364590 -1.786830
v 3.510000 2.550000 -0.386830
v 3.441246 2.784853 -0.386830
v 3.261246 2.930000 -0.386830
v 3.038754 2.930000 -0.386830
v 2.858754 2.784853 -0.386830
v 2.790000 2.550000 -0.386830
v 2.858754 2.315147 -0.386830
v 3.038754 2.170000 -0.386830
v 3.261246 2.170000 -0.386830
v 3.441246 2.315147 -0.386830
v 3.450000 2.550000 0.950000
v 3.392705 2.735410 0.950000
v 3.242705 2.850000 0.950000
v 3.057295 2.850000 0.950000
v 2.907295 2.735410 0.950000
v 2.850000 2.550000 0.950000
v 2.907295 2.364590 0.950000
v 3.057295 2.250000 0.950000
v 3.242705 2.250000 0.950000
v 3.392705 2.364590 0.950000
v 3.410000 2.550000 1.350000
v 3.360344 2.710689 1.350000
v 3.230344 2.810000 1.350000
v 3.069656 2.810000 1.350000
v 2.939656 2.710689 1.350000
v 2.890000 2.550000 1.350000
v 2.939656 2.389311 1.350000
v 3.069656 2.290000 1.350000
v 3.230344 2.290000 1.350000
v 3.360344 2.389311 1.350000
v -2.870000 2.550000 -1.786830
v -2.923475 2.735410 -1.786830
v -3.063475 2.850000 -1.786830
v -3.236525 2.850000 -1.786830
v -3.376525 2.735410 -1.786830
v -3.430000 2.550000 -1.786830
v -3.376525 2.364590 -1.786830
v -3.236525 2.250000 -1.786830
v -3.063475 2.250000 -1.786830
v -2.923475 2.364590 -1.786830
v -2.790000 2.550000 -0.386830
v -2.858754 2.784853 -0.386830
v -3.038754 2.930000 -0.386830
v -3.261246 2.930000 -0.386830
v -3.441246 2.784853 -0.386830
v -3.510000 2.550000 -0.386830
v -3.441246 2.315147 -0.386830
v -3.261246 2.170000 -0.386830
v -3.038754 2.170000 -0.386830
v -2.858754 2.315147 -0.386830
v -2.850000 2.550000 0.950000
v -2.907295 2.735410 0.950000
v -3.057295 2.850000 0.950000
v -3.242705 2.850000 0.950000
v -3.392705 2.735410 0.950000
v -3.450000 2.550000 0.950000
v -3.392705 2.364590 0.950000
v -3.242705 2.250000 0.950000
v -3.057295 2.250000 0.950000
v -2.907295 2.364590 0.950000
v -2.890000 2.550000 1.350000
v -2.939656 2.710689 1.350000
v -3.069656 2.810000 1.350000
v -3.230344 2.810000 1.350000
v -3.360344 2.710689 1.350000
v -3.410000 2.550000 1.350000
v -3.360344 2.389311 1.350000
v -3.230344 2.290000 1.350000
v -3.069656 2.290000 1.350000
v -2.939656 2.389311 1.350000
vn -0.5166 0.7041 0.4873
vn -0.4403 0.8915 0.1068
vn -0.4523 0.8913 -0.0321
vn -0.3701 0.9234 -0.1015
vn -0.9143 0.0000 -0.4051
vn -0.3701 -0.9234 -0.1015
vn -0.4523 -0.8913 -0.0321
vn -0.4403 -0.8915 0.1068
vn -0.5166 -0.7041 0.4873
vn -0.8715 0.3732 0.3182
vn -0.4837 0.8659 0.1278
vn -0.2035 0.9781 -0.0435
vn -0.1375 0.9813 -0.1349
vn -0.6742 0.0000 -0.7386
vn -0.1375 -0.9813 -0.1349
vn -0.2035 -0.9781 -0.0435
vn -0.4837 -0.8659 0.1278
vn -0.8715 -0.3732 0.3182
vn -0.4937 0.6617 0.5643
vn -0.1739 0.9742 0.1438
vn -0.0663 0.9968 -0.0443
vn -0.0443 0.9897 -0.1361
vn -0.2800 0.0000 -0.9600
vn -0.0443 -0.9897 -0.1361
vn -0.0663 -0.9968 -0.0443
vn -0.1739 -0.9742 0.1438
vn -0.4937 -0.6617 0.5643
vn -0.3669 0.7078 0.6036
vn -0.1218 0.9819 0.1449
vn -0.0461 0.9980 -0.0443
vn -0.0308 0.9902 -0.1362
vn -0.1986 0.0000 -0.9801
vn -0.0308 -0.9902 -0.1362
vn -0.0461 -0.9980 -0.0443
vn -0.1218 -0.9819 0.1449
vn -0.3669 -0.7078 0.6036
vn -0.2205 0.7422 0.6329
vn -0.0701 0.9868 0.1456
vn -0.0264 0.9987 -0.0444
vn -0.0177 0.9905 -0.1362
vn -0.1154 0.0000 -0.9933
vn -0.0177 -0.9905 -0.1362
vn -0.0264 -0.9987 -0.0444
vn -0.0701 -0.9868 0.1456
vn -0.2205 -0.7422 0.6329
vn -0.0717 0.7589 0.6472
vn -0.0223 0.9890 0.1460
vn -0.0084 0.9990 -0.0444
vn -0.0056 0.9907 -0.1362
vn -0.0369 0.0000 -0.9993
vn -0.0056 -0.9907 -0.1362
vn -0.0084 -0.9990 -0.0444
vn -0.0223 -0.9890 0.1460
vn -0.0717 -0.7589 0.6472
vn 0.0717 0.7589 0.6472
vn 0.0223 0.9890 0.1460
vn 0.0084 0.9990 -0.0444
vn 0.0056 0.9907 -0.1362
vn 0.0369 0.0000 -0.9993
vn 0.0056 -0.9907 -0.1362
vn 0.0084 -0.9990 -0.0444
vn 0.0223 -0.9890 0.1460
vn 0.0717 -0.7589 0.6472
vn 0.2205 0.7422 0.6329
vn 0.0701 0.9868 0.1456
vn 0.0264 0.9987 -0.0444
vn 0.0177 0.9905 -0.1362
vn 0.1154 0.0000 -0.9933
vn 0.0177 -0.9905 -0.1362
vn 0.0264 -0.9987 -0.0444
vn 0.0701 -0.9868 0.1456
vn 0.2205 -0.7422 0.6329
vn 0.3669 0.7078 0.6036
vn 0.1218 0.9819 0.1449
vn 0.0461 0.9980 -0.0443
vn 0.0308 0.9902 -0.1362
vn 0.1986 0.0000 -0.9801
vn 0.0308 -0.9902 -0.1362
vn 0.0461 -0.9980 -0.0443
vn 0.1218 -0.9819 0.1449
vn 0.3669 -0.7078 0.6036
vn 0.4937 0.6617 0.5643
vn 0.1739 0.9742 0.1438
vn 0.0663 0.9968 -0.0443
vn 0.0443 0.9897 -0.1361
vn 0.2800 0.0000 -0.9600
vn 0.0443 -0.9897 -0.1361
vn 0.0663 -0.9968 -0.0443
vn 0.1739 -0.9742 0.1438
vn 0.4937 -0.6617 0.5643
vn 0.8715 0.3732 0.3182
vn 0.4837 0.8659 0.1278
vn 0.2035 0.9781 -0.0435
vn 0.1375 0.9813 -0.1349
vn 0.6742 0.0000 -0.7386
vn 0.1375 -0.9813 -0.1349
vn 0.2035 -0.9781 -0.0435
vn 0.4837 -0.8659 0.1278
vn 0.8715 -0.3732 0.3182
vn 0.5166 0.7041 0.4873
vn 0.4403 0.8915 0.1068
vn 0.4523 0.8913 -0.0321
vn 0.3701 0.9234 -0.1015
vn 0.9143 0.0000 -0.4051
vn 0.3701 -0.9234 -0.1015
vn 0.4523 -0.8913 -0.0321
vn 0.4403 -0.8915 0.1068
vn 0.5166 -0.7041 0.4873
vn -1.0000 -0.0000 0.0000
vn 1.0000 0.0000 0.0000
vn 0.9768 0.2099 -0.0413
vn 0.7156 0.6955 -0.0648
vn 0.2216 0.9719 -0.0797
vn -0.2216 0.9719 -0.0797
vn -0.7156 0.6955 -0.0648
vn -0.9768 0.2099 -0.0413
vn -0.9709 -0.2367 -0.0357
vn -0.6721 -0.7395 -0.0364
vn -0.1974 -0.9798 -0.0330
vn 0.1974 -0.9798 -0.0330
vn 0.6721 -0.7395 -0.0364
vn 0.9709 -0.2367 -0.0357
vn 0.9796 0.1967 0.0416
vn 0.7406 0.6698 0.0524
vn 0.2382 0.9699 0.0505
vn -0.2382 0.9699 0.0505
vn -0.7406 0.6698 0.0524
vn -0.9796 0.1967 0.0416
vn -0.9709 -0.2360 0.0418
vn -0.6734 -0.7374 0.0522
vn -0.1985 -0.9788 0.0501
vn 0.1985 -0.9788 0.0501
vn 0.6734 -0.7374 0.0522
vn 0.9709 -0.2360 0.0418
vn 0.9571 0.2217 0.1864
vn 0.7041 0.6664 0.2453
vn 0.2416 0.9321 0.2698
vn -0.2416 0.9321 0.2698
vn -0.7041 0.6664 0.2453
vn -0.9571 0.2217 0.1864
vn -0.9522 -0.2609 0.1588
vn -0.6602 -0.7375 0.1421
vn -0.2132 -0.9704 0.1132
vn 0.2132 -0.9704 0.1132
vn 0.6602 -0.7375 0.1421
vn 0.9522 -0.2609 0.1588
vn 0.8576 0.2298 0.4602
vn 0.6223 0.6223 0.4749
vn 0.2266 0.8457 0.4832
vn -0.2266 0.8457 0.4832
vn -0.6223 0.6223 0.4749
vn -0.8576 0.2298 0.4602
vn -0.8616 -0.2565 0.4379
vn -0.6138 -0.6819 0.3978
vn -0.2181 -0.9042 0.3672
vn 0.2181 -0.9042 0.3672
vn 0.6138 -0.6819 0.3978
vn 0.8616 -0.2565 0.4379
vn 0.4918 0.1318 0.8607
vn 0.3600 0.3600 0.8607
vn 0.1318 0.4918 0.8607
vn -0.1318 0.4918 0.8607
vn -0.3600 0.3600 0.8607
vn -0.4918 0.1318 0.8607
vn -0.4911 -0.1417 0.8595
vn -0.3564 -0.3838 0.8519
vn -0.1293 -0.5197 0.8445
vn 0.1293 -0.5197 0.8445
vn 0.3564 -0.3838 0.8519
vn 0.4911 -0.1417 0.8595
vn 0.0000 0.0000 -1.0000
vn 0.0000 -1.0000 0.0000
vn 0.0000 1.0000 0.0000
vn 0.0000 0.0000 1.0000
vn 0.5000 0.8660 0.0000
vn -0.5000 0.8660 0.0000
vn -0.5000 -0.8660 0.0000
vn 0.5000 -0.8660 0.0000
vn 0.9588 0.2789 -0.0545
vn 0.6292 0.7752 -0.0559
vn 0.0000 0.9984 -0.0570
vn -0.6292 0.7752 -0.0559
vn -0.9588 0.2789 -0.0545
vn -0.9588 -0.2789 -0.0545
vn -0.6292 -0.7752 -0.0559
vn 0.0000 -0.9984 -0.0570
vn 0.6292 -0.7752 -0.0559
vn 0.9588 -0.2789 -0.0545
vn 0.9569 0.2870 0.0442
vn 0.6176 0.7847 0.0535
vn 0.0000 0.9982 0.0597
vn -0.6176 0.7847 0.0535
vn -0.9569 0.2870 0.0442
vn -0.9569 -0.2870 0.0442
vn -0.6176 -0.7847 0.0535
vn 0.0000 -0.9982 0.0597
vn 0.6176 -0.7847 0.0535
vn 0.9569 -0.2870 0.0442
vn 0.9511 0.2939 0.0951
vn 0.6042 0.7908 0.0978
vn 0.0000 0.9950 0.0995
vn -0.6042 0.7908 0.0978
vn -0.9511 0.2939 0.0951
vn -0.9511 -0.2939 0.0951
vn -0.6042 -0.7908 0.0978
vn 0.0000 -0.9950 0.0995
vn 0.6042 -0.7908 0.0978
vn 0.9511 -0.2939 0.0951
vt 0.408217 0.807030
vt 0.408217 0.797134
vt 0.422821 0.786710
vt 0.422821 0.793835
vt 0.408217 0.765795
vt 0.422821 0.764145
vt 0.408217 0.716312
vt 0.422821 0.728518
vt 0.408217 0.642088
vt 0.422821 0.675076
vt 0.185057 0.448501
vt 0.185057 0.447186
vt 0.218045 0.447370
vt 0.218045 0.448317
vt 0.591783 0.642088
vt 0.591783 0.716312
vt 0.577179 0.728518
vt 0.577179 0.675076
vt 0.591783 0.765795
vt 0.577179 0.764145
vt 0.591783 0.797134
vt 0.577179 0.786710
vt 0.591783 0.807030
vt 0.577179 0.793835
vt 0.383351 0.447843
vt 0.370786 0.458524
vt 0.340103 0.456256
vt 0.349999 0.447843
vt 0.396046 0.827817
vt 0.396046 0.788029
vt 0.396046 0.725206
vt 0.396046 0.630971
vt 0.089333 0.311289
vt 0.089333 0.309617
vt 0.077165 0.309794
vt 0.077165 0.311111
vt 0.603954 0.630971
vt 0.603954 0.725206
vt 0.603954 0.788029
vt 0.603954 0.827817
vt 0.370786 0.437163
vt 0.340103 0.439431
vt 0.371705 0.861692
vt 0.371705 0.847423
vt 0.396046 0.840382
vt 0.371705 0.802236
vt 0.371705 0.730889
vt 0.371705 0.623867
vt 0.113670 0.311402
vt 0.113670 0.309503
vt 0.628295 0.623867
vt 0.628295 0.730889
vt 0.628295 0.802236
vt 0.628295 0.847423
vt 0.628295 0.861692
vt 0.603954 0.840382
vt 0.337628 0.882420
vt 0.337628 0.866492
vt 0.337628 0.816054
vt 0.337628 0.736416
vt 0.337628 0.616958
vt 0.147741 0.311513
vt 0.147741 0.309393
vt 0.662372 0.616958
vt 0.662372 0.736416
vt 0.662372 0.816054
vt 0.662372 0.866492
vt 0.662372 0.882420
vt 0.293814 0.897696
vt 0.293814 0.880546
vt 0.293814 0.826239
vt 0.293814 0.740490
vt 0.293814 0.611866
vt 0.191546 0.311594
vt 0.191546 0.309311
vt 0.706186 0.611866
vt 0.706186 0.740490
vt 0.706186 0.826239
vt 0.706186 0.880546
vt 0.706186 0.897696
vt 0.250000 0.902552
vt 0.250000 0.885014
vt 0.250000 0.829476
vt 0.250000 0.741784
vt 0.050781 0.551765
vt 0.050781 0.420891
vt 0.094727 0.422502
vt 0.094727 0.550477
vt 0.235352 0.311620
vt 0.235352 0.309286
vt 0.750000 0.610247
vt 0.750000 0.741784
vt 0.750000 0.829476
vt 0.750000 0.885014
vt 0.750000 0.902552
vt 0.206186 0.897696
vt 0.206186 0.880546
vt 0.206186 0.826239
vt 0.206186 0.740490
vt 0.006836 0.550477
vt 0.006836 0.422502
vt 0.279157 0.311594
vt 0.279157 0.309311
vt 0.793814 0.611866
vt 0.793814 0.740490
vt 0.793814 0.826239
vt 0.793814 0.880546
vt 0.793814 0.897696
vt 0.162372 0.882420
vt 0.162372 0.866492
vt 0.162372 0.816054
vt 0.162372 0.736416
vt 0.162372 0.616958
vt 0.206186 0.611866
vt 0.322963 0.311513
vt 0.322963 0.309393
vt 0.837628 0.616958
vt 0.837628 0.736416
vt 0.837628 0.816054
vt 0.837628 0.866492
vt 0.837628 0.882420
vt 0.128295 0.861692
vt 0.128295 0.847423
vt 0.128295 0.802236
vt 0.128295 0.730889
vt 0.128295 0.623867
vt 0.357034 0.311402
vt 0.357034 0.309503
vt 0.871705 0.623867
vt 0.871705 0.730889
vt 0.871705 0.802236
vt 0.871705 0.847423
vt 0.871705 0.861692
vt 0.103954 0.840382
vt 0.103954 0.827817
vt 0.103954 0.788029
vt 0.103954 0.725206
vt 0.103954 0.630971
vt 0.381370 0.311289
vt 0.381370 0.309617
vt 0.896046 0.630971
vt 0.896046 0.725206
vt 0.896046 0.788029
vt 0.896046 0.827817
vt 0.896046 0.840382
vt 0.091783 0.797134
vt 0.091783 0.765795
vt 0.091783 0.716312
vt 0.091783 0.642088
vt 0.393538 0.311111
vt 0.393538 0.309794
vt 0.908217 0.642088
vt 0.908217 0.716312
vt 0.908217 0.765795
vt 0.908217 0.797134
vt 0.077179 0.793835
vt 0.077179 0.786710
vt 0.091783 0.807030
vt 0.077179 0.764145
vt 0.077179 0.728518
vt 0.077179 0.675076
vt 0.922821 0.675076
vt 0.922821 0.728518
vt 0.922821 0.764145
vt 0.922821 0.786710
vt 0.922821 0.793835
vt 0.908217 0.807030
vt 0.336804 0.447843
vt 0.329678 0.451175
vt 0.307114 0.453000
vt 0.271487 0.452132
vt 0.271487 0.443554
vt 0.307114 0.442686
vt 0.329678 0.444512
vt 0.309112 0.446872
vt 0.309112 0.457733
vt 0.426034 0.463790
vt 0.426034 0.447843
vt 0.230778 0.766143
vt 0.238334 0.766143
vt 0.235612 0.883065
vt 0.226802 0.883065
vt 0.250000 0.766143
vt 0.250000 0.883065
vt 0.261666 0.766143
vt 0.264388 0.883065
vt 0.269222 0.766143
vt 0.273198 0.883065
vt 0.309112 0.436528
vt 0.426034 0.434554
vt 0.730778 0.766143
vt 0.738334 0.766143
vt 0.735612 0.883065
vt 0.726802 0.883065
vt 0.750000 0.766143
vt 0.750000 0.883065
vt 0.761666 0.766143
vt 0.764388 0.883065
vt 0.769222 0.766143
vt 0.773198 0.883065
vt 0.797852 0.391246
vt 0.797852 0.407230
vt 0.846680 0.405502
vt 0.846680 0.391246
vt 0.426034 0.473554
vt 0.474751 0.471278
vt 0.474751 0.462066
vt 0.250000 0.931782
vt 0.237038 0.931782
vt 0.262962 0.931782
vt 0.797852 0.377927
vt 0.846680 0.379583
vt 0.737038 0.931782
vt 0.728643 0.931782
vt 0.750000 0.931782
vt 0.762962 0.931782
vt 0.771357 0.931782
vt 0.474751 0.447843
vt 0.513725 0.454642
vt 0.513725 0.445901
vt 0.513725 0.461041
vt 0.250000 0.970756
vt 0.241237 0.970756
vt 0.258763 0.970756
vt 0.474751 0.436206
vt 0.513725 0.438131
vt 0.741237 0.970756
vt 0.734822 0.970756
vt 0.750000 0.970756
vt 0.758763 0.970756
vt 0.765178 0.970756
vt 0.534186 0.448329
vt 0.534186 0.444930
vt 0.234822 0.970756
vt 0.246592 0.991218
vt 0.244098 0.991218
vt 0.250000 0.991218
vt 0.253408 0.991218
vt 0.265178 0.970756
vt 0.255902 0.991218
vt 0.534186 0.441773
vt 0.746592 0.991218
vt 0.744098 0.991218
vt 0.750000 0.991218
vt 0.753408 0.991218
vt 0.755902 0.991218
vt 0.602539 0.268446
vt 0.601623 0.271484
vt 0.595703 0.268446
vt 0.599121 0.273708
vt 0.595703 0.274523
vt 0.592285 0.273708
vt 0.589783 0.271484
vt 0.588867 0.268446
vt 0.228537 0.307535
vt 0.229450 0.304374
vt 0.235352 0.307535
vt 0.231944 0.302060
vt 0.235352 0.301213
vt 0.238759 0.302060
vt 0.241253 0.304374
vt 0.242166 0.307535
vt 0.254570 0.299121
vt 0.247015 0.292412
vt 0.235352 0.290027
vt 0.223688 0.292412
vt 0.216134 0.299121
vt 0.213449 0.309480
vt 0.216134 0.320357
vt 0.223688 0.327402
vt 0.235352 0.329906
vt 0.247015 0.327402
vt 0.254570 0.320357
vt 0.257254 0.309480
vt 0.470703 0.267578
vt 0.455078 0.267578
vt 0.297574 0.447843
vt 0.297574 0.456847
vt 0.365779 0.459248
vt 0.365779 0.447843
vt 0.085624 0.754605
vt 0.092439 0.754605
vt 0.091236 0.822810
vt 0.082473 0.822810
vt 0.100864 0.754605
vt 0.102067 0.822810
vt 0.107679 0.754605
vt 0.110830 0.822810
vt 0.297574 0.438840
vt 0.365779 0.436439
vt 0.892321 0.754605
vt 0.899136 0.754605
vt 0.897933 0.822810
vt 0.889170 0.822810
vt 0.907561 0.754605
vt 0.908764 0.822810
vt 0.914376 0.754605
vt 0.917527 0.822810
vt 0.430905 0.456847
vt 0.430905 0.447843
vt 0.092138 0.887937
vt 0.084836 0.887937
vt 0.101165 0.887937
vt 0.108467 0.887937
vt 0.491202 0.274538
vt 0.491202 0.264525
vt 0.555858 0.264525
vt 0.555858 0.272430
vt 0.430905 0.438840
vt 0.898835 0.887937
vt 0.891533 0.887937
vt 0.907862 0.887937
vt 0.915164 0.887937
vt 0.450392 0.455646
vt 0.450392 0.447843
vt 0.092740 0.907424
vt 0.086411 0.907424
vt 0.100563 0.907424
vt 0.106891 0.907424
vt 0.575205 0.264525
vt 0.575205 0.271376
vt 0.450392 0.440040
vt 0.899437 0.907424
vt 0.893109 0.907424
vt 0.907260 0.907424
vt 0.913589 0.907424
vt 0.399696 0.301436
vt 0.392882 0.295863
vt 0.384459 0.295863
vt 0.377645 0.301436
vt 0.375042 0.310453
vt 0.377645 0.319470
vt 0.384459 0.325042
vt 0.392882 0.325042
vt 0.399696 0.319470
vt 0.402299 0.310453
vt 0.401326 0.310453
vt 0.398909 0.318267
vt 0.392581 0.323097
vt 0.384760 0.323097
vt 0.378433 0.318267
vt 0.376016 0.310453
vt 0.378433 0.302638
vt 0.384760 0.297808
vt 0.392581 0.297808
vt 0.398909 0.302638
vt 0.392321 0.754605
vt 0.399136 0.754605
vt 0.397933 0.822810
vt 0.389170 0.822810
vt 0.407561 0.754605
vt 0.408764 0.822810
vt 0.414376 0.754605
vt 0.417527 0.822810
vt 0.585624 0.754605
vt 0.592439 0.754605
vt 0.591236 0.822810
vt 0.582473 0.822810
vt 0.600864 0.754605
vt 0.602067 0.822810
vt 0.607679 0.754605
vt 0.610830 0.822810
vt 0.398835 0.887937
vt 0.391533 0.887937
vt 0.407862 0.887937
vt 0.415164 0.887937
vt 0.592138 0.887937
vt 0.584836 0.887937
vt 0.601165 0.887937
vt 0.608467 0.887937
vt 0.272452 0.254840
vt 0.272452 0.265802
vt 0.337108 0.265802
vt 0.337108 0.257148
vt 0.337108 0.274457
vt 0.356455 0.273303
vt 0.356455 0.265802
vt 0.399437 0.907424
vt 0.393109 0.907424
vt 0.407260 0.907424
vt 0.413589 0.907424
vt 0.592740 0.907424
vt 0.586411 0.907424
vt 0.600563 0.907424
vt 0.606891 0.907424
vt 0.356455 0.258302
vt 0.093058 0.301436
vt 0.086244 0.295863
vt 0.077821 0.295863
vt 0.071007 0.301436
vt 0.068404 0.310453
vt 0.071007 0.319470
vt 0.077821 0.325042
vt 0.086244 0.325042
vt 0.093058 0.319470
vt 0.095661 0.310453
vt 0.094687 0.310453
vt 0.092270 0.318267
vt 0.085943 0.323097
vt 0.078122 0.323097
vt 0.071794 0.318267
vt 0.069377 0.310453
vt 0.071794 0.302638
vt 0.078122 0.297808
vt 0.085943 0.297808
vt 0.092270 0.302638
usemtl material
s 0
f 10/1/1 11/2/1 2/3/1 1/4/1
f 11/2/2 12/5/2 3/6/2 2/3/2
f 12/5/3 13/7/3 4/8/3 3/6/3
f 13/7/4 14/9/4 5/10/4 4/8/4
f 14/11/5 15/12/5 6/13/5 5/14/5
f 15/15/6 16/16/6 7/17/6 6/18/6
f 16/16/7 17/19/7 8/20/7 7/17/7
f 17/19/8 18/21/8 9/22/8 8/20/8
f 18/21/9 10/23/9 1/24/9 9/22/9
f 19/25/10 20/26/10 11/27/10 10/28/10
f 20/29/11 21/30/11 12/5/11 11/2/11
f 21/30/12 22/31/12 13/7/12 12/5/12
f 22/31/13 23/32/13 14/9/13 13/7/13
f 23/33/14 24/34/14 15/35/14 14/36/14
f 24/37/15 25/38/15 16/16/15 15/15/15
f 25/38/16 26/39/16 17/19/16 16/16/16
f 26/39/17 27/40/17 18/21/17 17/19/17
f 27/41/18 19/25/18 10/28/18 18/42/18
f 28/43/19 29/44/19 20/29/19 19/45/19
f 29/44/20 30/46/20 21/30/20 20/29/20
f 30/46/21 31/47/21 22/31/21 21/30/21
f 31/47/22 32/48/22 23/32/22 22/31/22
f 32/49/23 33/50/23 24/34/23 23/33/23
f 33/51/24 34/52/24 25/38/24 24/37/24
f 34/52/25 35/53/25 26/39/25 25/38/25
f 35/53/26 36/54/26 27/40/26 26/39/26
f 36/54/27 28/55/27 19/56/27 27/40/27
f 37/57/28 38/58/28 29/44/28 28/43/28
f 38/58/29 39/59/29 30/46/29 29/44/29
f 39/59/30 40/60/30 31/47/30 30/46/30
f 40/60/31 41/61/31 32/48/31 31/47/31
f 41/62/32 42/63/32 33/50/32 32/49/32
f 42/64/33 43/65/33 34/52/33 33/51/33
f 43/65/34 44/66/34 35/53/34 34/52/34
f 44/66/35 45/67/35 36/54/35 35/53/35
f 45/67/36 37/68/36 28/55/36 36/54/36
f 46/69/37 47/70/37 38/58/37 37/57/37
f 47/70/38 48/71/38 39/59/38 38/58/38
f 48/71/39 49/72/39 40/60/39 39/59/39
f 49/72/40 50/73/40 41/61/40 40/60/40
f 50/74/41 51/75/41 42/63/41 41/62/41
f 51/76/42 52/77/42 43/65/42 42/64/42
f 52/77/43 53/78/43 44/66/43 43/65/43
f 53/78/44 54/79/44 45/67/44 44/66/44
f 54/79/45 46/80/45 37/68/45 45/67/45
f 55/81/46 56/82/46 47/70/46 46/69/46
f 56/82/47 57/83/47 48/71/47 47/70/47
f 57/83/48 58/84/48 49/72/48 48/71/48
f 58/85/49 59/86/49 50/87/49 49/88/49
f 59/89/50 60/90/50 51/75/50 50/74/50
f 60/91/51 61/92/51 52/77/51 51/76/51
f 61/92/52 62/93/52 53/78/52 52/77/52
f 62/93/53 63/94/53 54/79/53 53/78/53
f 63/94/54 55/95/54 46/80/54 54/79/54
f 64/96/55 65/97/55 56/82/55 55/81/55
f 65/97/56 66/98/56 57/83/56 56/82/56
f 66/98/57 67/99/57 58/84/57 57/83/57
f 67/100/58 68/101/58 59/86/58 58/85/58
f 68/102/59 69/103/59 60/90/59 59/89/59
f 69/104/60 70/105/60 61/92/60 60/91/60
f 70/105/61 71/106/61 62/93/61 61/92/61
f 71/106/62 72/107/62 63/94/62 62/93/62
f 72/107/63 64/108/63 55/95/63 63/94/63
f 73/109/64 74/110/64 65/97/64 64/96/64
f 74/110/65 75/111/65 66/98/65 65/97/65
f 75/111/66 76/112/66 67/99/66 66/98/66
f 76/112/67 77/113/67 68/114/67 67/99/67
f 77/115/68 78/116/68 69/103/68 68/102/68
f 78/117/69 79/118/69 70/105/69 69/104/69
f 79/118/70 80/119/70 71/106/70 70/105/70
f 80/119/71 81/120/71 72/107/71 71/106/71
f 81/120/72 73/121/72 64/108/72 72/107/72
f 82/122/73 83/123/73 74/110/73 73/109/73
f 83/123/74 84/124/74 75/111/74 74/110/74
f 84/124/75 85/125/75 76/112/75 75/111/75
f 85/125/76 86/126/76 77/113/76 76/112/76
f 86/127/77 87/128/77 78/116/77 77/115/77
f 87/129/78 88/130/78 79/118/78 78/117/78
f 88/130/79 89/131/79 80/119/79 79/118/79
f 89/131/80 90/132/80 81/120/80 80/119/80
f 90/132/81 82/133/81 73/121/81 81/120/81
f 91/134/82 92/135/82 83/123/82 82/122/82
f 92/135/83 93/136/83 84/124/83 83/123/83
f 93/136/84 94/137/84 85/125/84 84/124/84
f 94/137/85 95/138/85 86/126/85 85/125/85
f 95/139/86 96/140/86 87/128/86 86/127/86
f 96/141/87 97/142/87 88/130/87 87/129/87
f 97/142/88 98/143/88 89/131/88 88/130/88
f 98/143/89 99/144/89 90/132/89 89/131/89
f 99/144/90 91/145/90 82/133/90 90/132/90
f 100/28/91 101/27/91 92/26/91 91/25/91
f 101/146/92 102/147/92 93/136/92 92/135/92
f 102/147/93 103/148/93 94/137/93 93/136/93
f 103/148/94 104/149/94 95/138/94 94/137/94
f 104/150/95 105/151/95 96/140/95 95/139/95
f 105/152/96 106/153/96 97/142/96 96/141/96
f 106/153/97 107/154/97 98/143/97 97/142/97
f 107/154/98 108/155/98 99/144/98 98/143/98
f 108/42/99 100/28/99 91/25/99 99/41/99
f 109/156/100 110/157/100 101/146/100 100/158/100
f 110/157/101 111/159/101 102/147/101 101/146/101
f 111/159/102 112/160/102 103/148/102 102/147/102
f 112/160/103 113/161/103 104/149/103 103/148/103
f 113/14/104 114/13/104 105/12/104 104/11/104
f 114/162/105 115/163/105 106/153/105 105/152/105
f 115/163/106 116/164/106 107/154/106 106/153/106
f 116/164/107 117/165/107 108/155/107 107/154/107
f 117/165/108 109/166/108 100/167/108 108/155/108
f 1/168/109 2/169/109 3/170/109 4/171/109 5/14/109 6/13/109 7/172/109 8/173/109 9/174/109
f 117/174/110 116/173/110 115/172/110 114/13/110 113/14/110 112/171/110 111/170/110 110/169/110 109/168/110
f 118/175/111 119/176/111 131/177/111 130/178/111
f 119/179/112 120/180/112 132/181/112 131/182/112
f 120/180/113 121/183/113 133/184/113 132/181/113
f 121/183/114 122/185/114 134/186/114 133/184/114
f 122/185/115 123/187/115 135/188/115 134/186/115
f 123/176/116 124/175/116 136/178/116 135/177/116
f 124/175/117 125/189/117 137/190/117 136/178/117
f 125/191/118 126/192/118 138/193/118 137/194/118
f 126/192/119 127/195/119 139/196/119 138/193/119
f 127/195/120 128/197/120 140/198/120 139/196/120
f 128/197/121 129/199/121 141/200/121 140/198/121
f 129/189/122 118/175/122 130/178/122 141/190/122
f 130/201/123 131/202/123 143/203/123 142/204/123
f 131/177/124 132/205/124 144/206/124 143/207/124
f 132/181/125 133/184/125 145/208/125 144/209/125
f 133/184/126 134/186/126 146/210/126 145/208/126
f 134/205/127 135/177/127 147/207/127 146/206/127
f 135/202/128 136/201/128 148/204/128 147/203/128
f 136/201/129 137/211/129 149/212/129 148/204/129
f 137/194/130 138/193/130 150/213/130 149/214/130
f 138/193/131 139/196/131 151/215/131 150/213/131
f 139/196/132 140/198/132 152/216/132 151/215/132
f 140/198/133 141/200/133 153/217/133 152/216/133
f 141/211/134 130/201/134 142/204/134 153/212/134
f 142/218/135 143/207/135 155/219/135 154/220/135
f 143/207/136 144/206/136 156/221/136 155/219/136
f 144/209/137 145/208/137 157/222/137 156/223/137
f 145/208/138 146/210/138 158/224/138 157/222/138
f 146/206/139 147/207/139 159/219/139 158/221/139
f 147/207/140 148/218/140 160/220/140 159/219/140
f 148/218/141 149/225/141 161/226/141 160/220/141
f 149/214/142 150/213/142 162/227/142 161/228/142
f 150/213/143 151/215/143 163/229/143 162/227/143
f 151/215/144 152/216/144 164/230/144 163/229/144
f 152/216/145 153/217/145 165/231/145 164/230/145
f 153/225/146 142/218/146 154/220/146 165/226/146
f 154/220/147 155/219/147 167/232/147 166/233/147
f 155/234/148 156/223/148 168/235/148 167/236/148
f 156/223/149 157/222/149 169/237/149 168/235/149
f 157/222/150 158/224/150 170/238/150 169/237/150
f 158/224/151 159/239/151 171/240/151 170/238/151
f 159/219/152 160/220/152 172/233/152 171/232/152
f 160/220/153 161/226/153 173/241/153 172/233/153
f 161/228/154 162/227/154 174/242/154 173/243/154
f 162/227/155 163/229/155 175/244/155 174/242/155
f 163/229/156 164/230/156 176/245/156 175/244/156
f 164/230/157 165/231/157 177/246/157 176/245/157
f 165/226/158 154/220/158 166/233/158 177/241/158
f 166/247/159 167/248/159 178/249/159
f 167/248/160 168/250/160 178/249/160
f 168/250/161 169/251/161 178/249/161
f 169/251/162 170/252/162 178/249/162
f 170/252/163 171/253/163 178/249/163
f 171/253/164 172/254/164 178/249/164
f 172/255/165 173/256/165 178/257/165
f 173/256/166 174/258/166 178/257/166
f 174/258/167 175/259/167 178/257/167
f 175/259/168 176/260/168 178/257/168
f 176/260/169 177/261/169 178/257/169
f 177/261/170 166/262/170 178/257/170
f 129/263/171 128/264/171 127/265/171 126/266/171 125/267/171 124/268/171 123/269/171 122/270/171 121/271/171 120/272/171 119/273/171 118/274/171
f 179/275/172 180/275/172 184/275/172 183/275/172
f 180/275/110 181/275/110 185/275/110 184/275/110
f 181/275/173 182/275/173 186/275/173 185/275/173
f 182/275/109 179/275/109 183/275/109 186/275/109
f 182/275/171 181/275/171 180/275/171 179/275/171
f 183/275/174 184/275/174 185/275/174 186/275/174
f 187/275/172 188/275/172 192/275/172 191/275/172
f 188/275/110 189/275/110 193/275/110 192/275/110
f 189/275/173 190/275/173 194/275/173 193/275/173
f 190/275/109 187/275/109 191/275/109 194/275/109
f 190/275/171 189/275/171 188/275/171 187/275/171
f 191/275/174 192/275/174 193/275/174 194/275/174
f 195/276/175 196/276/175 202/276/175 201/276/175
f 196/276/176 197/276/176 203/276/176 202/276/176
f 197/276/109 198/276/109 204/276/109 203/276/109
f 198/276/177 199/276/177 205/276/177 204/276/177
f 199/276/178 200/276/178 206/276/178 205/276/178
f 200/276/110 195/276/110 201/276/110 206/276/110
f 200/276/171 199/276/171 198/276/171 197/276/171 196/276/171 195/276/171
f 201/276/174 202/276/174 203/276/174 204/276/174 205/276/174 206/276/174
f 207/276/175 208/276/175 214/276/175 213/276/175
f 208/276/176 209/276/176 215/276/176 214/276/176
f 209/276/109 210/276/109 216/276/109 215/276/109
f 210/276/177 211/276/177 217/276/177 216/276/177
f 211/276/178 212/276/178 218/276/178 217/276/178
f 212/276/110 207/276/110 213/276/110 218/276/110
f 212/276/171 211/276/171 210/276/171 209/276/171 208/276/171 207/276/171
f 213/276/174 214/276/174 215/276/174 216/276/174 217/276/174 218/276/174
f 219/276/175 220/276/175 226/276/175 225/276/175
f 220/276/176 221/276/176 227/276/176 226/276/176
f 221/276/109 222/276/109 228/276/109 227/276/109
f 222/276/177 223/276/177 229/276/177 228/276/177
f 223/276/178 224/276/178 230/276/178 229/276/178
f 224/276/110 219/276/110 225/276/110 230/276/110
f 224/276/171 223/276/171 222/276/171 221/276/171 220/276/171 219/276/171
f 225/276/174 226/276/174 227/276/174 228/276/174 229/276/174 230/276/174
f 231/276/175 232/276/175 238/276/175 237/276/175
f 232/276/176 233/276/176 239/276/176 238/276/176
f 233/276/109 234/276/109 240/276/109 239/276/109
f 234/276/177 235/276/177 241/276/177 240/276/177
f 235/276/178 236/276/178 242/276/178 241/276/178
f 236/276/110 231/276/110 237/276/110 242/276/110
f 236/276/171 235/276/171 234/276/171 233/276/171 232/276/171 231/276/171
f 237/276/174 238/276/174 239/276/174 240/276/174 241/276/174 242/276/174
f 243/276/175 244/276/175 250/276/175 249/276/175
f 244/276/176 245/276/176 251/276/176 250/276/176
f 245/276/109 246/276/109 252/276/109 251/276/109
f 246/276/177 247/276/177 253/276/177 252/276/177
f 247/276/178 248/276/178 254/276/178 253/276/178
f 248/276/110 243/276/110 249/276/110 254/276/110
f 248/276/171 247/276/171 246/276/171 245/276/171 244/276/171 243/276/171
f 249/276/174 250/276/174 251/276/174 252/276/174 253/276/174 254/276/174
f 255/276/175 256/276/175 262/276/175 261/276/175
f 256/276/176 257/276/176 263/276/176 262/276/176
f 257/276/109 258/276/109 264/276/109 263/276/109
f 258/276/177 259/276/177 265/276/177 264/276/177
f 259/276/178 260/276/178 266/276/178 265/276/178
f 260/276/110 255/276/110 261/276/110 266/276/110
f 260/276/171 259/276/171 258/276/171 257/276/171 256/276/171 255/276/171
f 261/276/174 262/276/174 263/276/174 264/276/174 265/276/174 266/276/174
f 267/277/179 268/278/179 278/279/179 277/280/179
f 268/281/180 269/282/180 279/283/180 278/284/180
f 269/282/181 270/285/181 280/286/181 279/283/181
f 270/285/182 271/287/182 281/288/182 280/286/182
f 271/278/183 272/277/183 282/280/183 281/279/183
f 272/277/184 273/289/184 283/290/184 282/280/184
f 273/291/185 274/292/185 284/293/185 283/294/185
f 274/292/186 275/295/186 285/296/186 284/293/186
f 275/295/187 276/297/187 286/298/187 285/296/187
f 276/289/188 267/277/188 277/280/188 286/290/188
f 277/280/189 278/279/189 288/299/189 287/300/189
f 278/284/190 279/283/190 289/301/190 288/302/190
f 279/283/191 280/286/191 290/303/191 289/301/191
f 280/286/192 281/288/192 291/304/192 290/303/192
f 281/305/193 282/306/193 292/307/193 291/308/193
f 282/280/194 283/290/194 293/309/194 292/300/194
f 283/294/195 284/293/195 294/310/195 293/311/195
f 284/293/196 285/296/196 295/312/196 294/310/196
f 285/296/197 286/298/197 296/313/197 295/312/197
f 286/290/198 277/280/198 287/300/198 296/309/198
f 287/300/199 288/299/199 298/314/199 297/315/199
f 288/302/200 289/301/200 299/316/200 298/317/200
f 289/301/201 290/303/201 300/318/201 299/316/201
f 290/303/202 291/304/202 301/319/202 300/318/202
f 291/308/203 292/307/203 302/320/203 301/321/203
f 292/300/204 293/309/204 303/322/204 302/315/204
f 293/311/205 294/310/205 304/323/205 303/324/205
f 294/310/206 295/312/206 305/325/206 304/323/206
f 295/312/207 296/313/207 306/326/207 305/325/207
f 296/309/208 287/300/208 297/315/208 306/322/208
f 276/327/171 275/328/171 274/329/171 273/330/171 272/331/171 271/332/171 270/333/171 269/334/171 268/335/171 267/336/171
f 297/337/174 298/338/174 299/339/174 300/340/174 301/341/174 302/342/174 303/343/174 304/344/174 305/345/174 306/346/174
f 307/277/179 308/278/179 318/279/179 317/280/179
f 308/347/180 309/348/180 319/349/180 318/350/180
f 309/348/181 310/351/181 320/352/181 319/349/181
f 310/351/182 311/353/182 321/354/182 320/352/182
f 311/278/183 312/277/183 322/280/183 321/279/183
f 312/277/184 313/289/184 323/290/184 322/280/184
f 313/355/185 314/356/185 324/357/185 323/358/185
f 314/356/186 315/359/186 325/360/186 324/357/186
f 315/359/187 316/361/187 326/362/187 325/360/187
f 316/289/188 307/277/188 317/280/188 326/290/188
f 317/280/189 318/279/189 328/299/189 327/300/189
f 318/350/190 319/349/190 329/363/190 328/364/190
f 319/349/191 320/352/191 330/365/191 329/363/191
f 320/352/192 321/354/192 331/366/192 330/365/192
f 321/279/193 322/280/193 332/300/193 331/299/193
f 322/280/194 323/290/194 333/309/194 332/300/194
f 323/358/195 324/357/195 334/367/195 333/368/195
f 324/357/196 325/360/196 335/369/196 334/367/196
f 325/360/197 326/362/197 336/370/197 335/369/197
f 326/371/198 317/372/198 327/373/198 336/374/198
f 327/373/199 328/375/199 338/376/199 337/377/199
f 328/364/200 329/363/200 339/378/200 338/379/200
f 329/363/201 330/365/201 340/380/201 339/378/201
f 330/365/202 331/366/202 341/381/202 340/380/202
f 331/299/203 332/300/203 342/315/203 341/314/203
f 332/300/204 333/309/204 343/322/204 342/315/204
f 333/368/205 334/367/205 344/382/205 343/383/205
f 334/367/206 335/369/206 345/384/206 344/382/206
f 335/369/207 336/370/207 346/385/207 345/384/207
f 336/374/208 327/373/208 337/377/208 346/386/208
f 316/387/171 315/388/171 314/389/171 313/390/171 312/391/171 311/392/171 310/393/171 309/394/171 308/395/171 307/396/171
f 337/397/174 338/398/174 339/399/174 340/400/174 341/401/174 342/402/174 343/403/174 344/404/174 345/405/174 346/406/174
o canopy
v 0.126000 2.970000 0.850000
v 0.110555 3.218660 0.850000
v 0.067098 3.379713 0.850000
v 0.000000 3.436950 0.850000
v -0.067098 3.379713 0.850000
v -0.110555 3.218660 0.850000
v -0.126000 2.970000 0.850000
v -0.110555 2.955622 0.850000
v -0.067098 2.946310 0.850000
v -0.000000 2.943000 0.850000
v 0.067098 2.946310 0.850000
v 0.110555 2.955622 0.850000
v 0.306000 2.970000 1.163875
v 0.268492 3.297740 1.163875
v 0.162951 3.510011 1.163875
v 0.000000 3.585450 1.163875
v -0.162951 3.510011 1.163875
v -0.268492 3.297740 1.163875
v -0.306000 2.970000 1.163875
v -0.268492 2.950297 1.163875
v -0.162951 2.937535 1.163875
v -0.000000 2.933000 1.163875
v 0.162951 2.937535 1.163875
v 0.268492 2.950297 1.163875
v 0.360000 2.970000 1.547500
v 0.315873 3.321464 1.547500
v 0.191707 3.549100 1.547500
v 0.000000 3.630000 1.547500
v -0.191707 3.549100 1.547500
v -0.315873 3.321464 1.547500
v -0.360000 2.970000 1.547500
v -0.315873 2.948699 1.547500
v -0.191707 2.934903 1.547500
v -0.000000 2.930000 1.547500
v 0.191707 2.934903 1.547500
v 0.315873 2.948699 1.547500
v 0.360000 2.970000 1.702500
v 0.315873 3.321464 1.702500
v 0.191707 3.549100 1.702500
v 0.000000 3.630000 1.702500
v -0.191707 3.549100 1.702500
v -0.315873 3.321464 1.702500
v -0.360000 2.970000 1.702500
v -0.315873 2.948699 1.702500
v -0.191707 2.934903 1.702500
v -0.000000 2.930000 1.702500
v 0.191707 2.934903 1.702500
v 0.315873 2.948699 1.702500
v 0.288000 2.970000 2.086125
v 0.252698 3.289832 2.086125
v 0.153366 3.496981 2.086125
v 0.000000 3.570600 2.086125
v -0.153366 3.496981 2.086125
v -0.252698 3.289832 2.086125
v -0.288000 2.970000 2.086125
v -0.252698 2.950829 2.086125
v -0.153366 2.938413 2.086125
v -0.000000 2.934000 2.086125
v 0.153366 2.938413 2.086125
v 0.252698 2.950829 2.086125
v 0.108000 2.970000 2.400000
v 0.094762 3.210753 2.400000
v 0.057512 3.366684 2.400000
v 0.000000 3.422100 2.400000
v -0.057512 3.366684 2.400000
v -0.094762 3.210753 2.400000
v -0.108000 2.970000 2.400000
v -0.094762 2.956154 2.400000
v -0.057512 2.947187 2.400000
v -0.000000 2.944000 2.400000
v 0.057512 2.947187 2.400000
v 0.094762 2.956154 2.400000
vn 0.8734 0.0802 -0.4803
vn 0.8310 0.3317 -0.4466
vn 0.4537 0.7867 -0.4187
vn -0.4537 0.7867 -0.4187
vn -0.8310 0.3317 -0.4466
vn -0.8734 0.0802 -0.4803
vn -0.5186 -0.8058 -0.2860
vn -0.1461 -0.9859 -0.0812
vn -0.0341 -0.9988 -0.0351
vn 0.0341 -0.9988 -0.0351
vn 0.1461 -0.9859 -0.0812
vn 0.5186 -0.8058 -0.2860
vn 0.9839 0.1183 -0.1337
vn 0.8795 0.4592 -0.1249
vn 0.4007 0.9091 -0.1141
vn -0.4007 0.9091 -0.1141
vn -0.8795 0.4592 -0.1249
vn -0.9839 0.1183 -0.1337
vn -0.4480 -0.8919 -0.0611
vn -0.1148 -0.9932 -0.0169
vn -0.0266 -0.9996 -0.0083
vn 0.0266 -0.9996 -0.0083
vn 0.1148 -0.9932 -0.0169
vn 0.4480 -0.8919 -0.0611
vn 0.9922 0.1246 0.0000
vn 0.8779 0.4789 0.0000
vn 0.3888 0.9213 0.0000
vn -0.3888 0.9213 0.0000
vn -0.8779 0.4789 0.0000
vn -0.9922 0.1246 0.0000
vn -0.4347 -0.9006 0.0000
vn -0.1104 -0.9939 0.0000
vn -0.0256 -0.9997 0.0000
vn 0.0256 -0.9997 0.0000
vn 0.1104 -0.9939 0.0000
vn 0.4347 -0.9006 0.0000
vn 0.9774 0.1156 0.1770
vn 0.8771 0.4509 0.1653
vn 0.4040 0.9022 0.1513
vn -0.4040 0.9022 0.1513
vn -0.8771 0.4509 0.1653
vn -0.9774 0.1156 0.1770
vn -0.4525 -0.8880 0.0822
vn -0.1165 -0.9929 0.0227
vn -0.0270 -0.9996 0.0111
vn 0.0270 -0.9996 0.0111
vn 0.1165 -0.9929 0.0227
vn 0.4525 -0.8880 0.0822
vn 0.8740 0.0757 0.4800
vn 0.8385 0.3154 0.4442
vn 0.4744 0.7754 0.4168
vn -0.4744 0.7754 0.4168
vn -0.8385 0.3154 0.4442
vn -0.8740 0.0757 0.4800
vn -0.5372 -0.7898 0.2959
vn -0.1541 -0.9844 0.0844
vn -0.0360 -0.9987 0.0354
vn 0.0360 -0.9987 0.0354
vn 0.1541 -0.9844 0.0844
vn 0.5372 -0.7898 0.2959
vn -0.0000 0.0000 -1.0000
vn 0.0000 0.0000 1.0000
vt 0.159161 0.247040
vt 0.159161 0.258807
vt 0.174198 0.262549
vt 0.174198 0.247040
vt 0.159161 0.266429
vt 0.174198 0.272594
vt 0.723467 0.332989
vt 0.726562 0.332989
vt 0.726562 0.348026
vt 0.719046 0.348026
vt 0.729658 0.332989
vt 0.734079 0.348026
vt 0.760449 0.332989
vt 0.761203 0.332989
vt 0.753492 0.348026
vt 0.751660 0.348026
vt 0.763325 0.332989
vt 0.758645 0.348026
vt 0.766602 0.332989
vt 0.766602 0.348026
vt 0.769878 0.332989
vt 0.774558 0.348026
vt 0.772000 0.332989
vt 0.779712 0.348026
vt 0.772754 0.332989
vt 0.781543 0.348026
vt 0.192576 0.263672
vt 0.192576 0.247040
vt 0.192576 0.274444
vt 0.726562 0.366404
vt 0.717719 0.366404
vt 0.735406 0.366404
vt 0.751178 0.366404
vt 0.749023 0.366404
vt 0.757241 0.366404
vt 0.766602 0.366404
vt 0.775962 0.366404
vt 0.782025 0.366404
vt 0.784180 0.366404
vt 0.200002 0.263672
vt 0.200002 0.247040
vt 0.200002 0.274444
vt 0.726562 0.373830
vt 0.717719 0.373830
vt 0.735406 0.373830
vt 0.751178 0.373830
vt 0.749023 0.373830
vt 0.757241 0.373830
vt 0.766602 0.373830
vt 0.775962 0.373830
vt 0.782025 0.373830
vt 0.784180 0.373830
vt 0.218380 0.262175
vt 0.218380 0.247040
vt 0.218380 0.271978
vt 0.726562 0.392208
vt 0.719488 0.392208
vt 0.733637 0.392208
vt 0.754263 0.392208
vt 0.752539 0.392208
vt 0.759113 0.392208
vt 0.766602 0.392208
vt 0.774090 0.392208
vt 0.778940 0.392208
vt 0.780664 0.392208
vt 0.233417 0.258433
vt 0.233417 0.247040
vt 0.233417 0.265812
vt 0.726562 0.407245
vt 0.723910 0.407245
vt 0.729215 0.407245
vt 0.761975 0.407245
vt 0.761328 0.407245
vt 0.763793 0.407245
vt 0.766602 0.407245
vt 0.769410 0.407245
vt 0.771229 0.407245
vt 0.771875 0.407245
vt 0.258106 0.251551
vt 0.256071 0.251108
vt 0.252930 0.250951
vt 0.249788 0.251108
vt 0.247753 0.251551
vt 0.247030 0.252235
vt 0.247753 0.264059
vt 0.249788 0.271718
vt 0.252930 0.274440
vt 0.256071 0.271718
vt 0.258106 0.264059
vt 0.258829 0.252235
vt 0.257986 0.252235
vt 0.257367 0.263683
vt 0.255622 0.271098
vt 0.252930 0.273733
vt 0.250237 0.271098
vt 0.248493 0.263683
vt 0.247873 0.252235
vt 0.248493 0.251577
vt 0.250237 0.251150
vt 0.252930 0.250999
vt 0.255622 0.251150
vt 0.257367 0.251577
usemtl material
s 0
f 347/407/209 348/408/209 360/409/209 359/410/209
f 348/408/210 349/411/210 361/412/210 360/409/210
f 349/413/211 350/414/211 362/415/211 361/416/211
f 350/414/212 351/417/212 363/418/212 362/415/212
f 351/411/213 352/408/213 364/409/213 363/412/213
f 352/408/214 353/407/214 365/410/214 364/409/214
f 353/419/215 354/420/215 366/421/215 365/422/215
f 354/420/216 355/423/216 367/424/216 366/421/216
f 355/423/217 356/425/217 368/426/217 367/424/217
f 356/425/218 357/427/218 369/428/218 368/426/218
f 357/427/219 358/429/219 370/430/219 369/428/219
f 358/429/220 347/431/220 359/432/220 370/430/220
f 359/410/221 360/409/221 372/433/221 371/434/221
f 360/409/222 361/412/222 373/435/222 372/433/222
f 361/416/223 362/415/223 374/436/223 373/437/223
f 362/415/224 363/418/224 375/438/224 374/436/224
f 363/412/225 364/409/225 376/433/225 375/435/225
f 364/409/226 365/410/226 377/434/226 376/433/226
f 365/422/227 366/421/227 378/439/227 377/440/227
f 366/421/228 367/424/228 379/441/228 378/439/228
f 367/424/229 368/426/229 380/442/229 379/441/229
f 368/426/230 369/428/230 381/443/230 380/442/230
f 369/428/231 370/430/231 382/444/231 381/443/231
f 370/430/232 359/432/232 371/445/232 382/444/232
f 371/434/233 372/433/233 384/446/233 383/447/233
f 372/433/234 373/435/234 385/448/234 384/446/234
f 373/437/235 374/436/235 386/449/235 385/450/235
f 374/436/236 375/438/236 387/451/236 386/449/236
f 375/435/237 376/433/237 388/446/237 387/448/237
f 376/433/238 377/434/238 389/447/238 388/446/238
f 377/440/239 378/439/239 390/452/239 389/453/239
f 378/439/240 379/441/240 391/454/240 390/452/240
f 379/441/241 380/442/241 392/455/241 391/454/241
f 380/442/242 381/443/242 393/456/242 392/455/242
f 381/443/243 382/444/243 394/457/243 393/456/243
f 382/444/244 371/445/244 383/458/244 394/457/244
f 383/447/245 384/446/245 396/459/245 395/460/245
f 384/446/246 385/448/246 397/461/246 396/459/246
f 385/450/247 386/449/247 398/462/247 397/463/247
f 386/449/248 387/451/248 399/464/248 398/462/248
f 387/448/249 388/446/249 400/459/249 399/461/249
f 388/446/250 389/447/250 401/460/250 400/459/250
f 389/453/251 390/452/251 402/465/251 401/466/251
f 390/452/252 391/454/252 403/467/252 402/465/252
f 391/454/253 392/455/253 404/468/253 403/467/253
f 392/455/254 393/456/254 405/469/254 404/468/254
f 393/456/255 394/457/255 406/470/255 405/469/255
f 394/457/256 383/458/256 395/471/256 406/470/256
f 395/460/257 396/459/257 408/472/257 407/473/257
f 396/459/258 397/461/258 409/474/258 408/472/258
f 397/463/259 398/462/259 410/475/259 409/476/259
f 398/462/260 399/464/260 411/477/260 410/475/260
f 399/461/261 400/459/261 412/472/261 411/474/261
f 400/459/262 401/460/262 413/473/262 412/472/262
f 401/466/263 402/465/263 414/478/263 413/479/263
f 402/465/264 403/467/264 415/480/264 414/478/264
f 403/467/265 404/468/265 416/481/265 415/480/265
f 404/468/266 405/469/266 417/482/266 416/481/266
f 405/469/267 406/470/267 418/483/267 417/482/267
f 406/470/268 395/471/268 407/484/268 418/483/268
f 358/485/269 357/486/269 356/487/269 355/488/269 354/489/269 353/490/269 352/491/269 351/492/269 350/493/269 349/494/269 348/495/269 347/496/269
f 407/497/270 408/498/270 409/499/270 410/500/270 411/501/270 412/502/270 413/503/270 414/504/270 415/505/270 416/506/270 417/507/270 418/508/270
o $propeller_l
v 3.423904 2.638997 1.150000
v 3.319282 2.782997 1.150000
v 3.150000 2.838000 1.150000
v 2.980718 2.782997 1.150000
v 2.876096 2.638997 1.150000
v 2.876096 2.461003 1.150000
v 2.980718 2.317003 1.150000
v 3.150000 2.262000 1.150000
v 3.319282 2.317003 1.150000
v 3.423904 2.461003 1.150000
v 3.454338 2.648885 1.550000
v 3.338091 2.808885 1.550000
v 3.150000 2.870000 1.550000
v 2.961909 2.808885 1.550000
v 2.845662 2.648885 1.550000
v 2.845662 2.451115 1.550000
v 2.961909 2.291115 1.550000
v 3.150000 2.230000 1.550000
v 3.338091 2.291115 1.550000
v 3.454338 2.451115 1.550000
v 3.378254 2.624164 1.830000
v 3.291068 2.744164 1.830000
v 3.150000 2.790000 1.830000
v 3.008932 2.744164 1.830000
v 2.921746 2.624164 1.830000
v 2.921746 2.475836 1.830000
v 3.008932 2.355836 1.830000
v 3.150000 2.310000 1.830000
v 3.291068 2.355836 1.830000
v 3.378254 2.475836 1.830000
v 3.150000 2.550000 1.950000
v 3.143340 2.805562 1.648589
v 3.286999 2.661902 1.583375
v 3.405562 2.543340 1.451411
v 3.261902 2.686999 1.516625
v 3.966109 3.590753 1.604695
v 4.084958 3.471905 1.576805
v 4.190753 3.366109 1.495305
v 4.071905 3.484958 1.523195
v 4.825379 4.339444 1.564222
v 4.884732 4.280091 1.568613
v 4.939444 4.225379 1.535778
v 4.880091 4.284732 1.531387
v 2.894438 2.543340 1.648589
v 3.038098 2.686999 1.583375
v 3.156660 2.805562 1.451411
v 3.013001 2.661902 1.516625
v 2.109247 3.366109 1.604695
v 2.228095 3.484958 1.576805
v 2.333891 3.590753 1.495305
v 2.215042 3.471905 1.523195
v 1.360556 4.225379 1.564222
v 1.419909 4.284732 1.568613
v 1.474621 4.339444 1.535778
v 1.415268 4.280091 1.531387
v 3.156660 2.294438 1.648589
v 3.013001 2.438098 1.583375
v 2.894438 2.556660 1.451411
v 3.038098 2.413001 1.516625
v 2.333891 1.509247 1.604695
v 2.215042 1.628095 1.576805
v 2.109247 1.733891 1.495305
v 2.228095 1.615042 1.523195
v 1.474621 0.760556 1.564222
v 1.415268 0.819909 1.568613
v 1.360556 0.874621 1.535778
v 1.419909 0.815268 1.531387
v 3.405562 2.556660 1.648589
v 3.261902 2.413001 1.583375
v 3.143340 2.294438 1.451411
v 3.286999 2.438098 1.516625
v 4.190753 1.733891 1.604695
v 4.071905 1.615042 1.576805
v 3.966109 1.509247 1.495305
v 4.084958 1.628095 1.523195
v 4.939444 0.874621 1.564222
v 4.880091 0.815268 1.568613
v 4.825379 0.760556 1.535778
v 4.884732 0.819909 1.531387
vn 0.8067 0.5861 -0.0759
vn 0.3081 0.9483 -0.0759
vn -0.3081 0.9483 -0.0759
vn -0.8067 0.5861 -0.0759
vn -0.9971 0.0000 -0.0759
vn -0.8067 -0.5861 -0.0759
vn -0.3081 -0.9483 -0.0759
vn 0.3081 -0.9483 -0.0759
vn 0.8067 -0.5861 -0.0759
vn 0.9971 0.0000 -0.0759
vn 0.7807 0.5672 0.2622
vn 0.2982 0.9178 0.2622
vn -0.2982 0.9178 0.2622
vn -0.7807 0.5672 0.2622
vn -0.9650 0.0000 0.2622
vn -0.7807 -0.5672 0.2622
vn -0.2982 -0.9178 0.2622
vn 0.2982 -0.9178 0.2622
vn 0.7807 -0.5672 0.2622
vn 0.9650 0.0000 0.2622
vn 0.3765 0.2735 0.8851
vn 0.1438 0.4426 0.8851
vn -0.1438 0.4426 0.8851
vn -0.3765 0.2735 0.8851
vn -0.4653 0.0000 0.8851
vn -0.3765 -0.2735 0.8851
vn -0.1438 -0.4426 0.8851
vn 0.1438 -0.4426 0.8851
vn 0.3765 -0.2735 0.8851
vn 0.4653 0.0000 0.8851
vn -0.0000 0.0000 -1.0000
vn 0.1858 -0.1581 0.9698
vn 0.3912 -0.3982 0.8297
vn -0.1581 0.1858 -0.9698
vn -0.3982 0.3912 -0.8297
vn 0.0786 -0.0527 0.9955
vn 0.3209 -0.3153 0.8931
vn -0.0527 0.0786 -0.9955
vn -0.3153 0.3209 -0.8931
vn -0.7071 -0.7071 -0.0000
vn 0.7071 0.7071 0.0000
vn 0.1581 0.1858 0.9698
vn 0.3982 0.3912 0.8297
vn -0.1858 -0.1581 -0.9698
vn -0.3912 -0.3982 -0.8297
vn 0.0527 0.0786 0.9955
vn 0.3153 0.3209 0.8931
vn -0.0786 -0.0527 -0.9955
vn -0.3209 -0.3153 -0.8931
vn 0.7071 -0.7071 -0.0000
vn -0.7071 0.7071 0.0000
vn -0.1858 0.1581 0.9698
vn -0.3912 0.3982 0.8297
vn 0.1581 -0.1858 -0.9698
vn 0.3982 -0.3912 -0.8297
vn -0.0786 0.0527 0.9955
vn -0.3209 0.3153 0.8931
vn 0.0527 -0.0786 -0.9955
vn 0.3153 -0.3209 -0.8931
vn -0.1581 -0.1858 0.9698
vn -0.3982 -0.3912 0.8297
vn 0.1858 0.1581 -0.9698
vn 0.3912 0.3982 -0.8297
vn -0.0527 -0.0786 0.9955
vn -0.3153 -0.3209 0.8931
vn 0.0786 0.0527 -0.9955
vn 0.3209 0.3153 -0.8931
vt 0.408203 0.267578
vt 0.376953 0.267578
vt 0.392578 0.267578
usemtl material
s 0
f 419/509/271 420/509/271 430/509/271 429/509/271
f 420/509/272 421/509/272 431/509/272 430/509/272
f 421/509/273 422/509/273 432/509/273 431/509/273
f 422/509/274 423/509/274 433/509/274 432/509/274
f 423/509/275 424/509/275 434/509/275 433/509/275
f 424/509/276 425/509/276 435/509/276 434/509/276
f 425/509/277 426/509/277 436/509/277 435/509/277
f 426/509/278 427/509/278 437/509/278 436/509/278
f 427/509/279 428/509/279 438/509/279 437/509/279
f 428/509/280 419/509/280 429/509/280 438/509/280
f 429/509/281 430/509/281 440/509/281 439/509/281
f 430/509/282 431/509/282 441/509/282 440/509/282
f 431/509/283 432/509/283 442/509/283 441/509/283
f 432/509/284 433/509/284 443/509/284 442/509/284
f 433/509/285 434/509/285 444/509/285 443/509/285
f 434/509/286 435/509/286 445/509/286 444/509/286
f 435/509/287 436/509/287 446/509/287 445/509/287
f 436/509/288 437/509/288 447/509/288 446/509/288
f 437/509/289 438/509/289 448/509/289 447/509/289
f 438/509/290 429/509/290 439/509/290 448/509/290
f 439/509/291 440/509/291 449/509/291
f 440/509/292 441/509/292 449/509/292
f 441/509/293 442/509/293 449/509/293
f 442/509/294 443/509/294 449/509/294
f 443/509/295 444/509/295 449/509/295
f 444/509/296 445/509/296 449/509/296
f 445/509/297 446/509/297 449/509/297
f 446/509/298 447/509/298 449/509/298
f 447/509/299 448/509/299 449/509/299
f 448/509/300 439/509/300 449/509/300
f 428/509/301 427/509/301 426/509/301 425/509/301 424/509/301 423/509/301 422/509/301 421/509/301 420/509/301 419/509/301
f 450/510/302 451/510/302 455/510/302 454/510/302
f 451/510/303 452/510/303 456/510/303 455/510/303
f 452/510/304 453/510/304 457/510/304 456/510/304
f 453/510/305 450/510/305 454/510/305 457/510/305
f 454/511/306 455/511/306 459/511/306 458/511/306
f 455/511/307 456/511/307 460/511/307 459/511/307
f 456/511/308 457/511/308 461/511/308 460/511/308
f 457/511/309 454/511/309 458/511/309 461/511/309
f 453/510/310 452/510/310 451/510/310 450/510/310
f 458/511/311 459/511/311 460/511/311 461/511/311
f 462/510/312 463/510/312 467/510/312 466/510/312
f 463/510/313 464/510/313 468/510/313 467/510/313
f 464/510/314 465/510/314 469/510/314 468/510/314
f 465/510/315 462/510/315 466/510/315 469/510/315
f 466/511/316 467/511/316 471/511/316 470/511/316
f 467/511/317 468/511/317 472/511/317 471/511/317
f 468/511/318 469/511/318 473/511/318 472/511/318
f 469/511/319 466/511/319 470/511/319 473/511/319
f 465/510/320 464/510/320 463/510/320 462/510/320
f 470/511/321 471/511/321 472/511/321 473/511/321
f 474/510/322 475/510/322 479/510/322 478/510/322
f 475/510/323 476/510/323 480/510/323 479/510/323
f 476/510/324 477/510/324 481/510/324 480/510/324
f 477/510/325 474/510/325 478/510/325 481/510/325
f 478/511/326 479/511/326 483/511/326 482/511/326
f 479/511/327 480/511/327 484/511/327 483/511/327
f 480/511/328 481/511/328 485/511/328 484/511/328
f 481/511/329 478/511/329 482/511/329 485/511/329
f 477/510/311 476/510/311 475/510/311 474/510/311
f 482/511/310 483/511/310 484/511/310 485/511/310
f 486/510/330 487/510/330 491/510/330 490/510/330
f 487/510/331 488/510/331 492/510/331 491/510/331
f 488/510/332 489/510/332 493/510/332 492/510/332
f 489/510/333 486/510/333 490/510/333 493/510/333
f 490/511/334 491/511/334 495/511/334 494/511/334
f 491/511/335 492/511/335 496/511/335 495/511/335
f 492/511/336 493/511/336 497/511/336 496/511/336
f 493/511/337 490/511/337 494/511/337 497/511/337
f 489/510/321 488/510/321 487/510/321 486/510/321
f 494/511/320 495/511/320 496/511/320 497/511/320
o $propeller_r
v -2.876096 2.638997 1.150000
v -2.980718 2.782997 1.150000
v -3.150000 2.838000 1.150000
v -3.319282 2.782997 1.150000
v -3.423904 2.638997 1.150000
v -3.423904 2.461003 1.150000
v -3.319282 2.317003 1.150000
v -3.150000 2.262000 1.150000
v -2.980718 2.317003 1.150000
v -2.876096 2.461003 1.150000
v -2.845662 2.648885 1.550000
v -2.961909 2.808885 1.550000
v -3.150000 2.870000 1.550000
v -3.338091 2.808885 1.550000
v -3.454338 2.648885 1.550000
v -3.454338 2.451115 1.550000
v -3.338091 2.291115 1.550000
v -3.150000 2.230000 1.550000
v -2.961909 2.291115 1.550000
v -2.845662 2.451115 1.550000
v -2.921746 2.624164 1.830000
v -3.008932 2.744164 1.830000
v -3.150000 2.790000 1.830000
v -3.291068 2.744164 1.830000
v -3.378254 2.624164 1.830000
v -3.378254 2.475836 1.830000
v -3.291068 2.355836 1.830000
v -3.150000 2.310000 1.830000
v -3.008932 2.355836 1.830000
v -2.921746 2.475836 1.830000
v -3.150000 2.550000 1.950000
v -3.156660 2.805562 1.451411
v -3.038098 2.686999 1.583375
v -2.894438 2.543340 1.648589
v -3.013001 2.661902 1.516625
v -2.333891 3.590753 1.495305
v -2.228095 3.484958 1.576805
v -2.109247 3.366109 1.604695
v -2.215042 3.471905 1.523195
v -1.474621 4.339444 1.535778
v -1.419909 4.284732 1.568613
v -1.360556 4.225379 1.564222
v -1.415268 4.280091 1.531387
v -3.405562 2.543340 1.451411
v -3.286999 2.661902 1.583375
v -3.143340 2.805562 1.648589
v -3.261902 2.686999 1.516625
v -4.190753 3.366109 1.495305
v -4.084958 3.471905 1.576805
v -3.966109 3.590753 1.604695
v -4.071905 3.484958 1.523195
v -4.939444 4.225379 1.535778
v -4.884732 4.280091 1.568613
v -4.825379 4.339444 1.564222
v -4.880091 4.284732 1.531387
v -3.143340 2.294438 1.451411
v -3.261902 2.413001 1.583375
v -3.405562 2.556660 1.648589
v -3.286999 2.438098 1.516625
v -3.966109 1.509247 1.495305
v -4.071905 1.615042 1.576805
v -4.190753 1.733891 1.604695
v -4.084958 1.628095 1.523195
v -4.825379 0.760556 1.535778
v -4.880091 0.815268 1.568613
v -4.939444 0.874621 1.564222
v -4.884732 0.819909 1.531387
v -2.894438 2.556660 1.451411
v -3.013001 2.438098 1.583375
v -3.156660 2.294438 1.648589
v -3.038098 2.413001 1.516625
v -2.109247 1.733891 1.495305
v -2.215042 1.628095 1.576805
v -2.333891 1.509247 1.604695
v -2.228095 1.615042 1.523195
v -1.360556 0.874621 1.535778
v -1.415268 0.819909 1.568613
v -1.474621 0.760556 1.564222
v -1.419909 0.815268 1.531387
vn 0.8067 0.5861 -0.0759
vn 0.3081 0.9483 -0.0759
vn -0.3081 0.9483 -0.0759
vn -0.8067 0.5861 -0.0759
vn -0.9971 0.0000 -0.0759
vn -0.8067 -0.5861 -0.0759
vn -0.3081 -0.9483 -0.0759
vn 0.3081 -0.9483 -0.0759
vn 0.8067 -0.5861 -0.0759
vn 0.9971 0.0000 -0.0759
vn 0.7807 0.5672 0.2622
vn 0.2982 0.9178 0.2622
vn -0.2982 0.9178 0.2622
vn -0.7807 0.5672 0.2622
vn -0.9650 0.0000 0.2622
vn -0.7807 -0.5672 0.2622
vn -0.2982 -0.9178 0.2622
vn 0.2982 -0.9178 0.2622
vn 0.7807 -0.5672 0.2622
vn 0.9650 0.0000 0.2622
vn 0.3765 0.2735 0.8851
vn 0.1438 0.4426 0.8851
vn -0.1438 0.4426 0.8851
vn -0.3765 0.2735 0.8851
vn -0.4653 0.0000 0.8851
vn -0.3765 -0.2735 0.8851
vn -0.1438 -0.4426 0.8851
vn 0.1438 -0.4426 0.8851
vn 0.3765 -0.2735 0.8851
vn 0.4653 0.0000 0.8851
vn -0.0000 0.0000 -1.0000
vn -0.3982 0.3912 0.8297
vn -0.1581 0.1858 0.9698
vn 0.3912 -0.3982 -0.8297
vn 0.1858 -0.1581 -0.9698
vn -0.3153 0.3209 0.8931
vn -0.0527 0.0786 0.9955
vn 0.3209 -0.3153 -0.8931
vn 0.0786 -0.0527 -0.9955
vn -0.7071 -0.7071 0.0000
vn 0.7071 0.7071 0.0000
vn -0.3912 -0.3982 0.8297
vn -0.1858 -0.1581 0.9698
vn 0.3982 0.3912 -0.8297
vn 0.1581 0.1858 -0.9698
vn -0.3209 -0.3153 0.8931
vn -0.0786 -0.0527 0.9955
vn 0.3153 0.3209 -0.8931
vn 0.0527 0.0786 -0.9955
vn 0.7071 -0.7071 0.0000
vn -0.7071 0.7071 0.0000
vn 0.3982 -0.3912 0.8297
vn 0.1581 -0.1858 0.9698
vn -0.3912 0.3982 -0.8297
vn -0.1858 0.1581 -0.9698
vn 0.3153 -0.3209 0.8931
vn 0.0527 -0.0786 0.9955
vn -0.3209 0.3153 -0.8931
vn -0.0786 0.0527 -0.9955
vn 0.3912 0.3982 0.8297
vn 0.1858 0.1581 0.9698
vn -0.3982 -0.3912 -0.8297
vn -0.1581 -0.1858 -0.9698
vn 0.3209 0.3153 0.8931
vn 0.0786 0.0527 0.9955
vn -0.3153 -0.3209 -0.8931
vn -0.0527 -0.0786 -0.9955
vt 0.408203 0.267578
vt 0.376953 0.267578
vt 0.392578 0.267578
usemtl material
s 0
f 498/512/338 499/512/338 509/512/338 508/512/338
f 499/512/339 500/512/339 510/512/339 509/512/339
f 500/512/340 501/512/340 511/512/340 510/512/340
f 501/512/341 502/512/341 512/512/341 511/512/341
f 502/512/342 503/512/342 513/512/342 512/512/342
f 503/512/343 504/512/343 514/512/343 513/512/343
f 504/512/344 505/512/344 515/512/344 514/512/344
f 505/512/345 506/512/345 516/512/345 515/512/345
f 506/512/346 507/512/346 517/512/346 516/512/346
f 507/512/347 498/512/347 508/512/347 517/512/347
f 508/512/348 509/512/348 519/512/348 518/512/348
f 509/512/349 510/512/349 520/512/349 519/512/349
f 510/512/350 511/512/350 521/512/350 520/512/350
f 511/512/351 512/512/351 522/512/351 521/512/351
f 512/512/352 513/512/352 523/512/352 522/512/352
f 513/512/353 514/512/353 524/512/353 523/512/353
f 514/512/354 515/512/354 525/512/354 524/512/354
f 515/512/355 516/512/355 526/512/355 525/512/355
f 516/512/356 517/512/356 527/512/356 526/512/356
f 517/512/357 508/512/357 518/512/357 527/512/357
f 518/512/358 519/512/358 528/512/358
f 519/512/359 520/512/359 528/512/359
f 520/512/360 521/512/360 528/512/360
f 521/512/361 522/512/361 528/512/361
f 522/512/362 523/512/362 528/512/362
f 523/512/363 524/512/363 528/512/363
f 524/512/364 525/512/364 528/512/364
f 525/512/365 526/512/365 528/512/365
f 526/512/366 527/512/366 528/512/366
f 527/512/367 518/512/367 528/512/367
f 507/512/368 506/512/368 505/512/368 504/512/368 503/512/368 502/512/368 501/512/368 500/512/368 499/512/368 498/512/368
f 529/513/369 530/513/369 534/513/369 533/513/369
f 530/513/370 531/513/370 535/513/370 534/513/370
f 531/513/371 532/513/371 536/513/371 535/513/371
f 532/513/372 529/513/372 533/513/372 536/513/372
f 533/514/373 534/514/373 538/514/373 537/514/373
f 534/514/374 535/514/374 539/514/374 538/514/374
f 535/514/375 536/514/375 540/514/375 539/514/375
f 536/514/376 533/514/376 537/514/376 540/514/376
f 532/513/377 531/513/377 530/513/377 529/513/377
f 537/514/378 538/514/378 539/514/378 540/514/378
f 541/513/379 542/513/379 546/513/379 545/513/379
f 542/513/380 543/513/380 547/513/380 546/513/380
f 543/513/381 544/513/381 548/513/381 547/513/381
f 544/513/382 541/513/382 545/513/382 548/513/382
f 545/514/383 546/514/383 550/514/383 549/514/383
f 546/514/384 547/514/384 551/514/384 550/514/384
f 547/514/385 548/514/385 552/514/385 551/514/385
f 548/514/386 545/514/386 549/514/386 552/514/386
f 544/513/387 543/513/387 542/513/387 541/513/387
f 549/514/388 550/514/388 551/514/388 552/514/388
f 553/513/389 554/513/389 558/513/389 557/513/389
f 554/513/390 555/513/390 559/513/390 558/513/390
f 555/513/391 556/513/391 560/513/391 559/513/391
f 556/513/392 553/513/392 557/513/392 560/513/392
f 557/514/393 558/514/393 562/514/393 561/514/393
f 558/514/394 559/514/394 563/514/394 562/514/394
f 559/514/395 560/514/395 564/514/395 563/514/395
f 560/514/396 557/514/396 561/514/396 564/514/396
f 556/513/378 555/513/378 554/513/378 553/513/378
f 561/514/377 562/514/377 563/514/377 564/514/377
f 565/513/397 566/513/397 570/513/397 569/513/397
f 566/513/398 567/513/398 571/513/398 570/513/398
f 567/513/399 568/513/399 572/513/399 571/513/399
f 568/513/400 565/513/400 569/513/400 572/513/400
f 569/514/401 570/514/401 574/514/401 573/514/401
f 570/514/402 571/514/402 575/514/402 574/514/402
f 571/514/403 572/514/403 576/514/403 575/514/403
f 572/514/404 569/514/404 573/514/404 576/514/404
f 568/513/388 567/513/388 566/513/388 565/513/388
f 573/514/387 574/514/387 575/514/387 576/514/387
o $ailavator_l
v 2.550000 2.550000 -3.800000
v 2.550000 2.596818 -3.909800
v 2.550000 2.622477 -4.257500
v 2.550000 2.610279 -4.806500
v 2.550000 2.557320 -5.630000
v 2.550000 2.542680 -5.630000
v 2.550000 2.489721 -4.806500
v 2.550000 2.477523 -4.257500
v 2.550000 2.503182 -3.909800
v 4.655000 2.550000 -4.000000
v 4.655000 2.584698 -4.093000
v 4.655000 2.603714 -4.387500
v 4.655000 2.594674 -4.852500
v 4.655000 2.556200 -5.550000
v 4.655000 2.543800 -5.550000
v 4.655000 2.505326 -4.852500
v 4.655000 2.496286 -4.387500
v 4.655000 2.515302 -4.093000
v 4.955000 2.550000 -4.124000
v 4.955000 2.563740 -4.190960
v 4.955000 2.571271 -4.403000
v 4.955000 2.567691 -4.737800
v 4.955000 2.554464 -5.240000
v 4.955000 2.545536 -5.240000
v 4.955000 2.532309 -4.737800
v 4.955000 2.528729 -4.403000
v 4.955000 2.536260 -4.190960
vn 0.0366 0.9272 0.3727
vn 0.0125 0.9975 0.0694
vn 0.0073 0.9998 -0.0209
vn 0.0045 0.9982 -0.0600
vn 0.0380 0.0000 -0.9993
vn 0.0045 -0.9982 -0.0600
vn 0.0073 -0.9998 -0.0209
vn 0.0125 -0.9975 0.0694
vn 0.0366 -0.9272 0.3727
vn 0.1393 0.9478 0.2870
vn 0.0983 0.9938 0.0521
vn 0.1011 0.9948 -0.0157
vn 0.0781 0.9960 -0.0429
vn 0.7186 0.0000 -0.6954
vn 0.0781 -0.9960 -0.0429
vn 0.1011 -0.9948 -0.0157
vn 0.0983 -0.9938 0.0521
vn 0.1393 -0.9478 0.2870
vn -1.0000 0.0000 0.0000
vn 1.0000 0.0000 0.0000
vt 0.023385 0.646786
vt 0.023385 0.642255
vt 0.125861 0.651180
vt 0.125861 0.656529
vt 0.023385 0.627908
vt 0.125861 0.634241
vt 0.023385 0.605254
vt 0.125861 0.607495
vt 0.023385 0.571274
vt 0.125861 0.567376
vt 0.461923 0.310754
vt 0.461923 0.310151
vt 0.359467 0.310097
vt 0.359467 0.310809
vt 0.976615 0.571274
vt 0.976615 0.605254
vt 0.874139 0.607495
vt 0.874139 0.567376
vt 0.976615 0.627908
vt 0.874139 0.634241
vt 0.976615 0.642255
vt 0.874139 0.651180
vt 0.976615 0.646786
vt 0.874139 0.656529
vt 0.008780 0.640745
vt 0.008780 0.637482
vt 0.008780 0.627152
vt 0.008780 0.610842
vt 0.008780 0.586376
vt 0.129345 0.448060
vt 0.129345 0.447626
vt 0.114242 0.447542
vt 0.114242 0.448144
vt 0.991220 0.586376
vt 0.991220 0.610842
vt 0.991220 0.627152
vt 0.991220 0.637482
vt 0.991220 0.640745
vt 0.199498 0.447843
vt 0.194149 0.450117
vt 0.177210 0.451363
vt 0.150464 0.450770
vt 0.110345 0.448199
vt 0.110345 0.447488
vt 0.150464 0.444916
vt 0.177210 0.444324
vt 0.194149 0.445570
vt 0.180451 0.447176
vt 0.170121 0.446810
vt 0.153811 0.446984
vt 0.153811 0.448702
vt 0.170121 0.448876
vt 0.180451 0.448510
vt 0.183713 0.447843
usemtl material
s 0
f 586/515/405 587/516/405 578/517/405 577/518/405
f 587/516/406 588/519/406 579/520/406 578/517/406
f 588/519/407 589/521/407 580/522/407 579/520/407
f 589/521/408 590/523/408 581/524/408 580/522/408
f 590/525/409 591/526/409 582/527/409 581/528/409
f 591/529/410 592/530/410 583/531/410 582/532/410
f 592/530/411 593/533/411 584/534/411 583/531/411
f 593/533/412 594/535/412 585/536/412 584/534/412
f 594/535/413 586/537/413 577/538/413 585/536/413
f 595/539/414 596/540/414 587/516/414 586/515/414
f 596/540/415 597/541/415 588/519/415 587/516/415
f 597/541/416 598/542/416 589/521/416 588/519/416
f 598/542/417 599/543/417 590/523/417 589/521/417
f 599/544/418 600/545/418 591/546/418 590/547/418
f 600/548/419 601/549/419 592/530/419 591/529/419
f 601/549/420 602/550/420 593/533/420 592/530/420
f 602/550/421 603/551/421 594/535/421 593/533/421
f 603/551/422 595/552/422 586/537/422 594/535/422
f 577/553/423 578/554/423 579/555/423 580/556/423 581/557/423 582/558/423 583/559/423 584/560/423 585/561/423
f 603/562/424 602/563/424 601/564/424 600/545/424 599/544/424 598/565/424 597/566/424 596/567/424 595/568/424
o $ailavator_r
v -2.550000 2.550000 -3.800000
v -2.550000 2.596818 -3.909800
v -2.550000 2.622477 -4.257500
v -2.550000 2.610279 -4.806500
v -2.550000 2.557320 -5.630000
v -2.550000 2.542680 -5.630000
v -2.550000 2.489721 -4.806500
v -2.550000 2.477523 -4.257500
v -2.550000 2.503182 -3.909800
v -4.655000 2.550000 -4.000000
v -4.655000 2.584698 -4.093000
v -4.655000 2.603714 -4.387500
v -4.655000 2.594674 -4.852500
v -4.655000 2.556200 -5.550000
v -4.655000 2.543800 -5.550000
v -4.655000 2.505326 -4.852500
v -4.655000 2.496286 -4.387500
v -4.655000 2.515302 -4.093000
v -4.955000 2.550000 -4.124000
v -4.955000 2.563740 -4.190960
v -4.955000 2.571271 -4.403000
v -4.955000 2.567691 -4.737800
v -4.955000 2.554464 -5.240000
v -4.955000 2.545536 -5.240000
v -4.955000 2.532309 -4.737800
v -4.955000 2.528729 -4.403000
v -4.955000 2.536260 -4.190960
vn -0.0366 0.9272 0.3727
vn -0.0125 0.9975 0.0694
vn -0.0073 0.9998 -0.0209
vn -0.0045 0.9982 -0.0600
vn -0.0380 0.0000 -0.9993
vn -0.0045 -0.9982 -0.0600
vn -0.0073 -0.9998 -0.0209
vn -0.0125 -0.9975 0.0694
vn -0.0366 -0.9272 0.3727
vn -0.1393 0.9478 0.2870
vn -0.0983 0.9938 0.0521
vn -0.1011 0.9948 -0.0157
vn -0.0781 0.9960 -0.0429
vn -0.7186 0.0000 -0.6954
vn -0.0781 -0.9960 -0.0429
vn -0.1011 -0.9948 -0.0157
vn -0.0983 -0.9938 0.0521
vn -0.1393 -0.9478 0.2870
vn 1.0000 -0.0000 0.0000
vn -1.0000 0.0000 0.0000
vt 0.374139 0.656529
vt 0.374139 0.651180
vt 0.476615 0.642255
vt 0.476615 0.646786
vt 0.374139 0.634241
vt 0.476615 0.627908
vt 0.374139 0.607495
vt 0.476615 0.605254
vt 0.374139 0.567376
vt 0.476615 0.571274
vt 0.111236 0.310809
vt 0.111236 0.310097
vt 0.008780 0.310151
vt 0.008780 0.310754
vt 0.625861 0.567376
vt 0.625861 0.607495
vt 0.523385 0.605254
vt 0.523385 0.571274
vt 0.625861 0.634241
vt 0.523385 0.627908
vt 0.625861 0.651180
vt 0.523385 0.642255
vt 0.625861 0.656529
vt 0.523385 0.646786
vt 0.491220 0.637482
vt 0.491220 0.640745
vt 0.491220 0.627152
vt 0.491220 0.610842
vt 0.491220 0.586376
vt 0.114242 0.448144
vt 0.114242 0.447542
vt 0.129345 0.447626
vt 0.129345 0.448060
vt 0.508780 0.610842
vt 0.508780 0.586376
vt 0.508780 0.627152
vt 0.508780 0.637482
vt 0.508780 0.640745
vt 0.698842 0.269507
vt 0.682137 0.268423
vt 0.655760 0.268938
vt 0.616195 0.271175
vt 0.616195 0.271794
vt 0.655760 0.274031
vt 0.682137 0.274546
vt 0.698842 0.273462
vt 0.704117 0.271484
vt 0.183713 0.447843
vt 0.180451 0.448510
vt 0.170121 0.448876
vt 0.153811 0.448702
vt 0.153811 0.446984
vt 0.170121 0.446810
vt 0.180451 0.447176
usemtl material
s 0
f 604/569/425 605/570/425 614/571/425 613/572/425
f 605/570/426 606/573/426 615/574/426 614/571/426
f 606/573/427 607/575/427 616/576/427 615/574/427
f 607/575/428 608/577/428 617/578/428 616/576/428
f 608/579/429 609/580/429 618/581/429 617/582/429
f 609/583/430 610/584/430 619/585/430 618/586/430
f 610/584/431 611/587/431 620/588/431 619/585/431
f 611/587/432 612/589/432 621/590/432 620/588/432
f 612/589/433 604/591/433 613/592/433 621/590/433
f 613/572/434 614/571/434 623/593/434 622/594/434
f 614/571/435 615/574/435 624/595/435 623/593/435
f 615/574/436 616/576/436 625/596/436 624/595/436
f 616/576/437 617/578/437 626/597/437 625/596/437
f 617/598/438 618/599/438 627/600/438 626/601/438
f 618/586/439 619/585/439 628/602/439 627/603/439
f 619/585/440 620/588/440 629/604/440 628/602/440
f 620/588/441 621/590/441 630/605/441 629/604/441
f 621/590/442 613/592/442 622/606/442 630/605/442
f 612/607/443 611/608/443 610/609/443 609/610/443 608/611/443 607/612/443 606/613/443 605/614/443 604/615/443
f 622/616/444 623/617/444 624/618/444 625/619/444 626/601/444 627/600/444 628/620/444 629/621/444 630/622/444
o tail
v 1.300000 2.500000 -3.100000
v 1.359003 2.500000 -3.223000
v 1.391339 2.500000 -3.612500
v 1.375966 2.500000 -4.227500
v 1.308200 2.500000 -5.150000
v 1.291800 2.500000 -5.150000
v 1.224034 2.500000 -4.227500
v 1.208661 2.500000 -3.612500
v 1.240997 2.500000 -3.223000
v 1.300000 4.500000 -4.200000
v 1.333099 4.500000 -4.269000
v 1.351239 4.500000 -4.487500
v 1.342615 4.500000 -4.832500
v 1.304600 4.500000 -5.350000
v 1.295400 4.500000 -5.350000
v 1.257385 4.500000 -4.832500
v 1.248761 4.500000 -4.487500
v 1.266901 4.500000 -4.269000
v 1.300000 4.650000 -4.315000
v 1.313902 4.650000 -4.363300
v 1.321520 4.650000 -4.516250
v 1.317898 4.650000 -4.757750
v 1.303220 4.650000 -5.120000
v 1.296780 4.650000 -5.120000
v 1.282102 4.650000 -4.757750
v 1.278480 4.650000 -4.516250
v 1.286098 4.650000 -4.363300
v -1.300000 2.500000 -3.100000
v -1.240997 2.500000 -3.223000
v -1.208661 2.500000 -3.612500
v -1.224034 2.500000 -4.227500
v -1.291800 2.500000 -5.150000
v -1.308200 2.500000 -5.150000
v -1.375966 2.500000 -4.227500
v -1.391339 2.500000 -3.612500
v -1.359003 2.500000 -3.223000
v -1.300000 4.500000 -4.200000
v -1.266901 4.500000 -4.269000
v -1.248761 4.500000 -4.487500
v -1.257385 4.500000 -4.832500
v -1.295400 4.500000 -5.350000
v -1.304600 4.500000 -5.350000
v -1.342615 4.500000 -4.832500
v -1.351239 4.500000 -4.487500
v -1.333099 4.500000 -4.269000
v -1.300000 4.650000 -4.315000
v -1.286098 4.650000 -4.363300
v -1.278480 4.650000 -4.516250
v -1.282102 4.650000 -4.757750
v -1.296780 4.650000 -5.120000
v -1.303220 4.650000 -5.120000
v -1.317898 4.650000 -4.757750
v -1.321520 4.650000 -4.516250
v -1.313902 4.650000 -4.363300
v -1.420000 2.890000 -4.300000
v -1.420000 2.915584 -4.360000
v -1.420000 2.929605 -4.550000
v -1.420000 2.922939 -4.850000
v -1.420000 2.894000 -5.300000
v -1.420000 2.886000 -5.300000
v -1.420000 2.857061 -4.850000
v -1.420000 2.850395 -4.550000
v -1.420000 2.864416 -4.360000
v 0.000000 2.890000 -4.300000
v 0.000000 2.918142 -4.366000
v 0.000000 2.933565 -4.575000
v 0.000000 2.926233 -4.905000
v 0.000000 2.894400 -5.400000
v 0.000000 2.885600 -5.400000
v 0.000000 2.853767 -4.905000
v 0.000000 2.846434 -4.575000
v 0.000000 2.861858 -4.366000
v 1.420000 2.890000 -4.300000
v 1.420000 2.915584 -4.360000
v 1.420000 2.929605 -4.550000
v 1.420000 2.922939 -4.850000
v 1.420000 2.894000 -5.300000
v 1.420000 2.886000 -5.300000
v 1.420000 2.857061 -4.850000
v 1.420000 2.850395 -4.550000
v 1.420000 2.864416 -4.360000
vn 0.8772 0.2314 0.4208
vn 0.9950 0.0561 0.0826
vn 0.9996 0.0091 -0.0250
vn 0.9973 -0.0055 -0.0733
vn 0.0000 -0.0995 -0.9950
vn -0.9973 -0.0055 -0.0733
vn -0.9996 0.0091 -0.0250
vn -0.9950 0.0561 0.0826
vn -0.8772 0.2314 0.4208
vn 0.8844 0.3038 0.3544
vn 0.9799 0.1876 0.0680
vn 0.9832 0.1815 -0.0205
vn 0.9875 0.1460 -0.0591
vn 0.0000 0.8376 -0.5463
vn -0.9875 0.1460 -0.0591
vn -0.9832 0.1815 -0.0205
vn -0.9799 0.1876 0.0680
vn -0.8844 0.3038 0.3544
vn 0.0000 -1.0000 0.0000
vn 0.0000 1.0000 0.0000
vn 0.0000 0.9199 0.3922
vn -0.0015 0.9973 0.0736
vn -0.0032 0.9997 -0.0222
vn -0.0048 0.9979 -0.0642
vn -0.0702 0.0000 -0.9975
vn -0.0048 -0.9979 -0.0642
vn -0.0032 -0.9997 -0.0222
vn -0.0015 -0.9973 0.0736
vn -0.0000 -0.9199 0.3922
vn 0.0015 0.9973 0.0736
vn 0.0032 0.9997 -0.0222
vn 0.0048 0.9979 -0.0642
vn 0.0702 0.0000 -0.9975
vn 0.0048 -0.9979 -0.0642
vn 0.0032 -0.9997 -0.0222
vn 0.0015 -0.9973 0.0736
vn -1.0000 -0.0000 0.0000
vn 1.0000 -0.0000 0.0000
vt 0.233600 0.445415
vt 0.227608 0.445415
vt 0.176649 0.542537
vt 0.180011 0.542537
vt 0.208632 0.445415
vt 0.166005 0.542537
vt 0.178671 0.445415
vt 0.149197 0.542537
vt 0.133729 0.445415
vt 0.123986 0.542537
vt 0.299025 0.308021
vt 0.298227 0.308021
vt 0.298402 0.405285
vt 0.298850 0.405285
vt 0.487270 0.303698
vt 0.532168 0.303698
vt 0.502723 0.400016
vt 0.477536 0.400016
vt 0.562101 0.303698
vt 0.519514 0.400016
vt 0.581058 0.303698
vt 0.530149 0.400016
vt 0.172055 0.549821
vt 0.174408 0.549821
vt 0.164604 0.549821
vt 0.152839 0.549821
vt 0.135191 0.549821
vt 0.186489 0.581017
vt 0.186937 0.581017
vt 0.186870 0.592222
vt 0.186557 0.592222
vt 0.525559 0.407240
vt 0.518115 0.407240
vt 0.533507 0.400016
vt 0.527910 0.407240
vt 0.810414 0.684639
vt 0.808840 0.665664
vt 0.809589 0.635702
vt 0.812888 0.590761
vt 0.813686 0.590761
vt 0.816985 0.635702
vt 0.817733 0.665664
vt 0.816159 0.684639
vt 0.813287 0.690631
vt 0.186713 0.631440
vt 0.186037 0.629087
vt 0.185666 0.621635
vt 0.185842 0.609870
vt 0.187585 0.609870
vt 0.187761 0.621635
vt 0.187390 0.629087
vt 0.704106 0.303698
vt 0.698126 0.303698
vt 0.647275 0.400016
vt 0.650629 0.400016
vt 0.679191 0.303698
vt 0.636653 0.400016
vt 0.649293 0.303698
vt 0.619881 0.400016
vt 0.604445 0.303698
vt 0.594722 0.400016
vt 0.172476 0.308021
vt 0.171678 0.308021
vt 0.171853 0.405285
vt 0.172301 0.405285
vt 0.623514 0.407240
vt 0.635255 0.407240
vt 0.605904 0.407240
vt 0.313063 0.581017
vt 0.313511 0.581017
vt 0.313443 0.592222
vt 0.313130 0.592222
vt 0.683841 0.684639
vt 0.682267 0.665664
vt 0.683015 0.635702
vt 0.686314 0.590761
vt 0.687112 0.590761
vt 0.690411 0.635702
vt 0.691160 0.665664
vt 0.689586 0.684639
vt 0.686713 0.690631
vt 0.313287 0.631440
vt 0.312610 0.629087
vt 0.312239 0.621635
vt 0.312415 0.609870
vt 0.314158 0.609870
vt 0.314334 0.621635
vt 0.313963 0.629087
vt 0.250000 0.632170
vt 0.250000 0.628955
vt 0.319129 0.629247
vt 0.319129 0.632170
vt 0.250000 0.618773
vt 0.319129 0.619991
vt 0.250000 0.602696
vt 0.319129 0.605376
vt 0.250000 0.578581
vt 0.319129 0.583453
vt 0.235352 0.327202
vt 0.235352 0.326774
vt 0.166236 0.326793
vt 0.166236 0.327182
vt 0.750000 0.578581
vt 0.750000 0.602696
vt 0.680871 0.605376
vt 0.680871 0.583453
vt 0.076172 0.245110
vt 0.076172 0.261098
vt 0.006836 0.262309
vt 0.006836 0.247774
vt 0.076172 0.271224
vt 0.006836 0.271515
vt 0.076172 0.274422
vt 0.006836 0.274422
vt 0.180871 0.632170
vt 0.180871 0.629247
vt 0.180871 0.619991
vt 0.180871 0.605376
vt 0.180871 0.583453
vt 0.304467 0.327182
vt 0.304467 0.326793
vt 0.819129 0.583453
vt 0.819129 0.605376
vt 0.145508 0.247774
vt 0.145508 0.262309
vt 0.145508 0.271515
vt 0.145508 0.274422
vt 0.175139 0.464354
vt 0.172216 0.465596
vt 0.162960 0.466277
vt 0.148344 0.465953
vt 0.126422 0.464548
vt 0.126422 0.464160
vt 0.148344 0.462754
vt 0.162960 0.462431
vt 0.172216 0.463111
usemtl material
s 0
f 631/623/445 632/624/445 641/625/445 640/626/445
f 632/624/446 633/627/446 642/628/446 641/625/446
f 633/627/447 634/629/447 643/630/447 642/628/447
f 634/629/448 635/631/448 644/632/448 643/630/448
f 635/633/449 636/634/449 645/635/449 644/636/449
f 636/637/450 637/638/450 646/639/450 645/640/450
f 637/638/451 638/641/451 647/642/451 646/639/451
f 638/641/452 639/643/452 648/644/452 647/642/452
f 639/624/453 631/623/453 640/626/453 648/625/453
f 640/626/454 641/625/454 650/645/454 649/646/454
f 641/625/455 642/628/455 651/647/455 650/645/455
f 642/628/456 643/630/456 652/648/456 651/647/456
f 643/630/457 644/632/457 653/649/457 652/648/457
f 644/650/458 645/651/458 654/652/458 653/653/458
f 645/632/459 646/630/459 655/648/459 654/649/459
f 646/630/460 647/628/460 656/647/460 655/648/460
f 647/642/461 648/644/461 657/654/461 656/655/461
f 648/644/462 640/656/462 649/657/462 657/654/462
f 639/658/463 638/659/463 637/660/463 636/661/463 635/662/463 634/663/463 633/664/463 632/665/463 631/666/463
f 649/667/464 650/668/464 651/669/464 652/670/464 653/653/464 654/652/464 655/671/464 656/672/464 657/673/464
f 658/674/445 659/675/445 668/676/445 667/677/445
f 659/675/446 660/678/446 669/679/446 668/676/446
f 660/678/447 661/680/447 670/681/447 669/679/447
f 661/680/448 662/682/448 671/683/448 670/681/448
f 662/684/449 663/685/449 672/686/449 671/687/449
f 663/631/450 664/629/450 673/630/450 672/632/450
f 664/629/451 665/627/451 674/628/451 673/630/451
f 665/627/452 666/624/452 675/625/452 674/628/452
f 666/624/453 658/623/453 667/626/453 675/625/453
f 667/626/454 668/625/454 677/645/454 676/646/454
f 668/625/455 669/628/455 678/647/455 677/645/455
f 669/679/456 670/681/456 679/688/456 678/689/456
f 670/681/457 671/683/457 680/690/457 679/688/457
f 671/691/458 672/692/458 681/693/458 680/694/458
f 672/632/459 673/630/459 682/648/459 681/649/459
f 673/630/460 674/628/460 683/647/460 682/648/460
f 674/628/461 675/625/461 684/645/461 683/647/461
f 675/625/462 667/626/462 676/646/462 684/645/462
f 666/695/463 665/696/463 664/697/463 663/698/463 662/699/463 661/700/463 660/701/463 659/702/463 658/703/463
f 676/704/464 677/705/464 678/706/464 679/707/464 680/694/464 681/693/464 682/708/464 683/709/464 684/710/464
f 694/711/465 695/712/465 686/713/465 685/714/465
f 695/712/466 696/715/466 687/716/466 686/713/466
f 696/715/467 697/717/467 688/718/467 687/716/467
f 697/717/468 698/719/468 689/720/468 688/718/468
f 698/721/469 699/722/469 690/723/469 689/724/469
f 699/725/470 700/726/470 691/727/470 690/728/470
f 700/729/471 701/730/471 692/731/471 691/732/471
f 701/730/472 702/733/472 693/734/472 692/731/472
f 702/733/473 694/735/473 685/736/473 693/734/473
f 703/737/465 704/738/465 695/712/465 694/711/465
f 704/738/474 705/739/474 696/715/474 695/712/474
f 705/739/475 706/740/475 697/717/475 696/715/475
f 706/740/476 707/741/476 698/719/476 697/717/476
f 707/742/477 708/743/477 699/722/477 698/721/477
f 708/744/478 709/745/478 700/726/478 699/725/478
f 709/746/479 710/747/479 701/730/479 700/729/479
f 710/747/480 711/748/480 702/733/480 701/730/480
f 711/748/473 703/749/473 694/735/473 702/733/473
f 685/750/481 686/751/481 687/752/481 688/753/481 689/754/481 690/755/481 691/756/481 692/757/481 693/758/481
f 711/758/482 710/757/482 709/756/482 708/755/482 707/754/482 706/753/482 705/752/482 704/751/482 703/750/482
o $gear_l
v 2.495000 2.509752 0.172670
v 2.540000 2.500000 0.250000
v 2.495000 2.490248 0.327330
v 2.405000 2.490248 0.327330
v 2.360000 2.500000 0.250000
v 2.405000 2.509752 0.172670
v 2.495000 0.527252 -0.077330
v 2.540000 0.517500 0.000000
v 2.495000 0.507748 0.077330
v 2.405000 0.507748 0.077330
v 2.360000 0.517500 0.000000
v 2.405000 0.527252 -0.077330
v 2.378000 0.486000 -0.062354
v 2.378000 0.522000 0.000000
v 2.378000 0.486000 0.062354
v 2.378000 0.414000 0.062354
v 2.378000 0.378000 0.000000
v 2.378000 0.414000 -0.062354
v 2.522000 0.486000 -0.062354
v 2.522000 0.522000 0.000000
v 2.522000 0.486000 0.062354
v 2.522000 0.414000 0.062354
v 2.522000 0.378000 0.000000
v 2.522000 0.414000 -0.062354
v 2.330000 0.589058 -0.427975
v 2.330000 0.814058 -0.264503
v 2.330000 0.900000 0.000000
v 2.330000 0.814058 0.264503
v 2.330000 0.589058 0.427975
v 2.330000 0.310942 0.427975
v 2.330000 0.085942 0.264503
v 2.330000 0.000000 0.000000
v 2.330000 0.085942 -0.264503
v 2.330000 0.310942 -0.427975
v 2.570000 0.589058 -0.427975
v 2.570000 0.814058 -0.264503
v 2.570000 0.900000 0.000000
v 2.570000 0.814058 0.264503
v 2.570000 0.589058 0.427975
v 2.570000 0.310942 0.427975
v 2.570000 0.085942 0.264503
v 2.570000 0.000000 0.000000
v 2.570000 0.085942 -0.264503
v 2.570000 0.310942 -0.427975
vn 0.8660 0.0626 -0.4961
vn 0.8660 -0.0626 0.4961
vn 0.0000 -0.1251 0.9921
vn -0.8660 -0.0626 0.4961
vn -0.8660 0.0626 -0.4961
vn 0.0000 0.1251 -0.9921
vn 0.0000 0.9921 0.1251
vn 0.0000 -0.9921 -0.1251
vn 0.0000 0.8660 -0.5000
vn 0.0000 0.8660 0.5000
vn 0.0000 0.0000 1.0000
vn 0.0000 -0.8660 0.5000
vn 0.0000 -0.8660 -0.5000
vn 0.0000 0.0000 -1.0000
vn -1.0000 0.0000 0.0000
vn 1.0000 0.0000 0.0000
vn 0.0000 0.5878 -0.8090
vn 0.0000 0.9511 -0.3090
vn 0.0000 0.9511 0.3090
vn 0.0000 0.5878 0.8090
vn 0.0000 -0.5878 0.8090
vn 0.0000 -0.9511 0.3090
vn 0.0000 -0.9511 -0.3090
vn 0.0000 -0.5878 -0.8090
vt 0.439453 0.267578
vt 0.423828 0.267578
usemtl material
s 0
f 712/759/483 713/759/483 719/759/483 718/759/483
f 713/759/484 714/759/484 720/759/484 719/759/484
f 714/759/485 715/759/485 721/759/485 720/759/485
f 715/759/486 716/759/486 722/759/486 721/759/486
f 716/759/487 717/759/487 723/759/487 722/759/487
f 717/759/488 712/759/488 718/759/488 723/759/488
f 717/759/489 716/759/489 715/759/489 714/759/489 713/759/489 712/759/489
f 718/759/490 719/759/490 720/759/490 721/759/490 722/759/490 723/759/490
f 724/759/491 725/759/491 731/759/491 730/759/491
f 725/759/492 726/759/492 732/759/492 731/759/492
f 726/759/493 727/759/493 733/759/493 732/759/493
f 727/759/494 728/759/494 734/759/494 733/759/494
f 728/759/495 729/759/495 735/759/495 734/759/495
f 729/759/496 724/759/496 730/759/496 735/759/496
f 729/759/497 728/759/497 727/759/497 726/759/497 725/759/497 724/759/497
f 730/759/498 731/759/498 732/759/498 733/759/498 734/759/498 735/759/498
f 736/760/499 737/760/499 747/760/499 746/760/499
f 737/760/500 738/760/500 748/760/500 747/760/500
f 738/760/501 739/760/501 749/760/501 748/760/501
f 739/760/502 740/760/502 750/760/502 749/760/502
f 740/760/493 741/760/493 751/760/493 750/760/493
f 741/760/503 742/760/503 752/760/503 751/760/503
f 742/760/504 743/760/504 753/760/504 752/760/504
f 743/760/505 744/760/505 754/760/505 753/760/505
f 744/760/506 745/760/506 755/760/506 754/760/506
f 745/760/496 736/760/496 746/760/496 755/760/496
f 745/760/497 744/760/497 743/760/497 742/760/497 741/760/497 740/760/497 739/760/497 738/760/497 737/760/497 736/760/497
f 746/760/498 747/760/498 748/760/498 749/760/498 750/760/498 751/760/498 752/760/498 753/760/498 754/760/498 755/760/498
o $gear_r
v -2.405000 2.509752 0.172670
v -2.360000 2.500000 0.250000
v -2.405000 2.490248 0.327330
v -2.495000 2.490248 0.327330
v -2.540000 2.500000 0.250000
v -2.495000 2.509752 0.172670
v -2.405000 0.527252 -0.077330
v -2.360000 0.517500 0.000000
v -2.405000 0.507748 0.077330
v -2.495000 0.507748 0.077330
v -2.540000 0.517500 0.000000
v -2.495000 0.527252 -0.077330
v -2.522000 0.486000 -0.062354
v -2.522000 0.522000 0.000000
v -2.522000 0.486000 0.062354
v -2.522000 0.414000 0.062354
v -2.522000 0.378000 0.000000
v -2.522000 0.414000 -0.062354
v -2.378000 0.486000 -0.062354
v -2.378000 0.522000 0.000000
v -2.378000 0.486000 0.062354
v -2.378000 0.414000 0.062354
v -2.378000 0.378000 0.000000
v -2.378000 0.414000 -0.062354
v -2.570000 0.589058 -0.427975
v -2.570000 0.814058 -0.264503
v -2.570000 0.900000 0.000000
v -2.570000 0.814058 0.264503
v -2.570000 0.589058 0.427975
v -2.570000 0.310942 0.427975
v -2.570000 0.085942 0.264503
v -2.570000 0.000000 0.000000
v -2.570000 0.085942 -0.264503
v -2.570000 0.310942 -0.427975
v -2.330000 0.589058 -0.427975
v -2.330000 0.814058 -0.264503
v -2.330000 0.900000 0.000000
v -2.330000 0.814058 0.264503
v -2.330000 0.589058 0.427975
v -2.330000 0.310942 0.427975
v -2.330000 0.085942 0.264503
v -2.330000 0.000000 0.000000
v -2.330000 0.085942 -0.264503
v -2.330000 0.310942 -0.427975
vn 0.8660 0.0626 -0.4961
vn 0.8660 -0.0626 0.4961
vn 0.0000 -0.1251 0.9921
vn -0.8660 -0.0626 0.4961
vn -0.8660 0.0626 -0.4961
vn 0.0000 0.1251 -0.9921
vn 0.0000 0.9921 0.1251
vn 0.0000 -0.9921 -0.1251
vn 0.0000 0.8660 -0.5000
vn 0.0000 0.8660 0.5000
vn 0.0000 0.0000 1.0000
vn 0.0000 -0.8660 0.5000
vn 0.0000 -0.8660 -0.5000
vn 0.0000 0.0000 -1.0000
vn -1.0000 0.0000 0.0000
vn 1.0000 0.0000 0.0000
vn 0.0000 0.5878 -0.8090
vn 0.0000 0.9511 -0.3090
vn 0.0000 0.9511 0.3090
vn 0.0000 0.5878 0.8090
vn 0.0000 -0.5878 0.8090
vn 0.0000 -0.9511 0.3090
vn 0.0000 -0.9511 -0.3090
vn 0.0000 -0.5878 -0.8090
vt 0.439453 0.267578
vt 0.423828 0.267578
usemtl material
s 0
f 756/761/507 757/761/507 763/761/507 762/761/507
f 757/761/508 758/761/508 764/761/508 763/761/508
f 758/761/509 759/761/509 765/761/509 764/761/509
f 759/761/510 760/761/510 766/761/510 765/761/510
f 760/761/511 761/761/511 767/761/511 766/761/511
f 761/761/512 756/761/512 762/761/512 767/761/512
f 761/761/513 760/761/513 759/761/513 758/761/513 757/761/513 756/761/513
f 762/761/514 763/761/514 764/761/514 765/761/514 766/761/514 767/761/514
f 768/761/515 769/761/515 775/761/515 774/761/515
f 769/761/516 770/761/516 776/761/516 775/761/516
f 770/761/517 771/761/517 777/761/517 776/761/517
f 771/761/518 772/761/518 778/761/518 777/761/518
f 772/761/519 773/761/519 779/761/519 778/761/519
f 773/761/520 768/761/520 774/761/520 779/761/520
f 773/761/521 772/761/521 771/761/521 770/761/521 769/761/521 768/761/521
f 774/761/522 775/761/522 776/761/522 777/761/522 778/761/522 779/761/522
f 780/762/523 781/762/523 791/762/523 790/762/523
f 781/762/524 782/762/524 792/762/524 791/762/524
f 782/762/525 783/762/525 793/762/525 792/762/525
f 783/762/526 784/762/526 794/762/526 793/762/526
f 784/762/517 785/762/517 795/762/517 794/762/517
f 785/762/527 786/762/527 796/762/527 795/762/527
f 786/762/528 787/762/528 797/762/528 796/762/528
f 787/762/529 788/762/529 798/762/529 797/762/529
f 788/762/530 789/762/530 799/762/530 798/762/530
f 789/762/520 780/762/520 790/762/520 799/762/520
f 789/762/521 788/762/521 787/762/521 786/762/521 785/762/521 784/762/521 783/762/521 782/762/521 781/762/521 780/762/521
f 790/762/522 791/762/522 792/762/522 793/762/522 794/762/522 795/762/522 796/762/522 797/762/522 798/762/522 799/762/522
o $gear_t
v 0.025000 2.565649 -3.590375
v 0.050000 2.550000 -3.550000
v 0.025000 2.534351 -3.509625
v -0.025000 2.534351 -3.509625
v -0.050000 2.550000 -3.550000
v -0.025000 2.565649 -3.590375
v 0.025000 2.049649 -3.790375
v 0.050000 2.034000 -3.750000
v 0.025000 2.018351 -3.709625
v -0.025000 2.018351 -3.709625
v -0.050000 2.034000 -3.750000
v -0.025000 2.049649 -3.790375
v -0.030000 2.030000 -3.784641
v -0.030000 2.050000 -3.750000
v -0.030000 2.030000 -3.715359
v -0.030000 1.990000 -3.715359
v -0.030000 1.970000 -3.750000
v -0.030000 1.990000 -3.784641
v 0.030000 2.030000 -3.784641
v 0.030000 2.050000 -3.750000
v 0.030000 2.030000 -3.715359
v 0.030000 1.990000 -3.715359
v 0.030000 1.970000 -3.750000
v 0.030000 1.990000 -3.784641
v -0.050000 2.059443 -3.902169
v -0.050000 2.139443 -3.844046
v -0.050000 2.170000 -3.750000
v -0.050000 2.139443 -3.655954
v -0.050000 2.059443 -3.597831
v -0.050000 1.960557 -3.597831
v -0.050000 1.880557 -3.655954
v -0.050000 1.850000 -3.750000
v -0.050000 1.880557 -3.844046
v -0.050000 1.960557 -3.902169
v 0.050000 2.059443 -3.902169
v 0.050000 2.139443 -3.844046
v 0.050000 2.170000 -3.750000
v 0.050000 2.139443 -3.655954
v 0.050000 2.059443 -3.597831
v 0.050000 1.960557 -3.597831
v 0.050000 1.880557 -3.655954
v 0.050000 1.850000 -3.750000
v 0.050000 1.880557 -3.844046
v 0.050000 1.960557 -3.902169
vn 0.8660 0.1807 -0.4662
vn 0.8660 -0.1807 0.4662
vn 0.0000 -0.3614 0.9324
vn -0.8660 -0.1807 0.4662
vn -0.8660 0.1807 -0.4662
vn 0.0000 0.3614 -0.9324
vn 0.0000 0.9324 0.3614
vn 0.0000 -0.9324 -0.3614
vn 0.0000 0.8660 -0.5000
vn 0.0000 0.8660 0.5000
vn 0.0000 0.0000 1.0000
vn 0.0000 -0.8660 0.5000
vn 0.0000 -0.8660 -0.5000
vn 0.0000 0.0000 -1.0000
vn -1.0000 0.0000 0.0000
vn 1.0000 0.0000 0.0000
vn 0.0000 0.5878 -0.8090
vn 0.0000 0.9511 -0.3090
vn 0.0000 0.9511 0.3090
vn 0.0000 0.5878 0.8090
vn 0.0000 -0.5878 0.8090
vn 0.0000 -0.9511 0.3090
vn 0.0000 -0.9511 -0.3090
vn 0.0000 -0.5878 -0.8090
vt 0.439453 0.267578
vt 0.423828 0.267578
usemtl material
s 0
f 800/763/531 801/763/531 807/763/531 806/763/531
f 801/763/532 802/763/532 808/763/532 807/763/532
f 802/763/533 803/763/533 809/763/533 808/763/533
f 803/763/534 804/763/534 810/763/534 809/763/534
f 804/763/535 805/763/535 811/763/535 810/763/535
f 805/763/536 800/763/536 806/763/536 811/763/536
f 805/763/537 804/763/537 803/763/537 802/763/537 801/763/537 800/763/537
f 806/763/538 807/763/538 808/763/538 809/763/538 810/763/538 811/763/538
f 812/763/539 813/763/539 819/763/539 818/763/539
f 813/763/540 814/763/540 820/763/540 819/763/540
f 814/763/541 815/763/541 821/763/541 820/763/541
f 815/763/542 816/763/542 822/763/542 821/763/542
f 816/763/543 817/763/543 823/763/543 822/763/543
f 817/763/544 812/763/544 818/763/544 823/763/544
f 817/763/545 816/763/545 815/763/545 814/763/545 813/763/545 812/763/545
f 818/763/546 819/763/546 820/763/546 821/763/546 822/763/546 823/763/546
f 824/764/547 825/764/547 835/764/547 834/764/547
f 825/764/548 826/764/548 836/764/548 835/764/548
f 826/764/549 827/764/549 837/764/549 836/764/549
f 827/764/550 828/764/550 838/764/550 837/764/550
f 828/764/541 829/764/541 839/764/541 838/764/541
f 829/764/551 830/764/551 840/764/551 839/764/551
f 830/764/552 831/764/552 841/764/552 840/764/552
f 831/764/553 832/764/553 842/764/553 841/764/553
f 832/764/554 833/764/554 843/764/554 842/764/554
f 833/764/544 824/764/544 834/764/544 843/764/544
f 833/764/545 832/764/545 831/764/545 830/764/545 829/764/545 828/764/545 827/764/545 826/764/545 825/764/545 824/764/545
f 834/764/546 835/764/546 836/764/546 837/764/546 838/764/546 839/764/546 840/764/546 841/764/546 842/764/546 843/764/546
